<svg width="861" height="405" viewBox="0 0 861 405" fill="none" xmlns="http://www.w3.org/2000/svg">
<path d="M745.87 296.057C808.969 236.046 840.413 166.657 816.102 141.071C791.791 115.485 720.931 143.391 657.833 203.401C594.734 263.411 563.29 332.801 587.601 358.387C611.912 383.973 682.772 356.067 745.87 296.057Z" fill="#00D9EE"/>
<path d="M761.962 179.458C761.962 179.458 587.698 94.6329 514.683 54.8656C441.668 15.0983 383.325 19.9626 329.758 24.0588C276.276 28.155 163.939 29.5203 163.939 29.5203C157.882 3.57767 125.981 -7.60148 125.128 7.07657C123.166 39.8462 107.898 84.819 107.898 84.819L62.3489 63.9967C62.3489 63.9967 49.4689 37.03 27.5473 21.4132C5.6258 5.71111 -1.19804 37.2007 8.18473 46.5878C2.98156 47.8679 -2.39217 55.719 1.44623 61.6073C26.012 99.1558 21.3206 139.691 26.6944 145.067C32.9211 151.297 214.691 258.993 227.23 261.041C239.768 263.089 260.666 256.86 260.666 256.86C260.666 256.86 275.252 275.634 297.259 271.452C319.181 267.271 477.92 187.907 477.92 187.907L633.503 299.699C744.049 281.095 761.962 179.458 761.962 179.458ZM761.962 179.458C761.962 179.458 587.698 94.6329 514.683 54.8656C441.668 15.0983 383.325 19.9626 329.758 24.0588M155.494 105.897V96.2543C155.494 96.2543 163.086 84.3923 165.133 63.9967L181.254 67.6662C181.254 67.5809 180.06 87.0378 155.494 105.897ZM257.254 105.897C257.254 105.897 228.253 106.58 203.943 117.845C203.943 117.845 219.723 103.423 218.7 75.5172L264.249 83.2829C264.249 83.1976 257.254 93.5234 257.254 105.897Z" fill="black"/>
<path d="M8.18359 46.502C8.18359 46.502 24.3902 39.675 37.8672 57.9372C51.4296 76.2848 60.7271 105.812 60.7271 105.812L94.6756 131.669" stroke="#00D9EE" stroke-width="1.1056" stroke-miterlimit="10" stroke-linecap="round" stroke-linejoin="round"/>
<path d="M205.137 120.917L230.214 174.594C230.214 174.594 255.633 180.738 275.252 187.138C294.955 193.539 307.75 198.488 307.75 198.488C307.75 198.488 342.04 175.02 345.793 172.802" stroke="#00D9EE" stroke-width="1.1056" stroke-miterlimit="10" stroke-linecap="round" stroke-linejoin="round"/>
<path d="M156.262 111.103C156.262 111.103 168.033 177.41 168.374 183.383C168.715 189.357 169.227 196.013 190.722 210.606C212.217 225.199 258.448 254.811 258.448 254.811" stroke="#00D9EE" stroke-width="1.1056" stroke-miterlimit="10" stroke-linecap="round" stroke-linejoin="round"/>
<path d="M107.898 84.8187C107.898 84.8187 96.6391 106.58 94.7626 113.407C92.886 120.234 93.0566 127.829 103.207 146.603C113.358 165.463 120.181 182.53 121.034 190.211C121.887 197.891 134.341 208.302 134.341 208.302" stroke="#00D9EE" stroke-width="1.1056" stroke-miterlimit="10" stroke-linecap="round" stroke-linejoin="round"/>
<path d="M181.254 72.6153C181.254 72.6153 196.266 74.2367 197.034 66.9831C197.717 59.644 199.081 40.6138 192.002 34.8109" stroke="#00D9EE" stroke-width="1.1056" stroke-miterlimit="10" stroke-linecap="round" stroke-linejoin="round"/>
<path d="M118.988 53.0734C118.988 53.0734 132.977 59.3883 133.318 51.452C133.745 43.4302 135.792 23.6319 130.93 13.9034" stroke="#00D9EE" stroke-width="1.1056" stroke-miterlimit="10" stroke-linecap="round" stroke-linejoin="round"/>
<path d="M14.3267 80.2959C14.3267 80.2959 19.4445 77.6505 18.5916 75.8584C17.7386 74.0663 12.706 63.9112 5.79688 55.7188" stroke="#00D9EE" stroke-width="1.1056" stroke-miterlimit="10" stroke-linecap="round" stroke-linejoin="round"/>
<path d="M164.109 30.544C164.109 30.544 167.607 43.0033 164.962 62.2042" stroke="#00D9EE" stroke-width="1.1056" stroke-miterlimit="10" stroke-linecap="round" stroke-linejoin="round"/>
<path d="M181.254 65.7883C181.254 65.7883 181.51 47.6968 183.216 40.0164C184.922 32.336 196.522 22.7782 208.805 40.8698C218.785 55.6332 219.212 71.7619 219.212 71.7619" stroke="#00D9EE" stroke-width="1.1056" stroke-miterlimit="10" stroke-linecap="round" stroke-linejoin="round"/>
</svg>
