<svg width="424" height="763" viewBox="0 0 424 763" fill="none" xmlns="http://www.w3.org/2000/svg">
<path d="M159.145 162.313V539.839" stroke="#00D9EE" stroke-width="2" stroke-linecap="round" stroke-linejoin="round"/>
<path d="M47.1445 384.417V761.943" stroke="#00D9EE" stroke-width="2" stroke-linecap="round" stroke-linejoin="round"/>
<path d="M85.25 83.293V460.643" stroke="#00D9EE" stroke-width="2" stroke-linecap="round" stroke-linejoin="round"/>
<path d="M228.145 182.322V559.848" stroke="#00D9EE" stroke-width="2" stroke-linecap="round" stroke-linejoin="round"/>
<path d="M391.137 167.836L295.393 127.773C287.153 124.325 276.151 127.123 270.832 134.027L208.989 214.197C203.665 221.097 206.033 229.489 214.273 232.937L310.018 273C318.258 276.448 329.25 273.646 334.574 266.746L396.417 186.576C401.741 179.676 399.382 171.288 391.142 167.836H391.137Z" fill="#00D9EE"/>
<path d="M400.849 197.979C401.026 197.627 401.18 197.27 401.322 196.918C401.33 196.892 401.339 196.865 401.348 196.838C401.525 196.379 401.675 195.921 401.79 195.462C401.79 195.457 401.79 195.448 401.794 195.444C401.843 195.244 401.87 195.048 401.909 194.852C401.953 194.633 402.006 194.42 402.037 194.201C402.037 194.197 402.037 194.188 402.037 194.183C402.09 193.8 402.121 193.417 402.135 193.039C402.135 193.025 402.135 193.016 402.135 193.003C402.135 192.914 402.13 192.829 402.13 192.74C402.13 192.482 402.13 192.223 402.117 191.965C402.117 191.921 402.104 191.881 402.104 191.836C402.095 191.707 402.073 191.578 402.059 191.448C402.037 191.275 402.029 191.101 401.998 190.932C401.976 190.794 401.949 190.656 401.918 190.513L399.037 176.633C399.099 176.94 399.139 177.252 399.174 177.564C399.188 177.693 399.21 177.822 399.219 177.952C399.241 178.25 399.249 178.553 399.245 178.856C399.245 178.945 399.254 179.03 399.249 179.119C399.236 179.515 399.205 179.916 399.148 180.321C399.117 180.54 399.064 180.753 399.02 180.972C398.98 181.177 398.949 181.377 398.9 181.582C398.786 182.041 398.635 182.5 398.459 182.958C398.313 183.341 398.149 183.724 397.959 184.103C397.937 184.148 397.906 184.192 397.884 184.241C397.707 184.589 397.513 184.936 397.301 185.279C397.261 185.346 397.213 185.413 397.173 185.48C396.934 185.849 396.687 186.214 396.404 186.575L334.561 266.746C334.261 267.133 333.938 267.503 333.602 267.868C333.541 267.935 333.479 268.006 333.417 268.073C333.09 268.416 332.745 268.75 332.392 269.066C332.326 269.129 332.255 269.187 332.184 269.245C331.884 269.503 331.57 269.752 331.256 269.997C331.146 270.082 331.035 270.171 330.921 270.256C330.518 270.55 330.103 270.835 329.675 271.098C329.175 271.41 328.663 271.699 328.133 271.966C327.647 272.216 327.147 272.447 326.639 272.661C326.595 272.679 326.551 272.692 326.502 272.715C326.052 272.902 325.596 273.071 325.137 273.231C324.991 273.28 324.837 273.325 324.691 273.374C324.333 273.49 323.975 273.597 323.608 273.69C323.436 273.735 323.268 273.779 323.096 273.819C322.738 273.904 322.376 273.984 322.013 274.051C321.854 274.082 321.695 274.113 321.536 274.14C321.054 274.22 320.573 274.292 320.091 274.345C320.056 274.345 320.016 274.354 319.981 274.358C319.459 274.412 318.934 274.443 318.408 274.461C318.218 274.465 318.028 274.461 317.838 274.461C317.493 274.461 317.153 274.461 316.808 274.447C316.543 274.439 316.278 274.416 316.013 274.394C315.735 274.372 315.452 274.349 315.178 274.318C314.679 274.26 314.188 274.18 313.698 274.087C313.561 274.06 313.42 274.042 313.283 274.015C312.912 273.935 312.549 273.833 312.183 273.73C311.993 273.677 311.803 273.637 311.617 273.579C311.069 273.41 310.53 273.214 310.004 272.995L214.26 232.932C212.055 232.01 210.27 230.732 208.94 229.226C207.61 227.716 206.735 225.979 206.355 224.135L209.236 238.015C210.001 241.708 212.731 244.968 217.141 246.817L312.885 286.88C313.411 287.098 313.95 287.294 314.498 287.463C314.679 287.521 314.869 287.561 315.054 287.61C315.421 287.713 315.788 287.815 316.163 287.895C316.185 287.9 316.208 287.909 316.234 287.913C316.345 287.935 316.464 287.944 316.574 287.967C317.065 288.06 317.56 288.14 318.054 288.198C318.13 288.207 318.2 288.225 318.275 288.234C318.479 288.256 318.686 288.261 318.889 288.274C319.155 288.296 319.42 288.318 319.689 288.327C319.773 288.327 319.853 288.341 319.932 288.345C320.193 288.354 320.454 288.345 320.714 288.341C320.904 288.341 321.094 288.341 321.284 288.341C321.333 288.341 321.381 288.341 321.434 288.341C321.903 288.323 322.371 288.287 322.839 288.243C322.844 288.243 322.853 288.243 322.857 288.243C322.892 288.243 322.932 288.234 322.968 288.229C323.378 288.185 323.785 288.136 324.191 288.069C324.267 288.056 324.337 288.038 324.412 288.029C324.571 288.002 324.73 287.967 324.89 287.94C325.097 287.9 325.305 287.869 325.512 287.82C325.667 287.784 325.817 287.744 325.968 287.704C326.14 287.664 326.312 287.619 326.485 287.575C326.599 287.543 326.714 287.521 326.829 287.49C327.077 287.419 327.32 287.338 327.567 287.258C327.717 287.209 327.867 287.169 328.013 287.116C328.062 287.098 328.11 287.085 328.159 287.071C328.57 286.929 328.972 286.768 329.374 286.603C329.423 286.586 329.467 286.568 329.515 286.55C329.52 286.55 329.524 286.55 329.529 286.546C330.019 286.336 330.505 286.114 330.978 285.873C330.987 285.869 331 285.86 331.009 285.855C331.535 285.583 332.052 285.294 332.551 284.987C332.564 284.978 332.573 284.973 332.586 284.969C333.002 284.71 333.404 284.434 333.797 284.145C333.912 284.06 334.022 283.971 334.133 283.886C334.314 283.748 334.499 283.615 334.676 283.472C334.809 283.365 334.932 283.249 335.065 283.138C335.136 283.08 335.206 283.018 335.273 282.96C335.63 282.644 335.971 282.309 336.298 281.966C336.359 281.9 336.421 281.833 336.488 281.762C336.823 281.401 337.146 281.027 337.446 280.639L399.289 200.469C399.568 200.108 399.819 199.738 400.058 199.373C400.102 199.306 400.146 199.239 400.186 199.172C400.221 199.119 400.257 199.065 400.288 199.012C400.464 198.722 400.619 198.428 400.769 198.134C400.791 198.09 400.822 198.045 400.844 197.996L400.849 197.979Z" fill="black"/>
<g style="mix-blend-mode:multiply">
<path d="M372.458 180.856L360.087 175.76C345.012 169.546 328.642 172.303 317.53 185.172L307.951 196.259L295.818 191.261C294.232 190.607 292.103 191.056 291.064 192.273L281.207 203.769C280.178 204.972 280.624 206.473 282.201 207.124L294.347 212.13L263.512 247.699L283.907 256.104L314.742 220.536L330.886 227.191C332.34 227.792 334.275 227.467 335.397 226.438L347.093 215.698C348.409 214.487 348.065 212.794 346.35 212.09L328.333 204.665L336.626 195.065C340.386 190.714 344.543 188.402 352.735 191.774L360.325 194.901C361.912 195.555 364.041 195.106 365.08 193.898L373.439 184.223C374.482 183.016 374.035 181.515 372.454 180.86L372.458 180.856Z" fill="#0056BB"/>
</g>
<path d="M373.562 179.644L373.951 182.801C373.951 182.801 373.951 182.836 373.956 182.854L373.567 179.698C373.567 179.698 373.567 179.662 373.562 179.644Z" fill="#827B99"/>
<path d="M373.566 179.697L373.955 182.854C373.964 182.948 373.964 183.041 373.955 183.135L373.566 179.978C373.571 179.884 373.571 179.791 373.566 179.697Z" fill="#877F9E"/>
<path d="M373.568 179.978L373.956 183.135C373.952 183.237 373.934 183.335 373.912 183.438L373.523 180.281C373.546 180.179 373.563 180.076 373.568 179.978Z" fill="#8B83A3"/>
<path d="M373.522 180.281L373.911 183.438C373.884 183.558 373.84 183.678 373.787 183.798L373.398 180.642C373.451 180.521 373.491 180.401 373.522 180.281Z" fill="#8F87A8"/>
<path d="M373.397 180.641L373.786 183.798C373.693 184.003 373.565 184.208 373.393 184.404L373.004 181.247C373.172 181.051 373.304 180.846 373.397 180.641Z" fill="#948BAD"/>
<path d="M373.949 182.802L373.561 179.644C373.627 180.174 373.45 180.74 373.008 181.248L364.649 190.923C364.534 191.052 364.406 191.172 364.269 191.284C364.074 191.444 363.862 191.586 363.633 191.707C363.469 191.791 363.297 191.872 363.12 191.938C363.098 191.947 363.071 191.952 363.049 191.961C362.881 192.019 362.709 192.068 362.537 192.108C362.506 192.117 362.471 192.125 362.44 192.13C362.254 192.166 362.064 192.192 361.874 192.21C361.834 192.21 361.799 192.214 361.759 192.219C361.56 192.232 361.362 192.232 361.167 192.219C361.149 192.219 361.136 192.215 361.119 192.215C360.946 192.201 360.778 192.174 360.61 192.139C360.363 192.09 360.124 192.023 359.895 191.929L352.304 188.802C351.836 188.606 351.381 188.437 350.934 188.281C350.797 188.232 350.66 188.192 350.528 188.143C350.223 188.041 349.923 187.947 349.631 187.863C349.481 187.818 349.335 187.778 349.189 187.742C348.906 187.667 348.632 187.6 348.363 187.542C348.235 187.515 348.102 187.484 347.974 187.457C347.921 187.448 347.864 187.43 347.811 187.422C347.718 187.404 347.634 187.404 347.541 187.386C347.161 187.324 346.79 187.275 346.432 187.243C346.353 187.234 346.269 187.217 346.189 187.212C346.105 187.208 346.026 187.212 345.942 187.208C345.756 187.199 345.571 187.194 345.389 187.194C345.288 187.194 345.177 187.185 345.076 187.185C344.983 187.185 344.89 187.199 344.797 187.203C344.674 187.208 344.55 187.217 344.426 187.226C344.347 187.23 344.263 187.234 344.188 187.239C344.042 187.257 343.9 187.279 343.755 187.301C343.666 187.315 343.578 187.324 343.494 187.341C343.463 187.346 343.428 187.35 343.392 187.355C343.127 187.404 342.871 187.466 342.615 187.533C342.61 187.533 342.606 187.533 342.602 187.533C342.544 187.551 342.491 187.569 342.434 187.586C342.213 187.653 341.992 187.72 341.775 187.8C341.758 187.805 341.74 187.818 341.722 187.822C341.386 187.952 341.06 188.094 340.746 188.255C340.737 188.259 340.728 188.263 340.715 188.268C340.68 188.286 340.649 188.308 340.618 188.326C340.286 188.5 339.964 188.696 339.65 188.909C339.557 188.972 339.469 189.03 339.381 189.096C339.036 189.337 338.7 189.595 338.373 189.876C338.369 189.88 338.364 189.885 338.356 189.889C338.055 190.148 337.763 190.424 337.472 190.713C337.383 190.802 337.295 190.892 337.211 190.981C336.99 191.203 336.774 191.439 336.562 191.676C336.513 191.729 336.46 191.778 336.411 191.836C336.341 191.916 336.27 191.996 336.199 192.076L327.906 201.676L328.295 204.834L336.588 195.235C336.707 195.097 336.827 194.967 336.95 194.834C337.167 194.593 337.383 194.362 337.6 194.139C337.688 194.05 337.777 193.961 337.861 193.872C338.152 193.582 338.444 193.306 338.744 193.047C338.749 193.043 338.758 193.034 338.762 193.03C339.089 192.749 339.425 192.495 339.769 192.25C339.858 192.188 339.951 192.125 340.039 192.063C340.353 191.854 340.675 191.658 341.006 191.48C341.051 191.457 341.09 191.431 341.135 191.408C341.453 191.248 341.775 191.101 342.111 190.976C342.345 190.887 342.584 190.811 342.822 190.74C342.875 190.722 342.928 190.704 342.986 190.687C343.273 190.606 343.574 190.544 343.878 190.491C343.962 190.477 344.055 190.464 344.139 190.451C344.36 190.419 344.581 190.393 344.811 190.37C344.93 190.361 345.054 190.353 345.177 190.348C345.372 190.339 345.571 190.335 345.769 190.339C345.951 190.339 346.136 190.339 346.322 190.353C346.481 190.361 346.649 190.375 346.812 190.388C347.17 190.419 347.541 190.468 347.926 190.531C348.071 190.553 348.213 190.571 348.359 190.602C348.487 190.629 348.619 190.655 348.747 190.687C349.017 190.745 349.291 190.811 349.574 190.887C349.719 190.927 349.865 190.967 350.015 191.007C350.307 191.092 350.603 191.186 350.908 191.288C351.045 191.333 351.182 191.377 351.319 191.426C351.761 191.582 352.216 191.751 352.684 191.947L360.275 195.074C360.504 195.168 360.743 195.235 360.99 195.284C361.013 195.288 361.035 195.297 361.057 195.301C361.203 195.328 361.348 195.346 361.499 195.355C361.516 195.355 361.529 195.359 361.547 195.359C361.547 195.359 361.552 195.359 361.556 195.359C361.697 195.368 361.834 195.373 361.976 195.368C362.029 195.368 362.086 195.359 362.139 195.359C362.179 195.359 362.214 195.359 362.254 195.35C362.294 195.35 362.329 195.35 362.369 195.341C362.497 195.328 362.625 195.31 362.749 195.288C362.771 195.288 362.798 195.275 362.82 195.27C362.855 195.261 362.886 195.257 362.917 195.248C362.988 195.23 363.058 195.217 363.129 195.199C363.231 195.172 363.332 195.137 363.429 195.101C363.451 195.092 363.478 195.088 363.5 195.079C363.509 195.079 363.518 195.074 363.527 195.07C363.681 195.012 363.836 194.945 363.977 194.869C363.99 194.865 363.999 194.856 364.008 194.847C364.238 194.727 364.45 194.584 364.644 194.424C364.658 194.411 364.68 194.402 364.693 194.393C364.799 194.304 364.896 194.206 364.989 194.108C365.002 194.094 365.011 194.081 365.024 194.068L373.384 184.393C373.826 183.88 373.998 183.319 373.936 182.789L373.949 182.802Z" fill="black"/>
<path d="M293.91 209.159L281.764 204.152C281.079 203.872 280.61 203.431 280.381 202.923C280.306 202.754 280.253 202.576 280.23 202.397L280.619 205.556C280.708 206.277 281.242 206.937 282.152 207.315L294.298 212.322L293.91 209.164V209.159Z" fill="black"/>
<path d="M347.83 214.455C347.83 214.424 347.843 214.393 347.843 214.362C347.848 214.268 347.848 214.17 347.843 214.077C347.843 214.059 347.843 214.041 347.839 214.023L347.45 210.865C347.468 211.008 347.463 211.15 347.45 211.293C347.45 211.324 347.441 211.36 347.437 211.391C347.419 211.507 347.384 211.622 347.34 211.734C347.327 211.769 347.318 211.801 347.304 211.836C347.247 211.974 347.167 212.108 347.075 212.242C347.053 212.273 347.026 212.304 347.004 212.335C346.907 212.464 346.796 212.594 346.664 212.714L334.969 223.453C334.92 223.498 334.863 223.534 334.809 223.574C334.637 223.716 334.447 223.841 334.244 223.952C334.182 223.988 334.125 224.024 334.058 224.055C334.001 224.081 333.939 224.108 333.877 224.135C333.758 224.188 333.634 224.233 333.506 224.273C333.466 224.286 333.422 224.3 333.382 224.313C333.214 224.362 333.042 224.402 332.87 224.433C332.839 224.438 332.804 224.442 332.773 224.447C332.614 224.469 332.45 224.487 332.291 224.496C332.26 224.496 332.234 224.5 332.203 224.5C332.026 224.505 331.849 224.5 331.672 224.487C331.611 224.482 331.549 224.473 331.487 224.465C331.376 224.451 331.266 224.433 331.156 224.411C330.913 224.362 330.678 224.3 330.453 224.206L314.309 217.551L314.697 220.709L330.842 227.364C331.063 227.458 331.301 227.52 331.544 227.569C331.571 227.574 331.597 227.587 331.624 227.592C331.708 227.605 331.792 227.614 331.876 227.623C331.938 227.632 331.999 227.641 332.061 227.645C332.083 227.645 332.105 227.654 332.128 227.654C332.269 227.663 332.41 227.667 332.552 227.663C332.565 227.663 332.578 227.663 332.596 227.663C332.627 227.663 332.653 227.663 332.684 227.658C332.773 227.658 332.861 227.649 332.945 227.641C333.02 227.632 333.095 227.618 333.166 227.609C333.197 227.605 333.228 227.6 333.263 227.596C333.285 227.596 333.303 227.592 333.325 227.587C333.453 227.565 333.581 227.534 333.705 227.498C333.731 227.489 333.754 227.48 333.78 227.476C333.824 227.462 333.864 227.449 333.904 227.436C333.97 227.413 334.036 227.396 334.103 227.373C334.164 227.351 334.217 227.32 334.275 227.298C334.337 227.271 334.394 227.249 334.452 227.217C334.483 227.204 334.518 227.191 334.549 227.177C334.58 227.159 334.606 227.137 334.637 227.119C334.84 227.008 335.03 226.883 335.203 226.741C335.229 226.718 335.26 226.705 335.287 226.687C335.313 226.665 335.335 226.643 335.362 226.62L347.057 215.881C347.132 215.81 347.203 215.738 347.269 215.667C347.318 215.614 347.357 215.556 347.397 215.498C347.419 215.467 347.446 215.435 347.468 215.404C347.552 215.28 347.627 215.155 347.684 215.03C347.689 215.017 347.693 215.008 347.698 214.994C347.711 214.959 347.72 214.928 347.733 214.892C347.76 214.816 347.795 214.741 347.813 214.665C347.821 214.625 347.821 214.585 347.83 214.545C347.835 214.513 347.839 214.482 347.843 214.447L347.83 214.455Z" fill="black"/>
<path d="M314.304 217.565L283.469 253.133L283.858 256.291L314.693 220.723L314.304 217.565Z" fill="black"/>
<path d="M283.469 253.133L263.074 244.728L263.467 247.886L283.858 256.291L283.469 253.133Z" fill="black"/>
<path d="M372.017 177.885L359.645 172.789C344.57 166.575 328.2 169.332 317.088 182.201L307.51 193.288L295.377 188.29C293.791 187.636 291.661 188.085 290.623 189.301L280.766 200.798C279.736 202.001 280.182 203.502 281.76 204.152L293.906 209.159L263.07 244.728L283.465 253.133L314.3 217.565L330.445 224.22C331.899 224.821 333.834 224.496 334.956 223.467L346.651 212.727C347.968 211.516 347.623 209.823 345.909 209.119L327.891 201.694L336.184 192.094C339.944 187.742 344.102 185.431 352.293 188.803L359.884 191.93C361.47 192.584 363.6 192.134 364.638 190.927L372.998 181.252C374.04 180.045 373.594 178.544 372.012 177.889L372.017 177.885Z" fill="url(#paint0_linear_599_294)"/>
<path d="M372.017 177.885L359.645 172.789C344.57 166.575 328.2 169.332 317.088 182.201L307.51 193.288L295.377 188.29C293.791 187.636 291.661 188.085 290.623 189.301L280.766 200.798C279.736 202.001 280.182 203.502 281.76 204.152L293.906 209.159L263.07 244.728L283.465 253.133L314.3 217.565L330.445 224.22C331.899 224.821 333.834 224.496 334.956 223.467L346.651 212.727C347.968 211.516 347.623 209.823 345.909 209.119L327.891 201.694L336.184 192.094C339.944 187.742 344.102 185.431 352.293 188.803L359.884 191.93C361.47 192.584 363.6 192.134 364.638 190.927L372.998 181.252C374.04 180.045 373.594 178.544 372.012 177.889L372.017 177.885Z" fill="white"/>
<mask id="mask0_599_294" style="mask-type:luminance" maskUnits="userSpaceOnUse" x="15" y="240" width="107" height="107">
<path d="M121.223 330.427L113.548 338.196C108.48 343.323 101.146 346.289 91.903 346.289C65.7246 346.281 34.0366 322.423 21.2633 293.113C12.9922 274.137 14.6447 257.455 23.9319 248.052L31.6065 240.283C22.3192 249.687 20.6668 266.368 28.9379 285.344C41.7111 314.654 73.3992 338.512 99.5776 338.521C108.821 338.521 116.155 335.559 121.223 330.427Z" fill="white"/>
</mask>
<g mask="url(#mask0_599_294)">
<path d="M121.225 330.427L113.551 338.196C109.199 342.606 103.163 345.417 95.6875 346.116L103.362 338.347C110.838 337.648 116.873 334.837 121.225 330.427Z" fill="#858585"/>
<path d="M103.361 338.347L95.6863 346.116C94.4624 346.231 93.2032 346.289 91.9042 346.289C87.8659 346.289 83.695 345.719 79.4844 344.65L87.159 336.882C91.3696 337.951 95.5405 338.521 99.5788 338.521C100.878 338.521 102.137 338.463 103.361 338.347Z" fill="#8A8A8A"/>
<path d="M87.1601 336.877L79.4856 344.645C71.3338 342.574 63.023 338.632 55.207 333.3L62.8816 325.532C70.6932 330.859 79.004 334.806 87.1601 336.877Z" fill="#8F8F8F"/>
<path d="M62.8801 325.532L55.2055 333.3C49.3999 329.34 43.8638 324.614 38.8711 319.327L46.5457 311.558C51.5384 316.846 57.0701 321.572 62.8801 325.532Z" fill="#949494"/>
<path d="M46.5454 311.559L38.8708 319.327C32.2522 312.316 26.5835 304.316 22.4922 295.794L30.1668 288.026C34.2625 296.547 39.9268 304.547 46.5454 311.559Z" fill="#8F8F8F"/>
<path d="M30.1662 288.026L22.4916 295.794C22.063 294.903 21.6521 294.008 21.2633 293.108C19.0365 288.003 17.5299 283.063 16.6992 278.386L24.3738 270.618C25.2089 275.295 26.7155 280.235 28.9379 285.34C29.3311 286.239 29.742 287.135 30.1662 288.026Z" fill="#8A8A8A"/>
<path d="M24.3755 270.618L16.7009 278.386C14.4388 265.682 17.1472 254.92 23.9381 248.047L31.6127 240.279C24.8217 247.152 22.1133 257.914 24.3755 270.618Z" fill="#858585"/>
</g>
<path d="M103.966 355.515C104.916 355.35 105.839 355.149 106.745 354.922C106.899 354.886 107.05 354.851 107.204 354.811C108.066 354.588 108.91 354.334 109.731 354.053C109.886 354 110.041 353.942 110.2 353.889C111.026 353.595 111.835 353.278 112.617 352.931C112.701 352.895 112.78 352.851 112.864 352.815C113.62 352.472 114.357 352.098 115.073 351.706C115.162 351.657 115.25 351.612 115.338 351.563C116.063 351.154 116.761 350.713 117.441 350.254C117.57 350.165 117.702 350.08 117.83 349.987C118.493 349.523 119.134 349.038 119.748 348.526C119.849 348.441 119.951 348.347 120.053 348.263C120.689 347.719 121.307 347.158 121.895 346.566L129.57 338.797C128.982 339.39 128.363 339.951 127.727 340.494C127.626 340.583 127.524 340.672 127.422 340.757C126.804 341.269 126.163 341.755 125.5 342.218C125.372 342.307 125.244 342.396 125.116 342.481C124.436 342.94 123.737 343.381 123.013 343.791C122.925 343.84 122.836 343.884 122.748 343.933C122.032 344.33 121.299 344.699 120.539 345.047C120.459 345.082 120.38 345.122 120.296 345.162C119.514 345.51 118.701 345.826 117.874 346.125C117.72 346.178 117.565 346.236 117.41 346.289C116.589 346.57 115.745 346.824 114.879 347.051C114.729 347.091 114.574 347.127 114.424 347.163C113.518 347.385 112.595 347.59 111.64 347.755C111.614 347.759 111.587 347.764 111.556 347.768C110.615 347.929 109.648 348.049 108.667 348.147C108.494 348.165 108.322 348.187 108.145 348.2C107.681 348.24 107.204 348.272 106.731 348.298C106.502 348.312 106.272 348.33 106.038 348.343C105.326 348.374 104.606 348.392 103.873 348.392C102.768 348.392 101.659 348.347 100.541 348.276C100.188 348.254 99.8345 348.218 99.4766 348.187C98.699 348.125 97.917 348.044 97.1349 347.951C96.7329 347.902 96.3264 347.849 95.9243 347.791C95.1511 347.679 94.3779 347.55 93.6003 347.407C93.2203 347.341 92.8448 347.274 92.4648 347.198C91.4928 347.002 90.5163 346.784 89.5399 346.539C89.3676 346.494 89.1997 346.463 89.0274 346.419C87.9095 346.134 86.7873 345.813 85.665 345.47C85.3425 345.372 85.0155 345.256 84.6886 345.154C83.8845 344.895 83.0848 344.628 82.2806 344.343C81.8697 344.196 81.4544 344.04 81.0435 343.884C80.3189 343.612 79.5943 343.332 78.8697 343.038C78.4455 342.864 78.017 342.69 77.5928 342.508C76.855 342.196 76.1215 341.866 75.3881 341.532C74.9948 341.354 74.5972 341.176 74.204 340.989C73.338 340.579 72.4764 340.147 71.6193 339.706C71.363 339.577 71.1112 339.456 70.8549 339.323C69.7459 338.744 68.6413 338.138 67.5412 337.51C67.254 337.345 66.9712 337.171 66.684 337.002C65.8711 336.525 65.0581 336.04 64.2496 335.537C63.8563 335.292 63.4675 335.042 63.0787 334.793C62.3718 334.343 61.6693 333.884 60.9712 333.412C60.494 333.091 60.0168 332.766 59.5396 332.436C59.1641 332.173 58.7841 331.911 58.4086 331.643C57.8607 331.251 57.3128 330.85 56.7694 330.45C56.4071 330.182 56.0492 329.919 55.6913 329.648C55.1169 329.211 54.547 328.761 53.977 328.316C53.6589 328.066 53.3408 327.821 53.0271 327.568C52.329 327.006 51.6397 326.432 50.9549 325.853C50.7737 325.701 50.5882 325.554 50.4114 325.398C49.5455 324.659 48.6927 323.906 47.8488 323.144C47.6191 322.935 47.3937 322.721 47.164 322.507C46.5543 321.946 45.9445 321.38 45.3437 320.806C45.0344 320.507 44.7295 320.204 44.4247 319.906C43.9121 319.403 43.3996 318.899 42.8959 318.387C42.569 318.053 42.2464 317.719 41.9195 317.38C41.4865 316.93 41.0535 316.476 40.6249 316.017C40.0284 315.376 39.4364 314.726 38.8532 314.071C38.5439 313.723 38.2302 313.38 37.9253 313.033C37.214 312.218 36.5203 311.394 35.8311 310.561C35.6676 310.365 35.4997 310.169 35.3362 309.973C34.4967 308.939 33.6705 307.892 32.8664 306.832C32.6366 306.534 32.4201 306.226 32.1948 305.924C31.6204 305.153 31.0549 304.382 30.5026 303.598C30.2198 303.197 29.9459 302.797 29.672 302.391C29.1904 301.687 28.7132 300.984 28.2493 300.271C27.9665 299.839 27.6926 299.407 27.4186 298.975C26.968 298.266 26.5306 297.549 26.102 296.832C25.8457 296.405 25.5895 295.977 25.3376 295.549C24.8825 294.765 24.4407 293.972 24.0077 293.175C23.8089 292.81 23.6012 292.449 23.4068 292.084C22.7883 290.921 22.1918 289.754 21.6262 288.574C21.1137 287.509 20.6233 286.436 20.1505 285.353C19.5717 284.026 19.0415 282.712 18.5467 281.407C18.5025 281.291 18.4539 281.175 18.4097 281.059C17.9458 279.821 17.5216 278.591 17.1284 277.371C17.071 277.197 17.0135 277.023 16.9605 276.85C16.585 275.665 16.2492 274.489 15.9443 273.326C15.8957 273.135 15.8427 272.943 15.7941 272.756C15.5025 271.602 15.2418 270.462 15.0121 269.331C14.9767 269.144 14.9414 268.961 14.906 268.778C14.6984 267.696 14.5216 266.631 14.3714 265.571C14.3537 265.437 14.3272 265.295 14.3095 265.161C14.1593 264.034 14.0489 262.925 13.9649 261.825C13.9428 261.522 13.9296 261.224 13.9119 260.925C13.8633 260.088 13.8324 259.264 13.8191 258.444C13.8191 258.146 13.8059 257.847 13.8103 257.549C13.8103 256.493 13.8412 255.451 13.9119 254.426C13.9163 254.333 13.9296 254.244 13.9384 254.15C14.0091 253.219 14.1063 252.301 14.23 251.402C14.2698 251.112 14.314 250.823 14.3581 250.537C14.4774 249.776 14.6188 249.032 14.7735 248.297C14.8221 248.065 14.8662 247.829 14.9193 247.602C15.1358 246.671 15.3832 245.762 15.6615 244.871C15.719 244.684 15.7897 244.506 15.8515 244.319C16.0857 243.606 16.342 242.907 16.6203 242.221C16.7219 241.967 16.828 241.718 16.934 241.468C17.2389 240.764 17.5614 240.079 17.906 239.41C17.9767 239.272 18.0386 239.13 18.1137 238.996C18.5334 238.208 18.9885 237.45 19.4657 236.711C19.5894 236.515 19.7264 236.332 19.8545 236.141C20.2389 235.58 20.6365 235.032 21.0519 234.502C21.2065 234.301 21.3611 234.101 21.5246 233.909C22.0813 233.232 22.6601 232.573 23.2787 231.949L15.6041 239.718C14.99 240.341 14.4112 241.001 13.85 241.678C13.691 241.874 13.5363 242.074 13.3817 242.27C12.9664 242.8 12.5643 243.348 12.1843 243.909C12.0562 244.101 11.9192 244.283 11.7955 244.479C11.3184 245.219 10.8633 245.981 10.4435 246.765C10.3728 246.898 10.311 247.041 10.2403 247.174C9.89567 247.847 9.56871 248.533 9.26827 249.237C9.16223 249.486 9.05619 249.736 8.95457 249.99C8.67621 250.676 8.41995 251.379 8.18578 252.092C8.12393 252.275 8.05765 252.453 8.00021 252.64C7.72186 253.531 7.47444 254.44 7.25794 255.37C7.20492 255.598 7.16074 255.829 7.11214 256.061C6.95308 256.8 6.81169 257.549 6.6924 258.31C6.64822 258.595 6.60403 258.881 6.56427 259.17C6.44056 260.074 6.33894 260.988 6.27266 261.918C6.26382 262.012 6.25499 262.101 6.24615 262.19C6.17546 263.21 6.14895 264.257 6.14453 265.313C6.14453 265.607 6.14895 265.91 6.15337 266.208C6.1622 267.028 6.19313 267.852 6.24615 268.689C6.26383 268.988 6.27708 269.286 6.29917 269.589C6.38312 270.689 6.49358 271.798 6.6438 272.925C6.66147 273.059 6.68798 273.197 6.70566 273.331C6.81169 274.088 6.92215 274.845 7.05912 275.616C7.11214 275.923 7.17841 276.235 7.24027 276.542C7.27561 276.725 7.31096 276.912 7.34631 277.095C7.57606 278.226 7.83674 279.366 8.12835 280.52C8.17695 280.712 8.22555 280.899 8.27857 281.09C8.58343 282.253 8.92364 283.429 9.29478 284.614C9.3478 284.787 9.40965 284.961 9.46267 285.135C9.8559 286.355 10.2801 287.585 10.744 288.823C10.7882 288.939 10.8368 289.055 10.8809 289.171C11.3802 290.476 11.906 291.79 12.4848 293.117C12.9531 294.191 13.4391 295.255 13.9517 296.315C13.9517 296.324 13.9605 296.329 13.9605 296.338C14.526 297.518 15.1225 298.685 15.7411 299.848C15.9355 300.217 16.1431 300.578 16.3464 300.948C16.7794 301.741 17.2212 302.534 17.6763 303.318C17.9237 303.745 18.1844 304.173 18.4406 304.601C18.8736 305.322 19.3111 306.039 19.7617 306.748C20.0357 307.18 20.3096 307.612 20.5924 308.039C21.0563 308.752 21.5335 309.46 22.0195 310.164C22.2934 310.565 22.5673 310.97 22.8501 311.367C23.4068 312.151 23.9724 312.93 24.5467 313.701C24.7677 313.999 24.9841 314.302 25.2095 314.596C26.0136 315.656 26.8398 316.708 27.6793 317.741C27.8384 317.937 28.0063 318.129 28.1653 318.325C28.8546 319.158 29.5527 319.986 30.264 320.801C30.5689 321.153 30.8826 321.496 31.1919 321.844C31.7751 322.498 32.3627 323.144 32.9592 323.786C33.1094 323.946 33.2508 324.111 33.3966 324.267C33.6794 324.565 33.971 324.859 34.2582 325.153C34.5807 325.487 34.9032 325.821 35.2302 326.156C35.7383 326.668 36.2508 327.176 36.7633 327.679C37.0682 327.977 37.3731 328.28 37.6823 328.579C38.2788 329.153 38.8885 329.715 39.4983 330.271C39.7324 330.485 39.9578 330.703 40.1919 330.917C41.0358 331.683 41.8886 332.432 42.7545 333.171C42.9401 333.327 43.1257 333.479 43.3112 333.634C43.9961 334.209 44.6809 334.784 45.3746 335.341C45.6883 335.594 46.0108 335.839 46.3245 336.089C46.8945 336.539 47.4644 336.984 48.0388 337.421C48.3967 337.692 48.759 337.955 49.1169 338.223C49.6603 338.623 50.2082 339.024 50.7561 339.416C51.1316 339.684 51.5072 339.946 51.8827 340.209C52.1567 340.401 52.4262 340.597 52.7045 340.784C52.9078 340.922 53.1154 341.047 53.3143 341.185C54.0124 341.652 54.7149 342.111 55.4218 342.561C55.8106 342.811 56.2038 343.064 56.5971 343.309C57.4056 343.813 58.223 344.298 59.036 344.775C59.3187 344.94 59.6015 345.113 59.8887 345.278C60.9888 345.906 62.0934 346.512 63.2024 347.096C63.4543 347.229 63.7061 347.345 63.9579 347.474C64.8195 347.915 65.6855 348.347 66.5515 348.757C66.9447 348.944 67.3379 349.118 67.7312 349.301C68.4646 349.635 69.2025 349.964 69.9403 350.276C70.3645 350.459 70.7886 350.632 71.2128 350.806C71.9374 351.1 72.6664 351.381 73.391 351.657C73.8019 351.813 74.2128 351.969 74.6237 352.116C75.4278 352.401 76.232 352.668 77.0361 352.927C77.3586 353.029 77.6856 353.145 78.0081 353.243C79.1304 353.586 80.2526 353.906 81.3749 354.192C81.397 354.196 81.4235 354.205 81.4456 354.209C81.5869 354.245 81.7283 354.272 81.8741 354.307C82.855 354.552 83.8359 354.771 84.8167 354.967C85.1923 355.042 85.5678 355.105 85.9478 355.176C86.7254 355.319 87.503 355.448 88.2762 355.559C88.6827 355.617 89.0848 355.67 89.4869 355.724C90.2689 355.822 91.0509 355.898 91.8286 355.96C92.182 355.991 92.5399 356.027 92.8934 356.049C94.0112 356.12 95.1246 356.165 96.2248 356.165C96.9582 356.165 97.6784 356.147 98.3897 356.116C98.6239 356.107 98.8492 356.089 99.0834 356.071C99.5606 356.045 100.033 356.013 100.497 355.973C100.572 355.969 100.652 355.964 100.723 355.956C100.824 355.947 100.917 355.929 101.014 355.915C101.995 355.817 102.963 355.693 103.904 355.532C103.93 355.528 103.961 355.523 103.988 355.519L103.966 355.515Z" fill="black"/>
<path d="M132.694 285.384C117.526 250.582 80.0324 222.354 48.9497 222.341C17.8669 222.327 4.97435 250.533 20.1379 285.335C35.306 320.137 72.7908 348.365 103.873 348.378C134.956 348.392 147.858 320.186 132.694 285.384Z" fill="#00D9EE"/>
<path d="M75.0774 254.925C73.5133 256.056 73.3808 258.571 74.7858 260.539C76.1864 262.512 78.5944 263.193 80.1584 262.062C81.7225 260.931 81.8551 258.416 80.45 256.443C79.0494 254.471 76.6415 253.79 75.0774 254.921V254.925Z" fill="white"/>
<path d="M65.7417 268.609C59.1805 273.353 58.6238 283.941 64.509 292.213C70.3897 300.485 80.5165 303.358 87.0776 298.619C93.6388 293.875 94.1955 283.286 88.3103 275.015C82.4296 266.743 72.3028 263.87 65.7417 268.609ZM83.2425 293.224C79.0363 296.262 72.5547 294.422 68.7859 289.122C65.0171 283.821 65.3705 277.037 69.5768 273.999C73.7786 270.961 80.2646 272.801 84.0334 278.102C87.8022 283.402 87.4488 290.182 83.2425 293.22V293.224Z" fill="white"/>
<path d="M107.517 307.251L88.2218 321.193C80.2159 326.98 67.8668 323.474 60.6959 313.385L43.4026 289.059C36.2273 278.97 36.9033 266.052 44.9093 260.271L64.204 246.328C72.2099 240.542 84.5591 244.048 91.7344 254.137L109.028 278.462C116.203 288.552 115.527 301.469 107.521 307.256L107.517 307.251ZM48.9785 265.999C43.4822 269.972 43.0183 278.841 47.9447 285.772L65.2379 310.098C70.1643 317.029 78.6474 319.434 84.1438 315.461L103.438 301.518C108.935 297.545 109.399 288.676 104.472 281.745L87.1791 257.42C82.2527 250.489 73.7696 248.083 68.2732 252.057L48.9785 265.999Z" fill="white"/>
<path d="M208.35 118.912L205.209 122.805C197.976 131.763 187.871 138.649 175.368 142.298C168.815 144.217 162.038 145.099 155.233 145.055C154.964 145.055 154.694 145.055 154.429 145.046C136.619 144.552 122.838 138.044 121.239 137.313C102.757 128.819 86.7543 113.825 77.9309 94.5686C66.704 70.0605 69.8852 44.8173 83.9442 27.4006L87.0856 23.5074C73.0266 40.9242 69.8454 66.1629 81.0723 90.6755C89.8957 109.932 105.899 124.925 124.38 133.42C125.98 134.155 156.126 141.144 157.571 141.153C157.84 141.157 158.11 141.162 158.375 141.162C165.179 141.206 171.957 140.324 178.509 138.404C191.013 134.756 201.117 127.87 208.35 118.912Z" fill="#CFF501" stroke="black" stroke-width="1.45" stroke-linecap="round" stroke-linejoin="round"/>
<path d="M214.367 51.7529C200.405 21.2936 168.509 1.44031 137.179 1.23986C130.335 1.19532 123.522 2.09066 116.926 4.01496C80.1125 14.7679 64.0697 53.5614 81.0713 90.6799C89.8946 109.936 105.898 124.93 124.379 133.424C125.979 134.159 140.595 140.102 157.57 141.157C157.839 141.175 158.109 141.166 158.374 141.166C165.178 141.211 171.956 140.329 178.508 138.409C215.312 127.665 231.364 88.8715 214.362 51.7573L214.367 51.7529Z" fill="white" stroke="black" stroke-width="1.45" stroke-linecap="round" stroke-linejoin="round"/>
<path d="M153.589 63.8156L167.432 25.374L161.856 27.1469L149.838 60.5282L125.118 38.8219L106.305 44.7997L143.683 77.6242L129.165 117.937L134.741 116.164L147.435 80.9161L173.538 103.838L192.351 97.8606L153.585 63.82L153.589 63.8156ZM149.096 76.2924L145.331 73.0362L115.375 47.1338L123.938 44.4122L148.115 65.3167L151.879 68.5729L183.307 95.7448L174.744 98.4664L149.1 76.2968L149.096 76.2924Z" fill="black"/>
<path d="M163.623 24.9153L161.855 27.1415L162.907 29.8529L164.233 26.7363L163.623 24.9153Z" fill="black"/>
<path d="M108.072 42.5636L106.305 44.7898L110.33 46.78L112.362 44.4158L108.072 42.5636Z" fill="black"/>
<path d="M136.508 113.932L134.74 116.158L133.746 113.152L135.072 112.707L136.508 113.932Z" fill="black"/>
<path d="M194.122 95.6289L192.355 97.8551C192.355 97.8551 189.364 97.2896 189.169 97.2006C188.975 97.1115 189.483 95.6289 189.483 95.6289L192.951 95.7803L194.122 95.6289Z" fill="black"/>
<path d="M155.359 61.5884L169.201 23.1469L163.625 24.9197L151.608 58.301L126.887 36.5947L108.074 42.5725L145.453 75.3971L130.934 115.709L136.51 113.937L149.204 78.6889L175.307 101.611L194.121 95.6335L155.354 61.5929L155.359 61.5884ZM150.865 74.0652L147.101 70.809L117.145 44.9066L125.708 42.185L149.885 63.0895L153.649 66.3457L185.076 93.5176L176.514 96.2393L150.87 74.0697L150.865 74.0652Z" fill="#00D9EE"/>
<path d="M211.163 442.898C210.205 442.795 209.312 441.944 209.352 440.804L209.895 425.392L204.545 429.917L204.001 445.33C203.962 446.47 204.854 447.325 205.813 447.423C206.259 447.472 206.719 447.356 207.103 447.027L212.453 442.501C212.069 442.826 211.61 442.942 211.163 442.898Z" fill="black" stroke="black" stroke-width="2" stroke-linecap="round" stroke-linejoin="round"/>
<path d="M414.581 441.748L409.231 446.274C405.758 449.209 401.119 450.751 396.042 450.212L224.17 431.998L229.569 427.476L401.441 445.69C406.474 446.225 411.113 444.684 414.586 441.748H414.581ZM202.49 424.608C192.195 423.516 184.14 414.162 184.507 403.694L186.014 360.865C186.062 359.529 186.244 358.237 186.548 357.008C186.853 355.778 187.277 354.607 187.812 353.502C188.347 352.402 188.987 351.373 189.721 350.424C190.454 349.475 191.285 348.615 192.191 347.845L186.84 352.371C183.208 355.444 180.853 360.041 180.663 365.386L179.157 408.215C178.79 418.683 186.844 428.038 197.139 429.129L204.54 429.913L209.89 425.387L202.49 424.603V424.608Z" fill="black" stroke="black" stroke-width="2" stroke-linecap="round" stroke-linejoin="round"/>
<path d="M404.279 364.985L205.332 343.902C195.037 342.811 186.386 350.41 186.015 360.865L184.508 403.694C184.141 414.162 192.192 423.516 202.491 424.607L209.891 425.391L209.348 440.804C209.308 441.944 210.201 442.799 211.159 442.897C211.614 442.946 212.087 442.821 212.476 442.478L229.562 427.472L401.433 445.686C411.728 446.777 420.379 439.191 420.75 428.723L422.257 385.894C422.623 375.44 414.573 366.072 404.274 364.981L404.279 364.985Z" fill="white" stroke="black" stroke-width="2" stroke-linecap="round" stroke-linejoin="round"/>
<path style="mix-blend-mode:overlay" opacity="0.7" d="M404.279 364.985L205.332 343.902C195.037 342.811 186.386 350.41 186.015 360.865L184.508 403.694C184.141 414.162 192.192 423.516 202.491 424.607L209.891 425.391L209.348 440.804C209.308 441.944 210.201 442.799 211.159 442.897C211.614 442.946 212.087 442.821 212.476 442.478L229.562 427.472L401.433 445.686C411.728 446.777 420.379 439.191 420.75 428.723L422.257 385.894C422.623 375.44 414.573 366.072 404.274 364.981L404.279 364.985ZM420.375 428.714C420.039 438.233 412.74 445.414 403.399 445.414C402.763 445.414 402.118 445.378 401.477 445.311L229.442 427.084L212.229 442.198C211.981 442.416 211.676 442.532 211.349 442.532C211.301 442.532 211.248 442.532 211.199 442.523C210.466 442.447 209.692 441.775 209.728 440.821L210.284 425.053L202.53 424.233C192.443 423.164 184.526 413.957 184.888 403.712L186.395 360.883C186.731 351.364 194.03 344.183 203.37 344.183C204.006 344.183 204.651 344.219 205.287 344.285L404.234 365.368C414.321 366.437 422.239 375.64 421.877 385.89L420.37 428.719L420.375 428.714Z" fill="url(#paint1_linear_599_294)"/>
<path d="M387.534 395.81L386.333 396.825C385.683 397.372 384.813 397.662 383.867 397.564L385.069 396.549C386.014 396.647 386.88 396.362 387.53 395.81" fill="#5E606F"/>
<path d="M385.07 396.545L224.138 379.493C222.208 379.288 220.688 377.538 220.758 375.573C220.794 374.571 221.235 373.711 221.916 373.137L220.714 374.152C220.034 374.727 219.592 375.587 219.561 376.589C219.49 378.553 221.01 380.304 222.941 380.509L383.873 397.56C384.819 397.658 385.685 397.373 386.334 396.821L387.536 395.805C386.886 396.353 386.016 396.643 385.075 396.545H385.07Z" fill="black"/>
<path d="M385.324 389.449L224.392 372.398C222.461 372.193 220.831 373.614 220.76 375.574C220.689 377.538 222.209 379.288 224.14 379.493L385.072 396.545C387.003 396.75 388.62 395.329 388.691 393.369C388.761 391.404 387.255 389.654 385.32 389.449H385.324Z" fill="#00D9EE"/>
<path d="M349.733 403.409L256.388 393.622C254.457 393.418 252.827 394.839 252.756 396.798C252.686 398.763 254.205 400.513 256.136 400.718L349.482 410.5C351.412 410.705 353.03 409.284 353.1 407.324C353.171 405.364 351.664 403.609 349.733 403.404V403.409Z" fill="#AEC6DF"/>
<path d="M350.695 409.507L257.337 399.614C255.406 399.409 253.899 397.645 253.97 395.685C254.005 394.683 254.447 393.819 255.127 393.244L253.926 394.26C253.245 394.834 252.803 395.699 252.768 396.701C252.697 398.665 254.204 400.425 256.135 400.63L349.493 410.523C350.439 410.621 351.309 410.331 351.963 409.779L353.165 408.763C352.511 409.316 351.641 409.605 350.695 409.507Z" fill="black"/>
<path d="M350.949 402.403L257.59 392.509C255.659 392.304 254.042 393.725 253.971 395.685C253.901 397.65 255.407 399.409 257.338 399.614L350.697 409.507C352.628 409.712 354.258 408.282 354.329 406.318C354.399 404.354 352.879 402.603 350.949 402.398V402.403Z" fill="#00D9EE"/>
<path d="M218.847 345.141L211.261 343.413L204.757 353.542L204.43 364.936L217.972 365.992L218.034 353.355L214 353.074L218.847 345.141Z" fill="#AEC6DF"/>
<path d="M211.098 343.413L204.594 353.542L205.796 352.522L212.3 342.397L211.098 343.413Z" fill="black" stroke="black" stroke-width="2" stroke-linecap="round" stroke-linejoin="round"/>
<path d="M219.886 344.126L212.3 342.397L205.796 352.522L205.469 363.921L219.011 364.977L219.073 352.34L215.039 352.059L219.886 344.126Z" fill="#CFF501" stroke="black" stroke-width="2" stroke-linecap="round" stroke-linejoin="round"/>
<path style="mix-blend-mode:overlay" opacity="0.7" d="M219.885 344.126L212.299 342.397L205.795 352.527L205.473 363.921L219.015 364.977L219.077 352.34L215.043 352.059L219.894 344.126H219.885ZM218.688 352.696L218.631 364.563L205.857 363.565L206.167 352.643L212.471 342.83L219.284 344.38L214.385 352.393L218.688 352.696Z" fill="url(#paint2_linear_599_294)"/>
<path d="M205.468 363.921L204.266 364.936L217.808 365.991L219.01 364.976L205.468 363.921Z" fill="black" stroke="black" stroke-width="2" stroke-linecap="round" stroke-linejoin="round"/>
<path d="M204.593 353.542L204.266 364.936L205.468 363.921L205.795 352.522L204.593 353.542Z" fill="black" stroke="black" stroke-width="2" stroke-linecap="round" stroke-linejoin="round"/>
<path d="M235.448 346.583L227.858 344.855L221.354 354.98L221.031 366.379L234.569 367.434L234.631 354.797L230.597 354.517L235.448 346.583Z" fill="#AEC6DF"/>
<path d="M227.7 344.855L221.191 354.985L222.393 353.965L228.897 343.84L227.7 344.855Z" fill="black" stroke="black" stroke-width="2" stroke-linecap="round" stroke-linejoin="round"/>
<path d="M236.487 345.568L228.897 343.84L222.393 353.965L222.07 365.364L235.608 366.419L235.67 353.782L231.636 353.501L236.487 345.568Z" fill="#CFF501" stroke="black" stroke-width="2" stroke-linecap="round" stroke-linejoin="round"/>
<path style="mix-blend-mode:overlay" opacity="0.7" d="M236.487 345.568L228.9 343.84L222.397 353.969L222.074 365.364L235.616 366.419L235.678 353.782L231.644 353.501L236.496 345.568H236.487ZM235.289 354.138L235.232 366.005L222.459 365.007L222.768 354.085L229.073 344.272L235.886 345.822L230.986 353.836L235.289 354.138Z" fill="url(#paint3_linear_599_294)"/>
<path d="M222.069 365.364L220.867 366.379L234.409 367.434L235.607 366.419L222.069 365.364Z" fill="black" stroke="black" stroke-width="2" stroke-linecap="round" stroke-linejoin="round"/>
<path d="M221.19 354.985L220.867 366.379L222.069 365.364L222.391 353.965L221.19 354.985Z" fill="black" stroke="black" stroke-width="2" stroke-linecap="round" stroke-linejoin="round"/>
<path d="M388.298 414.259L387.786 426.612L391.828 426.972L387.039 435.07L394.771 437.035L401.275 426.986L401.907 415.467L388.298 414.259Z" fill="#AEC6DF"/>
<path d="M388.298 414.309L387.785 426.661L388.987 425.645L389.495 413.293L388.298 414.309Z" fill="black" stroke="black" stroke-width="2" stroke-linecap="round" stroke-linejoin="round"/>
<path d="M388.987 425.645L387.785 426.66L391.828 427.025L393.03 426.01L388.987 425.645Z" fill="black" stroke="black" stroke-width="2" stroke-linecap="round" stroke-linejoin="round"/>
<path d="M389.497 413.293L388.989 425.645L393.032 426.011L388.242 434.104L395.974 436.069L402.474 426.02L403.11 414.5L389.497 413.293Z" fill="#CFF501" stroke="black" stroke-width="2" stroke-linecap="round" stroke-linejoin="round"/>
<path style="mix-blend-mode:overlay" opacity="0.7" d="M389.497 413.293L388.985 425.65L393.028 426.011L388.238 434.104L395.97 436.069L402.474 426.02L403.11 414.5L389.497 413.293ZM402.103 425.895L395.802 435.632L388.826 433.859L393.664 425.681L389.383 425.298L389.864 413.708L402.717 414.852L402.107 425.899L402.103 425.895Z" fill="url(#paint4_linear_599_294)"/>
<path d="M388.241 434.104L387.039 435.119L394.771 437.083L395.973 436.068L388.241 434.104Z" fill="black" stroke="black" stroke-width="2" stroke-linecap="round" stroke-linejoin="round"/>
<path d="M391.828 427.026L387.039 435.12L388.241 434.104L393.03 426.011L391.828 427.026Z" fill="black" stroke="black" stroke-width="2" stroke-linecap="round" stroke-linejoin="round"/>
<path d="M372.154 412.616L371.641 424.973L375.684 425.333L370.895 433.427L378.627 435.396L385.13 425.342L385.762 413.828L372.154 412.616Z" fill="#AEC6DF"/>
<path d="M372.153 412.67L371.641 425.022L372.842 424.007L373.351 411.65L372.153 412.67Z" fill="black" stroke="black" stroke-width="2" stroke-linecap="round" stroke-linejoin="round"/>
<path d="M372.842 424.006L371.641 425.021L375.683 425.382L376.881 424.367L372.842 424.006Z" fill="black" stroke="black" stroke-width="2" stroke-linecap="round" stroke-linejoin="round"/>
<path d="M373.352 411.65L372.844 424.007L376.883 424.367L372.098 432.465L379.83 434.43L386.329 424.381L386.965 412.862L373.352 411.65Z" fill="#CFF501" stroke="black" stroke-width="2" stroke-linecap="round" stroke-linejoin="round"/>
<path style="mix-blend-mode:overlay" opacity="0.7" d="M373.353 411.65L372.84 424.007L376.883 424.367L372.094 432.461L379.826 434.425L386.33 424.376L386.966 412.857L373.353 411.65ZM385.958 424.252L379.658 433.989L372.681 432.216L377.519 424.038L373.238 423.655L373.72 412.064L386.573 413.205L385.963 424.252H385.958Z" fill="url(#paint5_linear_599_294)"/>
<path d="M372.096 432.465L370.895 433.481L378.627 435.444L379.828 434.429L372.096 432.465Z" fill="black" stroke="black" stroke-width="2" stroke-linecap="round" stroke-linejoin="round"/>
<path d="M375.684 425.383L370.895 433.481L372.096 432.465L376.881 424.367L375.684 425.383Z" fill="black" stroke="black" stroke-width="2" stroke-linecap="round" stroke-linejoin="round"/>
<path d="M290.023 629.586C311.794 634.745 317.319 657.364 302.372 680.108C287.425 702.853 257.648 717.11 235.885 711.95C214.13 706.791 208.597 684.18 223.552 661.428C238.507 638.675 268.276 624.426 290.031 629.586H290.023Z" fill="#00D9EE"/>
<path d="M253.674 689.621L247.053 688.055C245.793 689.966 246.263 691.868 248.086 692.299C249.917 692.729 252.414 691.531 253.674 689.621ZM277.48 647.578C275.656 647.147 273.152 648.345 271.9 650.255L271.485 650.889C263.675 650.874 254.448 655.986 249.495 663.526L240.636 677.008L240.018 676.859C238.195 676.429 235.69 677.626 234.438 679.537C233.178 681.447 233.648 683.35 235.471 683.78L267.001 691.25C268.832 691.68 271.329 690.482 272.588 688.572C273.841 686.662 273.379 684.759 271.555 684.328L270.937 684.18L279.796 670.698C284.75 663.158 283.826 655.642 278.106 652.447L278.52 651.813C279.78 649.903 279.311 648 277.487 647.57" fill="white"/>
<path d="M308.712 674.291C309.19 673.21 309.62 672.13 310.011 671.057C310.035 670.987 310.074 670.916 310.098 670.846C310.16 670.673 310.199 670.501 310.254 670.329C310.591 669.358 310.88 668.387 311.146 667.432C311.193 667.252 311.264 667.072 311.311 666.892C311.35 666.727 311.373 666.571 311.412 666.414C311.561 665.804 311.686 665.193 311.804 664.582C311.851 664.324 311.929 664.058 311.976 663.799C311.991 663.69 311.999 663.58 312.023 663.47C312.093 663.024 312.148 662.578 312.203 662.132C312.242 661.803 312.304 661.466 312.336 661.145C312.344 661.028 312.351 660.918 312.359 660.808C312.391 660.456 312.406 660.104 312.43 659.751C312.453 659.423 312.484 659.086 312.492 658.757C312.492 658.608 312.492 658.46 312.492 658.303C312.492 657.982 312.492 657.669 312.492 657.356C312.492 657.09 312.492 656.808 312.492 656.541C312.484 656.314 312.461 656.103 312.445 655.876C312.43 655.602 312.406 655.32 312.383 655.046C312.367 654.866 312.359 654.686 312.344 654.514C312.304 654.169 312.25 653.833 312.203 653.488C312.171 653.269 312.148 653.042 312.109 652.823C312.093 652.744 312.085 652.658 312.077 652.58C311.968 651.953 311.835 651.343 311.686 650.74C311.686 650.724 311.678 650.709 311.671 650.701C311.655 650.622 311.624 650.552 311.608 650.482C311.475 649.98 311.342 649.472 311.178 648.986C311.138 648.877 311.099 648.775 311.06 648.665C310.99 648.454 310.911 648.242 310.833 648.031C310.739 647.78 310.661 647.522 310.559 647.279C310.473 647.068 310.371 646.864 310.278 646.653C310.184 646.442 310.09 646.23 309.996 646.019C309.933 645.894 309.886 645.76 309.824 645.627C309.652 645.283 309.464 644.954 309.276 644.625C309.19 644.469 309.104 644.304 309.018 644.148C308.994 644.101 308.971 644.062 308.947 644.015C308.626 643.474 308.282 642.942 307.914 642.433C307.891 642.402 307.867 642.363 307.836 642.331L306.099 639.755C306.521 640.343 306.913 640.953 307.272 641.572C307.366 641.728 307.445 641.893 307.539 642.057C307.789 642.511 308.032 642.973 308.259 643.451C308.36 643.662 308.454 643.874 308.54 644.085C308.736 644.531 308.924 644.993 309.088 645.455C309.166 645.667 309.245 645.878 309.315 646.089C309.518 646.684 309.698 647.287 309.855 647.906C309.878 647.984 309.902 648.054 309.918 648.133C310.09 648.83 310.231 649.534 310.356 650.255C310.395 650.474 310.418 650.701 310.45 650.92C310.52 651.437 310.583 651.953 310.63 652.478C310.653 652.752 310.669 653.026 310.692 653.308C310.724 653.793 310.739 654.287 310.739 654.78C310.739 655.093 310.747 655.406 310.739 655.727C310.731 656.205 310.708 656.69 310.677 657.176C310.653 657.528 310.638 657.88 310.606 658.233C310.567 658.671 310.505 659.117 310.45 659.556C310.395 660.002 310.34 660.448 310.262 660.895C310.199 661.263 310.121 661.638 310.051 662.006C309.933 662.617 309.808 663.22 309.659 663.838C309.581 664.175 309.487 664.512 309.393 664.856C309.135 665.811 308.838 666.782 308.501 667.753C308.415 667.996 308.345 668.238 308.259 668.481C307.867 669.554 307.437 670.626 306.959 671.715C306.866 671.926 306.756 672.137 306.662 672.341C306.255 673.226 305.825 674.103 305.355 674.995C305.066 675.543 304.768 676.083 304.455 676.632C304.299 676.913 304.142 677.195 303.978 677.469C303.461 678.346 302.921 679.223 302.342 680.1C302.029 680.57 301.708 681.032 301.388 681.494C300.691 682.504 299.963 683.498 299.204 684.469C299.102 684.602 298.993 684.735 298.883 684.868C298.163 685.776 297.42 686.677 296.653 687.553C296.536 687.694 296.418 687.827 296.293 687.968C295.377 689.002 294.423 690.012 293.444 690.998C293.272 691.171 293.108 691.343 292.936 691.515C292.145 692.298 291.339 693.065 290.518 693.817C290.369 693.95 290.22 694.075 290.072 694.208C289.461 694.756 288.843 695.289 288.217 695.813C287.951 696.033 287.685 696.252 287.427 696.471C286.941 696.863 286.456 697.254 285.963 697.638C285.681 697.857 285.4 698.076 285.11 698.295C284.672 698.632 284.226 698.953 283.772 699.282C283.475 699.493 283.185 699.712 282.888 699.916C282.442 700.229 281.988 700.535 281.534 700.84C281.244 701.036 280.955 701.231 280.665 701.427C280.203 701.732 279.734 702.022 279.264 702.312C278.983 702.484 278.709 702.664 278.427 702.836C277.95 703.126 277.472 703.4 276.995 703.674C276.721 703.831 276.455 703.995 276.181 704.152C275.586 704.488 274.984 704.809 274.373 705.13C274.217 705.216 274.06 705.303 273.904 705.381C273.145 705.78 272.378 706.156 271.611 706.524C271.415 706.618 271.22 706.704 271.024 706.79C270.445 707.064 269.858 707.33 269.279 707.589C269.005 707.706 268.731 707.816 268.457 707.933C267.941 708.152 267.416 708.372 266.892 708.575C266.587 708.693 266.282 708.81 265.976 708.92C265.475 709.108 264.975 709.303 264.466 709.476C264.153 709.585 263.84 709.687 263.527 709.797C262.987 709.977 262.455 710.157 261.915 710.321C261.602 710.415 261.289 710.509 260.976 710.603C260.365 710.783 259.763 710.948 259.152 711.112C258.871 711.182 258.597 711.261 258.315 711.331C257.384 711.566 256.445 711.777 255.513 711.957C255.427 711.973 255.333 711.989 255.247 712.004C254.261 712.192 253.283 712.357 252.305 712.49C252.023 712.529 251.741 712.568 251.46 712.607C251.1 712.654 250.732 712.693 250.372 712.725C249.988 712.764 249.605 712.803 249.221 712.834C248.862 712.866 248.502 712.889 248.142 712.905C247.797 712.928 247.461 712.944 247.116 712.96C246.318 712.991 245.52 713.007 244.73 712.991C244.628 712.991 244.518 712.991 244.417 712.991C243.532 712.975 242.656 712.928 241.787 712.858C241.544 712.842 241.302 712.811 241.067 712.787C240.41 712.725 239.76 712.646 239.119 712.553C238.868 712.513 238.618 712.482 238.375 712.443C237.53 712.302 236.685 712.145 235.855 711.95C228.687 710.251 223.279 706.657 219.789 701.787L221.526 704.363C225.017 709.233 230.424 712.827 237.593 714.526C238.422 714.721 239.259 714.878 240.112 715.019C240.363 715.058 240.613 715.097 240.856 715.128C241.498 715.222 242.147 715.301 242.804 715.363C243.047 715.387 243.282 715.41 243.524 715.434C244.393 715.504 245.27 715.551 246.154 715.567C246.256 715.567 246.365 715.567 246.467 715.567C247.257 715.575 248.055 715.567 248.854 715.535C248.971 715.535 249.088 715.535 249.206 715.535C249.433 715.528 249.66 715.504 249.879 715.489C250.239 715.465 250.599 715.442 250.959 715.418C251.342 715.387 251.726 715.348 252.109 715.308C252.469 715.269 252.837 715.23 253.197 715.191C253.338 715.175 253.487 715.16 253.627 715.144C253.768 715.128 253.901 715.097 254.042 715.074C255.02 714.94 255.999 714.776 256.985 714.588C257.055 714.572 257.118 714.565 257.188 714.557C257.212 714.557 257.227 714.549 257.251 714.541C258.182 714.353 259.113 714.142 260.044 713.915C260.138 713.891 260.224 713.876 260.311 713.852C260.498 713.805 260.694 713.743 260.882 713.696C261.484 713.539 262.095 713.367 262.697 713.195C262.862 713.148 263.026 713.108 263.19 713.061C263.339 713.014 263.488 712.96 263.644 712.913C264.184 712.748 264.724 712.568 265.256 712.388C265.468 712.318 265.679 712.255 265.89 712.185C265.992 712.145 266.094 712.106 266.195 712.075C266.696 711.895 267.205 711.707 267.706 711.519C267.948 711.425 268.191 711.347 268.434 711.253C268.496 711.229 268.559 711.198 268.621 711.175C269.146 710.971 269.662 710.752 270.187 710.525C270.429 710.423 270.664 710.329 270.906 710.227C270.938 710.212 270.977 710.196 271.008 710.18C271.595 709.922 272.174 709.656 272.753 709.382C272.941 709.296 273.121 709.217 273.309 709.131C273.317 709.131 273.332 709.115 273.34 709.115C274.107 708.747 274.874 708.364 275.641 707.972C275.641 707.972 275.649 707.972 275.657 707.972C275.798 707.902 275.931 707.824 276.071 707.745C276.69 707.416 277.308 707.088 277.918 706.743C277.942 706.727 277.957 706.72 277.981 706.712C278.231 706.571 278.474 706.422 278.724 706.281C279.21 705.999 279.687 705.725 280.164 705.436C280.203 705.412 280.235 705.397 280.274 705.373C280.516 705.224 280.751 705.068 280.986 704.919C281.456 704.621 281.933 704.332 282.402 704.026C282.465 703.987 282.52 703.956 282.582 703.917C282.809 703.768 283.036 703.604 283.271 703.447C283.725 703.142 284.179 702.836 284.633 702.515C284.719 702.453 284.813 702.398 284.899 702.335C285.11 702.186 285.306 702.03 285.517 701.881C285.963 701.56 286.409 701.231 286.855 700.895C286.973 700.801 287.098 700.715 287.223 700.628C287.387 700.503 287.544 700.37 287.708 700.245C288.201 699.861 288.686 699.478 289.172 699.078C289.328 698.953 289.493 698.828 289.649 698.695C289.759 698.608 289.86 698.515 289.962 698.421C290.588 697.896 291.206 697.356 291.825 696.816C291.942 696.706 292.067 696.612 292.185 696.502C292.208 696.479 292.239 696.455 292.263 696.424C293.085 695.68 293.891 694.905 294.681 694.122C294.759 694.044 294.853 693.966 294.931 693.887C295.017 693.801 295.104 693.699 295.19 693.613C296.168 692.627 297.123 691.625 298.038 690.583C298.077 690.544 298.116 690.505 298.148 690.466C298.234 690.372 298.312 690.27 298.39 690.168C299.157 689.292 299.901 688.399 300.621 687.483C300.73 687.35 300.84 687.217 300.942 687.084C301.701 686.113 302.421 685.119 303.125 684.109C303.195 683.999 303.281 683.905 303.352 683.795C303.594 683.435 303.837 683.075 304.08 682.715C304.659 681.838 305.199 680.961 305.715 680.084C305.88 679.802 306.036 679.521 306.193 679.247C306.419 678.839 306.662 678.44 306.881 678.033C306.959 677.892 307.014 677.751 307.092 677.61C307.562 676.725 307.992 675.841 308.399 674.956C308.493 674.745 308.603 674.533 308.697 674.33L308.712 674.291Z" fill="black"/>
<path d="M23.7172 547.963L2.79789 584.557C-0.799136 590.84 1.66624 597.941 8.31871 600.415L132.558 646.64C139.194 649.107 147.487 646.018 151.076 639.726L171.995 603.125L23.7172 547.963Z" fill="#CFF501" stroke="black" stroke-width="2" stroke-linecap="round" stroke-linejoin="round"/>
<path d="M221.797 490.522C228.433 492.988 230.899 500.089 227.302 506.372L172.005 603.109L23.7344 547.939L79.0315 451.203C82.6286 444.919 90.9138 441.822 97.5582 444.297L221.797 490.522Z" fill="white" stroke="black" stroke-width="1.45" stroke-linecap="round" stroke-linejoin="round"/>
<path style="mix-blend-mode:overlay" d="M221.796 490.522L97.5572 444.297C90.9128 441.822 82.6195 444.919 79.0305 451.203L23.7334 547.939L24.3234 548.182L23.7253 547.955L2.79789 584.557C-0.799136 590.841 1.66624 597.941 8.31871 600.416L132.557 646.641C139.194 649.107 147.487 646.018 151.076 639.726L171.995 603.125L171.793 603.052L172.004 603.109L227.301 506.372C230.898 500.089 228.432 492.988 221.796 490.522ZM226.953 506.17L171.656 602.906L171.85 602.825L171.737 603.181L171.648 602.931L150.729 639.532C148.101 644.126 142.872 647.085 137.399 647.085C135.75 647.085 134.174 646.81 132.703 646.261L8.45613 600.035C5.40876 598.903 3.16163 596.72 2.14315 593.906C1.08425 590.994 1.44799 587.751 3.15355 584.767L23.9031 548.465L24.178 548.57L24.477 547.81L24.3154 547.745L79.3862 451.405C82.0132 446.812 87.2431 443.852 92.7154 443.852C94.3644 443.852 95.9487 444.127 97.4198 444.677L221.659 490.902C224.706 492.034 226.945 494.21 227.964 497.024C229.022 499.935 228.659 503.186 226.953 506.17Z" fill="url(#paint6_linear_599_294)"/>
<g style="mix-blend-mode:multiply" opacity="0.8">
<path d="M148.878 490.845C129.519 483.639 105.31 492.672 94.8175 511.022C84.3255 529.379 91.5277 550.098 110.887 557.303C130.262 564.509 154.472 555.476 164.964 537.118C175.447 518.777 168.253 498.05 148.878 490.845Z" fill="#3A508E"/>
</g>
<mask id="mask1_599_294" style="mask-type:luminance" maskUnits="userSpaceOnUse" x="126" y="503" width="4" height="4">
<path d="M128.806 503.905L129.97 506.541C129.841 506.363 129.663 506.242 129.461 506.161C128.83 505.926 127.981 506.185 127.601 506.848L126.438 504.213C126.817 503.55 127.666 503.291 128.297 503.526C128.499 503.598 128.677 503.728 128.806 503.905Z" fill="white"/>
</mask>
<g mask="url(#mask1_599_294)">
<path d="M128.806 503.905L129.97 506.54C129.841 506.363 129.663 506.241 129.461 506.161C129.21 506.072 128.927 506.055 128.653 506.112L127.489 503.477C127.763 503.42 128.046 503.436 128.297 503.525C128.499 503.598 128.677 503.727 128.806 503.905Z" fill="#70166B"/>
<path d="M127.488 503.477L128.652 506.112C128.579 506.128 128.514 506.144 128.442 506.168L127.278 503.533C127.342 503.509 127.415 503.493 127.488 503.477Z" fill="#74176F"/>
<path d="M127.279 503.533L128.443 506.168C128.386 506.185 128.33 506.209 128.281 506.233L127.117 503.598C127.174 503.574 127.223 503.549 127.279 503.533Z" fill="#781873"/>
<path d="M127.118 503.606L128.282 506.241C128.234 506.265 128.185 506.29 128.137 506.314L126.973 503.679C127.021 503.655 127.07 503.622 127.118 503.606Z" fill="#7D1977"/>
<path d="M126.969 503.679L128.133 506.314C128.093 506.338 128.044 506.37 128.004 506.403L126.84 503.768C126.881 503.735 126.921 503.711 126.969 503.679Z" fill="#811A7B"/>
<path d="M126.84 503.759L128.004 506.394C127.964 506.427 127.923 506.459 127.883 506.491L126.719 503.856C126.719 503.856 126.8 503.792 126.84 503.759Z" fill="#851B7F"/>
<path d="M126.719 503.865L127.883 506.5C127.843 506.54 127.802 506.581 127.762 506.621L126.598 503.986C126.638 503.946 126.679 503.905 126.719 503.865Z" fill="#8A1C83"/>
<path d="M126.598 503.986L127.762 506.621C127.714 506.678 127.673 506.734 127.633 506.791L126.469 504.156C126.509 504.091 126.55 504.034 126.598 503.986Z" fill="#8E1C87"/>
<path d="M126.47 504.156L127.634 506.791C127.634 506.791 127.61 506.831 127.602 506.847L126.438 504.212C126.438 504.212 126.462 504.172 126.47 504.156Z" fill="#921D8B"/>
</g>
<mask id="mask2_599_294" style="mask-type:luminance" maskUnits="userSpaceOnUse" x="88" y="485" width="80" height="54">
<path d="M94.8654 511.054C89.6195 520.233 88.795 530.002 91.7049 538.372C91.3169 537.491 90.9289 536.617 90.5409 535.736C87.631 527.358 88.4555 517.597 93.7015 508.418C104.185 490.077 128.395 481.036 147.762 488.241C156.589 491.524 162.886 497.614 166.143 505.005L167.307 507.642C164.058 500.25 157.753 494.161 148.926 490.878C129.567 483.672 105.357 492.705 94.8654 511.054Z" fill="white"/>
</mask>
<g mask="url(#mask2_599_294)">
<path d="M166.135 505.005L167.299 507.642C164.05 500.25 157.745 494.161 148.926 490.878C141.546 488.128 133.463 487.748 125.703 489.333L124.539 486.697C132.299 485.112 140.382 485.492 147.762 488.241C156.589 491.524 162.886 497.614 166.135 505.005Z" fill="#616B85"/>
<path d="M124.538 486.696L125.702 489.331C123.657 489.752 121.644 490.301 119.664 490.988L118.5 488.353C120.48 487.666 122.493 487.117 124.538 486.696Z" fill="#656F8A"/>
<path d="M118.501 488.354L119.665 490.989C118.032 491.555 116.424 492.21 114.855 492.946L113.691 490.31C115.26 489.575 116.868 488.92 118.501 488.354Z" fill="#69738F"/>
<path d="M113.691 490.32L114.855 492.955C113.425 493.626 112.026 494.377 110.66 495.186L109.496 492.55C110.854 491.734 112.252 490.99 113.691 490.32Z" fill="#6C7794"/>
<path d="M109.495 492.552L110.659 495.187C109.342 495.971 108.065 496.828 106.828 497.741L105.664 495.106C106.901 494.193 108.178 493.344 109.495 492.552Z" fill="#707B99"/>
<path d="M105.664 495.107L106.828 497.742C105.575 498.672 104.363 499.658 103.207 500.709L102.043 498.073C103.199 497.023 104.403 496.028 105.664 495.107Z" fill="#747F9E"/>
<path d="M102.042 498.075L103.206 500.71C101.945 501.858 100.756 503.07 99.6327 504.356L98.4688 501.721C99.5842 500.435 100.781 499.223 102.042 498.075Z" fill="#7883A3"/>
<path d="M98.4699 501.722L99.6339 504.357C98.2597 505.933 96.9988 507.615 95.8671 509.385L94.7031 506.75C95.8348 504.972 97.0958 503.298 98.4699 501.722Z" fill="#7B87A8"/>
<path d="M94.7111 506.76L95.8751 509.397C95.5275 509.939 95.1961 510.497 94.8727 511.063C91.0656 517.718 89.5863 524.689 90.1764 531.215L89.0124 528.579C88.4223 522.053 89.9016 515.09 93.7088 508.426C94.0321 507.86 94.3635 507.31 94.7111 506.76Z" fill="#7F8BAD"/>
<path d="M89.0039 528.571L90.1679 531.206C90.3376 533.09 90.6771 534.941 91.1864 536.727L90.0224 534.092C89.5131 532.298 89.1737 530.455 89.0039 528.571Z" fill="#7B87A8"/>
<path d="M90.0234 534.094L91.1874 536.729C91.5592 538.047 92.02 539.332 92.5696 540.577L91.4057 537.942C90.856 536.697 90.3953 535.412 90.0234 534.094Z" fill="#7883A3"/>
</g>
<mask id="mask3_599_294" style="mask-type:luminance" maskUnits="userSpaceOnUse" x="90" y="535" width="3" height="6">
<path d="M91.703 538.379C91.9617 539.123 92.2527 539.858 92.5679 540.578L91.404 537.942C91.0887 537.223 90.7977 536.487 90.5391 535.744C90.5795 535.833 90.6361 535.962 90.6765 536.051C90.7169 536.148 90.7735 536.277 90.822 536.374C90.8705 536.479 90.9271 536.609 90.9675 536.714C91.016 536.819 91.0726 536.956 91.1211 537.061C91.3151 537.498 91.5252 537.934 91.703 538.379Z" fill="white"/>
</mask>
<g mask="url(#mask3_599_294)">
<path d="M90.0195 534.095L91.1835 536.73C91.5553 538.048 92.0161 539.333 92.5657 540.578L91.4018 537.943C90.8521 536.698 90.3914 535.412 90.0195 534.095Z" fill="#7883A3"/>
</g>
<path d="M126.439 504.221L127.603 506.857L112.156 533.868L111 531.231L126.439 504.221Z" fill="#9D1F95"/>
<mask id="mask4_599_294" style="mask-type:luminance" maskUnits="userSpaceOnUse" x="110" y="531" width="3" height="4">
<path d="M112.155 533.867C111.953 534.222 111.945 534.578 112.074 534.877L110.91 532.242C110.781 531.943 110.789 531.587 110.991 531.232C111.339 532.024 111.799 533.074 112.155 533.867Z" fill="white"/>
</mask>
<g mask="url(#mask4_599_294)">
<path d="M111.001 531.232L112.165 533.867C112.035 534.101 111.979 534.335 112.003 534.554L110.839 531.919C110.823 531.7 110.871 531.466 111.001 531.232Z" fill="#921D8B"/>
<path d="M110.84 531.919L112.004 534.554C112.004 534.618 112.02 534.683 112.036 534.74L110.872 532.104C110.856 532.048 110.84 531.983 110.84 531.919Z" fill="#8E1C87"/>
<path d="M110.871 532.112L112.035 534.747C112.051 534.796 112.067 534.836 112.084 534.877L110.92 532.242C110.903 532.201 110.887 532.153 110.871 532.112Z" fill="#8A1C83"/>
</g>
<mask id="mask5_599_294" style="mask-type:luminance" maskUnits="userSpaceOnUse" x="110" y="532" width="4" height="4">
<path d="M112.074 534.877L110.91 532.242C111.023 532.501 111.25 532.711 111.541 532.824C111.743 532.897 111.977 532.929 112.228 532.889L113.392 535.524C113.133 535.564 112.899 535.532 112.705 535.459C112.414 535.354 112.187 535.144 112.074 534.877Z" fill="white"/>
</mask>
<g mask="url(#mask5_599_294)">
<path d="M112.236 532.889L113.4 535.524C113.141 535.565 112.906 535.532 112.712 535.46C112.421 535.354 112.195 535.144 112.082 534.878L110.918 532.242C111.031 532.501 111.257 532.711 111.548 532.824C111.751 532.897 111.985 532.93 112.236 532.889Z" fill="#767385"/>
</g>
<path d="M145.783 526.606L146.939 529.242L129.964 506.542L128.809 503.906L145.783 526.606Z" fill="#6C1667"/>
<mask id="mask6_599_294" style="mask-type:luminance" maskUnits="userSpaceOnUse" x="145" y="526" width="3" height="4">
<path d="M145.903 526.807L147.066 529.443C147.034 529.37 146.994 529.305 146.945 529.24L145.781 526.605C145.83 526.67 145.87 526.735 145.903 526.807Z" fill="white"/>
</mask>
<g mask="url(#mask6_599_294)">
<path d="M145.903 526.807L147.066 529.443C147.034 529.37 146.994 529.305 146.945 529.24L145.781 526.605C145.83 526.67 145.87 526.735 145.903 526.807Z" fill="#70166B"/>
</g>
<path d="M144.648 528.579L145.812 531.214L113.398 535.522L112.234 532.887L144.648 528.579Z" fill="#7C798C"/>
<mask id="mask7_599_294" style="mask-type:luminance" maskUnits="userSpaceOnUse" x="144" y="526" width="4" height="6">
<path d="M145.905 526.808L147.069 529.443C147.384 530.163 146.778 531.084 145.824 531.213L144.66 528.578C145.622 528.441 146.22 527.519 145.905 526.808Z" fill="white"/>
</mask>
<g mask="url(#mask7_599_294)">
<path d="M145.906 526.808L147.07 529.443C147.086 529.484 147.103 529.532 147.119 529.572L145.955 526.937C145.939 526.897 145.93 526.848 145.906 526.808Z" fill="#918DA3"/>
<path d="M145.945 526.937L147.109 529.573C147.125 529.637 147.142 529.694 147.142 529.758L145.978 527.123C145.978 527.059 145.961 527.002 145.945 526.937Z" fill="#9592A8"/>
<path d="M145.979 527.123L147.143 529.759C147.167 530.009 147.095 530.276 146.949 530.502L145.785 527.867C145.931 527.633 146.003 527.374 145.979 527.123Z" fill="#9A96AD"/>
<path d="M145.786 527.867L146.95 530.502C146.909 530.566 146.869 530.623 146.82 530.68L145.656 528.044C145.705 527.988 145.753 527.931 145.786 527.867Z" fill="#9592A8"/>
<path d="M145.656 528.045L146.82 530.68C146.78 530.72 146.74 530.769 146.699 530.809L145.535 528.174C145.576 528.134 145.624 528.093 145.656 528.045Z" fill="#918DA3"/>
<path d="M145.524 528.174L146.688 530.809C146.688 530.809 146.607 530.882 146.559 530.914L145.395 528.279C145.435 528.247 145.483 528.214 145.524 528.174Z" fill="#8C899E"/>
<path d="M145.403 528.271L146.567 530.906C146.526 530.938 146.478 530.963 146.437 530.995L145.273 528.36C145.322 528.336 145.362 528.303 145.403 528.271Z" fill="#888599"/>
<path d="M145.267 528.36L146.431 530.995C146.382 531.019 146.334 531.052 146.285 531.068L145.121 528.433C145.17 528.408 145.218 528.384 145.267 528.36Z" fill="#838094"/>
<path d="M145.13 528.441L146.294 531.076C146.246 531.1 146.189 531.124 146.133 531.141L144.969 528.506C145.025 528.489 145.082 528.465 145.13 528.441Z" fill="#7F7C8F"/>
<path d="M144.968 528.505L146.132 531.14C146.059 531.165 145.995 531.181 145.914 531.197L144.75 528.562C144.823 528.546 144.896 528.53 144.96 528.505" fill="#7A778A"/>
<path d="M144.749 528.562L145.913 531.197C145.913 531.197 145.849 531.213 145.816 531.213L144.652 528.578C144.652 528.578 144.717 528.57 144.749 528.562Z" fill="#767385"/>
</g>
<path d="M166.515 534.224C166.773 533.666 167.016 533.1 167.25 532.542C167.339 532.315 167.436 532.089 167.525 531.862C167.816 531.11 168.083 530.35 168.317 529.598V529.582C168.551 528.822 168.754 528.053 168.931 527.293C168.988 527.067 169.028 526.84 169.077 526.614C169.198 526.048 169.303 525.49 169.392 524.924C169.424 524.697 169.465 524.471 169.497 524.252C169.602 523.508 169.691 522.764 169.74 522.02C169.74 522.012 169.74 521.996 169.74 521.98C169.788 521.228 169.804 520.476 169.804 519.732C169.804 519.513 169.796 519.295 169.788 519.069C169.772 518.519 169.748 517.977 169.707 517.427C169.699 517.29 169.699 517.152 169.683 517.015C169.683 516.942 169.659 516.869 169.651 516.796C169.57 515.971 169.465 515.163 169.319 514.354C169.295 514.208 169.263 514.063 169.23 513.917C169.093 513.206 168.931 512.51 168.737 511.815C168.705 511.71 168.689 511.596 168.665 511.491C168.649 511.418 168.616 511.354 168.6 511.281C168.479 510.86 168.341 510.448 168.204 510.036C168.139 509.833 168.075 509.631 168.002 509.429C167.784 508.822 167.549 508.224 167.291 507.642L166.127 505.005C166.385 505.596 166.62 506.194 166.846 506.801C166.919 507.003 166.983 507.205 167.048 507.407C167.185 507.82 167.323 508.232 167.444 508.653C167.493 508.831 167.541 509 167.582 509.178C167.767 509.874 167.937 510.577 168.075 511.281C168.107 511.426 168.139 511.572 168.164 511.718C168.309 512.526 168.414 513.335 168.495 514.16C168.519 514.37 168.527 514.58 168.543 514.791C168.584 515.332 168.616 515.882 168.624 516.432C168.624 516.651 168.64 516.869 168.64 517.095C168.64 517.839 168.624 518.592 168.576 519.344C168.576 519.36 168.576 519.368 168.576 519.384C168.527 520.128 168.438 520.872 168.333 521.616C168.301 521.842 168.261 522.069 168.228 522.295C168.139 522.853 168.034 523.419 167.913 523.986C167.864 524.212 167.816 524.438 167.767 524.665C167.59 525.425 167.388 526.193 167.153 526.953V526.97C166.919 527.722 166.652 528.482 166.361 529.234C166.272 529.46 166.183 529.687 166.086 529.913C165.86 530.471 165.609 531.037 165.351 531.595C165.245 531.822 165.14 532.048 165.035 532.275C164.663 533.035 164.275 533.787 163.847 534.531C163.524 535.097 163.184 535.655 162.837 536.205C162.336 536.997 161.794 537.766 161.236 538.518C161.115 538.68 160.994 538.841 160.872 539.003C160.323 539.731 159.749 540.442 159.151 541.138C159.029 541.284 158.9 541.421 158.771 541.558C158.383 541.995 157.987 542.424 157.583 542.844C157.405 543.022 157.235 543.208 157.057 543.386C156.653 543.79 156.241 544.187 155.829 544.575C155.675 544.72 155.521 544.866 155.36 545.012C154.867 545.456 154.365 545.885 153.856 546.306C153.808 546.346 153.759 546.386 153.711 546.427C153.153 546.888 152.579 547.333 151.997 547.761C151.811 547.899 151.617 548.028 151.431 548.166C151.035 548.449 150.639 548.732 150.243 548.998C150.017 549.152 149.79 549.298 149.556 549.451C149.176 549.694 148.796 549.937 148.416 550.171C148.182 550.317 147.947 550.454 147.705 550.6C147.285 550.85 146.856 551.085 146.428 551.328C146.21 551.449 145.999 551.57 145.781 551.683C145.248 551.966 144.698 552.241 144.156 552.5C144.043 552.557 143.938 552.613 143.825 552.662C143.122 552.993 142.402 553.301 141.683 553.6C141.481 553.681 141.271 553.762 141.069 553.843C140.535 554.053 139.994 554.263 139.444 554.449C139.234 554.522 139.015 554.603 138.805 554.676C137.94 554.967 137.076 555.242 136.194 555.484C136.049 555.525 135.903 555.557 135.758 555.597C134.95 555.816 134.133 556.01 133.317 556.18C133.171 556.212 133.026 556.244 132.88 556.277C132.032 556.447 131.175 556.592 130.318 556.713C130.124 556.738 129.93 556.762 129.736 556.786C128.976 556.883 128.208 556.972 127.448 557.029C127.311 557.037 127.182 557.053 127.044 557.061C126.179 557.126 125.323 557.15 124.458 557.166C124.256 557.166 124.053 557.166 123.851 557.166C123.067 557.166 122.283 557.142 121.499 557.102C121.394 557.102 121.289 557.102 121.184 557.085C120.327 557.029 119.47 556.94 118.613 556.835C118.411 556.81 118.201 556.778 117.999 556.754C117.191 556.641 116.383 556.503 115.582 556.341C115.526 556.325 115.461 556.317 115.404 556.309C114.556 556.131 113.723 555.921 112.891 555.686C112.689 555.63 112.486 555.573 112.284 555.508C111.444 555.258 110.611 554.991 109.795 554.692C103.183 552.233 97.9852 548.19 94.4286 543.208C93.2403 541.55 92.238 539.779 91.4297 537.936L92.5937 540.572C95.8431 547.963 102.14 554.045 110.959 557.328C111.783 557.635 112.616 557.902 113.448 558.145C113.65 558.201 113.852 558.266 114.055 558.323C114.887 558.557 115.728 558.768 116.568 558.945C116.625 558.962 116.69 558.97 116.746 558.978C117.547 559.14 118.355 559.277 119.163 559.39C119.365 559.423 119.575 559.447 119.777 559.471C120.634 559.576 121.491 559.665 122.348 559.722C122.453 559.722 122.558 559.722 122.663 559.738C123.447 559.778 124.231 559.803 125.015 559.803C125.217 559.803 125.42 559.803 125.63 559.803C126.487 559.795 127.351 559.762 128.208 559.698C128.346 559.689 128.475 559.673 128.612 559.665C129.372 559.601 130.14 559.52 130.9 559.423C131.094 559.398 131.288 559.374 131.482 559.342C132.339 559.22 133.187 559.075 134.036 558.905C134.085 558.897 134.133 558.889 134.182 558.881C134.287 558.856 134.384 558.832 134.481 558.808C135.297 558.638 136.114 558.444 136.922 558.226C137.067 558.185 137.213 558.153 137.358 558.113C138.231 557.87 139.104 557.595 139.969 557.304C140.05 557.28 140.139 557.255 140.22 557.223C140.349 557.174 140.479 557.126 140.608 557.077C141.149 556.883 141.691 556.681 142.233 556.471C142.435 556.39 142.645 556.309 142.847 556.228C143.566 555.929 144.278 555.622 144.989 555.29C145.005 555.29 145.021 555.274 145.029 555.274C145.126 555.225 145.223 555.177 145.32 555.128C145.87 554.87 146.412 554.595 146.945 554.312C147.163 554.198 147.382 554.077 147.6 553.956C148.028 553.721 148.457 553.479 148.877 553.236C148.99 553.171 149.111 553.107 149.216 553.042C149.338 552.969 149.459 552.888 149.58 552.807C149.968 552.573 150.348 552.33 150.72 552.088C150.946 551.942 151.181 551.788 151.407 551.635C151.811 551.36 152.207 551.077 152.603 550.794C152.749 550.689 152.902 550.592 153.048 550.486C153.088 550.454 153.129 550.422 153.169 550.398C153.751 549.961 154.325 549.524 154.883 549.063C154.931 549.023 154.98 548.982 155.028 548.942C155.538 548.521 156.039 548.085 156.532 547.648C156.58 547.608 156.629 547.567 156.677 547.527C156.79 547.422 156.896 547.316 157.001 547.211C157.421 546.823 157.833 546.427 158.229 546.022C158.407 545.845 158.585 545.667 158.755 545.481C159.159 545.06 159.555 544.632 159.943 544.195C160.04 544.082 160.145 543.985 160.242 543.871C160.266 543.839 160.299 543.807 160.323 543.774C160.921 543.087 161.495 542.375 162.045 541.639C162.166 541.478 162.287 541.316 162.408 541.154C162.966 540.402 163.499 539.634 164.009 538.841C164.009 538.841 164.009 538.841 164.009 538.833C164.356 538.283 164.688 537.733 165.011 537.167C165.439 536.415 165.827 535.663 166.199 534.911C166.312 534.685 166.409 534.458 166.515 534.232V534.224Z" fill="black"/>
<path d="M147.761 488.241C128.402 481.036 104.192 490.069 93.7003 508.418C83.2083 526.775 90.4105 547.494 109.77 554.7C129.145 561.905 153.354 552.872 163.846 534.515C174.33 516.173 167.136 495.447 147.761 488.241Z" fill="#00D9EE"/>
<path d="M128.297 503.534C128.499 503.606 128.676 503.736 128.806 503.914L145.78 526.614C146.33 527.35 145.7 528.441 144.649 528.587L112.235 532.897C111.977 532.938 111.742 532.905 111.548 532.833C110.926 532.598 110.619 531.903 110.998 531.248L126.437 504.229C126.817 503.566 127.666 503.307 128.297 503.542V503.534Z" fill="white"/>
<path d="M229.742 505.83C229.783 505.676 229.823 505.523 229.855 505.369C229.969 504.852 230.049 504.334 230.082 503.825C230.082 503.825 230.082 503.825 230.082 503.816C230.114 503.299 230.106 502.789 230.066 502.288C230.066 502.231 230.066 502.175 230.066 502.118C230.049 501.9 230.009 501.69 229.977 501.479C229.96 501.398 229.96 501.318 229.944 501.229C229.888 500.889 229.807 500.557 229.718 500.226C229.718 500.202 229.702 500.177 229.694 500.153C229.572 499.724 229.427 499.312 229.249 498.908L228.085 496.271C228.263 496.676 228.408 497.096 228.53 497.517C228.635 497.873 228.716 498.228 228.78 498.592C228.796 498.673 228.805 498.754 228.813 498.843C228.853 499.11 228.885 499.377 228.902 499.652C228.942 500.153 228.95 500.663 228.918 501.18C228.918 501.18 228.918 501.18 228.918 501.188C228.885 501.698 228.796 502.215 228.691 502.733C228.659 502.887 228.619 503.04 228.578 503.194C228.481 503.582 228.36 503.97 228.223 504.358C228.166 504.512 228.109 504.666 228.053 504.819C227.843 505.345 227.6 505.862 227.301 506.38L172.004 603.116L173.168 605.753L228.465 509.016C228.756 508.499 228.999 507.981 229.217 507.464C229.281 507.31 229.33 507.156 229.387 507.003C229.524 506.615 229.645 506.226 229.742 505.838V505.83Z" fill="black" stroke="black" stroke-width="2" stroke-linecap="round" stroke-linejoin="round"/>
<path d="M111.404 615.255L55.9125 594.609C53.8755 593.849 51.3455 594.803 50.2381 596.728C49.1388 598.644 49.8986 600.82 51.9275 601.572L107.419 622.218C109.456 622.978 111.986 622.024 113.085 620.107C114.184 618.182 113.433 616.007 111.396 615.255H111.404Z" fill="#012B7E"/>
<path d="M113.625 618.587C113.633 618.409 113.633 618.239 113.625 618.069C113.625 618.021 113.601 617.964 113.601 617.915C113.593 617.843 113.577 617.77 113.56 617.697C113.544 617.632 113.544 617.56 113.52 617.495C113.48 617.357 113.431 617.22 113.374 617.091L112.211 614.454C112.299 614.648 112.348 614.859 112.396 615.061C112.413 615.133 112.429 615.206 112.437 615.279C112.469 615.497 112.485 615.724 112.469 615.95C112.453 616.185 112.405 616.419 112.34 616.654C112.324 616.71 112.308 616.775 112.283 616.832C112.202 617.066 112.105 617.309 111.976 617.543C111.855 617.754 111.709 617.956 111.556 618.142C111.532 618.166 111.515 618.198 111.491 618.223C111.329 618.409 111.152 618.579 110.966 618.732C110.925 618.765 110.893 618.797 110.853 618.821C110.667 618.967 110.473 619.104 110.262 619.225C110.23 619.242 110.198 619.258 110.165 619.282C109.98 619.387 109.777 619.476 109.583 619.557C109.543 619.573 109.495 619.597 109.454 619.614C109.22 619.703 108.977 619.767 108.727 619.816C108.694 619.816 108.654 619.824 108.622 619.832C108.411 619.872 108.209 619.889 107.999 619.897C107.926 619.897 107.846 619.897 107.773 619.897C107.595 619.897 107.417 619.881 107.239 619.864C107.167 619.856 107.094 619.848 107.021 619.832C106.779 619.792 106.544 619.735 106.31 619.646L50.8186 599C50.1234 598.741 49.5738 598.321 49.202 597.795C49.0807 597.617 48.9756 597.431 48.8867 597.245L50.0507 599.881C50.3902 600.658 51.053 601.297 51.9826 601.644L107.474 622.29C107.7 622.379 107.943 622.436 108.185 622.476C108.258 622.493 108.331 622.493 108.403 622.509C108.581 622.533 108.751 622.541 108.929 622.541C109.001 622.541 109.082 622.541 109.155 622.541C109.365 622.533 109.575 622.509 109.777 622.476C109.81 622.476 109.85 622.476 109.883 622.46C109.891 622.46 109.899 622.46 109.907 622.46C110.117 622.42 110.335 622.355 110.537 622.282C110.562 622.282 110.586 622.266 110.602 622.258C110.65 622.242 110.691 622.226 110.731 622.201C110.836 622.161 110.933 622.121 111.038 622.08C111.135 622.032 111.224 621.983 111.321 621.935C111.354 621.918 111.386 621.902 111.418 621.878C111.435 621.87 111.459 621.862 111.475 621.846C111.612 621.765 111.75 621.676 111.879 621.579C111.92 621.546 111.96 621.506 112.008 621.474C112.049 621.441 112.081 621.417 112.122 621.385C112.17 621.344 112.219 621.312 112.259 621.271C112.388 621.15 112.518 621.021 112.631 620.891C112.631 620.891 112.631 620.883 112.639 620.875C112.663 620.851 112.679 620.819 112.704 620.794C112.817 620.657 112.93 620.519 113.019 620.366C113.051 620.309 113.092 620.253 113.124 620.196C113.261 619.961 113.35 619.727 113.431 619.484C113.447 619.428 113.471 619.363 113.488 619.306C113.552 619.072 113.601 618.829 113.617 618.603L113.625 618.587Z" fill="black" stroke="black" stroke-width="2" stroke-linecap="round" stroke-linejoin="round"/>
<path d="M110.279 612.683L54.7877 592.037C52.7508 591.277 50.2207 592.231 49.1133 594.156C48.014 596.073 48.7738 598.248 50.8027 599L106.294 619.646C108.331 620.406 110.861 619.452 111.96 617.535C113.06 615.611 112.308 613.435 110.271 612.683H110.279Z" fill="white" stroke="black" stroke-width="1.45" stroke-linecap="round" stroke-linejoin="round"/>
<path style="mix-blend-mode:overlay" d="M110.279 612.683L54.7877 592.037C52.7508 591.277 50.2207 592.231 49.1133 594.156C48.014 596.073 48.7738 598.248 50.8027 599L106.294 619.646C108.331 620.406 110.861 619.452 111.96 617.535C113.06 615.611 112.308 613.435 110.271 612.683H110.279ZM111.613 617.333C110.877 618.627 109.333 619.501 107.781 619.501C107.312 619.501 106.86 619.42 106.439 619.266L50.9482 598.62C50.0914 598.305 49.469 597.69 49.178 596.906C48.887 596.097 48.984 595.191 49.4609 594.358C50.2046 593.056 51.7485 592.183 53.3004 592.183C53.7693 592.183 54.2219 592.264 54.6422 592.417L110.133 613.063C110.99 613.379 111.613 613.985 111.896 614.77C112.187 615.578 112.09 616.492 111.605 617.333H111.613Z" fill="url(#paint7_linear_599_294)"/>
<path d="M171.997 603.132L151.078 639.734C150.932 639.993 150.763 640.235 150.601 640.478C150.253 641.004 149.882 641.513 149.469 641.99C149.413 642.063 149.34 642.128 149.283 642.192C148.992 642.516 148.685 642.831 148.37 643.13C148.241 643.252 148.103 643.373 147.966 643.486C147.723 643.697 147.481 643.899 147.222 644.093C147.077 644.206 146.923 644.319 146.778 644.432C146.519 644.618 146.252 644.796 145.977 644.966C145.832 645.055 145.686 645.152 145.541 645.241C145.153 645.468 144.757 645.678 144.353 645.872C144.304 645.896 144.264 645.92 144.215 645.945C143.73 646.171 143.237 646.373 142.736 646.551C142.615 646.592 142.485 646.632 142.364 646.673C141.806 646.859 141.241 647.012 140.667 647.142C140.602 647.158 140.537 647.174 140.473 647.19C139.891 647.311 139.301 647.384 138.711 647.433C138.565 647.449 138.428 647.449 138.282 647.465C137.724 647.497 137.159 647.505 136.601 647.473C136.56 647.473 136.512 647.473 136.472 647.473C135.882 647.433 135.291 647.352 134.718 647.239C134.572 647.214 134.435 647.182 134.297 647.15C133.715 647.02 133.133 646.867 132.575 646.656L8.32052 600.415C7.5607 600.132 6.85746 599.792 6.21081 599.396C4.27084 598.215 2.84819 596.566 2.01562 594.665L3.17961 597.302C4.29509 599.833 6.4533 601.919 9.4845 603.051L133.723 649.277C134.289 649.487 134.863 649.64 135.445 649.77C135.582 649.802 135.728 649.835 135.865 649.859C136.447 649.972 137.029 650.053 137.619 650.093C137.66 650.093 137.708 650.093 137.749 650.093C138.306 650.126 138.872 650.118 139.43 650.085C139.576 650.077 139.713 650.069 139.858 650.053C140.449 650.004 141.039 649.923 141.621 649.81C141.637 649.81 141.653 649.81 141.669 649.81C141.718 649.802 141.766 649.778 141.815 649.77C142.388 649.649 142.954 649.487 143.512 649.301C143.585 649.277 143.666 649.268 143.738 649.236C143.787 649.22 143.835 649.196 143.892 649.171C144.393 648.993 144.894 648.791 145.371 648.565C145.371 648.565 145.379 648.565 145.387 648.565C145.428 648.549 145.468 648.516 145.517 648.5C145.921 648.306 146.317 648.096 146.697 647.869C146.737 647.845 146.786 647.829 146.826 647.805C146.931 647.74 147.028 647.667 147.133 647.594C147.408 647.425 147.675 647.247 147.934 647.061C147.998 647.012 148.071 646.972 148.136 646.923C148.216 646.859 148.297 646.786 148.378 646.721C148.629 646.527 148.879 646.325 149.122 646.115C149.203 646.042 149.292 645.977 149.38 645.904C149.429 645.856 149.477 645.799 149.526 645.759C149.841 645.459 150.148 645.152 150.439 644.821C150.488 644.764 150.553 644.715 150.601 644.651C150.609 644.643 150.617 644.627 150.625 644.618C151.038 644.141 151.409 643.632 151.757 643.106C151.797 643.041 151.846 642.993 151.886 642.928C152.007 642.742 152.121 642.548 152.234 642.362L173.153 605.761L171.989 603.124L171.997 603.132Z" fill="black" stroke="black" stroke-width="2" stroke-linecap="round" stroke-linejoin="round"/>
<path d="M142.477 611.64L38.9713 573.001C36.9344 572.24 34.3962 573.195 33.2969 575.119C32.1976 577.036 32.9574 579.211 34.9863 579.963L138.492 618.603C140.529 619.363 143.059 618.409 144.158 616.492C145.257 614.568 144.506 612.392 142.469 611.64H142.477Z" fill="#012B7E"/>
<path d="M144.86 614.907C144.868 614.729 144.868 614.559 144.86 614.389C144.86 614.341 144.835 614.284 144.835 614.236C144.827 614.163 144.811 614.09 144.795 614.017C144.779 613.953 144.779 613.88 144.755 613.815C144.714 613.678 144.666 613.54 144.609 613.411L143.445 610.775C143.534 610.969 143.582 611.179 143.631 611.381C143.647 611.454 143.663 611.527 143.671 611.599C143.704 611.818 143.72 612.044 143.704 612.271C143.688 612.505 143.639 612.748 143.566 612.982C143.55 613.039 143.534 613.104 143.51 613.16C143.429 613.395 143.332 613.637 143.203 613.872C143.081 614.082 142.936 614.284 142.782 614.47C142.758 614.503 142.742 614.535 142.718 614.559C142.556 614.745 142.378 614.915 142.192 615.069C142.152 615.101 142.119 615.133 142.079 615.166C141.893 615.311 141.699 615.449 141.489 615.57C141.457 615.586 141.424 615.602 141.392 615.619C141.206 615.724 141.004 615.813 140.81 615.894C140.761 615.91 140.721 615.934 140.681 615.95C140.446 616.039 140.204 616.104 139.953 616.152C139.921 616.152 139.888 616.152 139.856 616.169C139.646 616.209 139.436 616.225 139.226 616.241C139.153 616.241 139.072 616.241 138.999 616.241C138.821 616.241 138.644 616.225 138.466 616.209C138.393 616.201 138.32 616.193 138.248 616.177C138.005 616.136 137.771 616.08 137.536 615.991L33.9824 577.464C33.5217 577.294 33.1256 577.052 32.8022 576.753C32.4789 576.453 32.2283 576.106 32.0586 575.718L33.2226 578.354C33.5621 579.13 34.2168 579.761 35.1383 580.109L138.692 618.635C138.918 618.724 139.161 618.781 139.403 618.821C139.476 618.837 139.549 618.837 139.622 618.853C139.8 618.878 139.977 618.886 140.155 618.886C140.228 618.886 140.309 618.886 140.382 618.886C140.592 618.878 140.802 618.853 141.012 618.813C141.044 618.813 141.077 618.813 141.109 618.797C141.109 618.797 141.125 618.797 141.133 618.797C141.343 618.756 141.562 618.692 141.764 618.627C141.788 618.619 141.812 618.603 141.837 618.595C141.885 618.578 141.925 618.554 141.966 618.538C142.063 618.498 142.168 618.465 142.265 618.417C142.362 618.368 142.459 618.32 142.548 618.263C142.58 618.247 142.613 618.231 142.645 618.215C142.661 618.206 142.685 618.198 142.701 618.182C142.839 618.101 142.976 618.012 143.106 617.915C143.154 617.883 143.194 617.843 143.235 617.81C143.275 617.778 143.308 617.745 143.348 617.713C143.397 617.673 143.437 617.64 143.485 617.6C143.615 617.479 143.744 617.349 143.857 617.22C143.857 617.22 143.857 617.212 143.873 617.204C143.898 617.171 143.914 617.139 143.938 617.115C144.051 616.977 144.156 616.84 144.253 616.694C144.294 616.638 144.326 616.581 144.358 616.516C144.496 616.282 144.585 616.047 144.666 615.805C144.682 615.748 144.706 615.683 144.722 615.627C144.787 615.392 144.843 615.15 144.86 614.923V614.907Z" fill="black" stroke="black" stroke-width="2" stroke-linecap="round" stroke-linejoin="round"/>
<path d="M141.515 609.012C143.552 609.772 144.303 611.939 143.204 613.864C142.105 615.789 139.567 616.735 137.53 615.983L33.9758 577.456C31.955 576.704 31.1952 574.529 32.3026 572.604C33.4019 570.679 35.9401 569.733 37.9609 570.485L141.515 609.012Z" fill="white" stroke="black" stroke-width="1.45" stroke-linecap="round" stroke-linejoin="round"/>
<path style="mix-blend-mode:overlay" d="M141.515 609.012L37.9612 570.485C35.9404 569.733 33.4023 570.679 32.3029 572.604C31.2036 574.529 31.9554 576.704 33.9762 577.456L137.53 615.983C139.567 616.743 142.097 615.789 143.204 613.864C144.304 611.939 143.552 609.764 141.515 609.012ZM142.849 613.67C142.105 614.972 140.561 615.845 139.009 615.845C138.54 615.845 138.088 615.764 137.667 615.611L34.1136 577.084C33.2648 576.769 32.6424 576.162 32.3595 575.386C32.0685 574.569 32.1655 573.664 32.6505 572.823C33.3942 571.521 34.9381 570.647 36.49 570.647C36.9589 570.647 37.4034 570.728 37.8238 570.882L141.378 609.408C142.234 609.723 142.857 610.33 143.14 611.114C143.431 611.923 143.334 612.837 142.849 613.678V613.67Z" fill="url(#paint8_linear_599_294)"/>
<defs>
<linearGradient id="paint0_linear_599_294" x1="310.176" y1="161.563" x2="324.916" y2="251.995" gradientUnits="userSpaceOnUse">
<stop stop-color="#F2F9FF"/>
<stop offset="0.96" stop-color="#CFBBFF"/>
<stop offset="1" stop-color="#CEB9FF"/>
</linearGradient>
<linearGradient id="paint1_linear_599_294" x1="338.627" y1="325.408" x2="280.082" y2="438.818" gradientUnits="userSpaceOnUse">
<stop offset="0.08" stop-color="white"/>
<stop offset="1" stop-color="white" stop-opacity="0"/>
</linearGradient>
<linearGradient id="paint2_linear_599_294" x1="222.89" y1="345.916" x2="208.74" y2="360.862" gradientUnits="userSpaceOnUse">
<stop offset="0.08" stop-color="white"/>
<stop offset="1" stop-color="white" stop-opacity="0"/>
</linearGradient>
<linearGradient id="paint3_linear_599_294" x1="239.487" y1="347.359" x2="225.342" y2="362.304" gradientUnits="userSpaceOnUse">
<stop offset="0.08" stop-color="white"/>
<stop offset="1" stop-color="white" stop-opacity="0"/>
</linearGradient>
<linearGradient id="paint4_linear_599_294" x1="400.331" y1="411.351" x2="388.876" y2="432.896" gradientUnits="userSpaceOnUse">
<stop offset="0.08" stop-color="white"/>
<stop offset="0.5" stop-color="white" stop-opacity="0.5"/>
<stop offset="1" stop-color="white" stop-opacity="0"/>
</linearGradient>
<linearGradient id="paint5_linear_599_294" x1="384.187" y1="409.712" x2="372.731" y2="431.257" gradientUnits="userSpaceOnUse">
<stop offset="0.08" stop-color="white"/>
<stop offset="0.5" stop-color="white" stop-opacity="0.5"/>
<stop offset="1" stop-color="white" stop-opacity="0"/>
</linearGradient>
<linearGradient id="paint6_linear_599_294" x1="105.818" y1="439.323" x2="123.44" y2="641.682" gradientUnits="userSpaceOnUse">
<stop offset="0.08" stop-color="white"/>
<stop offset="1" stop-color="white" stop-opacity="0"/>
</linearGradient>
<linearGradient id="paint7_linear_599_294" x1="84.5339" y1="589.514" x2="78.7089" y2="613.313" gradientUnits="userSpaceOnUse">
<stop offset="0.08" stop-color="white"/>
<stop offset="1" stop-color="white" stop-opacity="0"/>
</linearGradient>
<linearGradient id="paint8_linear_599_294" x1="85.7248" y1="563.183" x2="89.7702" y2="623.067" gradientUnits="userSpaceOnUse">
<stop offset="0.08" stop-color="white"/>
<stop offset="1" stop-color="white" stop-opacity="0"/>
</linearGradient>
</defs>
</svg>
