<svg width="746" height="412" viewBox="0 0 746 412" fill="none" xmlns="http://www.w3.org/2000/svg">
<g clip-path="url(#clip0_32_10984)">
<path d="M49.4172 354.192L66.4257 351.333L61.1612 341.531L51.4421 345.615L49.4172 354.192Z" fill="white" stroke="black" stroke-linecap="round" stroke-linejoin="round"/>
<path d="M66.4238 352.97L85.0521 348.31L71.6883 346.026L68.4486 348.477L66.4238 352.97Z" fill="white" stroke="black" stroke-linecap="round" stroke-linejoin="round"/>
<path d="M68.4509 229.98L101.253 250.411L99.2281 259.4L112.187 268.798L110.162 274.928C110.162 274.928 117.046 280.24 116.844 280.154C116.642 280.068 110.162 295.358 110.162 295.358L114.617 299.444L100.443 337.036L96.3934 335.402L90.3189 348.886L82.6246 345.617L80.5998 350.112L68.4509 343.909L63.5914 351.338L29.9795 332.133L34.0291 323.552L21.8802 316.606L24.715 310.885L14.9958 304.756L23.0951 286.777L16.2107 283.1L31.1944 243.873L37.5968 246.452L42.1284 233.658L49.0127 236.518L51.4425 229.98L65.2112 235.701L68.4509 229.98Z" fill="white" stroke="black" stroke-linecap="round" stroke-linejoin="round"/>
<path d="M76.1461 351.746L90.3198 348.886L96.3943 335.402L82.2206 338.262L76.1461 351.746Z" fill="white" stroke="black" stroke-linecap="round" stroke-linejoin="round"/>
<path d="M17.0196 246.733L30.8126 244.764L23.4221 249.31L17.0196 246.733Z" fill="white" stroke="black" stroke-linecap="round" stroke-linejoin="round"/>
<path d="M27.955 236.518L49.013 234.884L35.2443 238.56L27.955 236.518Z" fill="white" stroke="black" stroke-linecap="round" stroke-linejoin="round"/>
<path d="M37.2689 232.839L51.4426 229.98L65.2114 235.29L51.0377 238.557L37.2689 232.839Z" fill="white" stroke="black" stroke-linecap="round" stroke-linejoin="round"/>
<path d="M54.2755 232.841L68.4492 229.981L101.251 250.411L87.0774 253.271L54.2755 232.841Z" fill="black" stroke="black" stroke-linecap="round" stroke-linejoin="round"/>
<path d="M54.2728 232.841L87.0748 253.272L85.05 262.261L98.0088 271.659L95.984 277.788C95.984 277.788 102.868 282.929 102.666 283.014C102.463 283.1 95.984 298.219 95.984 298.219L100.439 302.305L86.2649 339.897L82.2153 338.263L76.1408 351.747L68.4465 348.478L66.4217 352.973L54.2728 346.77L49.4133 354.198L15.8014 334.994L19.851 326.413L7.70212 319.467L10.5369 313.746L0.817749 307.617L8.91701 289.638L2.03264 285.96L17.0163 246.734L23.4187 249.312L27.9503 236.519L35.2396 238.562L37.2644 232.841L51.0331 238.562L54.2728 232.841Z" fill="#00D9EE" stroke="black" stroke-linecap="round" stroke-linejoin="round"/>
<path d="M87.0765 253.27L85.0517 262.255L99.2254 259.397L101.25 250.411L87.0765 253.27Z" fill="white" stroke="black" stroke-linecap="round" stroke-linejoin="round"/>
<path d="M99.2254 259.401L112.184 268.795L98.0105 271.654L85.0517 262.26L99.2254 259.401Z" fill="black" stroke="black" stroke-linecap="round" stroke-linejoin="round"/>
<path d="M110.161 274.925L112.186 268.799L98.0119 271.657L95.9871 277.784L110.161 274.925Z" fill="white" stroke="black" stroke-linecap="round" stroke-linejoin="round"/>
<path d="M95.9871 277.787L102.669 283.01L116.843 280.152L110.161 274.928L95.9871 277.787Z" fill="black" stroke="black" stroke-linecap="round" stroke-linejoin="round"/>
<path d="M102.669 283.015L95.9871 298.219L110.161 295.359L116.843 280.154L102.669 283.015Z" fill="white" stroke="black" stroke-linecap="round" stroke-linejoin="round"/>
<path d="M95.9871 298.217L100.442 302.302L114.615 299.443L110.161 295.358L95.9871 298.217Z" fill="black" stroke="black" stroke-linecap="round" stroke-linejoin="round"/>
<path d="M100.438 302.305L114.612 299.444L100.438 337.037L86.2648 339.897L100.438 302.305Z" fill="white" stroke="black" stroke-linecap="round" stroke-linejoin="round"/>
</g>
<g clip-path="url(#clip1_32_10984)">
<path d="M700.276 329.742L711.615 327.866L708.106 321.436L701.626 324.115L700.276 329.742Z" fill="#00D9EE" stroke="black" stroke-linecap="round" stroke-linejoin="round"/>
<path d="M711.616 328.938L724.035 325.881L715.126 324.383L712.966 325.991L711.616 328.938Z" fill="#00D9EE" stroke="black" stroke-linecap="round" stroke-linejoin="round"/>
<path d="M712.966 248.288L734.834 261.685L733.484 267.579L742.124 273.742L740.774 277.761C740.774 277.761 745.363 281.245 745.228 281.188C745.093 281.132 740.774 291.158 740.774 291.158L743.743 293.838L734.294 318.488L731.594 317.417L727.545 326.259L722.415 324.115L721.065 327.062L712.966 322.995L709.727 327.866L687.319 315.273L690.018 309.646L681.919 305.091L683.809 301.34L677.329 297.321L682.729 285.532L678.139 283.12L688.128 257.398L692.397 259.088L695.418 250.699L700.007 252.575L701.627 248.288L710.806 252.039L712.966 248.288Z" fill="white" stroke="black" stroke-linecap="round" stroke-linejoin="round"/>
<path d="M718.093 328.134L727.542 326.259L731.592 317.417L722.143 319.292L718.093 328.134Z" fill="#00D9EE" stroke="black" stroke-linecap="round" stroke-linejoin="round"/>
<path d="M678.679 259.274L687.875 257.982L682.948 260.964L678.679 259.274Z" fill="white" stroke="black" stroke-linecap="round" stroke-linejoin="round"/>
<path d="M685.966 252.575L700.005 251.503L690.826 253.915L685.966 252.575Z" fill="white" stroke="black" stroke-linecap="round" stroke-linejoin="round"/>
<path d="M692.176 250.163L701.626 248.288L710.805 251.771L701.356 253.914L692.176 250.163Z" fill="white" stroke="black" stroke-linecap="round" stroke-linejoin="round"/>
<path d="M703.516 250.163L712.966 248.288L734.834 261.685L725.384 263.56L703.516 250.163Z" fill="white" stroke="black" stroke-linecap="round" stroke-linejoin="round"/>
<path d="M703.516 250.163L725.384 263.561L724.034 269.455L732.673 275.618L731.324 279.637C731.324 279.637 735.913 283.008 735.778 283.064C735.643 283.12 731.324 293.034 731.324 293.034L734.293 295.713L724.844 320.364L722.144 319.292L718.095 328.134L712.965 325.991L711.615 328.938L703.516 324.871L700.276 329.742L677.868 317.149L680.568 311.522L672.469 306.967L674.359 303.216L667.879 299.197L673.279 287.407L668.689 284.996L678.678 259.273L682.947 260.964L685.968 252.575L690.827 253.915L692.177 250.163L701.356 253.915L703.516 250.163Z" fill="#CFF501" stroke="black" stroke-linecap="round" stroke-linejoin="round"/>
<path d="M725.383 263.56L724.033 269.455L733.482 267.58L734.832 261.685L725.383 263.56Z" fill="#00D9EE" stroke="black" stroke-linecap="round" stroke-linejoin="round"/>
<path d="M733.482 267.579L742.122 273.742L732.673 275.618L724.033 269.455L733.482 267.579Z" fill="white" stroke="black" stroke-linecap="round" stroke-linejoin="round"/>
<path d="M740.772 277.761L742.122 273.742L732.673 275.618L731.323 279.637L740.772 277.761Z" fill="#00D9EE" stroke="black" stroke-linecap="round" stroke-linejoin="round"/>
<path d="M731.323 279.637L735.778 283.064L745.227 281.189L740.772 277.762L731.323 279.637Z" fill="white" stroke="black" stroke-linecap="round" stroke-linejoin="round"/>
<path d="M735.778 283.064L731.323 293.034L740.772 291.158L745.227 281.188L735.778 283.064Z" fill="#00D9EE" stroke="black" stroke-linecap="round" stroke-linejoin="round"/>
<path d="M731.323 293.034L734.293 295.713L743.742 293.838L740.772 291.158L731.323 293.034Z" fill="white" stroke="black" stroke-linecap="round" stroke-linejoin="round"/>
<path d="M734.292 295.713L743.742 293.838L734.292 318.488L724.843 320.364L734.292 295.713Z" fill="#00D9EE" stroke="black" stroke-linecap="round" stroke-linejoin="round"/>
</g>
<g clip-path="url(#clip2_32_10984)">
<path d="M198.917 251.664L218.014 248.475L212.103 237.543L201.19 242.098L198.917 251.664Z" fill="#CFF501" stroke="black" stroke-linecap="round" stroke-linejoin="round"/>
<path d="M218.262 250.238L239.178 245.036L223.927 242.554L220.29 245.287L218.262 250.238Z" fill="#CFF501" stroke="black" stroke-linecap="round" stroke-linejoin="round"/>
<path d="M220.289 113.192L257.12 135.967L254.846 145.988L269.396 156.464L267.123 163.297C267.123 163.297 274.853 169.218 274.625 169.123C274.398 169.027 267.123 186.072 267.123 186.072L272.124 190.627L256.21 232.533L251.663 230.711L244.843 245.742L236.204 242.098L233.93 247.109L220.289 240.194L214.833 248.475L177.093 227.067L181.64 217.501L167.999 209.758L171.182 203.381L160.27 196.548L169.363 176.506L161.634 172.407L178.457 128.679L185.646 131.553L190.734 117.291L198.464 120.48L201.192 113.192L216.652 119.569L220.289 113.192Z" fill="white" stroke="black" stroke-linecap="round" stroke-linejoin="round"/>
<path d="M228.928 248.931L244.843 245.742L251.663 230.711L235.749 233.899L228.928 248.931Z" fill="#CFF501" stroke="black" stroke-linecap="round" stroke-linejoin="round"/>
<path d="M162.542 131.867L178.029 129.672L169.731 134.742L162.542 131.867Z" fill="white" stroke="black" stroke-linecap="round" stroke-linejoin="round"/>
<path d="M174.816 120.48L198.46 118.658L183 122.757L174.816 120.48Z" fill="white" stroke="black" stroke-linecap="round" stroke-linejoin="round"/>
<path d="M185.277 116.38L201.191 113.192L216.651 119.113L200.737 122.757L185.277 116.38Z" fill="white" stroke="black" stroke-linecap="round" stroke-linejoin="round"/>
<path d="M204.374 116.38L220.288 113.192L257.119 135.967L241.204 139.155L204.374 116.38Z" fill="#00D9EE" stroke="black" stroke-linecap="round" stroke-linejoin="round"/>
<path d="M204.371 116.38L241.201 139.155L238.928 149.176L253.478 159.653L251.205 166.485C251.205 166.485 258.934 172.215 258.707 172.311C258.48 172.407 251.205 189.26 251.205 189.26L256.206 193.815L240.292 235.721L235.745 233.899L228.925 248.931L220.285 245.287L218.012 250.297L204.371 243.383L198.915 251.664L161.175 230.255L165.722 220.69L152.081 212.946L155.264 206.569L144.351 199.737L153.445 179.695L145.715 175.595L162.539 131.867L169.728 134.741L174.816 120.48L183 122.757L185.274 116.38L200.733 122.757L204.371 116.38Z" fill="white" stroke="black" stroke-linecap="round" stroke-linejoin="round"/>
<path d="M241.203 139.155L238.93 149.176L254.844 145.988L257.118 135.967L241.203 139.155Z" fill="#CFF501" stroke="black" stroke-linecap="round" stroke-linejoin="round"/>
<path d="M254.844 145.988L269.395 156.464L253.48 159.653L238.93 149.176L254.844 145.988Z" fill="#00D9EE" stroke="black" stroke-linecap="round" stroke-linejoin="round"/>
<path d="M267.118 163.297L269.392 156.465L253.478 159.653L251.204 166.486L267.118 163.297Z" fill="#CFF501" stroke="black" stroke-linecap="round" stroke-linejoin="round"/>
<path d="M251.204 166.485L258.707 172.311L274.621 169.123L267.118 163.297L251.204 166.485Z" fill="#00D9EE" stroke="black" stroke-linecap="round" stroke-linejoin="round"/>
<path d="M258.707 172.311L251.204 189.26L267.118 186.072L274.621 169.123L258.707 172.311Z" fill="#CFF501" stroke="black" stroke-linecap="round" stroke-linejoin="round"/>
<path d="M251.204 189.26L256.206 193.815L272.12 190.627L267.118 186.072L251.204 189.26Z" fill="#00D9EE" stroke="black" stroke-linecap="round" stroke-linejoin="round"/>
<path d="M256.21 193.815L272.124 190.627L256.21 232.533L240.296 235.721L256.21 193.815Z" fill="#CFF501" stroke="black" stroke-linecap="round" stroke-linejoin="round"/>
</g>
<g clip-path="url(#clip3_32_10984)">
<path d="M496.414 0.353027C496.414 0.353027 490.464 2.11783 489.064 2.47079C487.664 2.82375 486.803 6.48748 488.459 8.89114C490.114 11.2948 493.264 9.17704 493.264 7.05927C493.264 4.94151 496.414 0.353027 496.414 0.353027Z" fill="white" stroke="black" stroke-linecap="round" stroke-linejoin="round"/>
<path d="M727.597 105.32C727.597 105.32 727.412 112.241 726.012 112.947C724.612 113.653 722.445 113.84 721.08 113.396C719.715 112.951 715.449 109.725 721.08 108.691C726.712 107.656 727.66 104.829 727.66 104.829L727.597 105.32Z" fill="white" stroke="black" stroke-linecap="round" stroke-linejoin="round"/>
<path d="M566.063 190.246C566.063 190.246 581.813 219.188 581.813 223.777C581.813 228.365 576.371 229.633 576.371 229.633C576.371 229.633 581.463 231.542 582.513 236.484C583.563 241.425 578.849 242.145 578.849 242.145L566.763 217.777L566.063 190.246Z" fill="#CFF501"/>
<path d="M538.79 109.368C538.79 109.368 545.762 116.83 543.312 120.36C540.862 123.889 526.512 121.771 527.212 115.771C527.912 109.771 538.79 109.368 538.79 109.368Z" fill="#CFF501"/>
<path d="M536.105 121.725C536.105 121.725 541.817 123.109 543.616 119.791" stroke="black" stroke-linecap="round" stroke-linejoin="round"/>
<path d="M556.26 122.075C556.851 119.586 544.822 114.539 529.39 110.808C513.959 107.077 500.967 106.068 500.375 108.56" stroke="#00D9EE" stroke-linecap="round" stroke-linejoin="round"/>
<path d="M559.823 108.334C560.414 105.846 548.385 100.798 532.953 97.0677C517.522 93.3369 504.53 92.3274 503.939 94.8193" stroke="#00D9EE" stroke-linecap="round" stroke-linejoin="round"/>
<path d="M564.341 177.288C564.341 177.288 575.268 222.118 578.848 242.145L466.306 203.75C466.306 203.75 484.649 169.435 481.188 167.903C460.479 158.723 436.913 130.839 436.913 130.839L472.634 99.5172C472.634 99.5172 484.807 112.076 494.537 118.821C507.245 127.63 520.783 128.089 520.783 128.089L536.568 128.499C536.568 128.499 552.521 129.787 571.022 132.53C572.657 132.773 574.312 133.027 575.975 133.292C579.282 133.818 582.632 134.39 585.953 135.007C586.503 135.106 587.063 135.216 587.623 135.314C590.216 135.809 592.817 136.303 595.41 136.804C616.214 140.814 635.81 145.01 635.81 145.01L611.577 186.328C611.577 186.328 573.535 177.264 564.341 177.285V177.288Z" fill="white"/>
<path d="M520.786 128.093C520.786 128.093 518 127.853 516.747 127.637C516.747 127.637 514.087 134.255 519.995 136.592C525.903 138.932 536.69 134.898 539.172 128.714L536.571 128.495L520.79 128.093H520.786Z" fill="black"/>
<path d="M578.847 242.145C575.687 251.357 474.152 222.344 481.537 202.677C484.25 195.452 582.368 231.874 578.847 242.145Z" fill="black"/>
<path d="M635.811 145.014C627.275 143.21 604.973 182.943 611.578 186.335C618.182 189.727 641.506 146.218 635.811 145.014Z" fill="black"/>
<path d="M472.634 99.5172C465.232 94.8616 431.534 124.803 436.577 130.278C441.621 135.752 477.572 102.62 472.634 99.5172Z" fill="black"/>
<path d="M564.34 177.289L551.561 176.858L568.48 194.622L564.34 177.289Z" fill="black"/>
<path d="M596.925 182.996C596.925 182.996 598.819 158.949 613.82 147.266" stroke="white" stroke-linecap="round" stroke-linejoin="round"/>
<path d="M444.749 140.524C444.749 140.524 464.43 130.144 474.118 116.389" stroke="white" stroke-linecap="round" stroke-linejoin="round"/>
<path d="M506.53 274.878C481.757 270.463 398.297 269.213 398.297 269.213C391.094 282.668 353.129 361.248 353.129 361.248L309.051 342.474L306.688 341.464C306.688 341.464 353.451 228.012 363.867 222.263C379.687 213.534 477.263 207.583 477.263 207.583C477.904 208.765 478.723 210.446 479.699 212.503V212.514C487.952 230.024 506.53 274.878 506.53 274.878Z" fill="#00D9EE"/>
<path d="M398.296 269.213C398.296 269.213 387.404 258.833 385.85 252.367C384.299 245.897 393.777 259.408 393.777 259.408" stroke="black" stroke-linecap="round" stroke-linejoin="round"/>
<path d="M306.685 341.464C311.21 333.632 356.49 351.693 353.13 361.248C349.77 370.802 302.163 349.293 306.685 341.464Z" fill="black"/>
<path d="M328.288 380.24C321.414 378.917 305.1 367.809 305.1 367.809L317.011 347.059L318.957 343.674C334.29 345.294 345.301 353.32 345.301 353.32L339.67 362.229L328.284 380.24H328.288Z" fill="white" stroke="black" stroke-linecap="round" stroke-linejoin="round"/>
<path d="M339.672 362.233C331.59 355.413 317.009 347.062 317.009 347.062L318.955 343.677C334.289 345.298 345.3 353.324 345.3 353.324L339.668 362.233H339.672Z" fill="black"/>
<path d="M318.619 370.121L318.62 370.121C319.359 370.318 320.538 370.509 321.891 370.722C322.029 370.744 322.168 370.766 322.309 370.788C323.573 370.986 324.983 371.207 326.385 371.474C327.944 371.77 329.477 372.119 330.77 372.547C332.079 372.982 333.07 373.475 333.61 374.023C334.084 374.504 334.223 375.175 334.099 376.083C333.974 376.999 333.594 378.056 333.148 379.204C333.082 379.374 333.014 379.546 332.946 379.719C332.564 380.693 332.164 381.711 331.901 382.684C331.592 383.828 331.446 384.997 331.787 386.037L331.787 386.037C332.912 389.459 333.425 395.233 332.2 400.456C331.97 400.441 331.646 400.419 331.238 400.387C330.348 400.317 329.058 400.203 327.458 400.025C324.259 399.67 319.828 399.06 314.899 398.044C305.021 396.007 293.226 392.353 285.321 385.9L285.321 385.899C277.327 379.375 271.43 374.012 267.533 370.283C265.585 368.419 264.136 366.962 263.176 365.973C262.696 365.479 262.338 365.101 262.1 364.847C262.07 364.815 262.041 364.785 262.015 364.757L266.159 358.742C266.268 358.819 266.397 358.909 266.544 359.012C267.055 359.37 267.789 359.88 268.683 360.494C270.472 361.721 272.904 363.361 275.476 365.012C278.046 366.663 280.763 368.328 283.118 369.604C284.296 370.242 285.39 370.786 286.336 371.183C287.269 371.575 288.102 371.842 288.74 371.89C289.417 371.942 290.203 371.72 291.023 371.358C291.855 370.99 292.78 370.452 293.755 369.807C295.705 368.518 297.909 366.768 300.055 365.002C300.804 364.386 301.544 363.77 302.266 363.169C303.622 362.039 304.911 360.965 306.059 360.061C306.936 359.369 307.717 358.786 308.371 358.36C309.044 357.922 309.519 357.691 309.801 357.638C310.008 357.598 310.258 357.654 310.578 357.887C310.903 358.123 311.253 358.51 311.626 359.033C312.37 360.078 313.12 361.55 313.881 363.106C314.001 363.35 314.121 363.597 314.241 363.844C314.875 365.149 315.515 366.465 316.146 367.537C316.522 368.175 316.906 368.747 317.299 369.191C317.684 369.625 318.123 369.988 318.619 370.121Z" fill="#CFF501" stroke="black"/>
<path d="M298.42 359.589C298.42 359.589 303.11 367.322 305.35 371.505C305.35 371.505 295.536 366.051 293.229 364.548C293.229 364.548 297.804 373.926 297.996 377.007C297.996 377.007 289.306 368.879 287.524 367.379C287.524 367.379 289.05 375.885 288.508 378.539C288.508 378.539 284.364 367.89 281.431 365.109" stroke="black" stroke-linecap="round" stroke-linejoin="round"/>
<path d="M331.039 406.271C330.654 407.733 334.927 400.345 330.787 393.769C327.007 387.762 291.769 384.875 285.581 381.458C279.393 378.045 268.627 367.11 268.627 367.11C268.627 367.11 268.277 360.979 266.034 358.039C263.787 355.103 253.178 355.081 250.27 363.023C250.27 363.023 260.329 383.131 280.492 393.268C300.655 403.405 331.042 406.268 331.042 406.268L331.039 406.271Z" fill="white" stroke="black" stroke-linecap="round" stroke-linejoin="round"/>
<path d="M250.269 363.027C256.454 359.363 276.043 382.464 283.911 385.21C291.779 387.956 324.28 392.59 328.893 398.287C333.509 403.984 330.881 410.45 325.365 411.813C319.849 413.175 288.286 406.737 279.288 403.2C270.289 399.66 240.854 368.6 250.266 363.03L250.269 363.027Z" fill="black"/>
<path d="M727.599 102.909C726.987 101.656 726.836 100.304 726.836 100.304C726.836 100.304 727.134 97.8441 726.238 96.7923C725.342 95.7404 723.095 95.1651 723.095 95.1651C723.095 95.1651 722.538 91.8861 720.218 92.2885C717.897 92.6909 707.842 95.391 706.162 96.7676C704.485 98.1441 698.224 107.155 698.224 107.155L640.624 149.055L636.816 148.053L632.333 146.874C619.75 156.548 612.722 180.197 612.722 180.197C612.722 180.197 619.561 183.052 627.377 185.848C635.343 188.703 644.432 192.176 648.065 191.153C658.887 188.1 713.361 119.721 713.361 119.721C713.361 119.721 717.463 116.869 719.199 115.845C720.939 114.821 721.46 110.875 721.46 110.875C722.122 111.966 723.707 111.451 725.132 111.377C726.553 111.302 728.208 104.166 727.596 102.913L727.599 102.909Z" fill="white" stroke="black" stroke-linecap="round" stroke-linejoin="round"/>
<path d="M636.816 148.053C636.816 148.053 628.266 169.664 627.377 185.844C619.561 183.049 612.722 180.193 612.722 180.193C612.722 180.193 619.75 156.548 632.333 146.87L636.816 148.049V148.053Z" fill="black"/>
<path d="M710.678 99.556C710.678 99.556 716.747 97.8018 717.965 98.3771C719.183 98.9524 717.506 103.174 713.005 104.805C713.005 104.805 713.513 109.989 708.322 111.955" stroke="black" stroke-linecap="round" stroke-linejoin="round"/>
<path d="M723.095 95.1652C723.095 95.1652 722.979 99.796 722.339 101.317C721.698 102.842 719.367 105.641 718.142 105.288C716.917 104.935 716.056 103.534 717.029 102.009" stroke="black" stroke-linecap="round" stroke-linejoin="round"/>
<path d="M719.027 105.32C719.027 105.32 718.589 107.843 720.353 107.907C722.117 107.967 724.672 105.56 725.547 104.042C726.422 102.528 726.811 101.85 726.835 100.304" stroke="black" stroke-linecap="round" stroke-linejoin="round"/>
<path d="M720.941 107.925C720.941 107.925 720.125 109.474 721.462 110.872" stroke="black" stroke-linecap="round" stroke-linejoin="round"/>
<path d="M505.923 3.55792C505.923 3.55792 504.981 1.41898 503.802 0.706004C502.622 -0.00697605 500.27 0.706004 500.27 0.706004C500.27 0.706004 498.923 0.783655 497.593 0.38834C496.263 -0.00697605 489.567 2.84141 489.735 4.26737C489.903 5.69333 489.669 7.35578 490.845 7.82874C490.845 7.82874 487.075 9.01469 486.368 10.9171C485.665 12.809 483.586 17.3304 483.568 17.3728C483.568 17.3728 425.937 83.0693 424.775 94.3464C424.39 98.1266 429.318 106.576 433.459 114.006C437.515 121.309 441.46 127.623 441.46 127.623C441.46 127.623 442.461 127.126 444.109 126.198C450.164 122.781 464.945 113.622 470.713 102.496L468.809 98.2431L467.178 94.6287L498.405 30.3017C498.405 30.3017 506.157 22.5578 507.218 20.6589C508.278 18.7599 509.22 8.30877 509.223 5.93335C509.223 3.55792 505.926 3.55792 505.926 3.55792H505.923Z" fill="white" stroke="black" stroke-linecap="round" stroke-linejoin="round"/>
<path d="M468.801 98.2467C468.801 98.2467 449.124 110.396 433.458 114.01C437.511 121.306 441.456 127.62 441.456 127.62C441.456 127.62 463.38 116.639 470.712 102.5L468.801 98.2432V98.2467Z" fill="black"/>
<path d="M503.728 16.6455C503.728 16.6455 504.417 10.3169 503.651 9.20512C502.881 8.0933 499.041 10.4722 498.208 15.2196C498.208 15.2196 493.053 15.5902 492.013 21.0822" stroke="black" stroke-linecap="round" stroke-linejoin="round"/>
<path d="M505.924 3.55786C505.924 3.55786 501.419 4.45438 500.037 5.34737C498.658 6.24036 496.313 9.03228 496.866 10.19C497.415 11.3477 498.934 11.9689 500.261 10.7441" stroke="black" stroke-linecap="round" stroke-linejoin="round"/>
<path d="M496.688 9.3183C496.688 9.3183 494.294 10.1795 493.937 8.4359C493.58 6.69227 495.501 3.74505 496.835 2.61911C498.168 1.49317 498.763 0.995493 500.272 0.709595" stroke="black" stroke-linecap="round" stroke-linejoin="round"/>
<path d="M493.818 7.85333C493.818 7.85333 492.439 8.92633 490.85 7.83215Z" fill="white"/>
<path d="M493.818 7.85333C493.818 7.85333 492.439 8.92633 490.85 7.83215" stroke="black" stroke-linecap="round" stroke-linejoin="round"/>
<path d="M547.491 288.637C526.068 283.632 460.853 257.788 460.853 257.788L422.409 290.674C422.409 290.674 373.167 215.754 377.143 200.725C381.109 185.703 389.82 173.688 405.689 176.883C430.011 181.771 452.103 187.546 471.556 193.447C471.584 193.458 471.601 193.458 471.601 193.458C529.904 211.173 564.491 230.077 564.491 230.077C589.337 265.331 562.657 292.174 547.495 288.633L547.491 288.637Z" fill="#00D9EE"/>
<path d="M422.401 290.677C417.508 283.074 453.908 250.454 460.849 257.788C467.793 265.123 427.294 298.28 422.401 290.677Z" fill="black"/>
<path d="M433.703 206.051C433.703 206.051 426.888 198.375 423.647 196.606C420.406 194.838 427.931 209.532 433.37 216.044C438.809 222.556 450.943 247.507 460.848 257.788" stroke="black" stroke-linecap="round" stroke-linejoin="round"/>
<path d="M468.21 287.957C463.332 293.018 445.163 300.649 445.163 300.649L434.53 279.203L432.798 275.702C442.57 263.68 455.278 258.82 455.278 258.82L459.559 268.463L468.21 287.957Z" fill="white" stroke="black" stroke-linecap="round" stroke-linejoin="round"/>
<path d="M459.559 268.458C449.468 271.515 434.53 279.199 434.53 279.199L432.798 275.697C442.57 263.676 455.278 258.815 455.278 258.815L459.559 268.458Z" fill="black"/>
<path d="M454.516 290.526C455.086 290.012 455.892 289.125 456.813 288.103C456.907 287.998 457.004 287.891 457.101 287.783C457.959 286.829 458.917 285.764 459.907 284.732C461.01 283.581 462.142 282.481 463.208 281.629C464.289 280.764 465.242 280.202 465.992 280.049C466.647 279.915 467.275 280.165 467.958 280.768C468.647 281.376 469.313 282.277 470.018 283.284C470.122 283.433 470.227 283.584 470.333 283.736C470.929 284.594 471.553 285.491 472.216 286.249C472.993 287.138 473.883 287.906 474.935 288.191C478.387 289.128 483.451 291.869 487.102 295.773C486.962 295.959 486.764 296.221 486.511 296.55C485.964 297.261 485.159 298.286 484.133 299.535C482.079 302.034 479.136 305.431 475.584 309.023C468.464 316.223 458.95 324.147 449.258 327.255C439.459 330.397 431.774 332.414 426.542 333.646C423.926 334.261 421.923 334.68 420.576 334.945C419.902 335.078 419.392 335.172 419.052 335.232C419.011 335.24 418.972 335.246 418.936 335.253L416.236 328.455C416.36 328.405 416.507 328.345 416.676 328.277C417.252 328.044 418.079 327.706 419.079 327.29C421.079 326.459 423.775 325.312 426.557 324.055C429.337 322.798 432.211 321.426 434.564 320.143C435.74 319.502 436.792 318.88 437.641 318.301C438.479 317.731 439.158 317.177 439.549 316.666C439.963 316.126 440.211 315.344 440.362 314.455C440.516 313.553 440.579 312.479 440.581 311.303C440.586 308.951 440.349 306.133 440.067 303.354C439.968 302.384 439.864 301.42 439.763 300.481C439.574 298.718 439.393 297.043 439.275 295.58C439.185 294.461 439.132 293.482 439.138 292.697C439.145 291.889 439.215 291.36 439.327 291.091L439.327 291.091C439.41 290.891 439.595 290.711 439.964 290.57C440.337 290.427 440.849 290.344 441.487 290.318C442.761 290.267 444.392 290.444 446.1 290.659C446.367 290.693 446.637 290.727 446.907 290.762C448.338 290.946 449.78 291.131 451.015 291.189C451.75 291.223 452.437 291.214 453.02 291.127C453.592 291.041 454.134 290.871 454.516 290.526ZM454.516 290.526L454.181 290.155M454.516 290.526C454.516 290.526 454.516 290.526 454.516 290.526L454.181 290.155M454.181 290.155C454.783 289.612 455.677 288.618 456.729 287.448C459.497 284.371 463.361 280.075 465.892 279.559C467.771 279.175 469.232 281.277 470.747 283.455C472.048 285.326 473.388 287.254 475.066 287.709C478.695 288.693 484.015 291.602 487.75 295.739M454.181 290.155C453.176 291.063 450.111 290.669 446.976 290.267C443.299 289.795 439.525 289.31 438.865 290.899C438.36 292.115 438.786 296.071 439.267 300.544C439.95 306.893 440.745 314.283 439.152 316.362L487.75 295.739M487.75 295.739C487.75 295.739 469.035 321.438 449.411 327.731C429.786 334.024 418.621 335.814 418.621 335.814L487.75 295.739Z" fill="#CFF501" stroke="black"/>
<path d="M434.679 301.749C434.679 301.749 443.664 302.049 448.357 302.466C448.357 302.466 438.442 307.732 435.929 308.847C435.929 308.847 446.212 310.153 448.868 311.685C448.868 311.685 437.357 314.534 435.134 315.208C435.134 315.208 443.02 318.603 444.917 320.52C444.917 320.52 433.818 318.155 429.902 319.094" stroke="black" stroke-linecap="round" stroke-linejoin="round"/>
<path d="M491.282 299.953C492.279 301.082 488.513 293.42 480.789 293.289C473.736 293.169 451.963 321.258 445.733 324.593C439.503 327.925 424.526 330.982 424.526 330.982C424.526 330.982 419.255 327.904 415.587 328.179C411.919 328.454 406.067 337.377 411.044 344.196C411.044 344.196 433.231 346.784 452.715 335.38C472.2 323.972 491.282 299.956 491.282 299.956V299.953Z" fill="white" stroke="black" stroke-linecap="round" stroke-linejoin="round"/>
<path d="M411.043 344.196C411.411 336.971 441.318 333.177 447.919 328.063C454.52 322.948 476.234 298.124 483.489 297.369C490.745 296.614 494.654 302.385 492.75 307.778C490.846 313.175 468.156 336.216 460.274 341.849C452.392 347.482 410.483 355.188 411.043 344.196Z" fill="black"/>
<path d="M534.999 113.695C535.398 111.5 535.681 108.811 535.849 105.503C535.849 105.503 527.421 104.324 521.475 101.984C521.475 101.984 519.319 108.818 516.834 112.647C514.731 115.894 515.529 121.295 520.698 122.876C520.838 124.556 520.915 126.448 520.785 128.089V128.096C520.715 128.993 520.537 129.303 520.32 129.974C519.095 133.708 526.585 134.051 530.746 132.095C535.121 130.041 536.567 128.502 536.567 128.502C536.567 128.502 535.261 118.951 534.999 113.699V113.695Z" fill="white" stroke="black" stroke-linecap="round" stroke-linejoin="round"/>
<path d="M523.926 122.971C522.701 122.971 521.63 122.809 520.699 122.523C520.839 124.203 520.916 126.095 520.787 127.736V127.743C527.906 126.91 530.37 123.907 531.171 121.468C529.302 122.851 526.891 122.978 523.926 122.975V122.971Z" fill="black"/>
<path d="M520.682 104.296C520.682 104.296 516.633 104.166 516.15 99.0265C516.15 99.0265 518.463 99.8877 520.213 99.8877C520.213 99.8877 517.763 97.7699 518.813 95.2992C518.813 95.2992 519.779 97.6676 522.096 98.2464C524.413 98.8253 529.663 96.711 533.163 98.8288C536.663 100.947 539.222 103.816 539.169 106.089C539.141 107.25 538.424 109.523 537.363 111.182C536.348 112.771 534.987 113.777 534.987 113.777C534.987 113.777 535.963 107.653 533.863 105.888C531.763 104.123 524.063 104.829 523.013 105.535C521.963 106.241 519.163 105.888 519.163 105.888C519.163 105.888 520.213 104.829 520.682 104.296Z" fill="black"/>
<path d="M535.263 109.771C535.263 109.771 533.863 112.594 532.463 112.594C532.463 112.594 533.513 113.3 534.213 112.947C534.213 112.947 533.863 114.359 533.163 114.359C533.163 114.359 535.043 114.709 535.851 112.771C536.66 110.833 535.263 109.771 535.263 109.771Z" fill="black"/>
<path d="M537.363 111.183C537.363 111.183 536.663 114.006 538.063 116.124C538.063 116.124 537.111 115.715 536.362 115.39L536.663 117.183C536.663 117.183 535.134 115.82 535.2 114.384C535.267 112.947 535.599 110.12 535.599 110.12L537.367 111.183H537.363Z" fill="black"/>
<path d="M531.763 95.6522C523.769 94.2298 521.613 99.8878 521.613 99.8878C533.821 105.482 537.17 110.932 537.363 111.182C544.013 104.123 537.713 96.7111 531.763 95.6522ZM527.563 101.3C526.863 100.947 523.895 99.5207 523.895 99.5207C523.895 99.5207 525.267 97.6712 526.863 98.4759C528.263 99.1818 527.563 101.3 527.563 101.3Z" fill="#CFF501"/>
<path d="M525.462 100.241C525.462 100.241 528.962 101.653 528.962 102.358C528.962 103.064 528.489 104.067 527.212 103.417" stroke="black" stroke-linecap="round" stroke-linejoin="round"/>
<path d="M534.129 96.4003C534.129 96.4003 533.611 94.4591 536.362 95.938" stroke="black" stroke-linecap="round" stroke-linejoin="round"/>
<path d="M536.362 97.7418C536.362 97.7418 538.857 102.482 537.412 104.54C535.966 106.598 534.09 108.338 534.09 108.338" stroke="black" stroke-linecap="round" stroke-linejoin="round"/>
<path d="M537.364 111.183C537.364 111.183 540.609 108.546 540.213 104.219" stroke="black" stroke-linecap="round" stroke-linejoin="round"/>
<path d="M556.258 122.075C555.666 124.563 542.674 123.557 527.243 119.827C511.811 116.096 499.782 111.049 500.373 108.56L503.936 94.8195C503.345 97.3078 515.374 102.355 530.806 106.086C546.237 109.817 559.229 110.826 559.821 108.334L556.258 122.075Z" stroke="#00D9EE" stroke-linecap="round" stroke-linejoin="round"/>
<path d="M506.143 99.2241L503.728 109.368" stroke="#00D9EE" stroke-linecap="round" stroke-linejoin="round"/>
<path d="M508.669 101.028L506.391 110.611" stroke="#00D9EE" stroke-linecap="round" stroke-linejoin="round"/>
<path d="M576.369 229.632C576.369 229.632 565.264 220.607 543.613 214.074" stroke="white" stroke-linecap="round" stroke-linejoin="round"/>
<path d="M443.037 216.541C443.037 216.541 467.446 223.322 486.916 233.522C506.386 243.723 537.554 255.745 544.893 250.613C552.233 245.48 551.711 237.895 551.711 237.895" stroke="white" stroke-linecap="round" stroke-linejoin="round"/>
<path d="M543.613 227.123C543.137 226.424 547.687 241.601 563.087 240.895" stroke="white" stroke-linecap="round" stroke-linejoin="round"/>
<path d="M465.04 258.815C465.04 258.815 514.698 279.054 540.381 286.71" stroke="black" stroke-linecap="round" stroke-linejoin="round"/>
<path d="M500.076 202.8C500.076 202.8 535.262 215.21 566.762 231.316" stroke="black" stroke-linecap="round" stroke-linejoin="round"/>
<path d="M483.112 166.244C483.112 166.244 489.846 163.025 492.975 159.912C498.001 154.914 502.099 142.321 498.613 141.897C495.127 141.474 496.692 155.44 487.554 159.39" stroke="black" stroke-linecap="round" stroke-linejoin="round"/>
<path d="M557.431 132.452C557.431 132.452 552.412 145.067 561.162 162.009" stroke="black" stroke-linecap="round" stroke-linejoin="round"/>
<path d="M380.593 216.541C380.593 216.541 394.264 248.622 411.036 272.733" stroke="white" stroke-linecap="round" stroke-linejoin="round"/>
<path d="M441.801 299.448C441.801 299.448 410.385 288.93 409.125 298.177C407.865 307.425 432.799 300.645 432.799 300.645" stroke="black" stroke-linecap="round" stroke-linejoin="round"/>
<path d="M444.161 300.644C444.161 300.644 456.162 267.191 463.512 283.427C470.862 299.663 448.462 299.663 448.462 299.663" stroke="black" stroke-linecap="round" stroke-linejoin="round"/>
<path d="M302.31 363.652C302.31 363.652 287.677 341.609 297.018 335.814C306.36 330.018 305.096 365.004 305.096 365.004" stroke="black" stroke-linecap="round" stroke-linejoin="round"/>
<path d="M307.062 365.667C307.062 365.667 352.562 356.843 350.462 372.726C348.362 388.609 306.688 367.975 306.688 367.975" stroke="black" stroke-linecap="round" stroke-linejoin="round"/>
</g>
<defs>
<clipPath id="clip0_32_10984">
<rect width="116.836" height="125.035" fill="white" transform="translate(0.415405 229.572)"/>
</clipPath>
<clipPath id="clip1_32_10984">
<rect width="77.8905" height="81.9901" fill="white" transform="translate(667.609 248.02)"/>
</clipPath>
<clipPath id="clip2_32_10984">
<rect width="131.184" height="139.383" fill="white" transform="translate(143.898 112.736)"/>
</clipPath>
<clipPath id="clip3_32_10984">
<rect width="479.642" height="412" fill="white" transform="translate(248.435)"/>
</clipPath>
</defs>
</svg>
