<svg width="804" height="346" viewBox="0 0 804 346" fill="none" xmlns="http://www.w3.org/2000/svg">
<g clip-path="url(#clip0_611_7)">
<path d="M148.746 160.521L161.848 158.329L157.792 150.812L150.306 153.944L148.746 160.521Z" fill="#CFF501" stroke="black" stroke-width="2" stroke-linecap="round" stroke-linejoin="round"/>
<path d="M162.018 159.541L176.367 155.965L165.904 154.258L163.409 156.137L162.018 159.541Z" fill="#CFF501" stroke="black" stroke-width="2" stroke-linecap="round" stroke-linejoin="round"/>
<path d="M163.409 65.3125L188.676 80.9715L187.116 87.8614L197.098 95.0646L195.539 99.7622C195.539 99.7622 200.842 103.834 200.686 103.768C200.53 103.702 195.539 115.421 195.539 115.421L198.97 118.553L188.052 147.366L184.933 146.113L180.253 156.448L174.327 153.942L172.767 157.387L163.409 152.633L159.665 158.327L133.774 143.607L136.894 137.031L127.535 131.707L129.719 127.322L122.232 122.624L128.471 108.844L123.168 106.026L134.71 75.9606L139.642 77.9368L143.132 68.1311L148.435 70.3234L150.307 65.3125L160.913 69.697L163.409 65.3125Z" fill="white" stroke="black" stroke-width="2" stroke-linecap="round" stroke-linejoin="round"/>
<path d="M169.334 158.637L180.252 156.444L184.931 146.109L174.013 148.302L169.334 158.637Z" fill="#CFF501" stroke="black" stroke-width="2" stroke-linecap="round" stroke-linejoin="round"/>
<path d="M123.791 78.1502L134.416 76.6406L128.723 80.1263L123.791 78.1502Z" fill="white" stroke="black" stroke-width="2" stroke-linecap="round" stroke-linejoin="round"/>
<path d="M132.211 70.323L148.432 69.0703L137.826 71.8889L132.211 70.323Z" fill="white" stroke="black" stroke-width="2" stroke-linecap="round" stroke-linejoin="round"/>
<path d="M139.389 67.5048L150.307 65.3125L160.913 69.3838L149.995 71.8893L139.389 67.5048Z" fill="white" stroke="black" stroke-width="2" stroke-linecap="round" stroke-linejoin="round"/>
<path d="M152.488 67.5048L163.406 65.3125L188.673 80.9715L177.755 83.1637L152.488 67.5048Z" fill="#00D9EE" stroke="black" stroke-width="2" stroke-linecap="round" stroke-linejoin="round"/>
<path d="M152.487 67.5078L177.754 83.1668L176.194 90.0567L186.176 97.2599L184.617 101.958C184.617 101.958 189.92 105.897 189.764 105.963C189.608 106.029 184.617 117.617 184.617 117.617L188.048 120.748L177.13 149.561L174.011 148.308L169.332 158.643L163.405 156.138L161.845 159.583L152.487 154.829L148.743 160.522L122.852 145.803L125.972 139.226L116.614 133.902L118.797 129.517L111.311 124.82L117.549 111.04L112.246 108.221L123.788 78.1559L128.72 80.1321L132.211 70.3264L137.826 71.8923L139.385 67.5078L149.991 71.8923L152.487 67.5078Z" fill="white" stroke="black" stroke-width="2" stroke-linecap="round" stroke-linejoin="round"/>
<path d="M177.755 83.161L176.195 90.051L187.113 87.8587L188.673 80.9688L177.755 83.161Z" fill="#CFF501" stroke="black" stroke-width="2" stroke-linecap="round" stroke-linejoin="round"/>
<path d="M187.113 87.8594L197.095 95.0625L186.177 97.2548L176.195 90.0516L187.113 87.8594Z" fill="#00D9EE" stroke="black" stroke-width="2" stroke-linecap="round" stroke-linejoin="round"/>
<path d="M195.535 99.7602L197.095 95.0625L186.177 97.2548L184.617 101.952L195.535 99.7602Z" fill="#CFF501" stroke="black" stroke-width="2" stroke-linecap="round" stroke-linejoin="round"/>
<path d="M184.617 101.958L189.764 105.963L200.682 103.771L195.535 99.7656L184.617 101.958Z" fill="#00D9EE" stroke="black" stroke-width="2" stroke-linecap="round" stroke-linejoin="round"/>
<path d="M189.764 105.958L184.617 117.611L195.535 115.419L200.682 103.766L189.764 105.958Z" fill="#CFF501" stroke="black" stroke-width="2" stroke-linecap="round" stroke-linejoin="round"/>
<path d="M184.617 117.614L188.049 120.746L198.966 118.554L195.535 115.422L184.617 117.614Z" fill="#00D9EE" stroke="black" stroke-width="2" stroke-linecap="round" stroke-linejoin="round"/>
<path d="M188.051 120.747L198.969 118.555L188.051 147.367L177.133 149.559L188.051 120.747Z" fill="#CFF501" stroke="black" stroke-width="2" stroke-linecap="round" stroke-linejoin="round"/>
</g>
<g clip-path="url(#clip1_611_7)">
<path d="M744.639 246.809L759.439 244.312L754.858 235.75L746.401 239.318L744.639 246.809Z" fill="#00D9EE" stroke="black" stroke-width="2" stroke-linecap="round" stroke-linejoin="round"/>
<path d="M759.439 245.737L775.649 241.666L764.02 239.672L761.201 241.812L759.439 245.737Z" fill="#00D9EE" stroke="black" stroke-width="2" stroke-linecap="round" stroke-linejoin="round"/>
<path d="M761.201 138.359L789.744 156.197L787.982 164.046L799.258 172.251L797.496 177.602C797.496 177.602 803.487 182.24 803.311 182.165C803.134 182.09 797.496 195.44 797.496 195.44L801.372 199.007L789.039 231.828L785.515 230.401L780.23 242.174L773.535 239.32L771.773 243.245L761.201 237.829L756.973 244.315L727.725 227.547L731.249 220.056L720.678 213.991L723.145 208.996L714.688 203.645L721.735 187.948L715.745 184.737L728.783 150.489L734.354 152.74L738.297 141.57L744.287 144.067L746.402 138.359L758.382 143.354L761.201 138.359Z" fill="white" stroke="black" stroke-width="2" stroke-linecap="round" stroke-linejoin="round"/>
<path d="M767.893 244.669L780.226 242.171L785.511 230.398L773.178 232.896L767.893 244.669Z" fill="#00D9EE" stroke="black" stroke-width="2" stroke-linecap="round" stroke-linejoin="round"/>
<path d="M716.449 152.985L728.451 151.266L722.02 155.236L716.449 152.985Z" fill="white" stroke="black" stroke-width="2" stroke-linecap="round" stroke-linejoin="round"/>
<path d="M725.959 144.068L744.283 142.641L732.302 145.851L725.959 144.068Z" fill="white" stroke="black" stroke-width="2" stroke-linecap="round" stroke-linejoin="round"/>
<path d="M734.064 140.857L746.398 138.359L758.379 142.997L746.045 145.851L734.064 140.857Z" fill="white" stroke="black" stroke-width="2" stroke-linecap="round" stroke-linejoin="round"/>
<path d="M748.867 140.857L761.2 138.359L789.743 156.197L777.41 158.694L748.867 140.857Z" fill="white" stroke="black" stroke-width="2" stroke-linecap="round" stroke-linejoin="round"/>
<path d="M748.865 140.852L777.408 158.689L775.646 166.538L786.922 174.743L785.16 180.094C785.16 180.094 791.151 184.582 790.975 184.657C790.798 184.732 785.16 197.932 785.16 197.932L789.037 201.499L776.703 234.321L773.18 232.894L767.894 244.666L761.199 241.812L759.437 245.737L748.865 240.321L744.637 246.807L715.39 230.04L718.913 222.548L708.342 216.483L710.809 211.489L702.352 206.137L709.399 190.44L703.409 187.229L716.447 152.981L722.018 155.232L725.961 144.062L732.304 145.846L734.066 140.852L746.046 145.846L748.865 140.852Z" fill="#CFF501" stroke="black" stroke-width="2" stroke-linecap="round" stroke-linejoin="round"/>
<path d="M777.408 158.693L775.646 166.541L787.98 164.044L789.742 156.195L777.408 158.693Z" fill="#00D9EE" stroke="black" stroke-width="2" stroke-linecap="round" stroke-linejoin="round"/>
<path d="M787.98 164.039L799.256 172.244L786.923 174.742L775.646 166.536L787.98 164.039Z" fill="white" stroke="black" stroke-width="2" stroke-linecap="round" stroke-linejoin="round"/>
<path d="M797.493 177.601L799.255 172.25L786.922 174.747L785.16 180.099L797.493 177.601Z" fill="#00D9EE" stroke="black" stroke-width="2" stroke-linecap="round" stroke-linejoin="round"/>
<path d="M785.16 180.099L790.974 184.662L803.308 182.164L797.493 177.602L785.16 180.099Z" fill="white" stroke="black" stroke-width="2" stroke-linecap="round" stroke-linejoin="round"/>
<path d="M790.974 184.661L785.16 197.936L797.493 195.439L803.308 182.164L790.974 184.661Z" fill="#00D9EE" stroke="black" stroke-width="2" stroke-linecap="round" stroke-linejoin="round"/>
<path d="M785.16 197.935L789.036 201.502L801.37 199.005L797.493 195.438L785.16 197.935Z" fill="white" stroke="black" stroke-width="2" stroke-linecap="round" stroke-linejoin="round"/>
<path d="M789.036 201.505L801.37 199.008L789.036 231.829L776.703 234.326L789.036 201.505Z" fill="#00D9EE" stroke="black" stroke-width="2" stroke-linecap="round" stroke-linejoin="round"/>
</g>
<g clip-path="url(#clip2_611_7)">
<path d="M33.832 276.725L45.5749 274.759L41.9402 268.016L35.23 270.825L33.832 276.725Z" fill="white" stroke="black" stroke-width="2" stroke-linecap="round" stroke-linejoin="round"/>
<path d="M45.5723 275.886L58.4335 272.68L49.207 271.109L46.9702 272.795L45.5723 275.886Z" fill="white" stroke="black" stroke-width="2" stroke-linecap="round" stroke-linejoin="round"/>
<path d="M46.9725 191.281L69.6194 205.335L68.2214 211.519L77.1684 217.984L75.7704 222.201C75.7704 222.201 80.5235 225.855 80.3837 225.796C80.2439 225.737 75.7704 236.255 75.7704 236.255L78.8459 239.066L69.0602 264.925L66.2643 263.801L62.0704 273.077L56.7582 270.828L55.3602 273.92L46.9725 269.653L43.6174 274.763L20.4113 261.552L23.2072 255.65L14.8195 250.871L16.7766 246.936L10.0664 242.72L15.6582 230.352L10.9052 227.822L21.2501 200.838L25.6704 202.612L28.799 193.811L33.5521 195.779L35.2296 191.281L44.7358 195.216L46.9725 191.281Z" fill="white" stroke="black" stroke-width="2" stroke-linecap="round" stroke-linejoin="round"/>
<path d="M52.2852 275.04L62.0709 273.073L66.2647 263.797L56.479 265.764L52.2852 275.04Z" fill="white" stroke="black" stroke-width="2" stroke-linecap="round" stroke-linejoin="round"/>
<path d="M11.4629 202.807L20.9858 201.453L15.8832 204.58L11.4629 202.807Z" fill="white" stroke="black" stroke-width="2" stroke-linecap="round" stroke-linejoin="round"/>
<path d="M19.0137 195.78L33.5524 194.656L24.0463 197.185L19.0137 195.78Z" fill="white" stroke="black" stroke-width="2" stroke-linecap="round" stroke-linejoin="round"/>
<path d="M25.4434 193.248L35.2291 191.281L44.7352 194.934L34.9495 197.181L25.4434 193.248Z" fill="white" stroke="black" stroke-width="2" stroke-linecap="round" stroke-linejoin="round"/>
<path d="M37.1855 193.249L46.9713 191.281L69.6182 205.335L59.8325 207.303L37.1855 193.249Z" fill="black" stroke="black" stroke-linecap="round" stroke-linejoin="round"/>
<path d="M37.1834 193.25L59.8303 207.304L58.4324 213.488L67.3793 219.953L65.9814 224.169C65.9814 224.169 70.7344 227.705 70.5946 227.764C70.4548 227.823 65.9814 238.224 65.9814 238.224L69.0569 241.034L59.2712 266.894L56.4752 265.77L52.2814 275.046L46.9691 272.797L45.5712 275.889L37.1834 271.622L33.8283 276.732L10.6222 263.521L13.4181 257.618L5.0304 252.84L6.98754 248.905L0.277344 244.688L5.86917 232.321L1.11612 229.791L11.461 202.807L15.8813 204.581L19.01 195.78L24.0426 197.185L25.4406 193.25L34.9467 197.185L37.1834 193.25Z" fill="#00D9EE" stroke="black" stroke-width="2" stroke-linecap="round" stroke-linejoin="round"/>
<path d="M59.8316 207.303L58.4336 213.484L68.2193 211.517L69.6173 205.336L59.8316 207.303Z" fill="white" stroke="black" stroke-width="2" stroke-linecap="round" stroke-linejoin="round"/>
<path d="M68.2193 211.516L77.1662 217.978L67.3805 219.944L58.4336 213.482L68.2193 211.516Z" fill="black" stroke="black" stroke-linecap="round" stroke-linejoin="round"/>
<path d="M75.7701 222.199L77.168 217.984L67.3823 219.951L65.9844 224.165L75.7701 222.199Z" fill="white" stroke="black" stroke-width="2" stroke-linecap="round" stroke-linejoin="round"/>
<path d="M65.9844 224.17L70.5976 227.763L80.3833 225.797L75.7701 222.203L65.9844 224.17Z" fill="black" stroke="black" stroke-linecap="round" stroke-linejoin="round"/>
<path d="M70.5976 227.764L65.9844 238.224L75.7701 236.256L80.3833 225.797L70.5976 227.764Z" fill="white" stroke="black" stroke-width="2" stroke-linecap="round" stroke-linejoin="round"/>
<path d="M65.9844 238.224L69.0599 241.034L78.8456 239.067L75.7701 236.258L65.9844 238.224Z" fill="black" stroke="black" stroke-linecap="round" stroke-linejoin="round"/>
<path d="M69.0572 241.03L78.8429 239.062L69.0572 264.922L59.2715 266.89L69.0572 241.03Z" fill="white" stroke="black" stroke-width="2" stroke-linecap="round" stroke-linejoin="round"/>
</g>
<g clip-path="url(#clip3_611_7)">
<path d="M694.488 22.2055C694.488 22.2055 694.291 29.5135 692.799 30.2588C691.308 31.0041 689 31.2016 687.545 30.7321C686.091 30.2625 681.546 26.8564 687.545 25.7644C693.545 24.6725 694.556 21.6875 694.556 21.6875L694.488 22.2055Z" fill="white" stroke="black" stroke-width="2" stroke-linecap="round" stroke-linejoin="round"/>
<path d="M522.395 111.867C522.395 111.867 539.174 142.426 539.174 147.27C539.174 152.115 533.376 153.453 533.376 153.453C533.376 153.453 538.801 155.469 539.92 160.686C541.039 165.904 536.016 166.664 536.016 166.664L523.14 140.935L522.395 111.867Z" fill="white"/>
<path d="M493.338 26.4766C493.338 26.4766 500.766 34.3547 498.155 38.0813C495.545 41.808 480.257 39.572 481.003 33.2367C481.749 26.9014 493.338 26.4766 493.338 26.4766Z" fill="#CFF501"/>
<path d="M490.479 39.5266C490.479 39.5266 496.564 40.9874 498.481 37.4844" stroke="black" stroke-width="2" stroke-linecap="round" stroke-linejoin="round"/>
<path d="M511.95 39.8929C512.58 37.2656 499.764 31.9365 483.324 27.9974C466.884 24.0584 453.042 22.9925 452.412 25.6236" stroke="#00D9EE" stroke-width="2" stroke-linecap="round" stroke-linejoin="round"/>
<path d="M515.747 25.3851C516.377 22.7578 503.561 17.4287 487.121 13.4896C470.68 9.55055 456.839 8.48473 456.209 11.1157" stroke="#00D9EE" stroke-width="2" stroke-linecap="round" stroke-linejoin="round"/>
<path d="M520.559 98.1832C520.559 98.1832 532.201 145.515 536.015 166.66L416.115 126.122C416.115 126.122 435.658 89.8914 431.97 88.274C409.907 78.581 384.801 49.1405 384.801 49.1405L422.857 16.0703C422.857 16.0703 435.826 29.3297 446.192 36.4513C459.731 45.753 474.154 46.2375 474.154 46.2375L490.971 46.6698C490.971 46.6698 507.967 48.03 527.678 50.9256C529.419 51.1827 531.183 51.4511 532.954 51.7306C536.478 52.2858 540.046 52.8895 543.585 53.5417C544.17 53.6461 544.767 53.7616 545.363 53.8659C548.126 54.3877 550.897 54.9094 553.66 55.4386C575.824 59.672 596.702 64.103 596.702 64.103L570.883 107.727C570.883 107.727 530.355 98.1571 520.559 98.1794V98.1832Z" fill="white"/>
<path d="M474.156 46.2386C474.156 46.2386 471.188 45.9851 469.853 45.7578C469.853 45.7578 467.019 52.7453 473.313 55.2123C479.608 57.6831 491.1 53.4235 493.743 46.8944L490.973 46.6634L474.16 46.2386H474.156Z" fill="black"/>
<path d="M536.013 166.665C532.646 176.392 424.473 145.759 432.341 124.994C435.231 117.365 539.764 155.82 536.013 166.665Z" fill="black"/>
<path d="M596.702 64.1098C587.607 62.2054 563.847 104.156 570.883 107.738C577.92 111.319 602.769 65.3805 596.702 64.1098Z" fill="black"/>
<path d="M422.856 16.0716C414.97 11.1562 379.069 42.7693 384.442 48.5493C389.815 54.3293 428.118 19.3473 422.856 16.0716Z" fill="black"/>
<path d="M520.557 98.1812L506.943 97.7266L524.968 116.483L520.557 98.1812Z" fill="black"/>
<path d="M555.273 104.209C555.273 104.209 557.291 78.8196 573.272 66.4844" stroke="black" stroke-width="2" stroke-linecap="round" stroke-linejoin="round"/>
<path d="M393.148 59.3656C393.148 59.3656 414.116 48.4055 424.437 33.8828" stroke="black" stroke-width="2" stroke-linecap="round" stroke-linejoin="round"/>
<path d="M458.968 201.224C432.576 196.562 343.658 195.243 343.658 195.243C335.985 209.449 295.538 292.415 295.538 292.415L248.577 272.593L246.061 271.527C246.061 271.527 295.881 151.742 306.978 145.671C323.832 136.455 427.788 130.172 427.788 130.172C428.47 131.42 429.343 133.194 430.383 135.367V135.378C439.176 153.866 458.968 201.224 458.968 201.224Z" fill="#00D9EE"/>
<path d="M343.657 195.241C343.657 195.241 332.053 184.281 330.397 177.453C328.746 170.622 338.843 184.888 338.843 184.888" stroke="black" stroke-width="2" stroke-linecap="round" stroke-linejoin="round"/>
<path d="M246.057 271.526C250.878 263.256 299.118 282.325 295.538 292.413C291.958 302.501 241.239 279.791 246.057 271.526Z" fill="black"/>
<path d="M269.073 312.467C261.749 311.07 244.369 299.342 244.369 299.342L257.058 277.433L259.132 273.859C275.467 275.57 287.198 284.044 287.198 284.044L281.199 293.45L269.069 312.467H269.073Z" fill="white" stroke="black" stroke-width="2" stroke-linecap="round" stroke-linejoin="round"/>
<path d="M281.201 293.458C272.591 286.258 257.057 277.441 257.057 277.441L259.13 273.867C275.466 275.578 287.197 284.052 287.197 284.052L281.197 293.458H281.201Z" fill="black"/>
<path d="M258.651 302.239L258.653 302.24C259.469 302.455 260.753 302.661 262.185 302.884C262.331 302.907 262.48 302.93 262.63 302.954C263.978 303.163 265.472 303.396 266.958 303.675C268.612 303.987 270.222 304.351 271.571 304.794C272.954 305.248 273.918 305.742 274.411 306.237C274.77 306.598 274.921 307.128 274.799 308.013C274.675 308.916 274.292 309.981 273.815 311.199C273.745 311.375 273.674 311.555 273.602 311.736C273.195 312.763 272.758 313.867 272.47 314.923C272.133 316.158 271.948 317.504 272.355 318.737L272.356 318.738C273.5 322.185 274.042 327.992 272.873 333.314C272.693 333.301 272.485 333.286 272.25 333.268C271.306 333.194 269.936 333.074 268.238 332.887C264.84 332.513 260.134 331.872 254.9 330.802C244.391 328.655 231.918 324.814 223.587 318.074L223.587 318.074C215.081 311.193 208.807 305.539 204.664 301.61C202.592 299.646 201.054 298.112 200.034 297.072C199.631 296.66 199.31 296.326 199.069 296.073L202.997 290.423C203.006 290.43 203.016 290.437 203.026 290.444C203.571 290.821 204.354 291.361 205.309 292.01C207.217 293.307 209.812 295.042 212.557 296.789C215.3 298.534 218.205 300.299 220.729 301.654C221.991 302.331 223.172 302.914 224.199 303.341C225.201 303.758 226.145 304.065 226.903 304.122C227.738 304.185 228.659 303.914 229.556 303.522C230.475 303.119 231.485 302.536 232.534 301.848C234.635 300.472 236.999 298.61 239.286 296.746C240.089 296.091 240.881 295.438 241.651 294.802C243.092 293.612 244.457 292.486 245.674 291.535C246.605 290.807 247.425 290.202 248.104 289.764C248.821 289.3 249.259 289.105 249.461 289.067C249.516 289.057 249.654 289.05 249.932 289.25C250.219 289.457 250.557 289.819 250.941 290.353C251.708 291.42 252.491 292.939 253.304 294.587C253.43 294.842 253.557 295.101 253.684 295.36C254.36 296.738 255.052 298.148 255.735 299.297C256.142 299.983 256.569 300.617 257.017 301.117C257.449 301.6 257.992 302.064 258.651 302.239Z" fill="#CFF501" stroke="black" stroke-width="2"/>
<path d="M237.25 290.664C237.25 290.664 242.247 298.829 244.633 303.245C244.633 303.245 234.178 297.488 231.72 295.9C231.72 295.9 236.594 305.802 236.799 309.055C236.799 309.055 227.54 300.473 225.642 298.889C225.642 298.889 227.268 307.87 226.69 310.672C226.69 310.672 222.275 299.429 219.15 296.493" stroke="black" stroke-width="2" stroke-linecap="round" stroke-linejoin="round"/>
<path d="M272.003 339.951C271.593 341.493 276.146 333.693 271.734 326.751C267.707 320.408 230.166 317.36 223.573 313.752C216.981 310.149 205.511 298.603 205.511 298.603C205.511 298.603 205.138 292.13 202.748 289.026C200.354 285.925 189.052 285.903 185.953 294.288C185.953 294.288 196.67 315.519 218.151 326.222C239.633 336.924 272.007 339.947 272.007 339.947L272.003 339.951Z" fill="white" stroke="black" stroke-width="2" stroke-linecap="round" stroke-linejoin="round"/>
<path d="M185.953 294.29C192.542 290.421 213.412 314.812 221.795 317.712C230.177 320.611 264.803 325.504 269.717 331.519C274.636 337.534 271.835 344.361 265.959 345.799C260.082 347.238 226.456 340.44 216.869 336.706C207.282 332.969 175.923 300.174 185.95 294.293L185.953 294.29Z" fill="black"/>
<path d="M694.491 19.6559C693.838 18.3329 693.678 16.9056 693.678 16.9056C693.678 16.9056 693.995 14.3081 693.04 13.1976C692.086 12.087 689.692 11.4796 689.692 11.4796C689.692 11.4796 689.099 8.01754 686.626 8.44238C684.154 8.86722 673.441 11.7181 671.652 13.1715C669.866 14.6249 663.195 24.139 663.195 24.139L601.83 68.378L597.773 67.3196L592.996 66.0749C579.591 76.2897 572.104 101.258 572.104 101.258C572.104 101.258 579.39 104.273 587.716 107.225C596.203 110.239 605.887 113.906 609.757 112.826C621.287 109.602 679.322 37.4059 679.322 37.4059C679.322 37.4059 683.692 34.3947 685.541 33.314C687.395 32.2333 687.95 28.0669 687.95 28.0669C688.655 29.2184 690.344 28.6743 691.862 28.5961C693.376 28.5178 695.139 20.9825 694.487 19.6596L694.491 19.6559Z" fill="white" stroke="black" stroke-width="2" stroke-linecap="round" stroke-linejoin="round"/>
<path d="M597.773 67.3187C597.773 67.3187 588.663 90.137 587.716 107.22C579.39 104.268 572.104 101.254 572.104 101.254C572.104 101.254 579.591 76.2888 592.996 66.0703L597.773 67.315V67.3187Z" fill="black"/>
<path d="M676.463 16.117C676.463 16.117 682.928 14.2649 684.226 14.8723C685.524 15.4798 683.738 19.9368 678.942 21.6586C678.942 21.6586 679.483 27.133 673.953 29.2087" stroke="black" stroke-width="2" stroke-linecap="round" stroke-linejoin="round"/>
<path d="M689.691 11.4766C689.691 11.4766 689.568 16.3659 688.886 17.9721C688.203 19.582 685.72 22.5372 684.415 22.1646C683.11 21.7919 682.192 20.3124 683.229 18.7025" stroke="black" stroke-width="2" stroke-linecap="round" stroke-linejoin="round"/>
<path d="M685.358 22.2018C685.358 22.2018 684.892 24.8664 686.771 24.9334C688.65 24.9968 691.372 22.4552 692.305 20.8528C693.237 19.254 693.651 18.5385 693.677 16.9062" stroke="black" stroke-width="2" stroke-linecap="round" stroke-linejoin="round"/>
<path d="M687.397 24.9531C687.397 24.9531 686.528 26.5891 687.953 28.0649" stroke="black" stroke-width="2" stroke-linecap="round" stroke-linejoin="round"/>
<path d="M381.12 31.3711C376.708 23.5265 371.458 14.6049 371.868 10.6137C372.088 8.49957 374.205 4.57399 377.537 -0.453125H400.074H422.61L417.043 10.9118L418.78 14.7279L420.809 19.2185C414.664 30.9649 398.917 40.6356 392.466 44.243C390.71 45.2231 389.644 45.7485 389.644 45.7485C389.644 45.7485 385.441 39.0816 381.12 31.3711Z" fill="white" stroke="black" stroke-width="2" stroke-linecap="round" stroke-linejoin="round"/>
<path d="M418.773 14.7303C418.773 14.7303 397.809 27.5574 381.119 31.3735C385.437 39.0765 389.639 45.7434 389.639 45.7434C389.639 45.7434 412.997 34.1498 420.809 19.2209L418.773 14.7266V14.7303Z" fill="black"/>
<path d="M502.607 215.751C479.783 210.467 410.304 183.18 410.304 183.18L369.347 217.901C369.347 217.901 316.886 138.8 321.122 122.932C325.347 107.071 334.628 94.3855 351.534 97.7581C377.446 102.92 400.982 109.016 421.707 115.247C421.737 115.258 421.755 115.258 421.755 115.258C483.87 133.962 520.718 153.922 520.718 153.922C547.189 191.144 518.764 219.485 502.611 215.747L502.607 215.751Z" fill="#00D9EE"/>
<path d="M369.34 217.906C364.127 209.879 402.906 175.437 410.301 183.181C417.699 190.925 374.553 225.933 369.34 217.906Z" fill="black"/>
<path d="M381.379 128.557C381.379 128.557 374.119 120.451 370.666 118.584C367.213 116.717 375.23 132.231 381.025 139.107C386.819 145.983 399.747 172.326 410.3 183.182" stroke="black" stroke-width="2" stroke-linecap="round" stroke-linejoin="round"/>
<path d="M418.142 215.037C412.944 220.381 393.588 228.438 393.588 228.438L382.26 205.795L380.414 202.098C390.825 189.405 404.364 184.273 404.364 184.273L408.925 194.455L418.142 215.037Z" fill="white" stroke="black" stroke-width="2" stroke-linecap="round" stroke-linejoin="round"/>
<path d="M408.925 194.447C398.174 197.674 382.26 205.787 382.26 205.787L380.414 202.09C390.825 189.397 404.364 184.266 404.364 184.266L408.925 194.447Z" fill="black"/>
<path d="M387.801 218.525L387.801 218.526C387.722 218.714 387.644 219.187 387.637 220.04C387.63 220.848 387.685 221.865 387.781 223.042C387.906 224.58 388.097 226.337 388.299 228.194C388.407 229.187 388.518 230.209 388.623 231.24C388.924 234.175 389.18 237.173 389.174 239.683C389.171 240.937 389.104 242.101 388.934 243.09C388.769 244.054 388.488 244.972 387.976 245.634C387.511 246.236 386.734 246.856 385.834 247.463C384.912 248.086 383.776 248.751 382.516 249.432C379.995 250.794 376.921 252.248 373.955 253.577C370.985 254.907 368.109 256.119 365.975 256.998C364.908 257.438 364.026 257.795 363.411 258.042C363.4 258.046 363.39 258.05 363.379 258.054L365.938 264.437C366.283 264.375 366.739 264.29 367.305 264.18C368.735 263.901 370.863 263.46 373.645 262.811C379.208 261.514 387.383 259.388 397.81 256.074C408.025 252.827 418.095 244.529 425.668 236.939C429.441 233.159 432.566 229.583 434.747 226.953C435.837 225.639 436.691 224.561 437.271 223.814C437.415 223.628 437.542 223.463 437.652 223.32C433.848 219.419 428.698 216.68 425.186 215.736C423.932 215.399 422.908 214.503 422.061 213.543C421.336 212.721 420.653 211.748 420.019 210.844C419.907 210.684 419.797 210.527 419.688 210.373C418.933 209.305 418.253 208.399 417.567 207.798C416.895 207.21 416.369 207.045 415.871 207.145C415.185 207.284 414.242 207.817 413.101 208.722C411.99 209.604 410.8 210.747 409.63 211.957C408.58 213.041 407.565 214.16 406.65 215.168C406.547 215.282 406.445 215.395 406.344 215.506C405.37 216.577 404.492 217.535 403.863 218.098L387.801 218.525ZM387.801 218.525C387.822 218.474 387.893 218.355 388.213 218.233M387.801 218.525L388.213 218.233M388.213 218.233C388.544 218.107 389.032 218.024 389.69 217.997M388.213 218.233L389.69 217.997M389.69 217.997C391.004 217.944 392.704 218.126 394.529 218.354M389.69 217.997L394.529 218.354M394.529 218.354C394.811 218.389 395.096 218.425 395.382 218.462M394.529 218.354L395.382 218.462M395.382 218.462C396.906 218.656 398.465 218.854 399.801 218.916M395.382 218.462L399.801 218.916M399.801 218.916C400.598 218.953 401.362 218.945 402.027 218.846M399.801 218.916L402.027 218.846M402.027 218.846C402.668 218.751 403.354 218.553 403.862 218.098L402.027 218.846Z" fill="#CFF501" stroke="black" stroke-width="2"/>
<path d="M382.418 229.594C382.418 229.594 391.99 229.911 396.99 230.35C396.99 230.35 386.426 235.91 383.749 237.088C383.749 237.088 394.704 238.467 397.535 240.084C397.535 240.084 385.27 243.092 382.903 243.803C382.903 243.803 391.304 247.388 393.325 249.412C393.325 249.412 381.501 246.915 377.328 247.906" stroke="black" stroke-width="2" stroke-linecap="round" stroke-linejoin="round"/>
<path d="M442.722 227.7C443.784 228.893 439.772 220.802 431.543 220.664C424.029 220.538 400.832 250.194 394.195 253.716C387.558 257.234 371.602 260.461 371.602 260.461C371.602 260.461 365.986 257.212 362.079 257.502C358.171 257.793 351.936 267.214 357.239 274.414C357.239 274.414 380.876 277.145 401.634 265.105C422.392 253.06 442.722 227.704 442.722 227.704V227.7Z" fill="white" stroke="black" stroke-width="2" stroke-linecap="round" stroke-linejoin="round"/>
<path d="M357.238 274.411C357.63 266.782 389.493 262.776 396.525 257.376C403.558 251.976 426.691 225.767 434.421 224.969C442.151 224.172 446.316 230.265 444.287 235.959C442.259 241.657 418.085 265.985 409.688 271.932C401.291 277.88 356.642 286.015 357.238 274.411Z" fill="black"/>
<path d="M489.298 31.0447C489.723 28.7267 490.025 25.887 490.204 22.3952C490.204 22.3952 481.225 21.1505 474.89 18.6797C474.89 18.6797 472.593 25.8945 469.946 29.9379C467.705 33.3664 468.555 39.0682 474.062 40.7377C474.211 42.5116 474.293 44.5091 474.155 46.2419V46.2494C474.081 47.196 473.891 47.5239 473.659 48.232C472.354 52.1748 480.334 52.5362 484.768 50.4717C489.429 48.3028 490.969 46.678 490.969 46.678C490.969 46.678 489.578 36.5937 489.298 31.0484V31.0447Z" fill="white" stroke="black" stroke-width="2" stroke-linecap="round" stroke-linejoin="round"/>
<path d="M477.5 40.8375C476.195 40.8375 475.054 40.6661 474.062 40.3643C474.212 42.1381 474.294 44.1356 474.156 45.8685V45.876C481.74 44.9965 484.365 41.8251 485.219 39.25C483.228 40.7108 480.659 40.845 477.5 40.8413V40.8375Z" fill="black"/>
<path d="M474.048 21.1164C474.048 21.1164 469.733 20.9785 469.219 15.5525C469.219 15.5525 471.683 16.4618 473.548 16.4618C473.548 16.4618 470.938 14.2258 472.056 11.6172C472.056 11.6172 473.086 14.1178 475.554 14.7289C478.022 15.3401 483.616 13.1078 487.344 15.3438C491.073 17.5798 493.799 20.6096 493.743 23.0095C493.713 24.2356 492.949 26.6356 491.819 28.3871C490.738 30.0641 489.287 31.1262 489.287 31.1262C489.287 31.1262 490.328 24.6604 488.09 22.7971C485.853 20.9338 477.65 21.6791 476.531 22.4245C475.412 23.1698 472.429 22.7971 472.429 22.7971C472.429 22.7971 473.548 21.6791 474.048 21.1164Z" fill="black"/>
<path d="M489.581 26.8984C489.581 26.8984 488.089 29.8798 486.598 29.8798C486.598 29.8798 487.716 30.6251 488.462 30.2524C488.462 30.2524 488.089 31.7431 487.343 31.7431C487.343 31.7431 489.346 32.112 490.207 30.0661C491.068 28.0202 489.581 26.8984 489.581 26.8984Z" fill="black"/>
<path d="M491.818 28.3873C491.818 28.3873 491.073 31.3687 492.564 33.6047C492.564 33.6047 491.55 33.1724 490.752 32.8295L491.073 34.7226C491.073 34.7226 489.443 33.2842 489.514 31.7674C489.585 30.2507 489.939 27.2656 489.939 27.2656L491.822 28.3873H491.818Z" fill="black"/>
<path d="M485.853 11.9922C477.336 10.4904 475.039 16.4642 475.039 16.4642C488.045 22.3709 491.614 28.1248 491.819 28.3894C498.903 20.9361 492.192 13.1102 485.853 11.9922ZM481.378 17.9548C480.632 17.5822 477.47 16.0766 477.47 16.0766C477.47 16.0766 478.932 14.1238 480.632 14.9735C482.124 15.7188 481.378 17.9548 481.378 17.9548Z" fill="#CFF501"/>
<path d="M479.139 16.8359C479.139 16.8359 482.867 18.3266 482.867 19.0719C482.867 19.8173 482.364 20.8756 481.003 20.1899" stroke="black" stroke-width="2" stroke-linecap="round" stroke-linejoin="round"/>
<path d="M488.373 12.778C488.373 12.778 487.821 10.7283 490.752 12.2898" stroke="black" stroke-width="2" stroke-linecap="round" stroke-linejoin="round"/>
<path d="M490.752 14.1953C490.752 14.1953 493.411 19.2002 491.871 21.3728C490.331 23.5455 488.332 25.3827 488.332 25.3827" stroke="black" stroke-width="2" stroke-linecap="round" stroke-linejoin="round"/>
<path d="M491.82 28.3839C491.82 28.3839 495.277 25.6001 494.856 21.0312" stroke="black" stroke-width="2" stroke-linecap="round" stroke-linejoin="round"/>
<path d="M511.949 39.8865C511.319 42.5138 497.477 41.4517 481.037 37.5126C464.597 33.5736 451.781 28.2445 452.411 25.6172L456.207 11.1094C455.577 13.7367 468.393 19.0658 484.833 23.0048C501.273 26.9439 515.115 28.0097 515.745 25.3787L511.949 39.8865Z" stroke="#00D9EE" stroke-width="2" stroke-linecap="round" stroke-linejoin="round"/>
<path d="M458.557 15.7578L455.984 26.4682" stroke="#00D9EE" stroke-width="2" stroke-linecap="round" stroke-linejoin="round"/>
<path d="M461.248 17.6641L458.82 27.7819" stroke="#00D9EE" stroke-width="2" stroke-linecap="round" stroke-linejoin="round"/>
<path d="M533.375 153.45C533.375 153.45 521.543 143.921 498.477 137.023" stroke="black" stroke-width="2" stroke-linecap="round" stroke-linejoin="round"/>
<path d="M391.324 139.625C391.324 139.625 417.329 146.784 438.072 157.554C458.816 168.324 492.021 181.017 499.84 175.598C507.659 170.18 507.104 162.171 507.104 162.171" stroke="white" stroke-width="2" stroke-linecap="round" stroke-linejoin="round"/>
<path d="M498.477 150.798C497.97 150.06 502.817 166.085 519.224 165.34" stroke="white" stroke-width="2" stroke-linecap="round" stroke-linejoin="round"/>
<path d="M414.768 184.258C414.768 184.258 467.672 205.626 495.034 213.709" stroke="black" stroke-width="2" stroke-linecap="round" stroke-linejoin="round"/>
<path d="M452.094 125.117C452.094 125.117 489.579 138.22 523.139 155.225" stroke="black" stroke-width="2" stroke-linecap="round" stroke-linejoin="round"/>
<path d="M434.02 86.521C434.02 86.521 441.194 83.1223 444.527 79.8354C449.882 74.5585 454.248 61.2618 450.534 60.8146C446.821 60.3674 448.487 75.1138 438.751 79.2839" stroke="black" stroke-width="2" stroke-linecap="round" stroke-linejoin="round"/>
<path d="M513.198 50.8438C513.198 50.8438 507.851 64.1628 517.173 82.0507" stroke="black" stroke-width="2" stroke-linecap="round" stroke-linejoin="round"/>
<path d="M324.799 139.625C324.799 139.625 339.364 173.496 357.232 198.953" stroke="white" stroke-width="2" stroke-linecap="round" stroke-linejoin="round"/>
<path d="M390.008 227.163C390.008 227.163 356.538 216.058 355.196 225.822C353.853 235.586 380.417 228.427 380.417 228.427" stroke="black" stroke-width="2" stroke-linecap="round" stroke-linejoin="round"/>
<path d="M392.523 228.428C392.523 228.428 405.31 193.107 413.14 210.249C420.971 227.392 397.106 227.392 397.106 227.392" stroke="black" stroke-width="2" stroke-linecap="round" stroke-linejoin="round"/>
<path d="M241.398 294.951C241.398 294.951 225.808 271.678 235.76 265.559C245.712 259.44 244.366 296.379 244.366 296.379" stroke="black" stroke-width="2" stroke-linecap="round" stroke-linejoin="round"/>
<path d="M246.461 297.073C246.461 297.073 294.936 287.756 292.699 304.526C290.461 321.296 246.062 299.51 246.062 299.51" stroke="black" stroke-width="2" stroke-linecap="round" stroke-linejoin="round"/>
</g>
<defs>
<clipPath id="clip0_611_7">
<rect width="89.9981" height="95.8329" fill="white" transform="translate(111 65)"/>
</clipPath>
<clipPath id="clip1_611_7">
<rect width="101.665" height="109.166" fill="white" transform="translate(702 138)"/>
</clipPath>
<clipPath id="clip2_611_7">
<rect width="80.665" height="86.0119" fill="white" transform="translate(0 191)"/>
</clipPath>
<clipPath id="clip3_611_7">
<rect width="511" height="346" fill="white" transform="translate(184)"/>
</clipPath>
</defs>
</svg>
