<svg width="817" height="752" viewBox="0 0 817 752" fill="none" xmlns="http://www.w3.org/2000/svg">
<path d="M558.67 428.448L539.899 387.262L470.909 307.296C470.909 307.296 420.408 338.755 294.212 316.401L276.649 427.19C276.649 427.19 379.87 495.363 558.672 428.446L558.67 428.448Z" fill="#CFF501"/>
<path d="M321.943 320.635C427.862 334.112 470.909 307.296 470.909 307.296L509.033 351.481C506.742 371.442 498.122 390.834 483.102 406.415C446.735 444.14 386.654 445.233 348.904 408.856C324.394 385.236 315.333 351.63 321.943 320.635Z" fill="black"/>
<path d="M590.987 273.924L571.835 236.427C571.835 236.427 491.45 299.225 441.895 312.394L467.072 423.779C467.072 423.779 537.814 418.05 574.654 384.364C611.494 350.678 590.984 273.921 590.984 273.921L590.987 273.924Z" fill="#00D9EE" stroke="black" stroke-width="2" stroke-linecap="round" stroke-linejoin="round"/>
<path d="M676.402 289.967L644.001 197.35L625.357 202.052C625.357 202.052 603.363 253.246 514.921 308.215L567.763 414.113C567.763 414.113 656.819 368.855 676.399 289.965L676.402 289.967Z" fill="black"/>
<path d="M586.422 402.947L566.531 270.97C572.988 265.508 578.791 260.223 583.996 255.166L608.362 386.928C600.346 393.385 592.793 398.745 586.422 402.947Z" fill="#CFF501"/>
<path d="M611.238 224.554L640.792 355.766C637.239 359.903 633.588 363.832 629.899 367.551L602.878 235.025C606.048 231.275 608.824 227.773 611.238 224.554Z" fill="#CFF501"/>
<path d="M578.265 408.123C571.771 412.08 567.77 414.113 567.77 414.113L514.928 308.215C531.732 297.768 546.134 287.461 558.446 277.616L578.268 408.12L578.265 408.123Z" fill="#CFF501"/>
<path d="M619.584 212.459C623.728 205.846 625.361 202.054 625.361 202.054L644.005 197.352L676.405 289.969C672.183 306.987 664.724 322.44 655.625 336.212L619.586 212.462L619.584 212.459Z" fill="#CFF501"/>
<path d="M696.071 332.064L666.879 237.344L688.772 232.83C688.772 232.83 726.012 286.299 696.071 332.064Z" fill="black"/>
<path d="M706.246 276.265C706.246 276.265 683.189 234.641 661.58 236.959L651.906 197.302L684.268 202.15C684.268 202.15 698.918 236.66 706.246 276.265Z" fill="#00D9EE" stroke="black" stroke-width="2" stroke-linecap="round" stroke-linejoin="round"/>
<path d="M690.105 115.211L715.676 131.823L751.623 253.361C751.623 253.361 714.747 223.965 674.373 213.394C633.999 202.824 599.568 203.245 599.568 203.245L597.74 184.902L659.025 99.9009L690.105 115.211Z" fill="black"/>
<path d="M477.578 216.553C477.578 216.553 607.038 173.064 717.513 203.017L681.927 76.6335C673.854 71.1062 568.25 61.3469 550.335 76.8626C519.426 103.636 457.709 128.338 457.709 128.338L477.578 216.553Z" fill="white" stroke="black" stroke-miterlimit="10"/>
<path d="M477.578 216.553C477.578 216.553 607.038 173.064 717.513 203.017L681.927 76.6335C673.854 71.1062 568.25 61.3469 550.335 76.8626C519.426 103.636 457.709 128.338 457.709 128.338L477.578 216.553Z" fill="white" stroke="black" stroke-width="2" stroke-linecap="round" stroke-linejoin="round"/>
<path d="M550.337 76.8628C555.1 72.7352 566.073 70.3973 579.763 69.2895L619.667 182.399C619.667 182.399 530.772 190.63 476.446 211.523L457.711 128.338C457.711 128.338 519.428 103.636 550.337 76.8628Z" fill="black"/>
<path d="M343.588 252.606C343.588 252.606 457.261 194.493 603.66 175.474L563.882 54.9683C563.882 54.9683 460.691 65.9618 363.497 118.976L310.583 159.879L343.588 252.606Z" fill="#CFF501"/>
<path d="M310.581 159.879L363.494 118.975C383.804 107.897 404.377 98.6547 424.216 90.9623L455.86 196.924C455.86 196.924 410.897 211.212 371.936 239.608C353.759 247.405 343.585 252.605 343.585 252.605L310.581 159.879Z" fill="black"/>
<path d="M136.18 235.661C136.18 235.661 135.723 275.548 80.4969 313.046C25.2709 350.545 -16.4216 369.976 -16.4216 369.976C-16.4216 369.976 -44.8136 464.9 -1.06025 493.377C-1.06025 493.377 143.268 379.742 155.701 373.767C168.133 367.792 207.37 371.071 220.778 362.408C234.185 353.746 207.76 240.317 207.76 240.317C207.76 240.317 210.43 197.439 197.78 200.796C185.13 204.153 136.18 235.661 136.18 235.661Z" fill="black"/>
<path d="M269.786 66.3666L366.944 109.237C377.951 114.094 382.94 126.951 378.087 137.954L277.392 366.254C272.539 377.257 259.682 382.24 248.675 377.383L151.517 334.513C140.51 329.656 135.521 316.799 140.374 305.796L241.069 77.495C245.922 66.4921 258.779 61.5098 269.786 66.3666Z" fill="white" stroke="black" stroke-width="2" stroke-linecap="round" stroke-linejoin="round"/>
<path d="M271.65 72.5468L278.204 75.439C280.033 76.2476 281.304 77.9539 281.55 79.9387L282.726 89.4833C282.973 91.468 284.241 93.1768 286.073 93.9829L336.64 116.294C338.469 117.102 340.587 116.886 342.218 115.728L350.058 110.164C351.689 109.006 353.807 108.794 355.636 109.598L361.138 112.023C371.867 116.757 376.729 129.287 372 140.011L274.576 360.913C269.846 371.638 257.316 376.493 246.587 371.76L157.096 332.276C146.367 327.543 141.505 315.013 146.235 304.288L243.658 83.387C248.388 72.6622 260.918 67.8063 271.647 72.5396L271.65 72.5468Z" stroke="#182341" stroke-width="1.59" stroke-miterlimit="10"/>
<path d="M298.84 87.1958L317.248 95.3183C318.41 95.8311 318.937 97.1885 318.425 98.3501C317.912 99.5117 316.555 100.038 315.393 99.525L296.985 91.4025C295.822 90.8897 295.296 89.5323 295.808 88.3707C296.32 87.209 297.678 86.683 298.84 87.1958Z" stroke="#182341" stroke-width="1.59" stroke-miterlimit="10"/>
<path d="M328.992 105.681C327.963 104.69 327.933 103.054 328.923 102.026C329.914 100.999 331.551 100.969 332.579 101.96C333.607 102.951 333.638 104.587 332.647 105.615C331.657 106.642 330.02 106.672 328.992 105.681Z" stroke="#182341" stroke-width="1.59" stroke-miterlimit="10"/>
<path d="M253.789 119.922L338.272 157.2C346.316 160.749 349.961 170.144 346.415 178.185L288.295 309.957C284.749 317.997 275.354 321.638 267.31 318.089L182.827 280.811C174.783 277.262 171.137 267.867 174.684 259.827L232.804 128.054C236.35 120.014 245.745 116.373 253.789 119.922Z" fill="white" stroke="black" stroke-width="2" stroke-miterlimit="10"/>
<path d="M185.287 307.02L248.928 335.101C254.739 337.665 257.373 344.451 254.811 350.258C252.25 356.066 245.463 358.695 239.653 356.131L176.011 328.05C170.201 325.486 167.567 318.7 170.128 312.893C172.69 307.085 179.477 304.456 185.287 307.02Z" fill="#00D9EE" stroke="black" stroke-width="2" stroke-linecap="round" stroke-linejoin="round"/>
<path d="M356.006 146.434L288.67 116.724" stroke="#182341" stroke-width="1.66" stroke-linecap="round" stroke-linejoin="round"/>
<path d="M354.119 148.674L359.709 148.067L356.388 143.531L354.119 148.674Z" fill="#182341"/>
<path d="M296.72 322.467C296.72 322.467 310.817 322.172 314.13 333.53C317.443 344.888 298.339 356.136 287.689 356.037C279.315 355.958 252.465 346.982 249.549 340.903C246.633 334.825 246.469 327.295 264.558 330.172C282.646 333.047 293.883 328.616 293.883 328.616L296.727 322.464L296.72 322.467Z" fill="black"/>
<path d="M299.711 327.998C299.711 327.998 298.859 327.956 287.512 330.231C276.166 332.506 264.555 330.177 264.555 330.177" stroke="#00D9EE" stroke-width="2" stroke-linecap="round" stroke-linejoin="round"/>
<path d="M320.491 268.566C320.491 268.566 333.103 268.498 337.091 271.043C341.079 273.587 344.864 279.156 344.628 282.225C344.389 285.296 336.097 305.354 331.735 309.972C327.373 314.59 312.402 322.247 304.318 319.255C296.234 316.263 300.07 306.358 303.315 302.727C304.637 301.248 307.342 297.956 307.342 297.956L320.493 268.569L320.491 268.566Z" fill="black"/>
<path d="M324.094 281.268L307.343 297.954C307.343 297.954 302.649 303.225 301.997 304.519C301.345 305.813 296.645 312.296 301.675 317.701" stroke="#00D9EE" stroke-width="2" stroke-linecap="round" stroke-linejoin="round"/>
<path d="M330.602 305.09C331.165 305.619 330.336 298.062 324.672 293.756" stroke="#00D9EE" stroke-width="2" stroke-linecap="round" stroke-linejoin="round"/>
<path d="M342.42 218.846C342.42 218.846 358.42 223.086 365.196 229.989C371.97 236.894 367.973 247.192 364.378 250.495C360.783 253.798 353.797 255.926 342.992 256.287C332.187 256.647 324.136 251.646 324.87 244.169C325.604 236.692 336.647 231.937 336.647 231.937L342.424 218.841L342.42 218.846Z" fill="black"/>
<path d="M355.435 229.845C355.435 229.845 347.433 228.528 336.644 231.945C336.644 231.945 326.299 236.465 325.074 242.992" stroke="#00D9EE" stroke-width="2" stroke-linecap="round" stroke-linejoin="round"/>
<path d="M363.434 245.598C363.434 245.598 363.881 240.673 359.227 236.26" stroke="#00D9EE" stroke-width="2" stroke-linecap="round" stroke-linejoin="round"/>
<path d="M364.423 168.956C364.423 168.956 376.973 170.683 383.084 174.967C389.195 179.25 383.47 190.37 376.727 192.497C369.985 194.623 352.37 196.288 352.37 196.288L364.423 168.956Z" fill="black"/>
<path d="M345.785 247.998C345.785 247.998 345.795 238.251 340.838 237.762C335.88 237.272 329.278 241.012 329.278 241.012" stroke="#00D9EE" stroke-width="2" stroke-linecap="round" stroke-linejoin="round"/>
<path d="M321.369 308.217C321.369 308.217 318.582 300.005 315.207 299.927C311.83 299.847 302.831 305.305 301.332 310.434" stroke="#00D9EE" stroke-width="2" stroke-linecap="round" stroke-linejoin="round"/>
<path d="M283.295 338.716C283.295 338.716 281.173 347.477 277.811 351.774" stroke="#00D9EE" stroke-width="2" stroke-linecap="round" stroke-linejoin="round"/>
<path d="M266.804 345.999C266.804 345.999 271.209 339.179 266.978 335.603C262.747 332.026 253.831 331.902 253.831 331.902" stroke="#00D9EE" stroke-width="2" stroke-linecap="round" stroke-linejoin="round"/>
<path d="M217.737 120.953C217.737 120.953 224.486 120.6 221.82 139.92C219.153 159.24 203.742 171.374 200.117 173.874C196.493 176.374 186.012 199.035 183.941 207.047C181.769 215.457 152.787 256.663 150.008 272.55C145.143 300.373 124.356 268.959 124.356 268.959C124.356 268.959 133.544 242.928 135.729 231.583C137.914 220.238 144.928 200.584 152.347 190.339C159.765 180.095 164.08 176.261 171.232 163.857C178.384 151.452 183.317 152.183 193.916 143.232C204.515 134.281 213.005 121.848 217.737 120.949L217.737 120.953Z" fill="black"/>
<path d="M195.857 171.44C195.857 171.44 188.446 161.348 185.014 159.82" stroke="#00D9EE" stroke-width="2" stroke-linecap="round" stroke-linejoin="round"/>
<path d="M181.167 200.454C181.167 200.454 167.695 194.277 165.027 194.01" stroke="#00D9EE" stroke-width="2" stroke-linecap="round" stroke-linejoin="round"/>
<path d="M173.867 207.377C173.867 207.377 157.813 212.275 152.486 214.717" stroke="#00D9EE" stroke-width="2" stroke-linecap="round" stroke-linejoin="round"/>
<path d="M161.905 358.633C161.905 358.633 157.437 346.723 154.432 340.688" stroke="#00D9EE" stroke-width="2" stroke-linecap="round" stroke-linejoin="round"/>
<path d="M136.278 312.371L130.027 303.06" stroke="#00D9EE" stroke-width="2" stroke-linecap="round" stroke-linejoin="round"/>
<path d="M126.929 296.425C126.929 296.425 122.034 283.561 124.598 270.088C127.161 256.615 132.326 245.355 135.386 233.196C138.445 221.036 142.064 209.326 146.534 200.42" stroke="#00D9EE" stroke-width="2" stroke-linecap="round" stroke-linejoin="round"/>
<path d="M292.558 264.117L258.334 144.714C258.334 144.714 327.077 76.8351 396.308 60.9031L438.416 190.266C438.416 190.266 393.181 202.875 292.558 264.117Z" fill="#00D9EE" stroke="black" stroke-width="2" stroke-linecap="round" stroke-linejoin="round"/>
<path d="M425.532 183.284C425.532 183.284 319.385 232.12 299.924 246.425L268.972 147.647C268.972 147.647 330.199 89.5267 389.074 73.0615L425.532 183.284Z" fill="#CFF501"/>
<path d="M389.074 73.0611C389.074 73.0611 332.998 149.368 299.924 246.424L268.972 147.647C268.972 147.647 330.199 89.5263 389.074 73.0611Z" fill="white" stroke="black" stroke-width="2" stroke-linecap="round" stroke-linejoin="round"/>
<path d="M466.668 170.028C450.703 154.643 456.146 123.098 478.827 99.5709C501.507 76.0436 532.836 69.443 548.801 84.828C564.767 100.213 559.323 131.758 536.642 155.285C513.962 178.812 482.633 185.413 466.668 170.028Z" fill="white"/>
<path d="M548.8 84.8282L468.059 171.28C467.585 170.88 467.117 170.463 466.667 170.028C450.701 154.643 456.144 123.099 478.825 99.5711C501.506 76.0432 532.834 69.4431 548.8 84.8282Z" fill="#00D9EE"/>
</svg>
