<svg width="680" height="433" viewBox="0 0 680 433" fill="none" xmlns="http://www.w3.org/2000/svg">
<g clip-path="url(#clip0_12_9558)">
<path d="M351.883 240.116C462.172 290.281 537.623 361.543 520.415 399.285" stroke="black" stroke-width="15" stroke-linecap="round" stroke-linejoin="round"/>
<path d="M121.027 217.626C138.239 179.884 241.597 189.952 351.882 240.116" stroke="black" stroke-width="15" stroke-linecap="round" stroke-linejoin="round"/>
<path d="M198.566 311.038L230.786 337.707L270.026 323.174L237.804 296.505L198.566 311.038Z" fill="black" stroke="black" stroke-linecap="round" stroke-linejoin="round"/>
<path d="M230.785 337.707L198.566 311.038L198.54 311.047L191.52 352.277L223.761 378.963L230.785 337.707Z" fill="#00D9EE" stroke="black" stroke-width="2" stroke-linecap="round" stroke-linejoin="round"/>
<path d="M270.045 323.191L270.025 323.174L230.785 337.707L223.761 378.963L263.024 364.422L270.045 323.191Z" fill="black" stroke="black" stroke-linecap="round" stroke-linejoin="round"/>
<path d="M230.562 337.829L262.785 364.501L302.022 349.967L269.8 323.295L230.562 337.829Z" fill="black" stroke="black" stroke-linecap="round" stroke-linejoin="round"/>
<path d="M262.785 364.501L230.563 337.829L230.54 337.84L223.52 379.068L255.759 405.757L262.785 364.501Z" fill="#CFF501" stroke="black" stroke-width="2" stroke-linecap="round" stroke-linejoin="round"/>
<path d="M302.042 349.984L302.022 349.967L262.784 364.501L255.758 405.757L295.021 391.215L302.042 349.984Z" fill="black" stroke="black" stroke-linecap="round" stroke-linejoin="round"/>
<path d="M205.352 269.718L237.574 296.39L276.811 281.857L244.589 255.185L205.352 269.718Z" fill="black" stroke="black" stroke-linecap="round" stroke-linejoin="round"/>
<path d="M237.573 296.39L205.351 269.718L205.326 269.729L198.305 310.957L230.547 337.646L237.573 296.39Z" fill="white" stroke="black" stroke-width="2" stroke-linecap="round" stroke-linejoin="round"/>
<path d="M276.83 281.873L276.811 281.857L237.573 296.39L230.547 337.646L269.809 323.104L276.83 281.873Z" fill="black" stroke="black" stroke-linecap="round" stroke-linejoin="round"/>
<path d="M237.352 296.511L269.571 323.183L308.808 308.65L276.586 281.978L237.352 296.511Z" fill="black" stroke="black" stroke-linecap="round" stroke-linejoin="round"/>
<path d="M269.57 323.183L237.351 296.511L237.326 296.519L230.305 337.75L262.544 364.439L269.57 323.183Z" fill="white" stroke="black" stroke-width="2" stroke-linecap="round" stroke-linejoin="round"/>
<path d="M308.827 308.666L308.807 308.649L269.569 323.183L262.543 364.439L301.806 349.894L308.827 308.666Z" fill="black" stroke="black" stroke-linecap="round" stroke-linejoin="round"/>
<path d="M290.359 199.347L322.579 226.019L361.816 211.486L329.597 184.814L290.359 199.347Z" fill="#CFF501" stroke="black" stroke-width="2" stroke-linecap="round" stroke-linejoin="round"/>
<path d="M322.578 226.019L290.359 199.347L290.333 199.356L283.312 240.586L315.554 267.275L322.578 226.019Z" fill="black" stroke="black" stroke-linecap="round" stroke-linejoin="round"/>
<path d="M361.835 211.503L361.816 211.486L322.578 226.019L315.554 267.275L354.814 252.731L361.835 211.503Z" fill="black" stroke="black" stroke-linecap="round" stroke-linejoin="round"/>
<path d="M251.25 213.875L283.469 240.544L322.707 226.011L290.485 199.342L251.25 213.875Z" fill="#CFF501" stroke="black" stroke-width="2" stroke-linecap="round" stroke-linejoin="round"/>
<path d="M283.469 240.544L251.249 213.875L251.224 213.884L244.203 255.114L276.442 281.8L283.469 240.544Z" fill="black" stroke="black" stroke-linecap="round" stroke-linejoin="round"/>
<path d="M322.725 226.028L322.705 226.011L283.468 240.545L276.441 281.801L315.704 267.259L322.725 226.028Z" fill="black" stroke="black" stroke-linecap="round" stroke-linejoin="round"/>
<path d="M212.141 228.4L244.363 255.072L283.6 240.538L251.378 213.866L212.141 228.4Z" fill="#00D9EE" stroke="black" stroke-width="2" stroke-linecap="round" stroke-linejoin="round"/>
<path d="M244.363 255.072L212.141 228.4L212.119 228.408L205.098 269.639L237.337 296.328L244.363 255.072Z" fill="#CFF501" stroke="black" stroke-width="2" stroke-linecap="round" stroke-linejoin="round"/>
<path d="M283.62 240.555L283.6 240.538L244.362 255.071L237.336 296.327L276.599 281.783L283.62 240.555Z" fill="black" stroke="black" stroke-linecap="round" stroke-linejoin="round"/>
<path d="M322.355 226.14L354.578 252.812L393.815 238.279L361.593 211.607L322.355 226.14Z" fill="white" stroke="black" stroke-width="2" stroke-linecap="round" stroke-linejoin="round"/>
<path d="M354.577 252.812L322.355 226.14L322.329 226.149L315.309 267.379L347.551 294.068V294.066L354.577 252.812Z" fill="black" stroke="black" stroke-linecap="round" stroke-linejoin="round"/>
<path d="M393.835 238.296L393.815 238.279L354.577 252.812L347.551 294.065L386.814 279.524L393.835 238.296Z" fill="black" stroke="black" stroke-linecap="round" stroke-linejoin="round"/>
<path d="M244.141 255.193L276.36 281.865L315.598 267.329L283.378 240.66L244.141 255.193Z" fill="#00D9EE" stroke="black" stroke-width="2" stroke-linecap="round" stroke-linejoin="round"/>
<path d="M276.359 281.865L244.14 255.193L244.115 255.201L237.094 296.432L269.336 323.118L276.359 281.865Z" fill="#CFF501" stroke="black" stroke-width="2" stroke-linecap="round" stroke-linejoin="round"/>
<path d="M315.617 267.346L315.597 267.329L276.359 281.865L269.336 323.118L308.596 308.576L315.617 267.346Z" fill="black" stroke="black" stroke-linecap="round" stroke-linejoin="round"/>
<path d="M341.102 335.569L373.321 362.241L412.558 347.708L380.339 321.036L341.102 335.569Z" fill="black" stroke="black" stroke-linecap="round" stroke-linejoin="round"/>
<path d="M373.32 362.241L341.101 335.569L341.076 335.58L334.055 376.808L366.297 403.497L373.32 362.241Z" fill="black" stroke="black" stroke-linecap="round" stroke-linejoin="round"/>
<path d="M412.578 347.725L412.558 347.708L373.32 362.241L366.297 403.497L405.557 388.955L412.578 347.725Z" fill="#00D9EE" stroke="black" stroke-width="2" stroke-linecap="round" stroke-linejoin="round"/>
<path d="M301.996 350.097L334.216 376.766L373.453 362.233L341.234 335.563L301.996 350.097Z" fill="black" stroke="black" stroke-linecap="round" stroke-linejoin="round"/>
<path d="M334.215 376.766L301.995 350.097L301.97 350.105L294.949 391.336L327.191 418.022L334.215 376.766Z" fill="black" stroke="black" stroke-linecap="round" stroke-linejoin="round"/>
<path d="M373.472 362.25L373.452 362.233L334.215 376.766L327.191 418.022L366.451 403.48L373.472 362.25Z" fill="#CFF501" stroke="black" stroke-width="2" stroke-linecap="round" stroke-linejoin="round"/>
<path d="M262.883 364.622L295.105 391.294L334.343 376.76L302.12 350.088L262.883 364.622Z" fill="black" stroke="black" stroke-linecap="round" stroke-linejoin="round"/>
<path d="M295.105 391.294L262.883 364.622L262.861 364.63L255.84 405.861L288.079 432.55L295.105 391.294Z" fill="#00D9EE" stroke="black" stroke-width="2" stroke-linecap="round" stroke-linejoin="round"/>
<path d="M334.362 376.777L334.342 376.76L295.105 391.294L288.078 432.55L327.341 418.005L334.362 376.777Z" fill="#00D9EE" stroke="black" stroke-width="2" stroke-linecap="round" stroke-linejoin="round"/>
<path d="M347.891 294.251L380.11 320.923L419.348 306.39L387.128 279.718L347.891 294.251Z" fill="black" stroke="black" stroke-linecap="round" stroke-linejoin="round"/>
<path d="M380.109 320.923L347.89 294.251L347.865 294.26L340.844 335.49L373.086 362.179L380.109 320.923Z" fill="black" stroke="black" stroke-linecap="round" stroke-linejoin="round"/>
<path d="M419.37 306.407L419.347 306.39L380.11 320.923L373.086 362.179L412.349 347.634L419.37 306.407Z" fill="#00D9EE" stroke="black" stroke-width="2" stroke-linecap="round" stroke-linejoin="round"/>
<path d="M296.387 321.157L328.606 347.829L367.844 333.296L335.624 306.624L296.387 321.157Z" fill="#00D9EE" stroke="black" stroke-width="2" stroke-linecap="round" stroke-linejoin="round"/>
<path d="M328.606 347.829L296.386 321.157L296.361 321.168L289.34 362.396L321.582 389.085L328.606 347.829Z" fill="black" stroke="black" stroke-linecap="round" stroke-linejoin="round"/>
<path d="M367.863 333.312L367.843 333.296L328.605 347.829L321.582 389.085L360.842 374.543L367.863 333.312Z" fill="#CFF501" stroke="black" stroke-width="2" stroke-linecap="round" stroke-linejoin="round"/>
<path d="M257.277 335.685L289.497 362.357L328.734 347.823L296.515 321.151L257.277 335.685Z" fill="#00D9EE" stroke="black" stroke-width="2" stroke-linecap="round" stroke-linejoin="round"/>
<path d="M289.496 362.357L257.277 335.685L257.251 335.693L250.23 376.924L282.47 403.613V403.61L289.496 362.357Z" fill="white" stroke="black" stroke-width="2" stroke-linecap="round" stroke-linejoin="round"/>
<path d="M328.752 347.84L328.733 347.823L289.495 362.357L282.469 403.61L321.732 389.068L328.752 347.84Z" fill="#CFF501" stroke="black" stroke-width="2" stroke-linecap="round" stroke-linejoin="round"/>
<path d="M354.676 252.933L386.898 279.602L426.136 265.069L393.913 238.4L354.676 252.933Z" fill="#CFF501" stroke="black" stroke-width="2" stroke-linecap="round" stroke-linejoin="round"/>
<path d="M386.897 279.602L354.675 252.933L354.65 252.942L347.629 294.172L379.871 320.858L386.897 279.602Z" fill="black" stroke="black" stroke-linecap="round" stroke-linejoin="round"/>
<path d="M426.155 265.086L426.135 265.069L386.898 279.603L379.871 320.859L419.134 306.317L426.155 265.086Z" fill="#00D9EE" stroke="black" stroke-width="2" stroke-linecap="round" stroke-linejoin="round"/>
<path d="M315.57 267.458L347.79 294.13L387.027 279.597L354.808 252.925L315.57 267.458Z" fill="#CFF501" stroke="black" stroke-width="2" stroke-linecap="round" stroke-linejoin="round"/>
<path d="M347.789 294.13L315.57 267.458L315.544 267.469L308.523 308.697L340.765 335.386L347.789 294.13Z" fill="black" stroke="black" stroke-linecap="round" stroke-linejoin="round"/>
<path d="M387.049 279.614L387.027 279.597L347.789 294.13L340.765 335.386L380.028 320.844L387.049 279.614Z" fill="#00D9EE" stroke="black" stroke-width="2" stroke-linecap="round" stroke-linejoin="round"/>
<path d="M276.461 281.986L308.68 308.655L347.918 294.122L315.698 267.453L276.461 281.986Z" fill="white" stroke="black" stroke-width="2" stroke-linecap="round" stroke-linejoin="round"/>
<path d="M308.68 308.655L276.46 281.986L276.435 281.994L269.414 323.225L301.656 349.911L308.68 308.655Z" fill="#CFF501" stroke="black" stroke-width="2" stroke-linecap="round" stroke-linejoin="round"/>
<path d="M347.937 294.139L347.917 294.122L308.68 308.655L301.656 349.911L340.916 335.37L347.937 294.139Z" fill="#CFF501" stroke="black" stroke-width="2" stroke-linecap="round" stroke-linejoin="round"/>
<path d="M242.701 121.781C247.578 118.196 265.691 107.163 273.932 98.6769C273.932 98.6769 273.408 122.712 273.577 131.058C273.746 139.404 293.191 156.571 299.953 171.445C306.715 186.318 312.412 194.512 318.396 193.063C324.377 191.614 325.414 189.191 325.414 189.191C325.414 189.191 330.254 198.812 339.343 199.453C345.307 199.875 351.728 193.277 356.912 186.797C362.093 180.317 385.703 159.286 392.659 155.564C399.615 151.841 401.347 151.146 411.383 141.917C411.383 141.917 451.15 133.191 467.615 118.812C479.219 108.68 489.193 90.9389 508.095 76.943C506.266 75.6459 504.429 74.2784 502.587 72.7843C472.68 48.5349 450.871 29.8569 450.372 -3.32632C419.542 5.95923 378.431 -7.13903 343.366 -5.88689C343.366 -5.88689 333.688 -1.89128 327.865 0.894381C322.041 3.68005 319.393 -3.06183 303.864 7.85854C298.68 11.5052 296.051 15.4868 293.352 17.4311C287.965 21.3113 285.032 21.1059 280.144 22.1414C280.144 22.1414 273.949 26.8264 270.396 26.7448C266.846 26.6632 260.995 28.4218 258.76 33.5964C256.526 38.771 260.733 42.4543 260.733 42.4543C260.733 42.4543 252.08 48.3829 248.756 51.5794C245.431 54.7759 233.449 58.099 228.217 59.3202C222.985 60.5414 216.522 68.4369 220.143 73.2148C223.766 77.9926 236.982 80.0917 247.499 76.0989C247.499 76.0989 244.347 81.5914 236.889 89.0762C229.429 96.5609 229.26 99.0455 223.524 104.203C217.787 109.361 218.01 108.168 214.764 110.109C211.516 112.054 201.472 119.648 208.366 127.656C215.257 135.664 225.462 130.715 227.209 129.499C228.953 128.281 237.825 125.366 242.701 121.781ZM314.95 108.655C314.95 108.655 321.055 102.09 320.72 99.884C320.72 99.884 334.057 107.324 342.138 106.75C350.218 106.173 353.424 123.939 350.885 130.47C348.347 137.001 345.561 143.208 333.502 153.968C333.502 153.968 328.933 158.723 328.256 160.223C328.256 160.223 324.718 154.292 323.94 151.461C323.163 148.63 319.351 135.662 312.121 128.832C312.121 128.832 317.953 113.559 314.953 108.652L314.95 108.655Z" fill="black"/>
<path d="M322.821 20.1294C322.821 20.1294 315.152 17.4253 304.778 22.3776C294.402 27.3299 280.205 34.4826 272.562 38.8806C264.918 43.2785 265.07 39.0072 255.984 45.8166" stroke="#00D9EE" stroke-width="2" stroke-linecap="round" stroke-linejoin="round"/>
<path d="M231.492 77.9702C231.492 77.9702 246.024 80.0271 253.042 70.674C253.042 70.674 254.744 65.4685 265.602 61.7289C276.46 57.9866 280.613 54.9814 280.613 54.9814" stroke="#00D9EE" stroke-width="2" stroke-linecap="round" stroke-linejoin="round"/>
<path d="M278.954 141.109C271.242 130.121 274.671 135.712 273.902 108.26C273.133 80.809 278.092 64.9476 278.092 64.9476C278.092 64.9476 279.196 57.4319 297.771 50.811" stroke="#00D9EE" stroke-width="2" stroke-linecap="round" stroke-linejoin="round"/>
<path d="M308.02 89.7568C308.02 89.7568 319.96 95.5026 320.717 99.8837" stroke="#00D9EE" stroke-width="2" stroke-linecap="round" stroke-linejoin="round"/>
<path d="M314.948 108.654C314.948 108.654 308.87 114.822 296.852 110.43" stroke="#00D9EE" stroke-width="2" stroke-linecap="round" stroke-linejoin="round"/>
<path d="M312.119 128.835C312.119 128.835 303.52 141.43 293.961 140.124" stroke="#00D9EE" stroke-width="2" stroke-linecap="round" stroke-linejoin="round"/>
<path d="M333.139 154.489C333.139 154.489 315.145 170.941 325.411 189.191C333.731 203.978 346.595 198.84 351.683 192.74" stroke="#00D9EE" stroke-width="2" stroke-linecap="round" stroke-linejoin="round"/>
<path d="M450.371 -3.33202L579.449 -95.1689C579.449 -95.1689 718.501 -19.6689 642.479 8.56191L508.091 76.9373L456.597 66.1577L426.316 46.2303L450.365 -3.33202H450.371Z" fill="black"/>
<mask id="mask0_12_9558" style="mask-type:luminance" maskUnits="userSpaceOnUse" x="276" y="156" width="98" height="97">
<path d="M322.982 171.699C322.982 171.699 318.618 186.615 331.857 197.029C331.857 197.029 341.644 206.286 355.624 188.717L365.378 188.03L372.703 202.381L373.266 210.541L361.831 221.582L354.57 245.981L343.966 251.622L326.081 252.813L303.936 251.988L281.699 222.922L276.352 197.434L294.653 173.134L312.972 156.234H328.149L329.138 159.389C329.138 159.389 323.968 166.342 322.979 171.699H322.982Z" fill="white"/>
</mask>
<g mask="url(#mask0_12_9558)">
<path d="M324.84 207.853L301.54 173.134L301.512 173.137L283.047 210.67L306.361 245.412L324.84 207.853Z" fill="#00D9EE" stroke="black" stroke-width="2" stroke-linecap="round" stroke-linejoin="round"/>
<path d="M366.609 205.082L366.592 205.06L324.838 207.854L306.359 245.412L348.141 242.618L366.609 205.082Z" fill="#CFF501" stroke="black" stroke-width="2" stroke-linecap="round" stroke-linejoin="round"/>
<path d="M301.539 173.134L324.839 207.853L366.592 205.059L343.292 170.34L301.539 173.134Z" fill="white" stroke="black" stroke-width="2" stroke-linecap="round" stroke-linejoin="round"/>
</g>
<path d="M493.027 165.061H493.024L487.624 170.83H487.626C487.48 170.987 487.418 171.224 487.474 171.519L488.455 176.553C488.055 176.511 487.657 176.384 487.381 176.156L478.011 168.407C477.526 168.007 476.785 168.052 476.357 168.511L471.717 173.438C471.717 173.438 471.705 173.458 471.7 173.466L466.321 179.198C465.89 179.654 465.89 180.397 466.321 180.852L474.638 189.719C474.878 189.975 475.03 190.349 475.098 190.737L469.978 190.065C469.683 190.025 469.449 190.104 469.302 190.259H469.299L463.89 196.036C463.741 196.204 463.693 196.463 463.786 196.767L466.82 206.827C467 207.426 467.632 208.073 468.226 208.273L477.884 211.481C478.481 211.678 479.202 212.288 479.51 212.834C480.693 214.93 482.056 216.99 483.564 218.979C483.941 219.48 483.984 220.308 483.648 220.837L480.321 226.053C479.983 226.582 480.081 227.359 480.538 227.789L490.294 236.954C490.751 237.385 491.534 237.432 492.041 237.064L497.053 233.425C497.56 233.057 498.392 233.048 498.916 233.395C500.998 234.776 503.139 236.009 505.305 237.061C505.869 237.334 506.522 238.015 506.756 238.597L510.551 248.029C510.785 248.612 511.47 249.2 512.081 249.343L522.322 251.749C522.638 251.822 522.894 251.755 523.055 251.589L528.456 245.823C528.602 245.666 528.664 245.426 528.608 245.131L527.627 240.097C528.027 240.139 528.425 240.266 528.701 240.494L538.071 248.243C538.556 248.643 539.297 248.598 539.725 248.139L546.219 241.214C546.219 241.214 546.222 241.208 546.225 241.203L549.758 237.449C550.189 236.993 550.189 236.251 549.758 235.795L541.441 226.928C541.201 226.672 541.049 226.298 540.982 225.907L546.101 226.58C546.402 226.619 546.639 226.54 546.785 226.38L552.181 220.623C552.339 220.451 552.389 220.189 552.296 219.88L549.262 209.818C549.082 209.218 548.451 208.571 547.856 208.371L538.198 205.164C537.604 204.967 536.88 204.356 536.573 203.81C535.389 201.714 534.026 199.657 532.518 197.665C532.138 197.164 532.096 196.337 532.434 195.808L535.761 190.588C536.099 190.059 536.001 189.283 535.544 188.852L525.788 179.687C525.331 179.257 524.548 179.209 524.041 179.578L519.029 183.216C518.522 183.585 517.691 183.593 517.166 183.247C515.084 181.865 512.943 180.633 510.777 179.581C510.21 179.308 509.56 178.624 509.326 178.044L505.531 168.612C505.297 168.03 504.612 167.442 504.001 167.298L493.76 164.89C493.444 164.817 493.188 164.884 493.027 165.05V165.061ZM515.862 222.443C506.308 220.198 496.27 210.766 493.439 201.379C492.331 197.707 492.498 194.592 493.672 192.288C495.732 191.441 498.569 191.39 502.071 192.215C511.625 194.46 521.666 203.892 524.494 213.276C525.602 216.948 525.557 219.835 524.54 221.869C522.342 223 519.381 223.268 515.862 222.44V222.443Z" fill="white" stroke="#182341" stroke-width="2" stroke-linecap="round" stroke-linejoin="round"/>
<path opacity="0.2" d="M493.027 165.061H493.024L487.624 170.83H487.626C487.48 170.987 487.418 171.224 487.474 171.519L488.455 176.553C488.055 176.511 487.657 176.384 487.381 176.156L478.011 168.407C477.526 168.007 476.785 168.052 476.357 168.511L471.717 173.438C471.717 173.438 471.705 173.458 471.7 173.466L466.321 179.198C465.89 179.654 465.89 180.397 466.321 180.852L474.638 189.719C474.878 189.975 475.03 190.349 475.098 190.737L469.978 190.065C469.683 190.025 469.449 190.104 469.302 190.259H469.299L463.89 196.036C463.741 196.204 463.693 196.463 463.786 196.767L466.82 206.827C467 207.426 467.632 208.073 468.226 208.273L477.884 211.481C478.481 211.678 479.202 212.288 479.51 212.834C480.693 214.93 482.056 216.99 483.564 218.979C483.941 219.48 483.984 220.308 483.648 220.837L480.321 226.053C479.983 226.582 480.081 227.359 480.538 227.789L490.294 236.954C490.751 237.385 491.534 237.432 492.041 237.064L497.053 233.425C497.56 233.057 498.392 233.048 498.916 233.395C500.998 234.776 503.139 236.009 505.305 237.061C505.869 237.334 506.522 238.015 506.756 238.597L510.551 248.029C510.785 248.612 511.47 249.2 512.081 249.343L522.322 251.749C522.638 251.822 522.894 251.755 523.055 251.589L528.456 245.823C528.602 245.666 528.664 245.426 528.608 245.131L527.627 240.097C528.027 240.139 528.425 240.266 528.701 240.494L538.071 248.243C538.556 248.643 539.297 248.598 539.725 248.139L546.219 241.214C546.219 241.214 546.222 241.208 546.225 241.203L549.758 237.449C550.189 236.993 550.189 236.251 549.758 235.795L541.441 226.928C541.201 226.672 541.049 226.298 540.982 225.907L546.101 226.58C546.402 226.619 546.639 226.54 546.785 226.38L552.181 220.623C552.339 220.451 552.389 220.189 552.296 219.88L549.262 209.818C549.082 209.218 548.451 208.571 547.856 208.371L538.198 205.164C537.604 204.967 536.88 204.356 536.573 203.81C535.389 201.714 534.026 199.657 532.518 197.665C532.138 197.164 532.096 196.337 532.434 195.808L535.761 190.588C536.099 190.059 536.001 189.283 535.544 188.852L525.788 179.687C525.331 179.257 524.548 179.209 524.041 179.578L519.029 183.216C518.522 183.585 517.691 183.593 517.166 183.247C515.084 181.865 512.943 180.633 510.777 179.581C510.21 179.308 509.56 178.624 509.326 178.044L505.531 168.612C505.297 168.03 504.612 167.442 504.001 167.298L493.76 164.89C493.444 164.817 493.188 164.884 493.027 165.05V165.061ZM515.862 222.443C506.308 220.198 496.27 210.766 493.439 201.379C492.331 197.707 492.498 194.592 493.672 192.288C495.732 191.441 498.569 191.39 502.071 192.215C511.625 194.46 521.666 203.892 524.494 213.276C525.602 216.948 525.557 219.835 524.54 221.869C522.342 223 519.381 223.268 515.862 222.44V222.443Z" fill="white" stroke="#182341" stroke-width="2" stroke-linecap="round" stroke-linejoin="round"/>
<path opacity="0.1" d="M527.826 235.246C527.201 235.291 526.787 235.8 526.908 236.414L527.623 240.086C528.026 240.125 528.426 240.266 528.702 240.497L538.07 248.249C538.555 248.648 539.293 248.6 539.73 248.144L546.221 241.222L545.119 242.385C544.691 242.843 543.953 242.891 543.468 242.492L534.101 234.739C533.616 234.34 532.757 234.213 532.157 234.41C530.832 234.844 529.39 235.128 527.826 235.246ZM552.132 220.696C551.977 220.806 551.763 220.856 551.503 220.831L542.685 219.666C542.062 219.584 541.581 220.02 541.572 220.651C541.544 222.212 541.355 223.673 541 225.021C540.927 225.288 540.927 225.609 540.983 225.915L546.105 226.588C546.41 226.622 546.646 226.551 546.784 226.391H546.793L552.132 220.696Z" fill="white" stroke="#182341" stroke-width="2" stroke-linecap="round" stroke-linejoin="round"/>
<path opacity="0.1" d="M505.616 188.455C515.169 190.7 525.211 200.124 528.042 209.514C529.831 215.448 528.313 219.941 524.54 221.88C525.568 219.857 525.608 216.959 524.501 213.276C521.672 203.886 511.631 194.465 502.074 192.217C498.575 191.395 495.738 191.435 493.676 192.279C495.504 188.691 499.804 187.088 505.616 188.455Z" fill="white" stroke="#182341" stroke-width="2" stroke-linecap="round" stroke-linejoin="round"/>
<path d="M466.32 179.198C465.892 179.648 465.892 180.391 466.326 180.85L474.64 189.721C474.772 189.862 474.874 190.051 474.955 190.253L480.365 184.491C480.283 184.288 480.173 184.097 480.032 183.953L471.716 175.093C471.327 174.67 471.299 174.012 471.617 173.556L466.32 179.201V179.198ZM487.617 170.83H487.625C487.479 170.982 487.422 171.224 487.473 171.519L488.462 176.558C488.769 176.584 489.068 176.556 489.327 176.477C490.589 176.066 491.97 175.788 493.449 175.667C493.516 175.655 493.584 175.644 493.657 175.641C493.826 175.627 493.984 175.579 494.122 175.503C494.164 175.478 494.209 175.45 494.252 175.416C494.331 175.351 494.395 175.275 494.452 175.188C494.539 175.053 494.587 174.89 494.593 174.707C494.601 174.637 494.593 174.552 494.573 174.473L492.871 165.753C492.851 165.675 492.849 165.61 492.849 165.537C492.846 165.436 492.86 165.337 492.902 165.264C492.93 165.179 492.975 165.106 493.035 165.056H493.026L487.617 170.827V170.83ZM463.886 196.036C463.737 196.202 463.694 196.458 463.787 196.764L466.816 206.824C466.94 207.237 467.278 207.665 467.678 207.961L473.073 202.212C472.673 201.917 472.338 201.48 472.214 201.067L469.174 191.005C469.095 190.72 469.124 190.478 469.247 190.307L463.883 196.036H463.886ZM506.242 237.821C506.459 238.065 506.654 238.338 506.758 238.594L510.55 248.026C510.649 248.271 510.835 248.496 511.04 248.71L516.427 242.959C516.21 242.75 516.038 242.508 515.948 242.269L512.156 232.837C512.052 232.584 511.866 232.311 511.643 232.055L506.242 237.821ZM480.145 226.495C480.055 226.951 480.193 227.46 480.537 227.789L490.29 236.951C490.51 237.148 490.786 237.261 491.082 237.292L496.489 231.537C496.19 231.512 495.908 231.391 495.688 231.194L485.929 222.021C485.605 221.726 485.467 221.253 485.523 220.817L480.145 226.495Z" fill="white" stroke="#182341" stroke-width="2" stroke-linecap="round" stroke-linejoin="round"/>
<path opacity="0.7" d="M466.32 179.198C465.892 179.648 465.892 180.391 466.326 180.85L474.64 189.721C474.772 189.862 474.874 190.051 474.955 190.253L480.365 184.491C480.283 184.288 480.173 184.097 480.032 183.953L471.716 175.093C471.327 174.67 471.299 174.012 471.617 173.556L466.32 179.201V179.198ZM487.617 170.83H487.625C487.479 170.982 487.422 171.224 487.473 171.519L488.462 176.558C488.769 176.584 489.068 176.556 489.327 176.477C490.589 176.066 491.97 175.788 493.449 175.667C493.516 175.655 493.584 175.644 493.657 175.641C493.826 175.627 493.984 175.579 494.122 175.503C494.164 175.478 494.209 175.45 494.252 175.416C494.331 175.351 494.395 175.275 494.452 175.188C494.539 175.053 494.587 174.89 494.593 174.707C494.601 174.637 494.593 174.552 494.573 174.473L492.871 165.753C492.851 165.675 492.849 165.61 492.849 165.537C492.846 165.436 492.86 165.337 492.902 165.264C492.93 165.179 492.975 165.106 493.035 165.056H493.026L487.617 170.827V170.83ZM463.886 196.036C463.737 196.202 463.694 196.458 463.787 196.764L466.816 206.824C466.94 207.237 467.278 207.665 467.678 207.961L473.073 202.212C472.673 201.917 472.338 201.48 472.214 201.067L469.174 191.005C469.095 190.72 469.124 190.478 469.247 190.307L463.883 196.036H463.886ZM506.242 237.821C506.459 238.065 506.654 238.338 506.758 238.594L510.55 248.026C510.649 248.271 510.835 248.496 511.04 248.71L516.427 242.959C516.21 242.75 516.038 242.508 515.948 242.269L512.156 232.837C512.052 232.584 511.866 232.311 511.643 232.055L506.242 237.821ZM480.145 226.495C480.055 226.951 480.193 227.46 480.537 227.789L490.29 236.951C490.51 237.148 490.786 237.261 491.082 237.292L496.489 231.537C496.19 231.512 495.908 231.391 495.688 231.194L485.929 222.021C485.605 221.726 485.467 221.253 485.523 220.817L480.145 226.495Z" fill="white" stroke="#182341" stroke-width="2" stroke-linecap="round" stroke-linejoin="round"/>
<path d="M504.003 167.309L493.762 164.901C493.151 164.757 492.754 165.14 492.872 165.756L494.574 174.476C494.695 175.092 494.281 175.599 493.655 175.647C492.097 175.765 490.652 176.049 489.328 176.485C488.73 176.682 487.871 176.556 487.386 176.156L478.016 168.407C477.531 168.007 476.79 168.052 476.362 168.511L471.722 173.438C471.291 173.894 471.291 174.636 471.722 175.092L480.039 183.959C480.467 184.417 480.647 185.267 480.487 185.875C480.132 187.22 479.937 188.68 479.915 190.239C479.906 190.867 479.425 191.308 478.802 191.224L469.984 190.062C469.361 189.98 469.003 190.399 469.183 191.002L472.215 201.061C472.395 201.66 473.026 202.307 473.621 202.507L483.279 205.715C483.876 205.912 484.597 206.523 484.904 207.068C486.088 209.165 487.451 211.224 488.959 213.214C489.339 213.715 489.378 214.542 489.043 215.071L485.716 220.29C485.378 220.819 485.476 221.596 485.933 222.027L495.692 231.194C496.148 231.624 496.932 231.672 497.439 231.304L502.451 227.665C502.958 227.297 503.789 227.288 504.31 227.634C506.392 229.016 508.534 230.249 510.7 231.301C511.264 231.574 511.917 232.255 512.151 232.837L515.946 242.269C516.18 242.852 516.865 243.44 517.476 243.583L527.717 245.989C528.328 246.132 528.726 245.75 528.607 245.134L526.906 236.414C526.784 235.797 527.199 235.291 527.824 235.243C529.382 235.125 530.827 234.841 532.152 234.405C532.749 234.208 533.608 234.334 534.093 234.734L543.463 242.483C543.948 242.882 544.689 242.837 545.117 242.379L549.757 237.452C550.188 236.996 550.188 236.253 549.757 235.797L541.44 226.931C541.012 226.472 540.832 225.623 540.992 225.015C541.347 223.667 541.542 222.209 541.564 220.648C541.573 220.02 542.055 219.579 542.677 219.66L551.496 220.822C552.118 220.904 552.476 220.485 552.296 219.882L549.261 209.82C549.081 209.221 548.45 208.574 547.856 208.374L538.198 205.166C537.603 204.969 536.879 204.359 536.572 203.813C535.389 201.717 534.025 199.66 532.518 197.667C532.14 197.167 532.095 196.339 532.433 195.81L535.761 190.591C536.099 190.062 536 189.285 535.544 188.855L525.787 179.687C525.331 179.257 524.548 179.209 524.04 179.578L519.028 183.216C518.521 183.584 517.69 183.593 517.166 183.247C515.084 181.865 512.943 180.633 510.776 179.58C510.213 179.307 509.559 178.626 509.325 178.044L505.53 168.612C505.296 168.03 504.612 167.442 504 167.298L504.003 167.309ZM528.041 209.514C530.87 218.9 525.418 224.688 515.864 222.443C506.311 220.198 496.272 210.766 493.441 201.379C490.612 191.992 496.061 186.204 505.618 188.449C515.171 190.695 525.21 200.124 528.041 209.511V209.514Z" fill="white" stroke="#182341" stroke-width="2" stroke-linecap="round" stroke-linejoin="round"/>
<path opacity="0.55" d="M504.003 167.309L493.762 164.901C493.151 164.757 492.754 165.14 492.872 165.756L494.574 174.476C494.695 175.092 494.281 175.599 493.655 175.647C492.097 175.765 490.652 176.049 489.328 176.485C488.73 176.682 487.871 176.556 487.386 176.156L478.016 168.407C477.531 168.007 476.79 168.052 476.362 168.511L471.722 173.438C471.291 173.894 471.291 174.636 471.722 175.092L480.039 183.959C480.467 184.417 480.647 185.267 480.487 185.875C480.132 187.22 479.937 188.68 479.915 190.239C479.906 190.867 479.425 191.308 478.802 191.224L469.984 190.062C469.361 189.98 469.003 190.399 469.183 191.002L472.215 201.061C472.395 201.66 473.026 202.307 473.621 202.507L483.279 205.715C483.876 205.912 484.597 206.523 484.904 207.068C486.088 209.165 487.451 211.224 488.959 213.214C489.339 213.715 489.378 214.542 489.043 215.071L485.716 220.29C485.378 220.819 485.476 221.596 485.933 222.027L495.692 231.194C496.148 231.624 496.932 231.672 497.439 231.304L502.451 227.665C502.958 227.297 503.789 227.288 504.31 227.634C506.392 229.016 508.534 230.249 510.7 231.301C511.264 231.574 511.917 232.255 512.151 232.837L515.946 242.269C516.18 242.852 516.865 243.44 517.476 243.583L527.717 245.989C528.328 246.132 528.726 245.75 528.607 245.134L526.906 236.414C526.784 235.797 527.199 235.291 527.824 235.243C529.382 235.125 530.827 234.841 532.152 234.405C532.749 234.208 533.608 234.334 534.093 234.734L543.463 242.483C543.948 242.882 544.689 242.837 545.117 242.379L549.757 237.452C550.188 236.996 550.188 236.253 549.757 235.797L541.44 226.931C541.012 226.472 540.832 225.623 540.992 225.015C541.347 223.667 541.542 222.209 541.564 220.648C541.573 220.02 542.055 219.579 542.677 219.66L551.496 220.822C552.118 220.904 552.476 220.485 552.296 219.882L549.261 209.82C549.081 209.221 548.45 208.574 547.856 208.374L538.198 205.166C537.603 204.969 536.879 204.359 536.572 203.813C535.389 201.717 534.025 199.66 532.518 197.667C532.14 197.167 532.095 196.339 532.433 195.81L535.761 190.591C536.099 190.062 536 189.285 535.544 188.855L525.787 179.687C525.331 179.257 524.548 179.209 524.04 179.578L519.028 183.216C518.521 183.584 517.69 183.593 517.166 183.247C515.084 181.865 512.943 180.633 510.776 179.58C510.213 179.307 509.559 178.626 509.325 178.044L505.53 168.612C505.296 168.03 504.612 167.442 504 167.298L504.003 167.309ZM528.041 209.514C530.87 218.9 525.418 224.688 515.864 222.443C506.311 220.198 496.272 210.766 493.441 201.379C490.612 191.992 496.061 186.204 505.618 188.449C515.171 190.695 525.21 200.124 528.041 209.511V209.514Z" fill="white" stroke="#182341" stroke-width="2" stroke-linecap="round" stroke-linejoin="round"/>
<path d="M29.5703 177.442H29.5674L24.1665 183.21H24.1694C24.0229 183.368 23.9609 183.604 24.0172 183.899L24.9977 188.933C24.5976 188.891 24.2004 188.764 23.9243 188.537L14.5537 180.787C14.0691 180.388 13.3281 180.433 12.8999 180.891L8.25969 185.818C8.25969 185.818 8.24842 185.838 8.24278 185.847L2.86443 191.578C2.43337 192.034 2.43337 192.777 2.86443 193.233L11.1813 202.099C11.4208 202.355 11.5729 202.729 11.6405 203.118L6.52137 202.445C6.22555 202.406 5.99171 202.485 5.8452 202.639H5.84239L0.43304 208.416C0.28372 208.585 0.235824 208.844 0.328798 209.148L3.3631 219.207C3.54341 219.806 4.17451 220.454 4.76897 220.653L14.4269 223.861C15.0242 224.058 15.7454 224.669 16.0525 225.214C17.2358 227.311 18.5994 229.37 20.1067 231.36C20.4842 231.861 20.5265 232.688 20.1912 233.217L16.8639 238.434C16.5258 238.963 16.6245 239.739 17.0809 240.17L26.8374 249.334C27.2938 249.765 28.0771 249.813 28.5842 249.444L33.5963 245.806C34.1034 245.437 34.9345 245.429 35.4586 245.775C37.5406 247.156 39.6818 248.389 41.8484 249.441C42.4118 249.714 43.0655 250.395 43.2993 250.978L47.0943 260.409C47.3281 260.992 48.0128 261.58 48.6241 261.724L58.8653 264.129C59.1808 264.202 59.4372 264.135 59.5978 263.969L64.9987 258.203C65.1452 258.046 65.2072 257.807 65.1508 257.511L64.1704 252.477C64.5704 252.52 64.9677 252.646 65.2438 252.874L74.6143 260.623C75.0989 261.023 75.8399 260.978 76.2681 260.519L82.7622 253.594C82.7622 253.594 82.765 253.589 82.7678 253.583L86.3008 249.83C86.7319 249.374 86.7319 248.631 86.3008 248.175L77.9839 239.309C77.7444 239.053 77.5923 238.678 77.5247 238.287L82.6438 238.96C82.9453 238.999 83.182 238.92 83.3285 238.76L88.7237 233.003C88.8815 232.831 88.9322 232.57 88.8392 232.26L85.8049 222.198C85.6246 221.599 84.9935 220.952 84.3991 220.752L74.7411 217.544C74.1467 217.347 73.4226 216.736 73.1155 216.191C71.9322 214.094 70.5686 212.037 69.0613 210.045C68.681 209.544 68.6387 208.717 68.9768 208.188L72.3041 202.969C72.6422 202.44 72.5436 201.663 72.0872 201.232L62.3306 192.068C61.8742 191.637 61.091 191.589 60.5838 191.958L55.5718 195.596C55.0646 195.965 54.2335 195.973 53.7095 195.627C51.6274 194.246 49.4862 193.013 47.3197 191.961C46.7534 191.688 46.1026 191.004 45.8687 190.425L42.0737 180.993C41.8399 180.41 41.1553 179.822 40.5439 179.679L30.3028 177.27C29.9872 177.197 29.7309 177.264 29.5703 177.43V177.442ZM52.405 234.824C42.8513 232.578 32.8131 223.146 29.9816 213.759C28.8744 210.087 29.0406 206.973 30.2154 204.668C32.2749 203.821 35.112 203.77 38.614 204.595C48.1677 206.84 58.2088 216.272 61.0374 225.656C62.1447 229.328 62.0996 232.215 61.0825 234.25C58.885 235.381 55.9239 235.648 52.405 234.821V234.824Z" fill="white" stroke="#182341" stroke-width="2" stroke-linecap="round" stroke-linejoin="round"/>
<path opacity="0.2" d="M29.5703 177.442H29.5674L24.1665 183.21H24.1694C24.0229 183.368 23.9609 183.604 24.0172 183.899L24.9977 188.933C24.5976 188.891 24.2004 188.764 23.9243 188.537L14.5537 180.787C14.0691 180.388 13.3281 180.433 12.8999 180.891L8.25969 185.818C8.25969 185.818 8.24842 185.838 8.24278 185.847L2.86443 191.578C2.43337 192.034 2.43337 192.777 2.86443 193.233L11.1813 202.099C11.4208 202.355 11.5729 202.729 11.6405 203.118L6.52137 202.445C6.22555 202.406 5.99171 202.485 5.8452 202.639H5.84239L0.43304 208.416C0.28372 208.585 0.235824 208.844 0.328798 209.148L3.3631 219.207C3.54341 219.806 4.17451 220.454 4.76897 220.653L14.4269 223.861C15.0242 224.058 15.7454 224.669 16.0525 225.214C17.2358 227.311 18.5994 229.37 20.1067 231.36C20.4842 231.861 20.5265 232.688 20.1912 233.217L16.8639 238.434C16.5258 238.963 16.6245 239.739 17.0809 240.17L26.8374 249.334C27.2938 249.765 28.0771 249.813 28.5842 249.444L33.5963 245.806C34.1034 245.437 34.9345 245.429 35.4586 245.775C37.5406 247.156 39.6818 248.389 41.8484 249.441C42.4118 249.714 43.0655 250.395 43.2993 250.978L47.0943 260.409C47.3281 260.992 48.0128 261.58 48.6241 261.724L58.8653 264.129C59.1808 264.202 59.4372 264.135 59.5978 263.969L64.9987 258.203C65.1452 258.046 65.2072 257.807 65.1508 257.511L64.1704 252.477C64.5704 252.52 64.9677 252.646 65.2438 252.874L74.6143 260.623C75.0989 261.023 75.8399 260.978 76.2681 260.519L82.7622 253.594C82.7622 253.594 82.765 253.589 82.7678 253.583L86.3008 249.83C86.7319 249.374 86.7319 248.631 86.3008 248.175L77.9839 239.309C77.7444 239.053 77.5923 238.678 77.5247 238.287L82.6438 238.96C82.9453 238.999 83.182 238.92 83.3285 238.76L88.7237 233.003C88.8815 232.831 88.9322 232.57 88.8392 232.26L85.8049 222.198C85.6246 221.599 84.9935 220.952 84.3991 220.752L74.7411 217.544C74.1467 217.347 73.4226 216.736 73.1155 216.191C71.9322 214.094 70.5686 212.037 69.0613 210.045C68.681 209.544 68.6387 208.717 68.9768 208.188L72.3041 202.969C72.6422 202.44 72.5436 201.663 72.0872 201.232L62.3306 192.068C61.8742 191.637 61.091 191.589 60.5838 191.958L55.5718 195.596C55.0646 195.965 54.2335 195.973 53.7095 195.627C51.6274 194.246 49.4862 193.013 47.3197 191.961C46.7534 191.688 46.1026 191.004 45.8687 190.425L42.0737 180.993C41.8399 180.41 41.1553 179.822 40.5439 179.679L30.3028 177.27C29.9872 177.197 29.7309 177.264 29.5703 177.43V177.442ZM52.405 234.824C42.8513 232.578 32.8131 223.146 29.9816 213.759C28.8744 210.087 29.0406 206.973 30.2154 204.668C32.2749 203.821 35.112 203.77 38.614 204.595C48.1677 206.84 58.2088 216.272 61.0374 225.656C62.1447 229.328 62.0996 232.215 61.0825 234.25C58.885 235.381 55.9239 235.648 52.405 234.821V234.824Z" fill="white" stroke="#182341" stroke-width="2" stroke-linecap="round" stroke-linejoin="round"/>
<path opacity="0.1" d="M64.3692 247.626C63.7438 247.671 63.3296 248.181 63.4507 248.794L64.1664 252.466C64.5692 252.505 64.9693 252.646 65.2454 252.877L74.6132 260.629C75.0977 261.028 75.8359 260.981 76.2726 260.525L82.7638 253.603L81.6622 254.765C81.234 255.224 80.4958 255.271 80.0112 254.872L70.6435 247.12C70.1589 246.72 69.2996 246.594 68.6995 246.791C67.3753 247.224 65.9328 247.508 64.3692 247.626ZM88.6746 233.076C88.5197 233.186 88.3056 233.237 88.0464 233.211L79.228 232.046C78.6054 231.965 78.1236 232.401 78.1151 233.031C78.087 234.593 77.8982 236.053 77.5432 237.401C77.47 237.668 77.47 237.989 77.5263 238.296L82.6483 238.968C82.9526 239.002 83.1892 238.932 83.3273 238.771H83.3357L88.6746 233.076Z" fill="white" stroke="#182341" stroke-width="2" stroke-linecap="round" stroke-linejoin="round"/>
<path opacity="0.1" d="M42.1588 200.835C51.7125 203.081 61.7536 212.504 64.585 221.894C66.374 227.828 64.8555 232.322 61.083 234.261C62.1114 232.237 62.1508 229.339 61.0436 225.656C58.2149 216.266 48.1738 206.846 38.6173 204.597C35.1182 203.776 32.2811 203.815 30.2188 204.659C32.0472 201.072 36.3465 199.468 42.1588 200.835Z" fill="white" stroke="#182341" stroke-width="2" stroke-linecap="round" stroke-linejoin="round"/>
<path d="M2.86321 191.578C2.43497 192.028 2.43497 192.771 2.86885 193.23L11.1829 202.102C11.3153 202.243 11.4167 202.431 11.4984 202.634L16.9078 196.871C16.8261 196.668 16.7162 196.477 16.5753 196.334L8.25847 187.473C7.86968 187.051 7.8415 186.392 8.15987 185.937L2.86321 191.581V191.578ZM24.1597 183.21H24.1682C24.0216 183.362 23.9653 183.604 24.016 183.899L25.0049 188.939C25.312 188.964 25.6106 188.936 25.8698 188.857C27.132 188.446 28.5125 188.168 29.9917 188.047C30.0593 188.036 30.1269 188.024 30.2001 188.022C30.3692 188.007 30.527 187.96 30.665 187.884C30.7073 187.858 30.7523 187.83 30.7946 187.796C30.8735 187.732 30.9383 187.656 30.9946 187.569C31.082 187.433 31.1299 187.27 31.1355 187.087C31.144 187.017 31.1355 186.933 31.1158 186.854L29.4141 178.134C29.3944 178.055 29.3916 177.99 29.3916 177.917C29.3887 177.816 29.4028 177.717 29.4451 177.644C29.4733 177.56 29.5183 177.487 29.5775 177.436H29.569L24.1597 183.207V183.21ZM0.429008 208.416C0.279687 208.582 0.237427 208.838 0.3304 209.145L3.35907 219.204C3.48304 219.618 3.82112 220.045 4.22119 220.341L9.61645 214.592C9.21638 214.297 8.88111 213.861 8.75715 213.447L5.71721 203.385C5.63832 203.101 5.6665 202.859 5.79046 202.687L0.42619 208.416H0.429008ZM42.7853 250.201C43.0023 250.446 43.1967 250.719 43.3009 250.975L47.0931 260.407C47.1917 260.651 47.3776 260.877 47.5833 261.09L52.9701 255.339C52.7532 255.131 52.5813 254.889 52.4912 254.65L48.699 245.218C48.5947 244.965 48.4088 244.692 48.1862 244.436L42.7853 250.201ZM16.688 238.875C16.5979 239.331 16.7359 239.841 17.0797 240.17L26.8334 249.332C27.0531 249.528 27.3292 249.641 27.6251 249.672L33.0316 243.918C32.733 243.892 32.4512 243.771 32.2315 243.574L22.4721 234.402C22.1481 234.106 22.01 233.633 22.0664 233.197L16.688 238.875Z" fill="white" stroke="#182341" stroke-width="2" stroke-linecap="round" stroke-linejoin="round"/>
<path opacity="0.7" d="M2.86321 191.578C2.43497 192.028 2.43497 192.771 2.86885 193.23L11.1829 202.102C11.3153 202.243 11.4167 202.431 11.4984 202.634L16.9078 196.871C16.8261 196.668 16.7162 196.477 16.5753 196.334L8.25847 187.473C7.86968 187.051 7.8415 186.392 8.15987 185.937L2.86321 191.581V191.578ZM24.1597 183.21H24.1682C24.0216 183.362 23.9653 183.604 24.016 183.899L25.0049 188.939C25.312 188.964 25.6106 188.936 25.8698 188.857C27.132 188.446 28.5125 188.168 29.9917 188.047C30.0593 188.036 30.1269 188.024 30.2001 188.022C30.3692 188.007 30.527 187.96 30.665 187.884C30.7073 187.858 30.7523 187.83 30.7946 187.796C30.8735 187.732 30.9383 187.656 30.9946 187.569C31.082 187.433 31.1299 187.27 31.1355 187.087C31.144 187.017 31.1355 186.933 31.1158 186.854L29.4141 178.134C29.3944 178.055 29.3916 177.99 29.3916 177.917C29.3887 177.816 29.4028 177.717 29.4451 177.644C29.4733 177.56 29.5183 177.487 29.5775 177.436H29.569L24.1597 183.207V183.21ZM0.429008 208.416C0.279687 208.582 0.237427 208.838 0.3304 209.145L3.35907 219.204C3.48304 219.618 3.82112 220.045 4.22119 220.341L9.61645 214.592C9.21638 214.297 8.88111 213.861 8.75715 213.447L5.71721 203.385C5.63832 203.101 5.6665 202.859 5.79046 202.687L0.42619 208.416H0.429008ZM42.7853 250.201C43.0023 250.446 43.1967 250.719 43.3009 250.975L47.0931 260.407C47.1917 260.651 47.3776 260.877 47.5833 261.09L52.9701 255.339C52.7532 255.131 52.5813 254.889 52.4912 254.65L48.699 245.218C48.5947 244.965 48.4088 244.692 48.1862 244.436L42.7853 250.201ZM16.688 238.875C16.5979 239.331 16.7359 239.841 17.0797 240.17L26.8334 249.332C27.0531 249.528 27.3292 249.641 27.6251 249.672L33.0316 243.918C32.733 243.892 32.4512 243.771 32.2315 243.574L22.4721 234.402C22.1481 234.106 22.01 233.633 22.0664 233.197L16.688 238.875Z" fill="white" stroke="#182341" stroke-width="2" stroke-linecap="round" stroke-linejoin="round"/>
<path d="M40.5462 179.69L30.3051 177.281C29.6937 177.138 29.2965 177.52 29.4148 178.136L31.1165 186.856C31.2376 187.473 30.8235 187.979 30.198 188.027C28.64 188.145 27.1947 188.429 25.8706 188.866C25.2733 189.062 24.414 188.936 23.9294 188.536L14.5588 180.787C14.0742 180.388 13.3333 180.433 12.905 180.891L8.26483 185.818C7.83377 186.274 7.83377 187.017 8.26483 187.473L16.5817 196.339C17.0099 196.798 17.1902 197.647 17.0297 198.255C16.6747 199.6 16.4803 201.061 16.4577 202.619C16.4493 203.247 15.9675 203.689 15.3449 203.604L6.52651 202.442C5.90387 202.361 5.54606 202.78 5.72638 203.382L8.75786 213.441C8.93818 214.041 9.56927 214.688 10.1637 214.888L19.8217 218.095C20.419 218.292 21.1402 218.903 21.4473 219.449C22.6306 221.545 23.9942 223.605 25.5015 225.594C25.8818 226.095 25.9213 226.922 25.586 227.451L22.2587 232.671C21.9206 233.2 22.0192 233.976 22.4756 234.407L32.235 243.574C32.6914 244.005 33.4746 244.053 33.9818 243.684L38.9939 240.046C39.501 239.677 40.3321 239.669 40.8533 240.015C42.9354 241.396 45.0766 242.629 47.2431 243.681C47.8066 243.954 48.4602 244.635 48.6941 245.218L52.4891 254.649C52.7229 255.232 53.4075 255.82 54.0189 255.964L64.26 258.369C64.8714 258.513 65.2686 258.13 65.1503 257.514L63.4486 248.794C63.3275 248.178 63.7416 247.671 64.3671 247.623C65.9251 247.505 67.3704 247.221 68.6946 246.785C69.2918 246.588 70.1511 246.715 70.6357 247.114L80.0063 254.863C80.4909 255.263 81.2318 255.218 81.6601 254.759L86.3003 249.832C86.7313 249.376 86.7313 248.634 86.3003 248.178L77.9834 239.311C77.5552 238.853 77.3749 238.003 77.5355 237.395C77.8904 236.047 78.0848 234.59 78.1074 233.028C78.1158 232.401 78.5976 231.959 79.2202 232.041L88.0386 233.203C88.6612 233.284 89.019 232.865 88.8387 232.263L85.8044 222.201C85.6241 221.601 84.993 220.954 84.3986 220.754L74.7406 217.547C74.1462 217.35 73.4221 216.739 73.115 216.193C71.9317 214.097 70.5681 212.04 69.0608 210.048C68.6833 209.547 68.6382 208.72 68.9763 208.191L72.3036 202.971C72.6417 202.442 72.5431 201.666 72.0867 201.235L62.3301 192.068C61.8737 191.637 61.0905 191.589 60.5834 191.958L55.5713 195.596C55.0641 195.965 54.233 195.973 53.709 195.627C51.6269 194.246 49.4857 193.013 47.3192 191.961C46.7557 191.688 46.1021 191.007 45.8682 190.424L42.0732 180.993C41.8394 180.41 41.1548 179.822 40.5434 179.678L40.5462 179.69ZM64.584 221.894C67.4127 231.281 61.961 237.069 52.4073 234.823C42.8537 232.578 32.8154 223.146 29.9839 213.759C27.1553 204.372 32.6041 198.584 42.1606 200.83C51.7143 203.075 61.7526 212.504 64.584 221.891V221.894Z" fill="white" stroke="#182341" stroke-width="2" stroke-linecap="round" stroke-linejoin="round"/>
<path opacity="0.55" d="M40.5462 179.69L30.3051 177.281C29.6937 177.138 29.2965 177.52 29.4148 178.136L31.1165 186.856C31.2376 187.473 30.8235 187.979 30.198 188.027C28.64 188.145 27.1947 188.429 25.8706 188.866C25.2733 189.062 24.414 188.936 23.9294 188.536L14.5588 180.787C14.0742 180.388 13.3333 180.433 12.905 180.891L8.26483 185.818C7.83377 186.274 7.83377 187.017 8.26483 187.473L16.5817 196.339C17.0099 196.798 17.1902 197.647 17.0297 198.255C16.6747 199.6 16.4803 201.061 16.4577 202.619C16.4493 203.247 15.9675 203.689 15.3449 203.604L6.52651 202.442C5.90387 202.361 5.54606 202.78 5.72638 203.382L8.75786 213.441C8.93818 214.041 9.56927 214.688 10.1637 214.888L19.8217 218.095C20.419 218.292 21.1402 218.903 21.4473 219.449C22.6306 221.545 23.9942 223.605 25.5015 225.594C25.8818 226.095 25.9213 226.922 25.586 227.451L22.2587 232.671C21.9206 233.2 22.0192 233.976 22.4756 234.407L32.235 243.574C32.6914 244.005 33.4746 244.053 33.9818 243.684L38.9939 240.046C39.501 239.677 40.3321 239.669 40.8533 240.015C42.9354 241.396 45.0766 242.629 47.2431 243.681C47.8066 243.954 48.4602 244.635 48.6941 245.218L52.4891 254.649C52.7229 255.232 53.4075 255.82 54.0189 255.964L64.26 258.369C64.8714 258.513 65.2686 258.13 65.1503 257.514L63.4486 248.794C63.3275 248.178 63.7416 247.671 64.3671 247.623C65.9251 247.505 67.3704 247.221 68.6946 246.785C69.2918 246.588 70.1511 246.715 70.6357 247.114L80.0063 254.863C80.4909 255.263 81.2318 255.218 81.6601 254.759L86.3003 249.832C86.7313 249.376 86.7313 248.634 86.3003 248.178L77.9834 239.311C77.5552 238.853 77.3749 238.003 77.5355 237.395C77.8904 236.047 78.0848 234.59 78.1074 233.028C78.1158 232.401 78.5976 231.959 79.2202 232.041L88.0386 233.203C88.6612 233.284 89.019 232.865 88.8387 232.263L85.8044 222.201C85.6241 221.601 84.993 220.954 84.3986 220.754L74.7406 217.547C74.1462 217.35 73.4221 216.739 73.115 216.193C71.9317 214.097 70.5681 212.04 69.0608 210.048C68.6833 209.547 68.6382 208.72 68.9763 208.191L72.3036 202.971C72.6417 202.442 72.5431 201.666 72.0867 201.235L62.3301 192.068C61.8737 191.637 61.0905 191.589 60.5834 191.958L55.5713 195.596C55.0641 195.965 54.233 195.973 53.709 195.627C51.6269 194.246 49.4857 193.013 47.3192 191.961C46.7557 191.688 46.1021 191.007 45.8682 190.424L42.0732 180.993C41.8394 180.41 41.1548 179.822 40.5434 179.678L40.5462 179.69ZM64.584 221.894C67.4127 231.281 61.961 237.069 52.4073 234.823C42.8537 232.578 32.8154 223.146 29.9839 213.759C27.1553 204.372 32.6041 198.584 42.1606 200.83C51.7143 203.075 61.7526 212.504 64.584 221.891V221.894Z" fill="white" stroke="#182341" stroke-width="2" stroke-linecap="round" stroke-linejoin="round"/>
<path d="M551.888 359.276C551.285 359.67 550.234 359.94 549.519 359.844L543.58 359.051C542.864 358.955 541.903 359.323 541.436 359.872L538.269 363.584C538.055 363.834 537.981 364.098 538.027 364.335H538.021L539.049 370.272L539.055 370.266C539.1 370.553 539.32 370.795 539.703 370.914L541.875 371.572L536.897 373.333C536.333 373.533 536.066 374.059 536.17 374.597L536.145 374.588L537.173 380.528H537.179C537.198 380.646 537.232 380.765 537.291 380.883L538.846 383.908C539.176 384.549 540.016 384.946 540.723 384.794L547.296 383.387C547.792 383.28 548.431 383.387 548.975 383.607L548.702 384.02C548.544 384.259 548.49 384.499 548.527 384.712H548.524L549.555 390.672V390.666C549.612 390.987 549.868 391.243 550.291 391.333L556.483 392.653C557.187 392.802 558.188 392.524 558.712 392.028L562.16 388.773C562.684 388.278 563.696 387.9 564.417 387.903C565.687 387.903 566.969 387.844 568.248 387.72C568.967 387.653 569.899 388.041 570.333 388.618L572.26 391.176C572.694 391.753 573.61 392.059 574.303 391.865L581.411 389.862C582.048 389.682 582.425 389.065 582.327 388.432H582.332L581.634 384.4C581.783 384.127 582.006 383.891 582.285 383.75C583.276 383.246 584.223 382.701 585.113 382.118C585.716 381.724 586.767 381.454 587.483 381.55L593.422 382.343C594.137 382.439 595.095 382.07 595.566 381.522L598.732 377.81C598.938 377.568 599.011 377.315 598.977 377.09H598.986L597.952 371.113L597.946 371.119C597.898 370.838 597.679 370.598 597.298 370.483L595.126 369.825L600.104 368.063C600.645 367.872 600.93 367.379 600.859 366.862H600.865L599.834 360.894L599.817 360.899C599.797 360.77 599.775 360.64 599.71 360.511L598.155 357.486C597.825 356.845 596.986 356.448 596.278 356.6L589.706 358.007C589.21 358.114 588.57 358.007 588.026 357.787L588.3 357.373C588.46 357.132 588.511 356.887 588.472 356.673H588.477L587.454 350.767C587.454 350.767 587.454 350.761 587.454 350.758L587.443 350.691L587.438 350.696C587.373 350.39 587.122 350.148 586.713 350.058L580.521 348.738C579.814 348.589 578.816 348.867 578.292 349.363L574.844 352.618C574.32 353.113 573.308 353.49 572.587 353.488C571.317 353.488 570.035 353.547 568.756 353.668C568.037 353.735 567.105 353.347 566.671 352.77L564.744 350.212C564.31 349.636 563.394 349.329 562.701 349.523L555.593 351.526C554.897 351.723 554.503 352.441 554.711 353.13L555.517 355.82C555.725 356.51 555.359 357.314 554.717 357.641C553.725 358.145 552.778 358.69 551.891 359.273L551.888 359.276ZM580.141 370.309C576.41 374.678 567.944 377.065 561.233 375.635C558.757 375.109 556.872 374.135 555.658 372.897C555.942 372.312 556.331 371.71 556.863 371.088C560.594 366.718 569.06 364.332 575.771 365.761C578.236 366.288 580.115 367.256 581.329 368.485C581.045 369.093 580.656 369.706 580.141 370.311V370.309Z" fill="white" stroke="#182341" stroke-width="2" stroke-linecap="round" stroke-linejoin="round"/>
<path opacity="0.2" d="M551.888 359.276C551.285 359.67 550.234 359.94 549.519 359.844L543.58 359.051C542.864 358.955 541.903 359.323 541.436 359.872L538.269 363.584C538.055 363.834 537.981 364.098 538.027 364.335H538.021L539.049 370.272L539.055 370.266C539.1 370.553 539.32 370.795 539.703 370.914L541.875 371.572L536.897 373.333C536.333 373.533 536.066 374.059 536.17 374.597L536.145 374.588L537.173 380.528H537.179C537.198 380.646 537.232 380.765 537.291 380.883L538.846 383.908C539.176 384.549 540.016 384.946 540.723 384.794L547.296 383.387C547.792 383.28 548.431 383.387 548.975 383.607L548.702 384.02C548.544 384.259 548.49 384.499 548.527 384.712H548.524L549.555 390.672V390.666C549.612 390.987 549.868 391.243 550.291 391.333L556.483 392.653C557.187 392.802 558.188 392.524 558.712 392.028L562.16 388.773C562.684 388.278 563.696 387.9 564.417 387.903C565.687 387.903 566.969 387.844 568.248 387.72C568.967 387.653 569.899 388.041 570.333 388.618L572.26 391.176C572.694 391.753 573.61 392.059 574.303 391.865L581.411 389.862C582.048 389.682 582.425 389.065 582.327 388.432H582.332L581.634 384.4C581.783 384.127 582.006 383.891 582.285 383.75C583.276 383.246 584.223 382.701 585.113 382.118C585.716 381.724 586.767 381.454 587.483 381.55L593.422 382.343C594.137 382.439 595.095 382.07 595.566 381.522L598.732 377.81C598.938 377.568 599.011 377.315 598.977 377.09H598.986L597.952 371.113L597.946 371.119C597.898 370.838 597.679 370.598 597.298 370.483L595.126 369.825L600.104 368.063C600.645 367.872 600.93 367.379 600.859 366.862H600.865L599.834 360.894L599.817 360.899C599.797 360.77 599.775 360.64 599.71 360.511L598.155 357.486C597.825 356.845 596.986 356.448 596.278 356.6L589.706 358.007C589.21 358.114 588.57 358.007 588.026 357.787L588.3 357.373C588.46 357.132 588.511 356.887 588.472 356.673H588.477L587.454 350.767C587.454 350.767 587.454 350.761 587.454 350.758L587.443 350.691L587.438 350.696C587.373 350.39 587.122 350.148 586.713 350.058L580.521 348.738C579.814 348.589 578.816 348.867 578.292 349.363L574.844 352.618C574.32 353.113 573.308 353.49 572.587 353.488C571.317 353.488 570.035 353.547 568.756 353.668C568.037 353.735 567.105 353.347 566.671 352.77L564.744 350.212C564.31 349.636 563.394 349.329 562.701 349.523L555.593 351.526C554.897 351.723 554.503 352.441 554.711 353.13L555.517 355.82C555.725 356.51 555.359 357.314 554.717 357.641C553.725 358.145 552.778 358.69 551.891 359.273L551.888 359.276ZM580.141 370.309C576.41 374.678 567.944 377.065 561.233 375.635C558.757 375.109 556.872 374.135 555.658 372.897C555.942 372.312 556.331 371.71 556.863 371.088C560.594 366.718 569.06 364.332 575.771 365.761C578.236 366.288 580.115 367.256 581.329 368.485C581.045 369.093 580.656 369.706 580.141 370.311V370.309Z" fill="white" stroke="#182341" stroke-width="2" stroke-linecap="round" stroke-linejoin="round"/>
<path opacity="0.1" d="M591.421 367.34C591.227 368.038 591.548 368.744 592.244 368.952L595.126 369.827L600.105 368.066C600.64 367.875 600.927 367.382 600.857 366.867L599.834 360.972C599.885 361.465 599.595 361.921 599.073 362.112L592.957 364.273C592.286 364.509 591.762 365.294 591.675 366.006C591.627 366.445 591.543 366.89 591.421 367.34ZM587.443 350.733C587.483 350.941 587.432 351.183 587.271 351.425L585.122 354.669C584.725 355.269 584.941 355.995 585.575 356.335C586.237 356.678 586.852 357.064 587.407 357.472C587.579 357.596 587.793 357.711 588.026 357.798L588.305 357.379C588.46 357.131 588.511 356.887 588.472 356.681L588.48 356.676L587.446 350.736L587.443 350.733Z" fill="white" stroke="#182341" stroke-width="2" stroke-linecap="round" stroke-linejoin="round"/>
<path opacity="0.1" d="M574.737 359.808C580.526 361.043 583.127 364.704 581.321 368.491C580.112 367.25 578.23 366.293 575.768 365.762C569.054 364.335 560.591 366.713 556.855 371.088C556.331 371.71 555.933 372.309 555.66 372.897C553.57 370.79 553.468 367.894 555.821 365.134C559.557 360.759 568.02 358.381 574.734 359.808H574.737Z" fill="white" stroke="#182341" stroke-width="2" stroke-linecap="round" stroke-linejoin="round"/>
<path d="M569.589 388.041C569.882 388.198 570.155 388.384 570.324 388.618L572.257 391.178C572.53 391.538 572.99 391.8 573.477 391.887L572.443 385.933C571.964 385.838 571.496 385.584 571.223 385.224L569.29 382.664C569.121 382.43 568.862 382.23 568.572 382.073L569.589 388.041ZM549.549 390.669C549.6 390.987 549.853 391.243 550.276 391.333L556.474 392.655C556.931 392.757 557.503 392.655 558.004 392.453L556.97 386.499C556.477 386.71 555.899 386.803 555.44 386.701L549.256 385.379C548.828 385.28 548.566 385.033 548.521 384.706L548.512 384.712L549.544 390.666L549.549 390.669ZM587.547 381.558L593.416 382.34C593.855 382.402 594.362 382.273 594.813 382.059L593.779 376.119C593.337 376.341 592.815 376.439 592.382 376.386L586.521 375.598L587.547 381.558ZM537.17 380.525C537.189 380.643 537.22 380.764 537.291 380.88L538.838 383.907C539.167 384.543 540.007 384.94 540.711 384.794L547.284 383.387C547.605 383.322 547.983 383.342 548.355 383.418L547.321 377.464C546.949 377.385 546.571 377.365 546.25 377.433L539.677 378.84C538.976 378.994 538.139 378.598 537.801 377.953L536.254 374.926C536.198 374.81 536.158 374.698 536.133 374.588L537.167 380.528L537.17 380.525ZM539.04 370.274L539.049 370.269C539.097 370.55 539.314 370.795 539.697 370.919L541.872 371.569L543.002 371.175C543.681 370.93 544.205 370.148 544.286 369.425C544.334 368.986 544.424 368.547 544.545 368.099C544.571 367.984 544.588 367.877 544.599 367.762C544.599 367.68 544.593 367.593 544.585 367.52C544.562 367.351 544.512 367.207 544.436 367.07C544.343 366.892 544.21 366.749 544.038 366.639C543.957 366.574 543.844 366.518 543.723 366.487L538.674 364.956C538.547 364.914 538.435 364.861 538.344 364.802C538.226 364.726 538.142 364.638 538.091 364.531C538.051 364.47 538.023 364.402 538.006 364.334L539.04 370.274Z" fill="white" stroke="#182341" stroke-width="2" stroke-linecap="round" stroke-linejoin="round"/>
<path opacity="0.7" d="M569.589 388.041C569.882 388.198 570.155 388.384 570.324 388.618L572.257 391.178C572.53 391.538 572.99 391.8 573.477 391.887L572.443 385.933C571.964 385.838 571.496 385.584 571.223 385.224L569.29 382.664C569.121 382.43 568.862 382.23 568.572 382.073L569.589 388.041ZM549.549 390.669C549.6 390.987 549.853 391.243 550.276 391.333L556.474 392.655C556.931 392.757 557.503 392.655 558.004 392.453L556.97 386.499C556.477 386.71 555.899 386.803 555.44 386.701L549.256 385.379C548.828 385.28 548.566 385.033 548.521 384.706L548.512 384.712L549.544 390.666L549.549 390.669ZM587.547 381.558L593.416 382.34C593.855 382.402 594.362 382.273 594.813 382.059L593.779 376.119C593.337 376.341 592.815 376.439 592.382 376.386L586.521 375.598L587.547 381.558ZM537.17 380.525C537.189 380.643 537.22 380.764 537.291 380.88L538.838 383.907C539.167 384.543 540.007 384.94 540.711 384.794L547.284 383.387C547.605 383.322 547.983 383.342 548.355 383.418L547.321 377.464C546.949 377.385 546.571 377.365 546.25 377.433L539.677 378.84C538.976 378.994 538.139 378.598 537.801 377.953L536.254 374.926C536.198 374.81 536.158 374.698 536.133 374.588L537.167 380.528L537.17 380.525ZM539.04 370.274L539.049 370.269C539.097 370.55 539.314 370.795 539.697 370.919L541.872 371.569L543.002 371.175C543.681 370.93 544.205 370.148 544.286 369.425C544.334 368.986 544.424 368.547 544.545 368.099C544.571 367.984 544.588 367.877 544.599 367.762C544.599 367.68 544.593 367.593 544.585 367.52C544.562 367.351 544.512 367.207 544.436 367.07C544.343 366.892 544.21 366.749 544.038 366.639C543.957 366.574 543.844 366.518 543.723 366.487L538.674 364.956C538.547 364.914 538.435 364.861 538.344 364.802C538.226 364.726 538.142 364.638 538.091 364.531C538.051 364.47 538.023 364.402 538.006 364.334L539.04 370.274Z" fill="white" stroke="#182341" stroke-width="2" stroke-linecap="round" stroke-linejoin="round"/>
<path d="M541.434 359.872L538.268 363.583C537.8 364.132 537.98 364.746 538.67 364.957L543.719 366.484C544.409 366.693 544.733 367.402 544.545 368.097C544.424 368.544 544.336 368.989 544.286 369.428C544.204 370.142 543.683 370.925 543.004 371.167L536.893 373.328C536.211 373.567 535.929 374.284 536.259 374.923L537.814 377.948C538.144 378.589 538.983 378.986 539.69 378.834L546.263 377.427C546.968 377.275 547.976 377.546 548.562 377.968C549.12 378.373 549.731 378.753 550.391 379.107C551.027 379.448 551.242 380.171 550.844 380.77L548.698 384.014C548.3 384.617 548.548 385.224 549.255 385.376L555.448 386.696C556.155 386.845 557.152 386.567 557.676 386.071L561.125 382.816C561.649 382.321 562.66 381.944 563.382 381.946C564.652 381.946 565.934 381.887 567.213 381.763C567.932 381.696 568.864 382.084 569.298 382.661L571.225 385.219C571.659 385.796 572.575 386.102 573.268 385.908L580.376 383.905C581.072 383.708 581.466 382.99 581.258 382.301L580.452 379.611C580.244 378.922 580.61 378.117 581.252 377.79C582.244 377.287 583.191 376.741 584.078 376.158C584.681 375.764 585.732 375.494 586.447 375.59L592.386 376.383C593.102 376.479 594.063 376.111 594.53 375.562L597.697 371.85C598.165 371.302 597.985 370.688 597.294 370.477L592.246 368.949C591.555 368.741 591.231 368.032 591.42 367.337C591.541 366.89 591.629 366.445 591.679 366.006C591.764 365.291 592.282 364.509 592.961 364.267L599.072 362.106C599.754 361.864 600.036 361.15 599.706 360.508L598.151 357.483C597.821 356.842 596.982 356.445 596.274 356.594L589.702 358.001C588.997 358.153 587.989 357.883 587.403 357.461C586.845 357.055 586.233 356.676 585.574 356.324C584.937 355.983 584.723 355.26 585.12 354.661L587.267 351.417C587.665 350.814 587.417 350.207 586.709 350.055L580.517 348.735C579.81 348.586 578.812 348.864 578.288 349.36L574.84 352.615C574.316 353.11 573.304 353.488 572.583 353.485C571.313 353.485 570.031 353.544 568.752 353.665C568.033 353.732 567.101 353.344 566.667 352.767L564.74 350.209C564.306 349.633 563.39 349.326 562.697 349.52L555.589 351.524C554.893 351.72 554.498 352.438 554.707 353.127L555.513 355.817C555.721 356.507 555.355 357.311 554.713 357.638C553.721 358.142 552.774 358.687 551.887 359.27C551.284 359.664 550.233 359.934 549.517 359.838L543.578 359.045C542.863 358.949 541.902 359.318 541.434 359.866V359.872ZM574.738 359.805C581.452 361.234 583.87 365.936 580.139 370.308C576.409 374.678 567.943 377.064 561.232 375.635C554.518 374.206 552.101 369.504 555.831 365.134C559.561 360.764 568.027 358.378 574.738 359.807V359.805Z" fill="white" stroke="#182341" stroke-width="2" stroke-linecap="round" stroke-linejoin="round"/>
<path opacity="0.55" d="M541.434 359.872L538.268 363.583C537.8 364.132 537.98 364.746 538.67 364.957L543.719 366.484C544.409 366.693 544.733 367.402 544.545 368.097C544.424 368.544 544.336 368.989 544.286 369.428C544.204 370.142 543.683 370.925 543.004 371.167L536.893 373.328C536.211 373.567 535.929 374.284 536.259 374.923L537.814 377.948C538.144 378.589 538.983 378.986 539.69 378.834L546.263 377.427C546.968 377.275 547.976 377.546 548.562 377.968C549.12 378.373 549.731 378.753 550.391 379.107C551.027 379.448 551.242 380.171 550.844 380.77L548.698 384.014C548.3 384.617 548.548 385.224 549.255 385.376L555.448 386.696C556.155 386.845 557.152 386.567 557.676 386.071L561.125 382.816C561.649 382.321 562.66 381.944 563.382 381.946C564.652 381.946 565.934 381.887 567.213 381.763C567.932 381.696 568.864 382.084 569.298 382.661L571.225 385.219C571.659 385.796 572.575 386.102 573.268 385.908L580.376 383.905C581.072 383.708 581.466 382.99 581.258 382.301L580.452 379.611C580.244 378.922 580.61 378.117 581.252 377.79C582.244 377.287 583.191 376.741 584.078 376.158C584.681 375.764 585.732 375.494 586.447 375.59L592.386 376.383C593.102 376.479 594.063 376.111 594.53 375.562L597.697 371.85C598.165 371.302 597.985 370.688 597.294 370.477L592.246 368.949C591.555 368.741 591.231 368.032 591.42 367.337C591.541 366.89 591.629 366.445 591.679 366.006C591.764 365.291 592.282 364.509 592.961 364.267L599.072 362.106C599.754 361.864 600.036 361.15 599.706 360.508L598.151 357.483C597.821 356.842 596.982 356.445 596.274 356.594L589.702 358.001C588.997 358.153 587.989 357.883 587.403 357.461C586.845 357.055 586.233 356.676 585.574 356.324C584.937 355.983 584.723 355.26 585.12 354.661L587.267 351.417C587.665 350.814 587.417 350.207 586.709 350.055L580.517 348.735C579.81 348.586 578.812 348.864 578.288 349.36L574.84 352.615C574.316 353.11 573.304 353.488 572.583 353.485C571.313 353.485 570.031 353.544 568.752 353.665C568.033 353.732 567.101 353.344 566.667 352.767L564.74 350.209C564.306 349.633 563.39 349.326 562.697 349.52L555.589 351.524C554.893 351.72 554.498 352.438 554.707 353.127L555.513 355.817C555.721 356.507 555.355 357.311 554.713 357.638C553.721 358.142 552.774 358.687 551.887 359.27C551.284 359.664 550.233 359.934 549.517 359.838L543.578 359.045C542.863 358.949 541.902 359.318 541.434 359.866V359.872ZM574.738 359.805C581.452 361.234 583.87 365.936 580.139 370.308C576.409 374.678 567.943 377.064 561.232 375.635C554.518 374.206 552.101 369.504 555.831 365.134C559.561 360.764 568.027 358.378 574.738 359.807V359.805Z" fill="white" stroke="#182341" stroke-width="2" stroke-linecap="round" stroke-linejoin="round"/>
<path d="M100.548 373.344C99.9452 373.738 98.8943 374.009 98.1787 373.913L92.2397 373.119C91.5241 373.024 90.5634 373.392 90.0957 373.941L86.929 377.652C86.7149 377.903 86.6416 378.167 86.6867 378.404H86.6811L87.7094 384.341L87.715 384.335C87.7601 384.622 87.9799 384.864 88.363 384.982L90.5352 385.641L85.5569 387.402C84.9935 387.602 84.7258 388.128 84.83 388.666L84.8047 388.657L85.833 394.597H85.8387C85.8584 394.715 85.8922 394.834 85.9514 394.952L87.5065 397.977C87.8362 398.618 88.6758 399.015 89.3829 398.863L95.9558 397.456C96.4517 397.349 97.0912 397.456 97.635 397.675L97.3617 398.089C97.2039 398.328 97.1504 398.567 97.187 398.781H97.1842L98.2154 404.741V404.735C98.2717 405.056 98.5281 405.312 98.9507 405.402L105.143 406.722C105.848 406.871 106.848 406.592 107.372 406.097L110.82 402.842C111.344 402.346 112.356 401.969 113.077 401.972C114.348 401.972 115.63 401.913 116.909 401.789C117.627 401.722 118.56 402.11 118.993 402.687L120.921 405.245C121.354 405.821 122.27 406.128 122.963 405.934L130.071 403.931C130.708 403.75 131.086 403.134 130.987 402.501H130.993L130.294 398.469C130.443 398.196 130.666 397.96 130.945 397.819C131.936 397.315 132.883 396.769 133.773 396.187C134.376 395.793 135.427 395.523 136.143 395.619L142.082 396.412C142.797 396.508 143.755 396.139 144.226 395.59L147.393 391.879C147.598 391.637 147.671 391.384 147.638 391.159H147.646L146.612 385.182L146.606 385.188C146.559 384.906 146.339 384.667 145.958 384.552L143.786 383.893L148.765 382.132C149.306 381.941 149.59 381.448 149.52 380.931H149.525L148.494 374.962L148.477 374.968C148.457 374.839 148.435 374.709 148.37 374.58L146.815 371.555C146.485 370.913 145.646 370.517 144.939 370.669L138.366 372.075C137.87 372.182 137.23 372.075 136.687 371.856L136.96 371.442C137.12 371.2 137.171 370.956 137.132 370.742H137.137L136.115 364.836C136.115 364.836 136.115 364.83 136.115 364.827L136.103 364.76L136.098 364.765C136.033 364.458 135.782 364.216 135.374 364.126L129.181 362.807C128.474 362.658 127.477 362.936 126.953 363.431L123.504 366.687C122.98 367.182 121.969 367.559 121.247 367.557C119.977 367.557 118.695 367.616 117.416 367.737C116.697 367.804 115.765 367.416 115.331 366.839L113.404 364.281C112.97 363.704 112.054 363.398 111.361 363.592L104.253 365.595C103.557 365.792 103.163 366.51 103.371 367.199L104.177 369.889C104.385 370.579 104.019 371.383 103.377 371.71C102.385 372.213 101.438 372.759 100.551 373.342L100.548 373.344ZM128.801 384.377C125.071 388.747 116.604 391.133 109.893 389.704C107.417 389.178 105.532 388.204 104.318 386.966C104.602 386.381 104.991 385.779 105.524 385.157C109.254 380.787 117.72 378.401 124.431 379.83C126.896 380.356 128.775 381.324 129.99 382.554C129.705 383.162 129.316 383.775 128.801 384.38V384.377Z" fill="white" stroke="#182341" stroke-width="2" stroke-linecap="round" stroke-linejoin="round"/>
<path opacity="0.2" d="M100.548 373.344C99.9452 373.738 98.8943 374.009 98.1787 373.913L92.2397 373.119C91.5241 373.024 90.5634 373.392 90.0957 373.941L86.929 377.652C86.7149 377.903 86.6416 378.167 86.6867 378.404H86.6811L87.7094 384.341L87.715 384.335C87.7601 384.622 87.9799 384.864 88.363 384.982L90.5352 385.641L85.5569 387.402C84.9935 387.602 84.7258 388.128 84.83 388.666L84.8047 388.657L85.833 394.597H85.8387C85.8584 394.715 85.8922 394.834 85.9514 394.952L87.5065 397.977C87.8362 398.618 88.6758 399.015 89.3829 398.863L95.9558 397.456C96.4517 397.349 97.0912 397.456 97.635 397.675L97.3617 398.089C97.2039 398.328 97.1504 398.567 97.187 398.781H97.1842L98.2154 404.741V404.735C98.2717 405.056 98.5281 405.312 98.9507 405.402L105.143 406.722C105.848 406.871 106.848 406.592 107.372 406.097L110.82 402.842C111.344 402.346 112.356 401.969 113.077 401.972C114.348 401.972 115.63 401.913 116.909 401.789C117.627 401.722 118.56 402.11 118.993 402.687L120.921 405.245C121.354 405.821 122.27 406.128 122.963 405.934L130.071 403.931C130.708 403.75 131.086 403.134 130.987 402.501H130.993L130.294 398.469C130.443 398.196 130.666 397.96 130.945 397.819C131.936 397.315 132.883 396.769 133.773 396.187C134.376 395.793 135.427 395.523 136.143 395.619L142.082 396.412C142.797 396.508 143.755 396.139 144.226 395.59L147.393 391.879C147.598 391.637 147.671 391.384 147.638 391.159H147.646L146.612 385.182L146.606 385.188C146.559 384.906 146.339 384.667 145.958 384.552L143.786 383.893L148.765 382.132C149.306 381.941 149.59 381.448 149.52 380.931H149.525L148.494 374.962L148.477 374.968C148.457 374.839 148.435 374.709 148.37 374.58L146.815 371.555C146.485 370.913 145.646 370.517 144.939 370.669L138.366 372.075C137.87 372.182 137.23 372.075 136.687 371.856L136.96 371.442C137.12 371.2 137.171 370.956 137.132 370.742H137.137L136.115 364.836C136.115 364.836 136.115 364.83 136.115 364.827L136.103 364.76L136.098 364.765C136.033 364.458 135.782 364.216 135.374 364.126L129.181 362.807C128.474 362.658 127.477 362.936 126.953 363.431L123.504 366.687C122.98 367.182 121.969 367.559 121.247 367.557C119.977 367.557 118.695 367.616 117.416 367.737C116.697 367.804 115.765 367.416 115.331 366.839L113.404 364.281C112.97 363.704 112.054 363.398 111.361 363.592L104.253 365.595C103.557 365.792 103.163 366.51 103.371 367.199L104.177 369.889C104.385 370.579 104.019 371.383 103.377 371.71C102.385 372.213 101.438 372.759 100.551 373.342L100.548 373.344ZM128.801 384.377C125.071 388.747 116.604 391.133 109.893 389.704C107.417 389.178 105.532 388.204 104.318 386.966C104.602 386.381 104.991 385.779 105.524 385.157C109.254 380.787 117.72 378.401 124.431 379.83C126.896 380.356 128.775 381.324 129.99 382.554C129.705 383.162 129.316 383.775 128.801 384.38V384.377Z" fill="white" stroke="#182341" stroke-width="2" stroke-linecap="round" stroke-linejoin="round"/>
<path opacity="0.1" d="M140.082 381.409C139.887 382.107 140.208 382.813 140.904 383.021L143.786 383.896L148.765 382.135C149.3 381.943 149.587 381.451 149.517 380.936L148.494 375.041C148.545 375.534 148.255 375.989 147.734 376.181L141.617 378.342C140.947 378.578 140.423 379.363 140.335 380.075C140.287 380.514 140.203 380.959 140.082 381.409ZM136.103 364.802C136.143 365.01 136.092 365.252 135.932 365.494L133.782 368.738C133.385 369.338 133.602 370.064 134.236 370.404C134.898 370.747 135.512 371.133 136.067 371.541C136.239 371.665 136.453 371.78 136.687 371.867L136.966 371.448C137.121 371.2 137.171 370.956 137.132 370.75L137.14 370.745L136.106 364.805L136.103 364.802Z" fill="white" stroke="#182341" stroke-width="2" stroke-linecap="round" stroke-linejoin="round"/>
<path opacity="0.1" d="M123.397 373.876C129.186 375.111 131.787 378.772 129.981 382.559C128.772 381.318 126.89 380.362 124.428 379.83C117.714 378.403 109.251 380.781 105.515 385.156C104.991 385.778 104.594 386.378 104.32 386.966C102.23 384.858 102.128 381.963 104.481 379.202C108.217 374.827 116.68 372.449 123.394 373.876H123.397Z" fill="white" stroke="#182341" stroke-width="2" stroke-linecap="round" stroke-linejoin="round"/>
<path d="M118.249 402.11C118.542 402.267 118.816 402.453 118.985 402.686L120.917 405.247C121.191 405.607 121.65 405.869 122.137 405.956L121.103 400.002C120.624 399.906 120.157 399.653 119.883 399.293L117.951 396.732C117.782 396.499 117.522 396.299 117.232 396.142L118.249 402.11ZM98.2093 404.738C98.26 405.056 98.5136 405.312 98.9362 405.402L105.134 406.724C105.591 406.826 106.163 406.724 106.664 406.522L105.63 400.568C105.137 400.779 104.56 400.872 104.1 400.77L97.9163 399.448C97.488 399.349 97.226 399.102 97.1809 398.775L97.1725 398.781L98.2036 404.735L98.2093 404.738ZM136.207 395.627L142.076 396.409C142.515 396.471 143.022 396.341 143.473 396.128L142.439 390.188C141.997 390.41 141.476 390.508 141.042 390.455L135.182 389.667L136.207 395.627ZM85.8298 394.594C85.8495 394.712 85.8805 394.833 85.9509 394.948L87.4976 397.976C87.8273 398.612 88.6668 399.009 89.3712 398.863L95.9441 397.456C96.2653 397.391 96.6428 397.411 97.0147 397.487L95.9807 391.533C95.6089 391.454 95.2313 391.434 94.9101 391.502L88.3372 392.908C87.6357 393.063 86.7989 392.666 86.4609 392.022L84.9141 388.994C84.8578 388.879 84.8183 388.767 84.793 388.657L85.8269 394.597L85.8298 394.594ZM87.7005 384.343L87.7089 384.338C87.7568 384.619 87.9738 384.864 88.3569 384.988L90.5319 385.638L91.6617 385.244C92.3407 384.999 92.8647 384.217 92.9464 383.494C92.9943 383.055 93.0845 382.616 93.2056 382.168C93.231 382.053 93.2479 381.946 93.2592 381.831C93.2592 381.749 93.2535 381.662 93.2451 381.589C93.2225 381.42 93.1718 381.276 93.0958 381.138C93.0028 380.961 92.8704 380.818 92.6985 380.708C92.6168 380.643 92.5041 380.587 92.383 380.556L87.3342 379.025C87.2075 378.983 87.0948 378.93 87.0046 378.87C86.8863 378.794 86.8018 378.707 86.751 378.6C86.7116 378.538 86.6834 378.471 86.6665 378.403L87.7005 384.343Z" fill="white" stroke="#182341" stroke-width="2" stroke-linecap="round" stroke-linejoin="round"/>
<path opacity="0.7" d="M118.249 402.11C118.542 402.267 118.816 402.453 118.985 402.686L120.917 405.247C121.191 405.607 121.65 405.869 122.137 405.956L121.103 400.002C120.624 399.906 120.157 399.653 119.883 399.293L117.951 396.732C117.782 396.499 117.522 396.299 117.232 396.142L118.249 402.11ZM98.2093 404.738C98.26 405.056 98.5136 405.312 98.9362 405.402L105.134 406.724C105.591 406.826 106.163 406.724 106.664 406.522L105.63 400.568C105.137 400.779 104.56 400.872 104.1 400.77L97.9163 399.448C97.488 399.349 97.226 399.102 97.1809 398.775L97.1725 398.781L98.2036 404.735L98.2093 404.738ZM136.207 395.627L142.076 396.409C142.515 396.471 143.022 396.341 143.473 396.128L142.439 390.188C141.997 390.41 141.476 390.508 141.042 390.455L135.182 389.667L136.207 395.627ZM85.8298 394.594C85.8495 394.712 85.8805 394.833 85.9509 394.948L87.4976 397.976C87.8273 398.612 88.6668 399.009 89.3712 398.863L95.9441 397.456C96.2653 397.391 96.6428 397.411 97.0147 397.487L95.9807 391.533C95.6089 391.454 95.2313 391.434 94.9101 391.502L88.3372 392.908C87.6357 393.063 86.7989 392.666 86.4609 392.022L84.9141 388.994C84.8578 388.879 84.8183 388.767 84.793 388.657L85.8269 394.597L85.8298 394.594ZM87.7005 384.343L87.7089 384.338C87.7568 384.619 87.9738 384.864 88.3569 384.988L90.5319 385.638L91.6617 385.244C92.3407 384.999 92.8647 384.217 92.9464 383.494C92.9943 383.055 93.0845 382.616 93.2056 382.168C93.231 382.053 93.2479 381.946 93.2592 381.831C93.2592 381.749 93.2535 381.662 93.2451 381.589C93.2225 381.42 93.1718 381.276 93.0958 381.138C93.0028 380.961 92.8704 380.818 92.6985 380.708C92.6168 380.643 92.5041 380.587 92.383 380.556L87.3342 379.025C87.2075 378.983 87.0948 378.93 87.0046 378.87C86.8863 378.794 86.8018 378.707 86.751 378.6C86.7116 378.538 86.6834 378.471 86.6665 378.403L87.7005 384.343Z" fill="white" stroke="#182341" stroke-width="2" stroke-linecap="round" stroke-linejoin="round"/>
<path d="M90.0945 373.941L86.9278 377.652C86.4601 378.201 86.6404 378.814 87.3307 379.025L92.3794 380.553C93.0697 380.762 93.3937 381.471 93.2049 382.166C93.0837 382.613 92.9964 383.058 92.9457 383.497C92.864 384.211 92.3428 384.994 91.6638 385.236L85.5529 387.397C84.8711 387.636 84.5894 388.353 84.919 388.992L86.4742 392.017C86.8038 392.658 87.6434 393.055 88.3506 392.903L94.9235 391.496C95.6278 391.344 96.6364 391.614 97.2224 392.036C97.7803 392.442 98.3917 392.822 99.0509 393.176C99.6877 393.517 99.9018 394.24 99.5045 394.839L97.3577 398.083C96.9604 398.685 97.2084 399.293 97.9155 399.445L104.108 400.765C104.815 400.914 105.813 400.635 106.337 400.14L109.785 396.885C110.309 396.389 111.321 396.012 112.042 396.015C113.312 396.015 114.594 395.956 115.873 395.832C116.592 395.765 117.524 396.153 117.958 396.73L119.885 399.288C120.319 399.864 121.235 400.171 121.928 399.977L129.036 397.974C129.732 397.777 130.126 397.059 129.918 396.37L129.112 393.68C128.904 392.99 129.27 392.186 129.912 391.859C130.904 391.356 131.851 390.81 132.738 390.227C133.341 389.833 134.392 389.563 135.108 389.659L141.047 390.452C141.762 390.548 142.723 390.179 143.191 389.631L146.357 385.919C146.825 385.371 146.645 384.757 145.954 384.546L140.906 383.018C140.215 382.81 139.891 382.101 140.08 381.406C140.201 380.959 140.289 380.514 140.339 380.075C140.424 379.36 140.942 378.578 141.621 378.336L147.732 376.175C148.414 375.933 148.696 375.218 148.366 374.577L146.811 371.552C146.481 370.91 145.642 370.514 144.935 370.663L138.362 372.07C137.657 372.222 136.649 371.952 136.063 371.529C135.505 371.124 134.893 370.744 134.234 370.393C133.597 370.052 133.383 369.329 133.781 368.73L135.927 365.485C136.325 364.883 136.077 364.275 135.37 364.124L129.177 362.804C128.47 362.655 127.473 362.933 126.949 363.429L123.5 366.684C122.976 367.179 121.965 367.556 121.243 367.554C119.973 367.554 118.691 367.613 117.412 367.734C116.693 367.801 115.761 367.413 115.327 366.836L113.4 364.278C112.966 363.701 112.05 363.395 111.357 363.589L104.249 365.592C103.553 365.789 103.159 366.507 103.367 367.196L104.173 369.886C104.381 370.576 104.015 371.38 103.373 371.707C102.381 372.21 101.434 372.756 100.547 373.339C99.944 373.733 98.8932 374.003 98.1775 373.907L92.2385 373.114C91.5229 373.018 90.5622 373.387 90.0945 373.935V373.941ZM123.399 373.873C130.112 375.303 132.53 380.005 128.8 384.377C125.069 388.747 116.603 391.133 109.892 389.704C103.178 388.274 100.761 383.573 104.491 379.203C108.221 374.833 116.688 372.447 123.399 373.876V373.873Z" fill="white" stroke="#182341" stroke-width="2" stroke-linecap="round" stroke-linejoin="round"/>
<path opacity="0.55" d="M90.0945 373.941L86.9278 377.652C86.4601 378.201 86.6404 378.814 87.3307 379.025L92.3794 380.553C93.0697 380.762 93.3937 381.471 93.2049 382.166C93.0837 382.613 92.9964 383.058 92.9457 383.497C92.864 384.211 92.3428 384.994 91.6638 385.236L85.5529 387.397C84.8711 387.636 84.5894 388.353 84.919 388.992L86.4742 392.017C86.8038 392.658 87.6434 393.055 88.3506 392.903L94.9235 391.496C95.6278 391.344 96.6364 391.614 97.2224 392.036C97.7803 392.442 98.3917 392.822 99.0509 393.176C99.6877 393.517 99.9018 394.24 99.5045 394.839L97.3577 398.083C96.9604 398.685 97.2084 399.293 97.9155 399.445L104.108 400.765C104.815 400.914 105.813 400.635 106.337 400.14L109.785 396.885C110.309 396.389 111.321 396.012 112.042 396.015C113.312 396.015 114.594 395.956 115.873 395.832C116.592 395.765 117.524 396.153 117.958 396.73L119.885 399.288C120.319 399.864 121.235 400.171 121.928 399.977L129.036 397.974C129.732 397.777 130.126 397.059 129.918 396.37L129.112 393.68C128.904 392.99 129.27 392.186 129.912 391.859C130.904 391.356 131.851 390.81 132.738 390.227C133.341 389.833 134.392 389.563 135.108 389.659L141.047 390.452C141.762 390.548 142.723 390.179 143.191 389.631L146.357 385.919C146.825 385.371 146.645 384.757 145.954 384.546L140.906 383.018C140.215 382.81 139.891 382.101 140.08 381.406C140.201 380.959 140.289 380.514 140.339 380.075C140.424 379.36 140.942 378.578 141.621 378.336L147.732 376.175C148.414 375.933 148.696 375.218 148.366 374.577L146.811 371.552C146.481 370.91 145.642 370.514 144.935 370.663L138.362 372.07C137.657 372.222 136.649 371.952 136.063 371.529C135.505 371.124 134.893 370.744 134.234 370.393C133.597 370.052 133.383 369.329 133.781 368.73L135.927 365.485C136.325 364.883 136.077 364.275 135.37 364.124L129.177 362.804C128.47 362.655 127.473 362.933 126.949 363.429L123.5 366.684C122.976 367.179 121.965 367.556 121.243 367.554C119.973 367.554 118.691 367.613 117.412 367.734C116.693 367.801 115.761 367.413 115.327 366.836L113.4 364.278C112.966 363.701 112.05 363.395 111.357 363.589L104.249 365.592C103.553 365.789 103.159 366.507 103.367 367.196L104.173 369.886C104.381 370.576 104.015 371.38 103.373 371.707C102.381 372.21 101.434 372.756 100.547 373.339C99.944 373.733 98.8932 374.003 98.1775 373.907L92.2385 373.114C91.5229 373.018 90.5622 373.387 90.0945 373.935V373.941ZM123.399 373.873C130.112 375.303 132.53 380.005 128.8 384.377C125.069 388.747 116.603 391.133 109.892 389.704C103.178 388.274 100.761 383.573 104.491 379.203C108.221 374.833 116.688 372.447 123.399 373.876V373.873Z" fill="white" stroke="#182341" stroke-width="2" stroke-linecap="round" stroke-linejoin="round"/>
<path d="M116.888 123.479C116.285 123.873 115.234 124.143 114.519 124.047L108.58 123.254C107.864 123.158 106.903 123.527 106.436 124.075L103.269 127.787C103.055 128.037 102.982 128.302 103.027 128.538H103.021L104.049 134.475L104.055 134.469C104.1 134.756 104.32 134.998 104.703 135.117L106.875 135.775L101.897 137.537C101.334 137.736 101.066 138.262 101.17 138.8L101.145 138.791L102.173 144.731H102.179C102.198 144.85 102.232 144.968 102.291 145.086L103.847 148.111C104.176 148.752 105.016 149.149 105.723 148.997L112.296 147.59C112.792 147.483 113.431 147.59 113.975 147.81L113.702 148.223C113.544 148.463 113.49 148.702 113.527 148.916H113.524L114.555 154.875V154.87C114.612 155.19 114.868 155.446 115.291 155.536L121.483 156.856C122.188 157.005 123.188 156.727 123.712 156.231L127.16 152.976C127.684 152.481 128.696 152.104 129.417 152.106C130.688 152.106 131.97 152.047 133.249 151.924C133.967 151.856 134.9 152.244 135.334 152.821L137.261 155.379C137.694 155.956 138.61 156.262 139.303 156.068L146.411 154.065C147.048 153.885 147.426 153.269 147.327 152.635H147.333L146.634 148.603C146.783 148.33 147.006 148.094 147.285 147.953C148.277 147.45 149.223 146.904 150.113 146.321C150.716 145.927 151.767 145.657 152.483 145.753L158.422 146.546C159.137 146.642 160.095 146.273 160.566 145.725L163.733 142.013C163.938 141.771 164.012 141.518 163.978 141.293H163.986L162.952 135.316L162.947 135.322C162.899 135.041 162.679 134.802 162.299 134.686L160.126 134.028L165.105 132.266C165.646 132.075 165.93 131.583 165.86 131.065H165.865L164.834 125.097L164.817 125.102C164.798 124.973 164.775 124.843 164.71 124.714L163.155 121.689C162.825 121.048 161.986 120.651 161.279 120.803L154.706 122.21C154.21 122.317 153.57 122.21 153.027 121.99L153.3 121.577C153.46 121.335 153.511 121.09 153.472 120.876H153.477L152.455 114.97C152.455 114.97 152.455 114.964 152.455 114.961L152.443 114.894L152.438 114.899C152.373 114.593 152.122 114.351 151.714 114.261L145.521 112.941C144.814 112.792 143.817 113.071 143.293 113.566L139.844 116.821C139.32 117.317 138.309 117.694 137.587 117.691C136.317 117.691 135.035 117.75 133.756 117.871C133.037 117.938 132.105 117.55 131.671 116.973L129.744 114.416C129.31 113.839 128.394 113.532 127.701 113.726L120.593 115.73C119.897 115.927 119.503 116.644 119.711 117.333L120.517 120.023C120.725 120.713 120.359 121.518 119.717 121.844C118.725 122.348 117.779 122.894 116.891 123.476L116.888 123.479ZM145.141 134.512C141.411 138.882 132.944 141.268 126.233 139.838C123.757 139.312 121.872 138.338 120.658 137.1C120.942 136.515 121.331 135.913 121.864 135.291C125.594 130.921 134.06 128.535 140.771 129.965C143.236 130.491 145.115 131.459 146.33 132.688C146.045 133.296 145.656 133.91 145.141 134.515V134.512Z" fill="white" stroke="#182341" stroke-width="2" stroke-linecap="round" stroke-linejoin="round"/>
<path opacity="0.2" d="M116.888 123.479C116.285 123.873 115.234 124.143 114.519 124.047L108.58 123.254C107.864 123.158 106.903 123.527 106.436 124.075L103.269 127.787C103.055 128.037 102.982 128.302 103.027 128.538H103.021L104.049 134.475L104.055 134.469C104.1 134.756 104.32 134.998 104.703 135.117L106.875 135.775L101.897 137.537C101.334 137.736 101.066 138.262 101.17 138.8L101.145 138.791L102.173 144.731H102.179C102.198 144.85 102.232 144.968 102.291 145.086L103.847 148.111C104.176 148.752 105.016 149.149 105.723 148.997L112.296 147.59C112.792 147.483 113.431 147.59 113.975 147.81L113.702 148.223C113.544 148.463 113.49 148.702 113.527 148.916H113.524L114.555 154.875V154.87C114.612 155.19 114.868 155.446 115.291 155.536L121.483 156.856C122.188 157.005 123.188 156.727 123.712 156.231L127.16 152.976C127.684 152.481 128.696 152.104 129.417 152.106C130.688 152.106 131.97 152.047 133.249 151.924C133.967 151.856 134.9 152.244 135.334 152.821L137.261 155.379C137.694 155.956 138.61 156.262 139.303 156.068L146.411 154.065C147.048 153.885 147.426 153.269 147.327 152.635H147.333L146.634 148.603C146.783 148.33 147.006 148.094 147.285 147.953C148.277 147.45 149.223 146.904 150.113 146.321C150.716 145.927 151.767 145.657 152.483 145.753L158.422 146.546C159.137 146.642 160.095 146.273 160.566 145.725L163.733 142.013C163.938 141.771 164.012 141.518 163.978 141.293H163.986L162.952 135.316L162.947 135.322C162.899 135.041 162.679 134.802 162.299 134.686L160.126 134.028L165.105 132.266C165.646 132.075 165.93 131.583 165.86 131.065H165.865L164.834 125.097L164.817 125.102C164.798 124.973 164.775 124.843 164.71 124.714L163.155 121.689C162.825 121.048 161.986 120.651 161.279 120.803L154.706 122.21C154.21 122.317 153.57 122.21 153.027 121.99L153.3 121.577C153.46 121.335 153.511 121.09 153.472 120.876H153.477L152.455 114.97C152.455 114.97 152.455 114.964 152.455 114.961L152.443 114.894L152.438 114.899C152.373 114.593 152.122 114.351 151.714 114.261L145.521 112.941C144.814 112.792 143.817 113.071 143.293 113.566L139.844 116.821C139.32 117.317 138.309 117.694 137.587 117.691C136.317 117.691 135.035 117.75 133.756 117.871C133.037 117.938 132.105 117.55 131.671 116.973L129.744 114.416C129.31 113.839 128.394 113.532 127.701 113.726L120.593 115.73C119.897 115.927 119.503 116.644 119.711 117.333L120.517 120.023C120.725 120.713 120.359 121.518 119.717 121.844C118.725 122.348 117.779 122.894 116.891 123.476L116.888 123.479ZM145.141 134.512C141.411 138.882 132.944 141.268 126.233 139.838C123.757 139.312 121.872 138.338 120.658 137.1C120.942 136.515 121.331 135.913 121.864 135.291C125.594 130.921 134.06 128.535 140.771 129.965C143.236 130.491 145.115 131.459 146.33 132.688C146.045 133.296 145.656 133.91 145.141 134.515V134.512Z" fill="white" stroke="#182341" stroke-width="2" stroke-linecap="round" stroke-linejoin="round"/>
<path opacity="0.1" d="M156.422 131.543C156.227 132.241 156.548 132.947 157.244 133.155L160.127 134.031L165.105 132.269C165.64 132.078 165.928 131.585 165.857 131.07L164.834 125.175C164.885 125.668 164.595 126.124 164.074 126.315L157.957 128.476C157.287 128.712 156.763 129.497 156.675 130.209C156.627 130.648 156.543 131.093 156.422 131.543ZM152.444 114.936C152.483 115.144 152.432 115.386 152.272 115.628L150.122 118.873C149.725 119.472 149.942 120.198 150.576 120.538C151.238 120.882 151.852 121.267 152.407 121.675C152.579 121.799 152.793 121.914 153.027 122.002L153.306 121.582C153.461 121.335 153.511 121.09 153.472 120.884L153.48 120.879L152.446 114.939L152.444 114.936Z" fill="white" stroke="#182341" stroke-width="2" stroke-linecap="round" stroke-linejoin="round"/>
<path opacity="0.1" d="M139.737 124.011C145.526 125.246 148.127 128.907 146.321 132.694C145.112 131.453 143.23 130.497 140.768 129.965C134.054 128.538 125.591 130.916 121.855 135.291C121.331 135.913 120.934 136.512 120.66 137.101C118.57 134.993 118.468 132.098 120.821 129.337C124.557 124.962 133.02 122.584 139.734 124.011H139.737Z" fill="white" stroke="#182341" stroke-width="2" stroke-linecap="round" stroke-linejoin="round"/>
<path d="M134.589 152.244C134.882 152.402 135.156 152.588 135.325 152.821L137.257 155.382C137.531 155.742 137.99 156.004 138.477 156.091L137.443 150.137C136.964 150.041 136.497 149.788 136.223 149.428L134.291 146.867C134.122 146.634 133.862 146.434 133.572 146.276L134.589 152.244ZM114.549 154.872C114.6 155.19 114.854 155.446 115.276 155.537L121.474 156.859C121.931 156.96 122.503 156.859 123.004 156.656L121.97 150.702C121.477 150.913 120.9 151.006 120.44 150.905L114.256 149.583C113.828 149.484 113.566 149.236 113.521 148.91L113.513 148.916L114.544 154.87L114.549 154.872ZM152.547 145.761L158.416 146.544C158.855 146.606 159.362 146.476 159.813 146.262L158.779 140.322C158.337 140.545 157.816 140.643 157.382 140.59L151.522 139.802L152.547 145.761ZM102.17 144.729C102.19 144.847 102.221 144.968 102.291 145.083L103.838 148.111C104.167 148.747 105.007 149.144 105.711 148.997L112.284 147.59C112.605 147.526 112.983 147.545 113.355 147.621L112.321 141.667C111.949 141.588 111.571 141.569 111.25 141.636L104.677 143.043C103.976 143.198 103.139 142.801 102.801 142.157L101.254 139.129C101.198 139.014 101.158 138.901 101.133 138.792L102.167 144.732L102.17 144.729ZM104.041 134.478L104.049 134.472C104.097 134.754 104.314 134.999 104.697 135.122L106.872 135.772L108.002 135.378C108.681 135.134 109.205 134.351 109.287 133.628C109.334 133.189 109.425 132.75 109.546 132.303C109.571 132.188 109.588 132.081 109.599 131.965C109.599 131.884 109.594 131.796 109.585 131.723C109.563 131.554 109.512 131.411 109.436 131.273C109.343 131.096 109.21 130.952 109.039 130.843C108.957 130.778 108.844 130.722 108.723 130.691L103.674 129.16C103.548 129.118 103.435 129.064 103.345 129.005C103.226 128.929 103.142 128.842 103.091 128.735C103.052 128.673 103.024 128.606 103.007 128.538L104.041 134.478Z" fill="white" stroke="#182341" stroke-width="2" stroke-linecap="round" stroke-linejoin="round"/>
<path opacity="0.7" d="M134.589 152.244C134.882 152.402 135.156 152.588 135.325 152.821L137.257 155.382C137.531 155.742 137.99 156.004 138.477 156.091L137.443 150.137C136.964 150.041 136.497 149.788 136.223 149.428L134.291 146.867C134.122 146.634 133.862 146.434 133.572 146.276L134.589 152.244ZM114.549 154.872C114.6 155.19 114.854 155.446 115.276 155.537L121.474 156.859C121.931 156.96 122.503 156.859 123.004 156.656L121.97 150.702C121.477 150.913 120.9 151.006 120.44 150.905L114.256 149.583C113.828 149.484 113.566 149.236 113.521 148.91L113.513 148.916L114.544 154.87L114.549 154.872ZM152.547 145.761L158.416 146.544C158.855 146.606 159.362 146.476 159.813 146.262L158.779 140.322C158.337 140.545 157.816 140.643 157.382 140.59L151.522 139.802L152.547 145.761ZM102.17 144.729C102.19 144.847 102.221 144.968 102.291 145.083L103.838 148.111C104.167 148.747 105.007 149.144 105.711 148.997L112.284 147.59C112.605 147.526 112.983 147.545 113.355 147.621L112.321 141.667C111.949 141.588 111.571 141.569 111.25 141.636L104.677 143.043C103.976 143.198 103.139 142.801 102.801 142.157L101.254 139.129C101.198 139.014 101.158 138.901 101.133 138.792L102.167 144.732L102.17 144.729ZM104.041 134.478L104.049 134.472C104.097 134.754 104.314 134.999 104.697 135.122L106.872 135.772L108.002 135.378C108.681 135.134 109.205 134.351 109.287 133.628C109.334 133.189 109.425 132.75 109.546 132.303C109.571 132.188 109.588 132.081 109.599 131.965C109.599 131.884 109.594 131.796 109.585 131.723C109.563 131.554 109.512 131.411 109.436 131.273C109.343 131.096 109.21 130.952 109.039 130.843C108.957 130.778 108.844 130.722 108.723 130.691L103.674 129.16C103.548 129.118 103.435 129.064 103.345 129.005C103.226 128.929 103.142 128.842 103.091 128.735C103.052 128.673 103.024 128.606 103.007 128.538L104.041 134.478Z" fill="white" stroke="#182341" stroke-width="2" stroke-linecap="round" stroke-linejoin="round"/>
<path d="M106.435 124.075L103.268 127.787C102.8 128.335 102.981 128.949 103.671 129.16L108.719 130.688C109.41 130.896 109.734 131.605 109.545 132.3C109.424 132.747 109.336 133.192 109.286 133.631C109.204 134.346 108.683 135.128 108.004 135.37L101.893 137.531C101.211 137.77 100.929 138.487 101.259 139.126L102.814 142.151C103.144 142.793 103.983 143.189 104.691 143.037L111.264 141.63C111.968 141.479 112.977 141.749 113.563 142.171C114.12 142.576 114.732 142.956 115.391 143.31C116.028 143.651 116.242 144.374 115.845 144.973L113.698 148.218C113.301 148.82 113.548 149.428 114.256 149.579L120.448 150.899C121.155 151.048 122.153 150.77 122.677 150.275L126.125 147.019C126.649 146.524 127.661 146.147 128.382 146.149C129.653 146.149 130.934 146.09 132.214 145.967C132.932 145.899 133.864 146.287 134.298 146.864L136.225 149.422C136.659 149.999 137.575 150.305 138.268 150.111L145.376 148.108C146.072 147.911 146.467 147.193 146.258 146.504L145.452 143.814C145.244 143.125 145.61 142.32 146.252 141.993C147.244 141.49 148.191 140.944 149.078 140.361C149.681 139.968 150.732 139.697 151.448 139.793L157.387 140.587C158.102 140.682 159.063 140.314 159.531 139.765L162.697 136.054C163.165 135.505 162.985 134.891 162.295 134.68L157.246 133.153C156.556 132.944 156.232 132.235 156.42 131.54C156.541 131.093 156.629 130.648 156.68 130.209C156.764 129.495 157.282 128.712 157.961 128.47L164.072 126.309C164.754 126.067 165.036 125.353 164.706 124.711L163.151 121.686C162.821 121.045 161.982 120.648 161.275 120.797L154.702 122.204C153.997 122.356 152.989 122.086 152.403 121.664C151.845 121.259 151.234 120.879 150.574 120.527C149.938 120.186 149.723 119.463 150.121 118.864L152.268 115.62C152.665 115.018 152.417 114.41 151.71 114.258L145.517 112.938C144.81 112.789 143.813 113.068 143.289 113.563L139.84 116.818C139.316 117.314 138.305 117.691 137.583 117.688C136.313 117.688 135.031 117.747 133.752 117.868C133.033 117.935 132.101 117.547 131.667 116.97L129.74 114.413C129.306 113.836 128.39 113.529 127.697 113.723L120.589 115.727C119.893 115.924 119.499 116.641 119.707 117.33L120.513 120.02C120.721 120.71 120.355 121.515 119.713 121.841C118.721 122.345 117.775 122.891 116.887 123.473C116.284 123.867 115.233 124.137 114.518 124.041L108.579 123.248C107.863 123.152 106.902 123.521 106.435 124.07V124.075ZM139.739 124.008C146.452 125.437 148.87 130.139 145.14 134.512C141.409 138.881 132.943 141.268 126.232 139.838C119.518 138.409 117.101 133.707 120.831 129.337C124.562 124.967 133.028 122.581 139.739 124.01V124.008Z" fill="white" stroke="#182341" stroke-width="2" stroke-linecap="round" stroke-linejoin="round"/>
<path opacity="0.55" d="M106.435 124.075L103.268 127.787C102.8 128.335 102.981 128.949 103.671 129.16L108.719 130.688C109.41 130.896 109.734 131.605 109.545 132.3C109.424 132.747 109.336 133.192 109.286 133.631C109.204 134.346 108.683 135.128 108.004 135.37L101.893 137.531C101.211 137.77 100.929 138.487 101.259 139.126L102.814 142.151C103.144 142.793 103.983 143.189 104.691 143.037L111.264 141.63C111.968 141.479 112.977 141.749 113.563 142.171C114.12 142.576 114.732 142.956 115.391 143.31C116.028 143.651 116.242 144.374 115.845 144.973L113.698 148.218C113.301 148.82 113.548 149.428 114.256 149.579L120.448 150.899C121.155 151.048 122.153 150.77 122.677 150.275L126.125 147.019C126.649 146.524 127.661 146.147 128.382 146.149C129.653 146.149 130.934 146.09 132.214 145.967C132.932 145.899 133.864 146.287 134.298 146.864L136.225 149.422C136.659 149.999 137.575 150.305 138.268 150.111L145.376 148.108C146.072 147.911 146.467 147.193 146.258 146.504L145.452 143.814C145.244 143.125 145.61 142.32 146.252 141.993C147.244 141.49 148.191 140.944 149.078 140.361C149.681 139.968 150.732 139.697 151.448 139.793L157.387 140.587C158.102 140.682 159.063 140.314 159.531 139.765L162.697 136.054C163.165 135.505 162.985 134.891 162.295 134.68L157.246 133.153C156.556 132.944 156.232 132.235 156.42 131.54C156.541 131.093 156.629 130.648 156.68 130.209C156.764 129.495 157.282 128.712 157.961 128.47L164.072 126.309C164.754 126.067 165.036 125.353 164.706 124.711L163.151 121.686C162.821 121.045 161.982 120.648 161.275 120.797L154.702 122.204C153.997 122.356 152.989 122.086 152.403 121.664C151.845 121.259 151.234 120.879 150.574 120.527C149.938 120.186 149.723 119.463 150.121 118.864L152.268 115.62C152.665 115.018 152.417 114.41 151.71 114.258L145.517 112.938C144.81 112.789 143.813 113.068 143.289 113.563L139.84 116.818C139.316 117.314 138.305 117.691 137.583 117.688C136.313 117.688 135.031 117.747 133.752 117.868C133.033 117.935 132.101 117.547 131.667 116.97L129.74 114.413C129.306 113.836 128.39 113.529 127.697 113.723L120.589 115.727C119.893 115.924 119.499 116.641 119.707 117.33L120.513 120.02C120.721 120.71 120.355 121.515 119.713 121.841C118.721 122.345 117.775 122.891 116.887 123.473C116.284 123.867 115.233 124.137 114.518 124.041L108.579 123.248C107.863 123.152 106.902 123.521 106.435 124.07V124.075ZM139.739 124.008C146.452 125.437 148.87 130.139 145.14 134.512C141.409 138.881 132.943 141.268 126.232 139.838C119.518 138.409 117.101 133.707 120.831 129.337C124.562 124.967 133.028 122.581 139.739 124.01V124.008Z" fill="white" stroke="#182341" stroke-width="2" stroke-linecap="round" stroke-linejoin="round"/>
<path d="M520.415 399.285C503.203 437.027 399.845 426.959 289.559 376.794C179.274 326.63 103.819 255.368 121.027 217.626" stroke="black" stroke-width="15" stroke-linecap="round" stroke-linejoin="round"/>
<path d="M480.191 339.694C489.916 339.694 497.799 331.82 497.799 322.108C497.799 312.395 489.916 304.521 480.191 304.521C470.466 304.521 462.582 312.395 462.582 322.108C462.582 331.82 470.466 339.694 480.191 339.694Z" fill="#00D9EE" stroke="black" stroke-width="2" stroke-linecap="round" stroke-linejoin="round"/>
<path d="M149.429 216.731C159.154 216.731 167.037 208.857 167.037 199.145C167.037 189.432 159.154 181.559 149.429 181.559C139.704 181.559 131.82 189.432 131.82 199.145C131.82 208.857 139.704 216.731 149.429 216.731Z" fill="#00D9EE" stroke="black" stroke-width="2" stroke-linecap="round" stroke-linejoin="round"/>
<path d="M126.187 267.52C132.333 267.52 137.316 262.544 137.316 256.406C137.316 250.267 132.333 245.291 126.187 245.291C120.041 245.291 115.059 250.267 115.059 256.406C115.059 262.544 120.041 267.52 126.187 267.52Z" fill="#CFF501" stroke="black" stroke-width="2" stroke-linecap="round" stroke-linejoin="round"/>
</g>
<defs>
<clipPath id="clip0_12_9558">
<rect width="680" height="568" fill="white" transform="translate(0 -135.169)"/>
</clipPath>
</defs>
</svg>
