<svg width="650" height="483" viewBox="0 0 650 483" fill="none" xmlns="http://www.w3.org/2000/svg">
<path d="M398.934 380.316L393.004 373.971L390.398 378.888L394.803 381.834L398.934 380.316Z" fill="white" stroke="black" stroke-width="2" stroke-linecap="round" stroke-linejoin="round"/>
<path d="M393.683 373.518L386.555 366.997L389.329 373.229L391.252 373.912L393.683 373.518Z" fill="white" stroke="black" stroke-width="2" stroke-linecap="round" stroke-linejoin="round"/>
<path d="M342.009 406.65L341.358 387.247L345.657 385.612L345.95 377.581L349.059 376.738C349.059 376.738 349.348 372.383 349.367 372.492C349.387 372.601 357.548 371.095 357.548 371.095L358.005 368.098L377.578 363.657L378.027 365.807L385.322 364.628L386.107 368.757L388.537 368.363L389.345 375.173L393.785 375.157L395.169 394.56L390.476 395.231L390.976 402.244L387.808 402.634L387.968 408.402L378.238 409.971L378.628 413.873L358.153 418.427L357.439 415.032L350.861 416.663L350.132 412.987L346.738 413.775L345.279 406.419L341.998 406.642L342.009 406.65Z" fill="white" stroke="black" stroke-width="2" stroke-linecap="round" stroke-linejoin="round"/>
<path d="M390.464 369.783L385.326 364.628L378.031 365.807L383.169 370.958L390.464 369.783Z" fill="white" stroke="black" stroke-width="2" stroke-linecap="round" stroke-linejoin="round"/>
<path d="M363.303 423.59L358.641 418.353L362.593 420.195L363.303 423.59Z" fill="white" stroke="black" stroke-width="2" stroke-linecap="round" stroke-linejoin="round"/>
<path d="M356.011 421.826L349.465 413.448L354.829 418.205L356.011 421.826Z" fill="white" stroke="black" stroke-width="2" stroke-linecap="round" stroke-linejoin="round"/>
<path d="M351.888 418.938L346.749 413.783L345.119 406.54L350.428 411.582L351.888 418.938Z" fill="white" stroke="black" stroke-width="2" stroke-linecap="round" stroke-linejoin="round"/>
<path d="M347.147 411.805L342.009 406.649L341.358 387.247L346.496 392.402L347.147 411.805Z" fill="black" stroke="black" stroke-width="2" stroke-linecap="round" stroke-linejoin="round"/>
<path d="M347.147 411.805L346.496 392.402L350.795 390.767L351.088 382.736L354.197 381.893C354.197 381.893 354.416 377.584 354.505 377.647C354.595 377.709 362.687 376.25 362.687 376.25L363.143 373.253L382.716 368.812L383.165 370.962L390.461 369.783L391.245 373.912L393.675 373.518L394.483 380.328L398.923 380.312L400.308 399.715L395.614 400.386L396.114 407.399L392.946 407.789L393.106 413.557L383.376 415.126L383.766 419.028L363.291 423.582L362.577 420.187L356 421.818L354.818 418.197L351.876 418.926L350.417 411.57L347.136 411.793L347.147 411.805Z" fill="#00D9EE" stroke="black" stroke-width="2" stroke-linecap="round" stroke-linejoin="round"/>
<path d="M346.496 392.402L350.795 390.767L345.657 385.612L341.358 387.247L346.496 392.402Z" fill="white" stroke="black" stroke-width="2" stroke-linecap="round" stroke-linejoin="round"/>
<path d="M345.657 385.612L345.954 377.581L351.092 382.736L350.795 390.767L345.657 385.612Z" fill="black" stroke="black" stroke-width="2" stroke-linecap="round" stroke-linejoin="round"/>
<path d="M349.063 376.738L345.954 377.58L351.092 382.736L354.201 381.893L349.063 376.738Z" fill="white" stroke="black" stroke-width="2" stroke-linecap="round" stroke-linejoin="round"/>
<path d="M354.201 381.893L354.513 377.647L349.371 372.492L349.063 376.738L354.201 381.893Z" fill="black" stroke="black" stroke-width="2" stroke-linecap="round" stroke-linejoin="round"/>
<path d="M354.513 377.647L362.69 376.25L357.552 371.095L349.371 372.492L354.513 377.647Z" fill="white" stroke="black" stroke-width="2" stroke-linecap="round" stroke-linejoin="round"/>
<path d="M362.69 376.25L363.147 373.253L358.009 368.098L357.552 371.095L362.69 376.25Z" fill="black" stroke="black" stroke-width="2" stroke-linecap="round" stroke-linejoin="round"/>
<path d="M363.147 373.253L358.009 368.098L377.582 363.657L382.72 368.812L363.147 373.253Z" fill="white" stroke="black" stroke-width="2" stroke-linecap="round" stroke-linejoin="round"/>
<path d="M127.601 223.654L122.603 218.312L120.407 222.452L124.121 224.938L127.601 223.654Z" fill="#00D9EE" stroke="black" stroke-width="2" stroke-linecap="round" stroke-linejoin="round"/>
<path d="M123.177 217.929L117.169 212.431L119.509 217.687L121.129 218.261L123.177 217.929Z" fill="#00D9EE" stroke="black" stroke-width="2" stroke-linecap="round" stroke-linejoin="round"/>
<path d="M79.6335 245.847L79.0834 229.499L82.7078 228.122L82.9535 221.355L85.5753 220.645C85.5753 220.645 85.8172 216.977 85.8367 217.066C85.8562 217.156 92.7304 215.888 92.7304 215.888L93.1166 213.363L109.608 209.621L109.986 211.431L116.135 210.44L116.798 213.921L118.846 213.589L119.529 219.326L123.27 219.314L124.437 235.665L120.481 236.231L120.902 242.143L118.234 242.475L118.37 247.337L110.173 248.66L110.501 251.95L93.2454 255.786L92.6446 252.926L87.1007 254.303L86.4843 251.205L83.6246 251.868L82.3957 245.671L79.6335 245.858V245.847Z" fill="white" stroke="black" stroke-width="2" stroke-linecap="round" stroke-linejoin="round"/>
<path d="M120.465 214.78L116.135 210.436L109.986 211.428L114.317 215.771L120.465 214.78Z" fill="#00D9EE" stroke="black" stroke-width="2" stroke-linecap="round" stroke-linejoin="round"/>
<path d="M97.5798 260.122L93.6472 255.708L96.979 257.261L97.5798 260.122Z" fill="white" stroke="black" stroke-width="2" stroke-linecap="round" stroke-linejoin="round"/>
<path d="M91.4351 258.635L85.9147 251.576L90.4364 255.583L91.4351 258.635Z" fill="white" stroke="black" stroke-width="2" stroke-linecap="round" stroke-linejoin="round"/>
<path d="M87.959 256.2L83.6285 251.857L82.2552 245.753L86.7301 250.003L87.959 256.2Z" fill="white" stroke="black" stroke-width="2" stroke-linecap="round" stroke-linejoin="round"/>
<path d="M83.964 250.19L79.6335 245.847L79.0873 229.496L83.4139 233.839L83.964 250.19Z" fill="white" stroke="black" stroke-width="2" stroke-linecap="round" stroke-linejoin="round"/>
<path d="M83.964 250.19L83.4139 233.843L87.0383 232.466L87.2841 225.699L89.9058 224.989C89.9058 224.989 90.0891 221.359 90.1672 221.41C90.2452 221.461 97.0609 220.231 97.0609 220.231L97.4472 217.707L113.938 213.964L114.317 215.775L120.465 214.784L121.129 218.265L123.177 217.933L123.86 223.67L127.601 223.658L128.767 240.009L124.811 240.575L125.233 246.487L122.564 246.819L122.701 251.681L114.504 253.004L114.832 256.294L97.5759 260.13L96.9751 257.269L91.4312 258.647L90.4364 255.595L87.959 256.212L86.7301 250.015L83.9679 250.202L83.964 250.19Z" fill="#CFF501" stroke="black" stroke-width="2" stroke-linecap="round" stroke-linejoin="round"/>
<path d="M83.4139 233.839L87.0383 232.462L82.7078 228.122L79.0873 229.496L83.4139 233.839Z" fill="#00D9EE" stroke="black" stroke-width="2" stroke-linecap="round" stroke-linejoin="round"/>
<path d="M82.7078 228.122L82.9575 221.351L87.288 225.695L87.0383 232.462L82.7078 228.122Z" fill="white" stroke="black" stroke-width="2" stroke-linecap="round" stroke-linejoin="round"/>
<path d="M85.5792 220.641L82.9575 221.351L87.288 225.695L89.9097 224.985L85.5792 220.641Z" fill="#00D9EE" stroke="black" stroke-width="2" stroke-linecap="round" stroke-linejoin="round"/>
<path d="M89.9097 224.985L90.1672 221.406L85.8367 217.063L85.5792 220.641L89.9097 224.985Z" fill="white" stroke="black" stroke-width="2" stroke-linecap="round" stroke-linejoin="round"/>
<path d="M90.1672 221.406L97.0609 220.228L92.7304 215.884L85.8367 217.063L90.1672 221.406Z" fill="#00D9EE" stroke="black" stroke-width="2" stroke-linecap="round" stroke-linejoin="round"/>
<path d="M97.0609 220.228L97.4472 217.703L93.1166 213.359L92.7304 215.884L97.0609 220.228Z" fill="white" stroke="black" stroke-width="2" stroke-linecap="round" stroke-linejoin="round"/>
<path d="M97.4472 217.703L93.1166 213.359L109.608 209.617L113.938 213.96L97.4472 217.703Z" fill="#00D9EE" stroke="black" stroke-width="2" stroke-linecap="round" stroke-linejoin="round"/>
<path d="M475.936 265.663L473.439 262.994L472.343 265.062L474.196 266.303L475.936 265.663Z" fill="#00D9EE" stroke="black" stroke-width="2" stroke-linecap="round" stroke-linejoin="round"/>
<path d="M473.724 262.803L470.724 260.056L471.89 262.682L472.702 262.967L473.724 262.803Z" fill="#00D9EE" stroke="black" stroke-width="2" stroke-linecap="round" stroke-linejoin="round"/>
<path d="M451.974 276.746L451.701 268.578L453.511 267.892L453.636 264.512L454.946 264.157C454.946 264.157 455.067 262.323 455.075 262.37C455.083 262.417 458.52 261.78 458.52 261.78L458.711 260.52L466.947 258.651L467.134 259.556L470.205 259.061L470.536 260.797L471.559 260.633L471.898 263.498H473.767L474.352 271.657L472.378 271.938L472.589 274.893L471.254 275.056L471.321 277.484L467.224 278.143L467.388 279.786L458.77 281.702L458.469 280.274L455.699 280.961L455.391 279.412L453.963 279.743L453.347 276.649L451.966 276.742L451.974 276.746Z" fill="white" stroke="black" stroke-width="2" stroke-linecap="round" stroke-linejoin="round"/>
<path d="M472.37 261.23L470.209 259.061L467.134 259.556L469.3 261.726L472.37 261.23Z" fill="#00D9EE" stroke="black" stroke-width="2" stroke-linecap="round" stroke-linejoin="round"/>
<path d="M460.939 283.88L458.977 281.675L460.639 282.448L460.939 283.88Z" fill="white" stroke="black" stroke-width="2" stroke-linecap="round" stroke-linejoin="round"/>
<path d="M457.869 283.134L455.114 279.611L457.369 281.613L457.869 283.134Z" fill="white" stroke="black" stroke-width="2" stroke-linecap="round" stroke-linejoin="round"/>
<path d="M456.132 281.921L453.971 279.751L453.284 276.703L455.52 278.822L456.132 281.921Z" fill="white" stroke="black" stroke-width="2" stroke-linecap="round" stroke-linejoin="round"/>
<path d="M454.139 278.916L451.974 276.746L451.701 268.582L453.862 270.752L454.139 278.916Z" fill="white" stroke="black" stroke-width="2" stroke-linecap="round" stroke-linejoin="round"/>
<path d="M454.139 278.916L453.866 270.748L455.676 270.061L455.801 266.682L457.112 266.327C457.112 266.327 457.201 264.512 457.24 264.539C457.279 264.567 460.685 263.95 460.685 263.95L460.877 262.69L469.112 260.82L469.3 261.726L472.37 261.23L472.702 262.967L473.724 262.803L474.063 265.667H475.932L476.517 273.827L474.543 274.108L474.754 277.062L473.42 277.226L473.486 279.653L469.389 280.313L469.553 281.956L460.935 283.872L460.635 282.444L457.865 283.131L457.365 281.605L456.129 281.913L455.512 278.818L454.131 278.912L454.139 278.916Z" fill="#CFF501" stroke="black" stroke-width="2" stroke-linecap="round" stroke-linejoin="round"/>
<path d="M453.862 270.752L455.672 270.061L453.511 267.896L451.701 268.582L453.862 270.752Z" fill="#00D9EE" stroke="black" stroke-width="2" stroke-linecap="round" stroke-linejoin="round"/>
<path d="M453.511 267.896L453.636 264.512L455.797 266.682L455.672 270.061L453.511 267.896Z" fill="white" stroke="black" stroke-width="2" stroke-linecap="round" stroke-linejoin="round"/>
<path d="M454.943 264.157L453.636 264.512L455.797 266.682L457.108 266.327L454.943 264.157Z" fill="#00D9EE" stroke="black" stroke-width="2" stroke-linecap="round" stroke-linejoin="round"/>
<path d="M457.108 266.327L457.237 264.539L455.075 262.37L454.943 264.157L457.108 266.327Z" fill="white" stroke="black" stroke-width="2" stroke-linecap="round" stroke-linejoin="round"/>
<path d="M457.237 264.54L460.682 263.95L458.516 261.781L455.075 262.37L457.237 264.54Z" fill="#00D9EE" stroke="black" stroke-width="2" stroke-linecap="round" stroke-linejoin="round"/>
<path d="M460.682 263.95L460.873 262.69L458.711 260.52L458.516 261.78L460.682 263.95Z" fill="white" stroke="black" stroke-width="2" stroke-linecap="round" stroke-linejoin="round"/>
<path d="M460.873 262.69L458.711 260.52L466.947 258.651L469.108 260.82L460.873 262.69Z" fill="#00D9EE" stroke="black" stroke-width="2" stroke-linecap="round" stroke-linejoin="round"/>
<path d="M301.759 339.001L315.691 325.967L304.888 320.235L298.415 329.92L301.759 339.001Z" fill="#CFF501" stroke="black" stroke-width="2" stroke-linecap="round" stroke-linejoin="round"/>
<path d="M316.853 327.279L331.183 311.606L317.317 317.893L315.823 322.116L316.853 327.279Z" fill="#CFF501" stroke="black" stroke-width="2" stroke-linecap="round" stroke-linejoin="round"/>
<path d="M243.901 213.882L286.524 212.45L290.113 221.902L307.755 222.55L309.608 229.387C309.608 229.387 319.174 230.023 318.937 230.066C318.699 230.109 322.007 248.048 322.007 248.048L328.592 249.051L338.35 292.071L333.625 293.058L336.212 309.097L327.137 310.826L327.999 316.172L313.041 317.948L313.073 327.708L270.446 330.756L268.968 320.438L253.557 321.534L252.699 314.572L240.023 314.927L236.574 293.546L227.999 294.405L217.996 249.398L225.455 247.829L221.87 233.367L229.95 231.763L228.222 224.302L244.381 221.094L243.893 213.886L243.901 213.882Z" fill="white" stroke="black" stroke-width="2" stroke-linecap="round" stroke-linejoin="round"/>
<path d="M324.894 320.387L336.22 309.093L333.633 293.058L322.307 304.352L324.894 320.387Z" fill="#CFF501" stroke="black" stroke-width="2" stroke-linecap="round" stroke-linejoin="round"/>
<path d="M206.682 260.688L218.195 250.44L214.145 259.119L206.682 260.688Z" fill="white" stroke="black" stroke-width="2" stroke-linecap="round" stroke-linejoin="round"/>
<path d="M210.556 244.661L228.967 230.269L218.515 242.062L210.556 244.661Z" fill="white" stroke="black" stroke-width="2" stroke-linecap="round" stroke-linejoin="round"/>
<path d="M216.908 235.595L228.229 224.298L244.143 220.719L233.067 232.384L216.908 235.595Z" fill="white" stroke="black" stroke-width="2" stroke-linecap="round" stroke-linejoin="round"/>
<path d="M232.579 225.176L243.901 213.882L286.524 212.45L275.202 223.744L232.579 225.176Z" fill="#00D9EE" stroke="black" stroke-width="2" stroke-linecap="round" stroke-linejoin="round"/>
<path d="M232.579 225.176L275.202 223.744L278.791 233.195L296.433 233.843L298.286 240.68C298.286 240.68 307.751 241.156 307.615 241.359C307.478 241.562 310.685 259.342 310.685 259.342L317.271 260.344L327.028 303.365L322.303 304.352L324.89 320.391L315.815 322.12L316.678 327.466L301.72 329.241L301.751 339.001L259.124 342.049L257.646 331.731L242.235 332.828L241.377 325.866L228.701 326.221L225.253 304.84L216.677 305.698L206.674 260.692L214.134 259.123L210.548 244.661L218.503 242.062L216.896 235.595L233.055 232.388L232.568 225.18L232.579 225.176Z" fill="white" stroke="black" stroke-width="2" stroke-linecap="round" stroke-linejoin="round"/>
<path d="M275.202 223.744L278.791 233.195L290.117 221.902L286.524 212.45L275.202 223.744Z" fill="#CFF501" stroke="black" stroke-width="2" stroke-linecap="round" stroke-linejoin="round"/>
<path d="M290.117 221.902L307.759 222.546L296.437 233.843L278.791 233.195L290.117 221.902Z" fill="#00D9EE" stroke="black" stroke-width="2" stroke-linecap="round" stroke-linejoin="round"/>
<path d="M309.612 229.387L307.759 222.546L296.437 233.843L298.29 240.68L309.612 229.387Z" fill="#CFF501" stroke="black" stroke-width="2" stroke-linecap="round" stroke-linejoin="round"/>
<path d="M298.29 240.68L307.619 241.359L318.944 230.066L309.612 229.387L298.29 240.68Z" fill="#00D9EE" stroke="black" stroke-width="2" stroke-linecap="round" stroke-linejoin="round"/>
<path d="M307.619 241.359L310.689 259.342L322.015 248.048L318.944 230.066L307.619 241.359Z" fill="#CFF501" stroke="black" stroke-width="2" stroke-linecap="round" stroke-linejoin="round"/>
<path d="M310.689 259.342L317.275 260.344L328.6 249.051L322.015 248.048L310.689 259.342Z" fill="#00D9EE" stroke="black" stroke-width="2" stroke-linecap="round" stroke-linejoin="round"/>
<path d="M317.274 260.344L328.6 249.051L338.354 292.067L327.032 303.365L317.274 260.344Z" fill="#CFF501" stroke="black" stroke-width="2" stroke-linecap="round" stroke-linejoin="round"/>
<path d="M259.347 286.795L250.272 287.646L243.027 246.819L252.102 245.972L259.347 286.795Z" fill="#CFF501" stroke="black" stroke-width="2" stroke-linecap="round" stroke-linejoin="round"/>
<path d="M288.549 284.063L279.474 284.914L272.229 244.087L281.304 243.24L288.549 284.063Z" fill="#CFF501" stroke="black" stroke-width="2" stroke-linecap="round" stroke-linejoin="round"/>
<path d="M292.122 301.94L293.823 311.521L255.149 315.138L253.452 305.558L292.122 301.94Z" fill="#CFF501" stroke="black" stroke-width="2" stroke-linecap="round" stroke-linejoin="round"/>
<path d="M300.323 296.153L302.024 305.733L292.883 306.588L291.182 297.008L300.323 296.153Z" fill="#CFF501" stroke="black" stroke-width="2" stroke-linecap="round" stroke-linejoin="round"/>
<path d="M252.574 300.621L254.275 310.202L245.134 311.056L243.433 301.476L252.574 300.621Z" fill="#CFF501" stroke="black" stroke-width="2" stroke-linecap="round" stroke-linejoin="round"/>
<path d="M399.648 33.8214C399.648 33.8214 315.683 50.4339 304.049 51.308C292.415 52.1822 285.896 60.9392 284.694 64.5177C284.694 64.5177 278.479 69.9967 277.258 77.7937C277.258 77.7937 265.69 83.8151 264.235 110.691C262.784 137.571 261.352 136.79 261.352 136.79C261.352 136.79 207.185 168.076 203.588 177.02C199.991 185.964 202.433 189.071 200.264 199.986C198.095 210.901 194.358 224.126 196.815 234.155C199.273 244.184 198.774 247.154 198.774 247.154C198.774 247.154 198.236 262.846 210.123 260.118C222.007 257.386 225.319 244.84 225.124 242.311C224.929 239.783 224.149 230.241 225.151 228.142C226.154 226.038 236.559 216.669 237.101 201.925C237.101 201.925 251.802 199.471 261.481 192.193C261.481 192.193 264.017 200.657 278.085 201.867C292.153 203.08 335.814 195.486 338.01 193.609C340.207 191.732 342.735 191.088 347.432 179.307C347.432 179.307 355.769 181.883 356.967 199.077C356.967 199.077 355.055 217.543 347.296 239.119C347.296 239.119 342.77 242.155 340.004 249.734C337.238 257.316 330.407 273.905 336.22 286.155C342.037 298.404 349.059 299.716 356.409 292.032C363.759 284.348 364.676 272.937 364.676 272.937C364.676 272.937 376.626 266.67 380.559 262.217C384.491 257.765 394.694 225.113 411.255 204.797C411.255 204.797 414.185 201.999 421.757 188.318C429.33 174.636 443.636 164.61 443.636 164.61C443.636 164.61 466.346 142.277 477.044 116.907C478.76 112.837 480.621 109.044 482.521 105.493C445.685 86.4609 401.244 33.2477 399.648 33.8136V33.8214Z" fill="black"/>
<path d="M334.562 171.405L328.163 170.675L310.127 173.282L292.091 177.008L281.417 179.697L271.944 185.25L261.781 192.915C262.76 194.983 266.525 200.868 278.085 201.863C292.154 203.076 335.814 195.482 338.01 193.609C340.168 191.767 342.649 191.088 347.182 179.916L346.406 179.038L341.135 174.507L334.565 171.405H334.562Z" fill="black"/>
<path d="M239.173 201.508C239.173 201.508 232.895 202.226 226.388 201.836L237.039 203.1L237.585 202.198L239.177 201.508H239.173Z" fill="#67E2E8"/>
<path d="M261.356 136.79C261.356 136.79 272.186 134.02 275.128 129.676C278.069 125.333 280.395 125.641 287.682 124.24" stroke="#00D9EE" stroke-width="2" stroke-linecap="round" stroke-linejoin="round"/>
<path d="M261.481 192.189C261.481 192.189 271.894 183.104 282.361 178.87C292.832 174.636 326.525 168.677 334.558 171.405C342.594 174.132 347.428 179.307 347.428 179.307" stroke="#00D9EE" stroke-width="2" stroke-linecap="round" stroke-linejoin="round"/>
<path d="M287.452 192.396C287.452 192.396 301.447 175.615 303.261 173.57" stroke="#00D9EE" stroke-width="2" stroke-linecap="round" stroke-linejoin="round"/>
<path d="M305.094 181.785C305.094 181.785 302.239 176.298 306.14 173.059" stroke="#00D9EE" stroke-width="2" stroke-linecap="round" stroke-linejoin="round"/>
<path d="M328.042 187.947C328.042 187.947 322.596 180.31 321.586 171.03" stroke="#00D9EE" stroke-width="2" stroke-linecap="round" stroke-linejoin="round"/>
<path d="M226.24 202.924C226.24 202.924 227.238 204.52 237.101 201.921" stroke="#00D9EE" stroke-width="2" stroke-linecap="round" stroke-linejoin="round"/>
<path d="M364.68 272.941C364.68 272.941 378.897 267.103 383.017 257.898C387.14 248.692 397.904 222.944 409.32 207.272C420.735 191.6 426.931 180.587 430.489 171.592" stroke="#00D9EE" stroke-width="2" stroke-linecap="round" stroke-linejoin="round"/>
<path d="M399.648 33.8214L556.316 -84L650 0.420745L482.521 105.501C482.521 105.501 394.834 96.779 399.648 33.8214Z" fill="black"/>
<path d="M557.578 317.341C566.313 272.534 448.983 212.243 295.513 182.676C142.044 153.11 10.5513 165.466 1.81627 210.273C-6.91882 255.08 110.411 315.371 263.881 344.937C417.35 374.503 548.843 362.148 557.578 317.341Z" stroke="#CFF501" stroke-width="2" stroke-linecap="round" stroke-linejoin="round"/>
</svg>
