<svg width="820" height="564" viewBox="0 0 820 564" fill="none" xmlns="http://www.w3.org/2000/svg">
<g clip-path="url(#clip0_12_9720)">
<path d="M386.039 316.817L404.873 313.68L399.043 302.923L388.281 307.405L386.039 316.817Z" fill="#CFF501" stroke="black" stroke-width="2" stroke-linecap="round" stroke-linejoin="round"/>
<path d="M405.113 315.41L425.741 310.296L410.701 307.854L407.113 310.543L405.113 315.41Z" fill="#CFF501" stroke="black" stroke-width="2" stroke-linecap="round" stroke-linejoin="round"/>
<path d="M407.114 180.566L443.436 202.976L441.194 212.836L455.544 223.145L453.302 229.868C453.302 229.868 460.925 235.694 460.701 235.6C460.476 235.506 453.302 252.278 453.302 252.278L458.234 256.759L442.539 297.993L438.055 296.201L431.329 310.991L422.809 307.405L420.567 312.336L407.114 305.532L401.733 313.68L364.514 292.615L368.998 283.203L355.545 275.584L358.684 269.309L347.922 262.586L356.89 242.865L349.267 238.832L365.859 195.805L372.948 198.633L377.966 184.6L385.59 187.738L388.28 180.566L403.527 186.841L407.114 180.566Z" fill="white" stroke="black" stroke-width="2" stroke-linecap="round" stroke-linejoin="round"/>
<path d="M415.633 314.128L431.328 310.991L438.054 296.201L422.359 299.338L415.633 314.128Z" fill="#CFF501" stroke="black" stroke-width="2" stroke-linecap="round" stroke-linejoin="round"/>
<path d="M350.164 198.943L365.437 196.778L357.249 201.766L350.164 198.943Z" fill="white" stroke="black" stroke-width="2" stroke-linecap="round" stroke-linejoin="round"/>
<path d="M362.27 187.738L385.588 185.945L370.341 189.979L362.27 187.738Z" fill="white" stroke="black" stroke-width="2" stroke-linecap="round" stroke-linejoin="round"/>
<path d="M372.586 183.704L388.281 180.566L403.527 186.393L387.832 189.978L372.586 183.704Z" fill="white" stroke="black" stroke-width="2" stroke-linecap="round" stroke-linejoin="round"/>
<path d="M391.418 183.704L407.113 180.566L443.435 202.976L427.74 206.114L391.418 183.704Z" fill="#00D9EE" stroke="black" stroke-width="2" stroke-linecap="round" stroke-linejoin="round"/>
<path d="M391.419 183.704L427.741 206.113L425.499 215.974L439.848 226.282L437.606 233.005C437.606 233.005 445.23 238.643 445.005 238.738C444.781 238.832 437.606 255.415 437.606 255.415L442.539 259.897L426.844 301.131L422.36 299.338L415.634 314.128L407.113 310.543L404.871 315.473L391.419 308.669L386.038 316.818L348.818 295.752L353.303 286.34L339.85 278.721L342.989 272.446L332.227 265.723L341.195 246.003L333.572 241.969L350.164 198.942L357.253 201.77L362.271 187.737L370.343 189.978L372.585 183.704L387.831 189.978L391.419 183.704Z" fill="white" stroke="black" stroke-width="2" stroke-linecap="round" stroke-linejoin="round"/>
<path d="M427.742 206.113L425.5 215.974L441.195 212.836L443.437 202.976L427.742 206.113Z" fill="#CFF501" stroke="black" stroke-width="2" stroke-linecap="round" stroke-linejoin="round"/>
<path d="M441.195 212.836L455.544 223.145L439.85 226.282L425.5 215.974L441.195 212.836Z" fill="#00D9EE" stroke="black" stroke-width="2" stroke-linecap="round" stroke-linejoin="round"/>
<path d="M453.3 229.868L455.542 223.145L439.848 226.282L437.605 233.005L453.3 229.868Z" fill="#CFF501" stroke="black" stroke-width="2" stroke-linecap="round" stroke-linejoin="round"/>
<path d="M437.605 233.005L445.004 238.737L460.699 235.6L453.3 229.868L437.605 233.005Z" fill="#00D9EE" stroke="black" stroke-width="2" stroke-linecap="round" stroke-linejoin="round"/>
<path d="M445.004 238.737L437.605 255.415L453.3 252.277L460.699 235.6L445.004 238.737Z" fill="#CFF501" stroke="black" stroke-width="2" stroke-linecap="round" stroke-linejoin="round"/>
<path d="M437.605 255.415L442.538 259.897L458.233 256.759L453.3 252.277L437.605 255.415Z" fill="#00D9EE" stroke="black" stroke-width="2" stroke-linecap="round" stroke-linejoin="round"/>
<path d="M442.539 259.897L458.233 256.759L442.539 297.993L426.844 301.131L442.539 259.897Z" fill="#CFF501" stroke="black" stroke-width="2" stroke-linecap="round" stroke-linejoin="round"/>
<path d="M317.874 273.659C372.087 206.243 402.239 140.509 385.221 126.838C368.202 113.167 310.459 156.736 256.246 224.152C202.034 291.568 171.882 357.302 188.9 370.973C205.918 384.644 263.662 341.075 317.874 273.659Z" stroke="#CFF501" stroke-width="2" stroke-linecap="round" stroke-linejoin="round"/>
<path d="M298.826 244.888C379.57 144.478 424.48 46.5736 399.134 26.2129C373.789 5.85216 287.786 70.7453 207.041 171.156C126.296 271.566 81.3866 369.47 106.732 389.831C132.078 410.192 218.081 345.299 298.826 244.888Z" stroke="#CFF501" stroke-width="2" stroke-linecap="round" stroke-linejoin="round"/>
<path d="M902.293 474.192C902.293 474.192 830.993 442.819 811.263 425.339C791.532 407.859 773.595 380.071 748.035 359.903C722.475 339.734 689.291 307.464 675.39 304.775C661.489 302.085 650.727 311.049 656.108 326.288C661.489 341.527 681.668 353.628 693.327 364.833C704.986 376.038 710.367 382.312 710.367 382.312C710.367 382.312 678.081 376.038 670.906 374.245C663.731 372.452 641.758 363.04 641.758 363.04C641.758 363.04 640.413 358.558 637.722 356.765C637.722 356.765 636.377 337.493 634.583 336.148C634.583 336.148 644 327.184 647.139 317.772C650.278 308.36 644 301.637 640.413 301.189C636.825 300.741 634.583 308.808 629.651 313.738C624.718 318.669 622.476 322.702 622.476 322.702C622.476 322.702 622.027 307.912 621.579 304.326C621.131 300.741 620.234 300.293 620.234 300.293C620.234 300.293 625.615 294.914 628.305 285.95C630.996 276.987 633.238 266.678 632.341 259.059C631.444 251.439 622.924 247.406 619.337 250.095C615.75 252.784 610.368 268.471 605.436 276.09C600.503 283.709 595.122 291.777 594.674 295.811C594.225 299.844 596.467 313.29 596.467 313.29C596.467 313.29 588.396 298.948 586.153 297.155C586.153 297.155 591.535 279.676 591.086 264.885C590.638 250.095 583.015 243.82 576.288 244.717C569.562 245.613 562.835 279.676 560.145 287.295C557.454 294.914 557.454 297.725 560.145 305.51C562.835 313.295 568.665 326.288 568.665 326.288C568.665 326.288 552.073 313.29 540.414 307.016C528.755 300.741 520.683 303.878 517.096 307.912C513.509 311.946 518.89 318.22 533.688 334.355C548.486 350.49 550.688 351.302 561.248 359.414C571.808 367.526 587.947 381.864 592.431 385.45C596.916 389.035 595.57 387.691 601.4 391.724C607.229 395.758 607.678 395.758 612.162 402.481C616.646 409.204 618.44 411.893 635.032 424.443C651.624 436.992 677.184 448.645 689.74 454.92C702.295 461.195 738.618 482.708 781.218 503.773C823.819 524.838 957.001 563.831 957.001 563.831L902.293 474.192Z" fill="#000001"/>
<path d="M528.004 303.457C528.004 303.457 532.174 301.1 546.273 310.444C560.371 319.789 572.927 326.96 575.618 335.028" stroke="#00D9EE" stroke-width="2" stroke-linecap="round" stroke-linejoin="round"/>
<path d="M522.254 311.722C522.254 311.722 533.913 321.134 537.949 327.408C541.985 333.683 537.949 336.843 537.949 336.843" stroke="#00D9EE" stroke-width="2" stroke-linecap="round" stroke-linejoin="round"/>
<path d="M574.269 248.526C574.269 248.526 575.166 274.521 565.301 273.625" stroke="#00D9EE" stroke-width="2" stroke-linecap="round" stroke-linejoin="round"/>
<path d="M578.754 297.379C578.754 297.379 580.996 298.724 586.153 297.155C586.153 297.155 583.686 300.965 579.651 301.413" stroke="#00D9EE" stroke-width="2" stroke-linecap="round" stroke-linejoin="round"/>
<path d="M610.91 299.284C610.91 299.284 614.179 300.965 620.233 300.293" stroke="#00D9EE" stroke-width="2" stroke-linecap="round" stroke-linejoin="round"/>
<path d="M609.695 271.832C609.695 271.832 615.525 271.832 617.319 263.317C619.112 254.801 619.112 252.56 619.112 252.56" stroke="#00D9EE" stroke-width="2" stroke-linecap="round" stroke-linejoin="round"/>
<path d="M589.062 300.965C589.062 300.965 598.484 317.1 600.726 321.582C602.968 326.064 605.659 330.546 605.659 333.683C605.659 336.82 600.278 339.958 600.278 339.958" stroke="#00D9EE" stroke-width="2" stroke-linecap="round" stroke-linejoin="round"/>
<path d="M606.555 338.165C606.555 338.165 616.42 348.025 622.25 352.059C628.079 356.093 641.98 364.609 644.671 366.849" stroke="#00D9EE" stroke-width="2" stroke-linecap="round" stroke-linejoin="round"/>
<path d="M621.578 304.326C621.578 304.326 622.251 314.411 622.475 322.702C622.699 330.994 622.475 343.104 622.475 343.104C622.475 343.104 635.367 355.156 637.722 356.765C641.982 359.678 641.757 363.04 641.757 363.04" stroke="#00D9EE" stroke-width="2" stroke-linecap="round" stroke-linejoin="round"/>
<path d="M631.668 334.423C631.668 334.423 634.834 335.57 635.269 337.542" stroke="#00D9EE" stroke-width="2" stroke-linecap="round" stroke-linejoin="round"/>
<path d="M631.668 314.621C631.668 314.621 633.031 316.204 635.937 311.722C638.843 307.24 638.843 304.999 638.843 304.999" stroke="#00D9EE" stroke-width="2" stroke-linecap="round" stroke-linejoin="round"/>
<path d="M661.266 325.167C661.266 325.167 672.512 338.725 678.324 338.223C684.135 337.721 687.355 331.021 686.642 326.525C685.929 322.03 673.422 312.188 673.422 312.188" stroke="#00D9EE" stroke-width="2" stroke-linecap="round" stroke-linejoin="round"/>
<path d="M573.742 331.415C573.742 331.415 577.226 329.649 585.164 333.683C593.101 337.717 608.8 351.163 612.387 355.645" stroke="#00D9EE" stroke-width="2" stroke-linecap="round" stroke-linejoin="round"/>
<path d="M609.695 352.507C609.695 352.507 628.529 356.093 643.776 371.78" stroke="#00D9EE" stroke-width="2" stroke-linecap="round" stroke-linejoin="round"/>
<path d="M644.672 370.48C644.672 370.48 653.421 368.454 669.003 373.702" stroke="#00D9EE" stroke-width="2" stroke-linecap="round" stroke-linejoin="round"/>
<path d="M689.066 390.604C689.066 390.604 699.38 393.293 705.658 395.086C711.936 396.878 716.42 396.43 716.42 396.43" stroke="#00D9EE" stroke-width="2" stroke-linecap="round" stroke-linejoin="round"/>
<path d="M693.328 364.833C693.328 364.833 707.005 377.606 710.368 382.312C713.731 387.018 719.113 400.016 718.216 408.98" stroke="#00D9EE" stroke-width="2" stroke-linecap="round" stroke-linejoin="round"/>
<path d="M-81.5508 -6.7207C-81.5508 -6.7207 -10.6997 68.576 31.0038 80.6773C72.7073 92.7785 179.432 134.909 189.746 138.943C200.06 142.976 205.889 157.767 205.889 157.767C205.889 157.767 227.862 167.179 232.795 170.764C237.728 174.35 244.902 179.28 255.216 184.21C265.53 189.14 272.705 197.208 276.292 199.897C279.88 202.586 296.471 216.032 299.162 220.066C301.852 224.1 290.193 232.615 272.256 223.203C254.319 213.791 254.319 212.446 249.387 209.757C244.454 207.068 240.418 207.068 240.418 207.068V240.683C240.418 254.129 239.073 258.162 230.553 263.092C222.033 268.023 205.441 277.435 201.405 280.124C197.369 282.813 191.54 282.365 190.643 279.227C189.746 276.09 191.091 266.23 193.782 262.196C193.782 262.196 178.087 268.023 173.154 269.815C168.222 271.608 160.15 274.746 160.599 264.885C161.047 255.025 172.258 249.647 172.258 249.647C172.258 249.647 165.98 247.854 169.567 237.994C173.154 228.133 178.087 218.273 178.087 218.273C178.087 218.273 178.536 202.138 178.536 199.897C178.536 199.897 172.258 190.037 170.464 188.244L164.186 181.969C164.186 181.969 157.908 181.073 149.836 181.073C141.765 181.073 105.442 170.764 105.442 170.764V174.798C105.442 174.798 120.24 193.174 125.621 200.793C131.003 208.413 137.729 215.136 136.384 228.581C135.038 242.027 115.756 246.957 106.339 237.994C96.9222 229.03 66.4294 181.073 49.8377 168.523C33.2459 155.974 -27.7398 108.465 -38.9504 101.742C-50.1611 95.0195 -81.5508 -6.7207 -81.5508 -6.7207Z" stroke="#00D9EE" stroke-width="2" stroke-linecap="round" stroke-linejoin="round"/>
<path d="M96.4727 163.593L106.051 175.556" stroke="#00D9EE" stroke-width="2" stroke-linecap="round" stroke-linejoin="round"/>
<path d="M91.5391 125.048C91.5391 125.048 100.956 139.391 105.44 170.764" stroke="#00D9EE" stroke-width="2" stroke-linecap="round" stroke-linejoin="round"/>
<path d="M185.262 242.924L193.782 231.719V241.682C193.782 241.682 188.849 241.131 185.262 242.924Z" stroke="#00D9EE" stroke-width="2" stroke-linecap="round" stroke-linejoin="round"/>
<path d="M172.258 249.647C172.258 249.647 190.195 235.753 201.405 244.268" stroke="#00D9EE" stroke-width="2" stroke-linecap="round" stroke-linejoin="round"/>
<path d="M164.777 271.711C164.777 271.711 167.324 267.574 175.396 263.989C183.468 260.403 188.849 260.851 188.849 260.851V264.025" stroke="#00D9EE" stroke-width="2" stroke-linecap="round" stroke-linejoin="round"/>
<path d="M193.781 262.196C193.781 262.196 202.75 253.232 210.821 249.198C218.893 245.165 223.826 246.061 223.826 246.061" stroke="#00D9EE" stroke-width="2" stroke-linecap="round" stroke-linejoin="round"/>
<path d="M218.504 246.429C218.504 246.429 212.168 236.649 212.168 227.237C212.168 217.825 213.065 211.55 213.962 209.757C214.859 207.965 220.24 205.724 220.24 205.724" stroke="#00D9EE" stroke-width="2" stroke-linecap="round" stroke-linejoin="round"/>
<path d="M193.781 231.719C193.781 231.719 193.781 210.205 194.678 207.516C195.575 204.827 200.508 202.586 200.508 202.586" stroke="#00D9EE" stroke-width="2" stroke-linecap="round" stroke-linejoin="round"/>
<path d="M178.535 186.451C178.535 186.451 185.71 195.863 187.504 198.104C189.297 200.345 189.822 205.45 194.939 206.934" stroke="#00D9EE" stroke-width="2" stroke-linecap="round" stroke-linejoin="round"/>
<path d="M191.539 190.933C191.539 190.933 202.301 198.104 204.992 201.69C207.682 205.275 212.893 208.153 215.445 208.283" stroke="#00D9EE" stroke-width="2" stroke-linecap="round" stroke-linejoin="round"/>
<path d="M164.184 181.969C164.184 181.969 188.847 189.481 201.403 194.241C213.959 199.001 218.438 201.242 223.147 202.586C227.855 203.931 240.416 207.068 240.416 207.068" stroke="#00D9EE" stroke-width="2" stroke-linecap="round" stroke-linejoin="round"/>
<path d="M277.264 200.641C277.264 200.641 273.304 202.586 277.264 207.068C281.223 211.55 287.95 216.929 291.986 218.721C296.021 220.514 298.08 218.721 298.08 218.721" stroke="#00D9EE" stroke-width="2" stroke-linecap="round" stroke-linejoin="round"/>
<path d="M197.144 281.764C197.144 281.764 198.265 274.297 204.992 271.16C211.718 268.023 215.445 266.992 215.445 266.992L217.18 270.788" stroke="#00D9EE" stroke-width="2" stroke-linecap="round" stroke-linejoin="round"/>
<path d="M206.297 251.865C206.297 251.865 208.579 251.888 213.063 257.714C217.548 263.541 219.879 267.162 219.61 269.385" stroke="#00D9EE" stroke-width="2" stroke-linecap="round" stroke-linejoin="round"/>
<path d="M213.57 235.645C213.57 235.645 219.714 235.537 226.027 235.645C232.341 235.753 238.619 239.177 240.413 241.05" stroke="#00D9EE" stroke-width="2" stroke-linecap="round" stroke-linejoin="round"/>
<path d="M212.613 221.859C212.613 221.859 216.649 218.721 223.824 217.153C230.999 215.584 237.277 217.426 240.416 223.454" stroke="#00D9EE" stroke-width="2" stroke-linecap="round" stroke-linejoin="round"/>
<path d="M220.238 245.976C220.238 245.976 225.467 247.406 229.803 249.647C234.139 251.888 238.104 256.271 238.104 256.271" stroke="#00D9EE" stroke-width="2" stroke-linecap="round" stroke-linejoin="round"/>
<path d="M248.95 181.023C248.95 181.023 245.349 182.417 242.21 189.588C239.071 196.76 238.712 202.761 239.34 206.934" stroke="#00D9EE" stroke-width="2" stroke-linecap="round" stroke-linejoin="round"/>
<path d="M270.79 195.074C270.79 195.074 267.875 198.104 265.131 207.068C262.387 216.032 264.431 218.99 264.431 218.99" stroke="#00D9EE" stroke-width="2" stroke-linecap="round" stroke-linejoin="round"/>
<path d="M229.169 168.6C229.169 168.6 223.824 171.213 218.891 179.728C213.959 188.244 217.098 200.448 217.098 200.448" stroke="#00D9EE" stroke-width="2" stroke-linecap="round" stroke-linejoin="round"/>
<path d="M200.322 147.906C200.322 147.906 195.125 148.368 191.538 158.892C187.95 169.415 186.722 180.4 189.13 189.924" stroke="#00D9EE" stroke-width="2" stroke-linecap="round" stroke-linejoin="round"/>
<path d="M198.715 153.733L205.89 157.767" stroke="#00D9EE" stroke-width="2" stroke-linecap="round" stroke-linejoin="round"/>
<path d="M177.185 134.021C177.185 134.021 168.669 134.909 161.495 151.492C154.32 168.075 157.571 181.333 157.571 181.333" stroke="#00D9EE" stroke-width="2" stroke-linecap="round" stroke-linejoin="round"/>
<path d="M143.658 121.033C143.658 121.033 133.465 126.841 125.286 147.906C117.106 168.972 120.192 174.776 120.192 174.776" stroke="#00D9EE" stroke-width="2" stroke-linecap="round" stroke-linejoin="round"/>
<path d="M194.105 216.619C194.105 216.619 202.823 213.881 212.428 218.99" stroke="#00D9EE" stroke-width="2" stroke-linecap="round" stroke-linejoin="round"/>
<path d="M193.781 235.596C193.781 235.596 203.355 232.355 217.176 244.138" stroke="#00D9EE" stroke-width="2" stroke-linecap="round" stroke-linejoin="round"/>
<path d="M183.297 243.502C183.297 243.502 186.606 245.165 188.848 252.56C191.091 259.955 190.485 263.42 190.485 263.42" stroke="#00D9EE" stroke-width="2" stroke-linecap="round" stroke-linejoin="round"/>
<path d="M173.512 228.169C173.512 228.169 180.776 227.685 184.364 230.822C187.951 233.96 189.785 236.972 189.785 236.972" stroke="#00D9EE" stroke-width="2" stroke-linecap="round" stroke-linejoin="round"/>
<path d="M178.352 208.283C178.352 208.283 182.195 206.808 185.97 208.283C189.746 209.757 193.782 214.593 193.782 214.593" stroke="#00D9EE" stroke-width="2" stroke-linecap="round" stroke-linejoin="round"/>
<path d="M178.086 218.273C178.086 218.273 183.942 217.766 188.189 220.039C192.436 222.311 193.781 224.924 193.781 224.924" stroke="#00D9EE" stroke-width="2" stroke-linecap="round" stroke-linejoin="round"/>
<path d="M120.549 193.976C120.549 193.976 100.074 192.399 90.1992 217.439" stroke="#00D9EE" stroke-width="2" stroke-linecap="round" stroke-linejoin="round"/>
<path d="M116.981 239.665C116.981 239.665 100.847 224.212 109.031 216.032C113.963 211.102 118.919 209.677 131.013 226.076" stroke="#00D9EE" stroke-width="2" stroke-linecap="round" stroke-linejoin="round"/>
<path d="M-31.7773 58.7158C-31.7773 58.7158 -11.5982 84.2629 35.4864 97.2606C82.571 110.258 126.965 125.049 159.252 142.08C191.538 159.111 215.776 171.392 239.08 184.524C262.385 197.656 283.299 223.795 294.815 226.188" stroke="#00D9EE" stroke-width="2" stroke-linecap="round" stroke-linejoin="round"/>
<path d="M-38.9531 66.7832C-38.9531 66.7832 -17.8772 93.2267 32.3464 116.085C82.57 138.943 92.8209 141.175 100.7 147.902C108.579 154.629 170.744 166.901 190.56 175.556C210.375 184.21 245.77 200.117 256.994 207.628C268.218 215.14 275.89 224.283 285.061 227.331" stroke="#00D9EE" stroke-width="2" stroke-linecap="round" stroke-linejoin="round"/>
<path d="M-43.4336 80.229C-43.4336 80.229 -14.7344 110.706 22.4848 130.427C59.7041 150.147 98.7529 190.745 110.618 214.593" stroke="#00D9EE" stroke-width="2" stroke-linecap="round" stroke-linejoin="round"/>
<path d="M117.393 111.042C117.393 111.042 96.4742 106.672 74.9498 138.942C53.4254 171.212 65.2638 184.524 65.2638 184.524" stroke="#00D9EE" stroke-width="2" stroke-linecap="round" stroke-linejoin="round"/>
<path d="M87.1548 99.8106C87.1548 99.8106 76.7423 98.605 61.0475 116.533C45.3526 134.461 41.4917 158.264 42.523 162.943" stroke="#00D9EE" stroke-width="2" stroke-linecap="round" stroke-linejoin="round"/>
<path d="M63.964 91.4966C63.964 91.4966 46.2512 93.6748 30.1079 117.429C13.9646 141.183 22.9511 147.906 22.9511 147.906" stroke="#00D9EE" stroke-width="2" stroke-linecap="round" stroke-linejoin="round"/>
<path d="M103.515 172.382C103.515 172.382 76.5421 174.211 74.8516 196.688" stroke="#00D9EE" stroke-width="2" stroke-linecap="round" stroke-linejoin="round"/>
<path d="M160.594 266.27C160.594 266.27 169.145 258.409 180.342 256.266C191.54 254.124 203.113 246.953 206.297 242.919C209.481 238.885 206.257 218.354 206.297 212.706C206.338 207.059 204.629 201.555 203.019 199.601" stroke="#00D9EE" stroke-width="2" stroke-linecap="round" stroke-linejoin="round"/>
<path d="M223.826 202.774C223.826 202.774 225.678 208.426 226.996 211.106C228.315 213.787 229.588 227.896 229.176 235.183C228.763 242.471 230.875 246.285 230.108 249.642C229.342 252.999 203.651 263.572 197.149 269.381C190.647 275.189 190.566 277.206 190.566 277.206" stroke="#00D9EE" stroke-width="2" stroke-linecap="round" stroke-linejoin="round"/>
<path d="M174.911 185.308C174.911 185.308 179.893 193.819 184.148 198.875C188.404 203.931 188.27 205.024 187.888 210.08C187.507 215.135 184.476 225.767 183.301 228.743C182.126 231.719 170.974 245.223 170.723 248.781" stroke="#00D9EE" stroke-width="2" stroke-linecap="round" stroke-linejoin="round"/>
<path d="M270.215 402.422L280.058 400.782L277.008 395.162L271.385 397.501L270.215 402.422Z" fill="white" stroke="black" stroke-width="2" stroke-linecap="round" stroke-linejoin="round"/>
<path d="M280.059 401.719L290.839 399.043L283.103 397.739L281.229 399.142L280.059 401.719Z" fill="white" stroke="black" stroke-width="2" stroke-linecap="round" stroke-linejoin="round"/>
<path d="M281.229 331.218L300.211 342.929L299.041 348.083L306.538 353.471L305.368 356.984C305.368 356.984 309.35 360.028 309.233 359.978C309.117 359.929 305.368 368.696 305.368 368.696L307.946 371.04L299.745 392.589L297.399 391.652L293.884 399.384L289.431 397.51L288.26 400.087L281.229 396.533L278.418 400.791L258.965 389.783L261.31 384.867L254.279 380.887L255.92 377.606L250.297 374.092L254.983 363.788L251.001 361.682L259.673 339.196L263.377 340.675L266.001 333.342L269.983 334.983L271.391 331.236L279.359 334.516L281.234 331.236L281.229 331.218Z" fill="white" stroke="black" stroke-width="2" stroke-linecap="round" stroke-linejoin="round"/>
<path d="M285.68 401.015L293.881 399.375L297.397 391.648L289.195 393.288L285.68 401.015Z" fill="white" stroke="black" stroke-width="2" stroke-linecap="round" stroke-linejoin="round"/>
<path d="M251.465 340.823L259.447 339.693L255.169 342.297L251.465 340.823Z" fill="white" stroke="black" stroke-width="2" stroke-linecap="round" stroke-linejoin="round"/>
<path d="M257.793 334.965L269.981 334.028L262.013 336.134L257.793 334.965Z" fill="white" stroke="black" stroke-width="2" stroke-linecap="round" stroke-linejoin="round"/>
<path d="M263.184 332.858L271.385 331.218L279.354 334.261L271.152 336.134L263.184 332.858Z" fill="white" stroke="black" stroke-width="2" stroke-linecap="round" stroke-linejoin="round"/>
<path d="M273.027 332.858L281.229 331.218L300.211 342.929L292.009 344.569L273.027 332.858Z" fill="black" stroke="black" stroke-width="2" stroke-linecap="round" stroke-linejoin="round"/>
<path d="M273.026 332.858L292.008 344.569L290.838 349.724L298.335 355.111L297.165 358.625C297.165 358.625 301.147 361.57 301.03 361.619C300.914 361.668 297.165 370.336 297.165 370.336L299.743 372.68L291.542 394.229L289.196 393.293L285.681 401.024L281.228 399.151L280.057 401.728L273.026 398.174L270.214 402.431L250.762 391.424L253.107 386.507L246.076 382.527L247.717 379.246L242.094 375.732L246.78 365.428L242.798 363.322L251.47 340.836L255.174 342.315L257.798 334.983L262.017 336.152L263.188 332.872L271.156 336.152L273.031 332.872L273.026 332.858Z" fill="#00D9EE" stroke="black" stroke-width="2" stroke-linecap="round" stroke-linejoin="round"/>
<path d="M292.006 344.57L290.836 349.719L299.038 348.083L300.208 342.929L292.006 344.57Z" fill="white" stroke="black" stroke-width="2" stroke-linecap="round" stroke-linejoin="round"/>
<path d="M299.038 348.083L306.535 353.471L298.334 355.107L290.836 349.719L299.038 348.083Z" fill="black" stroke="black" stroke-width="2" stroke-linecap="round" stroke-linejoin="round"/>
<path d="M305.366 356.985L306.536 353.471L298.334 355.107L297.164 358.62L305.366 356.985Z" fill="white" stroke="black" stroke-width="2" stroke-linecap="round" stroke-linejoin="round"/>
<path d="M297.164 358.62L301.029 361.619L309.231 359.978L305.366 356.984L297.164 358.62Z" fill="black" stroke="black" stroke-width="2" stroke-linecap="round" stroke-linejoin="round"/>
<path d="M301.029 361.619L297.164 370.332L305.366 368.691L309.231 359.979L301.029 361.619Z" fill="white" stroke="black" stroke-width="2" stroke-linecap="round" stroke-linejoin="round"/>
<path d="M297.164 370.332L299.743 372.676L307.944 371.035L305.366 368.691L297.164 370.332Z" fill="black" stroke="black" stroke-width="2" stroke-linecap="round" stroke-linejoin="round"/>
<path d="M299.745 372.676L307.946 371.036L299.745 392.585L291.543 394.225L299.745 372.676Z" fill="white" stroke="black" stroke-width="2" stroke-linecap="round" stroke-linejoin="round"/>
<path d="M518.778 193.116L527.073 191.735L524.504 186.998L519.769 188.97L518.778 193.116Z" fill="#00D9EE" stroke="black" stroke-width="2" stroke-linecap="round" stroke-linejoin="round"/>
<path d="M527.074 192.524L536.16 190.27L529.639 189.167L528.061 190.35L527.074 192.524Z" fill="#00D9EE" stroke="black" stroke-width="2" stroke-linecap="round" stroke-linejoin="round"/>
<path d="M528.059 133.116L544.055 142.985L543.068 147.328L549.386 151.868L548.4 154.831C548.4 154.831 551.759 157.395 551.66 157.354C551.561 157.314 548.4 164.7 548.4 164.7L550.57 166.672L543.66 184.829L541.687 184.04L538.723 190.552L534.97 188.974L533.983 191.144L528.059 188.15L525.692 191.735L509.302 182.458L511.275 178.312L505.351 174.955L506.732 172.194L501.992 169.231L505.943 160.545L502.584 158.771L509.889 139.825L513.01 141.071L515.221 134.891L518.58 136.271L519.764 133.111L526.476 135.872L528.055 133.111L528.059 133.116Z" fill="white" stroke="black" stroke-width="2" stroke-linecap="round" stroke-linejoin="round"/>
<path d="M531.813 191.932L538.723 190.548L541.687 184.035L534.772 185.416L531.813 191.932Z" fill="#00D9EE" stroke="black" stroke-width="2" stroke-linecap="round" stroke-linejoin="round"/>
<path d="M502.985 141.206L509.707 140.255L506.106 142.452L502.985 141.206Z" fill="white" stroke="black" stroke-width="2" stroke-linecap="round" stroke-linejoin="round"/>
<path d="M508.317 136.276L518.581 135.483L511.868 137.262L508.317 136.276Z" fill="white" stroke="black" stroke-width="2" stroke-linecap="round" stroke-linejoin="round"/>
<path d="M512.852 134.496L519.766 133.116L526.479 135.68L519.569 137.262L512.852 134.496Z" fill="white" stroke="black" stroke-width="2" stroke-linecap="round" stroke-linejoin="round"/>
<path d="M521.149 134.496L528.059 133.116L544.054 142.985L537.144 144.366L521.149 134.496Z" fill="white" stroke="black" stroke-width="2" stroke-linecap="round" stroke-linejoin="round"/>
<path d="M521.149 134.496L537.144 144.366L536.158 148.709L542.476 153.249L541.49 156.211C541.49 156.211 544.848 158.694 544.75 158.735C544.651 158.775 541.49 166.081 541.49 166.081L543.66 168.053L536.75 186.209L534.777 185.42L531.813 191.932L528.059 190.355L527.073 192.524L521.149 189.53L518.782 193.116L502.392 183.838L504.365 179.692L498.441 176.335L499.822 173.574L495.082 170.612L499.033 161.926L495.674 160.151L502.979 141.206L506.1 142.452L508.311 136.271L511.867 137.257L512.853 134.496L519.566 137.257L521.145 134.496H521.149Z" fill="#CFF501" stroke="black" stroke-width="2" stroke-linecap="round" stroke-linejoin="round"/>
<path d="M537.143 144.365L536.156 148.708L543.067 147.328L544.053 142.985L537.143 144.365Z" fill="#00D9EE" stroke="black" stroke-width="2" stroke-linecap="round" stroke-linejoin="round"/>
<path d="M543.067 147.328L549.385 151.864L542.475 153.249L536.156 148.709L543.067 147.328Z" fill="white" stroke="black" stroke-width="2" stroke-linecap="round" stroke-linejoin="round"/>
<path d="M548.399 154.826L549.386 151.864L542.476 153.249L541.485 156.207L548.399 154.826Z" fill="#00D9EE" stroke="black" stroke-width="2" stroke-linecap="round" stroke-linejoin="round"/>
<path d="M541.485 156.207L544.745 158.73L551.655 157.35L548.399 154.826L541.485 156.207Z" fill="white" stroke="black" stroke-width="2" stroke-linecap="round" stroke-linejoin="round"/>
<path d="M544.745 158.73L541.485 166.076L548.399 164.696L551.655 157.35L544.745 158.73Z" fill="#00D9EE" stroke="black" stroke-width="2" stroke-linecap="round" stroke-linejoin="round"/>
<path d="M541.485 166.076L543.659 168.048L550.57 166.668L548.399 164.696L541.485 166.076Z" fill="white" stroke="black" stroke-width="2" stroke-linecap="round" stroke-linejoin="round"/>
<path d="M543.66 168.048L550.571 166.668L543.66 184.824L536.75 186.209L543.66 168.048Z" fill="#00D9EE" stroke="black" stroke-width="2" stroke-linecap="round" stroke-linejoin="round"/>
<path d="M383.859 387.632L388.003 386.942L386.72 384.576L384.353 385.562L383.859 387.632Z" fill="#00D9EE" stroke="black" stroke-width="2" stroke-linecap="round" stroke-linejoin="round"/>
<path d="M388 387.337L392.538 386.212L389.282 385.661L388.493 386.252L388 387.337Z" fill="#00D9EE" stroke="black" stroke-width="2" stroke-linecap="round" stroke-linejoin="round"/>
<path d="M388.495 357.662L396.486 362.592L395.993 364.761L399.149 367.029L398.656 368.508C398.656 368.508 400.333 369.79 400.284 369.767C400.235 369.745 398.656 373.434 398.656 373.434L399.741 374.42L396.289 383.491L395.302 383.097L393.822 386.351L391.948 385.562L391.454 386.646L388.495 385.149L387.311 386.942L379.123 382.308L380.109 380.237L377.15 378.561L377.84 377.181L375.473 375.702L377.446 371.363L375.769 370.476L379.419 361.01L380.979 361.633L382.082 358.545L383.76 359.235L384.351 357.657L387.706 359.038L388.495 357.657V357.662Z" fill="white" stroke="black" stroke-width="2" stroke-linecap="round" stroke-linejoin="round"/>
<path d="M390.367 387.041L393.82 386.351L395.295 383.097L391.847 383.787L390.367 387.041Z" fill="#00D9EE" stroke="black" stroke-width="2" stroke-linecap="round" stroke-linejoin="round"/>
<path d="M375.965 361.705L379.324 361.229L377.525 362.328L375.965 361.705Z" fill="white" stroke="black" stroke-width="2" stroke-linecap="round" stroke-linejoin="round"/>
<path d="M378.629 359.239L383.759 358.845L380.405 359.732L378.629 359.239Z" fill="white" stroke="black" stroke-width="2" stroke-linecap="round" stroke-linejoin="round"/>
<path d="M380.898 358.352L384.351 357.662L387.705 358.944L384.253 359.732L380.898 358.352Z" fill="white" stroke="black" stroke-width="2" stroke-linecap="round" stroke-linejoin="round"/>
<path d="M385.043 358.352L388.496 357.662L396.482 362.592L393.034 363.282L385.043 358.352Z" fill="white" stroke="black" stroke-width="2" stroke-linecap="round" stroke-linejoin="round"/>
<path d="M385.042 358.352L393.033 363.282L392.539 365.451L395.696 367.719L395.203 369.198C395.203 369.198 396.88 370.44 396.831 370.458C396.782 370.476 395.203 374.124 395.203 374.124L396.288 375.11L392.835 384.181L391.849 383.787L390.369 387.041L388.495 386.252L388.001 387.337L385.042 385.84L383.858 387.633L375.67 382.998L376.656 380.928L373.697 379.251L374.387 377.871L372.02 376.392L373.993 372.053L372.316 371.166L375.966 361.7L377.526 362.323L378.629 359.235L380.405 359.728L380.898 358.348L384.253 359.728L385.042 358.348V358.352Z" fill="#CFF501" stroke="black" stroke-width="2" stroke-linecap="round" stroke-linejoin="round"/>
<path d="M393.032 363.282L392.539 365.451L395.987 364.761L396.481 362.592L393.032 363.282Z" fill="#00D9EE" stroke="black" stroke-width="2" stroke-linecap="round" stroke-linejoin="round"/>
<path d="M395.987 364.761L399.144 367.029L395.692 367.719L392.539 365.451L395.987 364.761Z" fill="white" stroke="black" stroke-width="2" stroke-linecap="round" stroke-linejoin="round"/>
<path d="M398.651 368.508L399.145 367.029L395.692 367.719L395.203 369.198L398.651 368.508Z" fill="#00D9EE" stroke="black" stroke-width="2" stroke-linecap="round" stroke-linejoin="round"/>
<path d="M395.203 369.198L396.831 370.458L400.279 369.767L398.651 368.508L395.203 369.198Z" fill="white" stroke="black" stroke-width="2" stroke-linecap="round" stroke-linejoin="round"/>
<path d="M396.831 370.458L395.203 374.124L398.651 373.434L400.279 369.767L396.831 370.458Z" fill="#00D9EE" stroke="black" stroke-width="2" stroke-linecap="round" stroke-linejoin="round"/>
<path d="M395.203 374.124L396.284 375.11L399.737 374.42L398.651 373.434L395.203 374.124Z" fill="white" stroke="black" stroke-width="2" stroke-linecap="round" stroke-linejoin="round"/>
<path d="M396.284 375.11L399.737 374.42L396.284 383.491L392.836 384.182L396.284 375.11Z" fill="#00D9EE" stroke="black" stroke-width="2" stroke-linecap="round" stroke-linejoin="round"/>
<path d="M379.598 249.853L371.562 245.532L388.136 207.516L396.172 211.837L379.598 249.853Z" fill="#CFF501" stroke="black" stroke-width="2.07" stroke-linecap="round" stroke-linejoin="round"/>
<path d="M405.454 263.747L397.418 259.426L413.992 221.41L422.028 225.731L405.454 263.747Z" fill="#CFF501" stroke="black" stroke-width="2.07" stroke-linecap="round" stroke-linejoin="round"/>
<path d="M398.532 280.612L394.644 289.536L360.402 271.133L364.295 262.214L398.532 280.612Z" fill="#CFF501" stroke="black" stroke-width="2.07" stroke-linecap="round" stroke-linejoin="round"/>
<path d="M408.571 280.334L404.683 289.258L396.594 284.906L400.482 275.987L408.571 280.334Z" fill="#CFF501" stroke="black" stroke-width="2.07" stroke-linecap="round" stroke-linejoin="round"/>
<path d="M366.298 257.615L362.406 266.534L354.316 262.187L358.204 253.268L366.298 257.615Z" fill="#CFF501" stroke="black" stroke-width="2.07" stroke-linecap="round" stroke-linejoin="round"/>
</g>
<defs>
<clipPath id="clip0_12_9720">
<rect width="1039" height="571" fill="white" transform="translate(-82 -7.16895)"/>
</clipPath>
</defs>
</svg>
