<svg width="774" height="754" viewBox="0 0 774 754" fill="none" xmlns="http://www.w3.org/2000/svg">
<path d="M694.416 311.171C694.416 311.171 708.244 343.87 766.266 356.098C824.288 368.327 839.026 364.649 839.026 364.649C839.026 364.649 850.555 417.851 824.217 456.093C824.217 456.093 737.194 432.244 724.964 431.523C712.733 430.801 681.607 446.759 667.667 444.158C653.727 441.558 637.18 339.196 637.18 339.196C637.18 339.196 620.521 304.78 632.048 303.272C643.574 301.764 694.417 311.174 694.417 311.174L694.416 311.171Z" fill="black"/>
<path d="M478.77 271.414L478.736 271.451L479.179 271.077C478.869 271.554 478.869 271.554 478.869 271.554L478.869 271.554L478.873 271.557L478.889 271.567L478.955 271.611C479.015 271.651 479.103 271.71 479.218 271.789C479.447 271.946 479.78 272.178 480.192 272.476C481.015 273.072 482.147 273.928 483.38 274.967C485.868 277.063 488.681 279.831 490.252 282.656C491.035 284.062 491.471 285.414 491.461 286.66C491.452 287.872 491.022 289.059 489.922 290.189C487.643 292.531 482.475 294.633 472.377 295.634C462.134 296.649 446.518 300.867 428.371 307.151C410.201 313.443 389.421 321.83 368.82 331.228C348.219 340.625 327.783 351.038 310.304 361.382C292.843 371.716 278.267 382.019 269.44 391.207C252.136 409.218 231.584 417.851 212.361 416.378C193.166 414.907 175.103 403.345 162.758 380.565C150.409 357.781 146.262 326.017 159.924 295.516C173.578 265.034 205.096 235.651 264.387 217.789C323.566 199.96 377.136 213.353 415.957 231.242C435.365 240.186 451.069 250.246 461.921 258.07C467.346 261.981 471.555 265.332 474.406 267.703C475.832 268.888 476.917 269.828 477.645 270.47C478.009 270.791 478.283 271.038 478.466 271.204C478.557 271.287 478.625 271.349 478.671 271.391L478.721 271.437L478.733 271.448L478.736 271.451C478.736 271.451 478.736 271.451 478.77 271.414Z" stroke="black" stroke-width="2"/>
<path d="M531.316 225.546L531.332 225.618L519.014 260.981L488.609 256.197C488.455 256.042 488.227 255.812 487.928 255.508C487.329 254.899 486.448 253.995 485.323 252.82C483.072 250.469 479.846 247.032 475.945 242.69C468.144 234.006 457.651 221.707 446.885 207.25C425.322 178.295 402.783 140.84 398.412 106.482C394.042 72.1321 405.016 45.6475 420.828 29.9633C436.682 14.2369 457.247 9.45597 472.294 18.0515C487.602 26.7958 497.066 41.1404 502.313 55.0861C507.572 69.0652 508.534 82.4762 507.012 89.222C506.788 90.2182 506.713 91.6142 506.741 93.2966C506.77 94.9969 506.907 97.0562 507.134 99.4116C507.587 104.123 508.408 110.07 509.478 116.792C511.619 130.24 514.769 146.848 518.015 163.007C521.261 179.168 524.606 194.89 527.14 206.572C528.406 212.412 529.47 217.243 530.217 220.615C530.591 222.3 530.885 223.621 531.086 224.52C531.187 224.969 531.264 225.314 531.316 225.546Z" stroke="black" stroke-width="2"/>
<path d="M527.561 216.795L462.2 284.948C454.795 292.669 455.032 304.947 462.73 312.372L622.461 466.429C630.159 473.854 642.402 473.614 649.807 465.892L715.169 397.74C722.574 390.019 722.336 377.741 714.638 370.316L554.907 216.259C547.209 208.834 534.966 209.074 527.561 216.795Z" fill="white" stroke="black" stroke-width="2" stroke-linecap="round" stroke-linejoin="round"/>
<path d="M528.102 222.517L523.695 227.113C522.463 228.396 521.996 230.235 522.463 231.95L524.714 240.212C525.183 241.93 524.714 243.766 523.482 245.049L489.461 280.517C488.229 281.8 486.416 282.339 484.686 281.937L476.366 280.003C474.636 279.601 472.823 280.14 471.591 281.423L467.891 285.282C460.673 292.805 460.905 304.77 468.409 312.008L622.971 461.045C630.473 468.281 642.407 468.047 649.627 460.522L709.833 397.76C717.051 390.237 716.819 378.272 709.315 371.034L554.753 221.997C547.251 214.761 535.317 214.995 528.097 222.52L528.102 222.517Z" stroke="#182341" stroke-width="1.59" stroke-miterlimit="10"/>
<path d="M510.681 243.753L498.303 256.66C497.522 257.475 497.547 258.771 498.359 259.554C499.171 260.337 500.463 260.312 501.245 259.497L513.623 246.59C514.404 245.776 514.379 244.48 513.567 243.697C512.755 242.913 511.463 242.938 510.681 243.753Z" stroke="#182341" stroke-width="1.59" stroke-miterlimit="10"/>
<path d="M491.304 270.144C492.366 269.45 492.665 268.024 491.973 266.959C491.28 265.895 489.858 265.595 488.796 266.289C487.734 266.984 487.435 268.41 488.127 269.474C488.82 270.539 490.242 270.839 491.304 270.144Z" stroke="#182341" stroke-width="1.59" stroke-miterlimit="10"/>
<path d="M558.77 255.515L501.939 314.772C496.528 320.414 496.702 329.386 502.327 334.811L594.514 423.724C600.139 429.15 609.086 428.974 614.496 423.332L671.327 364.075C676.738 358.433 676.564 349.461 670.939 344.036L578.752 255.123C573.127 249.697 564.18 249.873 558.77 255.515Z" fill="#00D9EE"/>
<path d="M678.165 386.535L635.37 431.158C631.462 435.232 631.587 441.71 635.649 445.627C639.71 449.544 646.17 449.417 650.077 445.343L692.872 400.72C696.78 396.646 696.655 390.168 692.593 386.25C688.532 382.333 682.072 382.461 678.165 386.535Z" fill="#CFF501"/>
<path d="M483.724 311.838L529.007 264.632" stroke="#182341" stroke-width="1.66" stroke-linecap="round" stroke-linejoin="round"/>
<path d="M486.038 313.045L481.242 314.432L482.439 309.575L486.038 313.045Z" fill="#182341"/>
<path d="M591.859 436.862C591.859 436.862 580.18 441.381 581.29 451.855C582.399 462.328 601.885 465.138 610.599 461.456C617.45 458.562 636.481 442.099 636.824 436.108C637.168 430.118 634.763 423.861 620.876 432.34C606.989 440.819 596.266 440.964 596.266 440.964L591.856 436.857L591.859 436.862Z" fill="black"/>
<path d="M591.269 442.425C591.269 442.425 591.956 442.102 602.042 440.142C612.129 438.183 620.879 432.341 620.879 432.341" stroke="#00D9EE" stroke-width="2" stroke-linecap="round" stroke-linejoin="round"/>
<path d="M554.141 400.472C554.141 400.472 543.756 404.679 541.338 408.119C538.92 411.559 537.688 417.427 538.92 419.875C540.152 422.324 553.731 436.044 558.871 438.374C564.011 440.703 578.894 441.953 584.528 436.753C590.162 431.553 583.666 424.695 579.775 422.8C578.191 422.028 574.857 420.231 574.857 420.231L554.14 400.465L554.141 400.472Z" fill="black"/>
<path d="M555.463 412.158L574.855 420.242C574.855 420.242 580.491 423 581.464 423.842C582.438 424.684 588.486 428.442 586.175 434.592" stroke="#00D9EE" stroke-width="2" stroke-linecap="round" stroke-linejoin="round"/>
<path d="M558.159 433.972C557.878 434.597 556.006 428.095 559.207 422.631" stroke="#00D9EE" stroke-width="2" stroke-linecap="round" stroke-linejoin="round"/>
<path d="M519.345 366.913C519.345 366.913 507.629 375.812 504.392 383.786C501.156 391.76 507.915 398.891 511.983 400.399C516.051 401.906 522.507 401.299 531.505 397.945C540.502 394.59 545.43 387.752 542.306 381.842C539.182 375.931 528.507 375.747 528.507 375.747L519.345 366.913Z" fill="black"/>
<path d="M512.362 380.369C512.362 380.369 518.493 376.579 528.508 375.748C528.508 375.748 538.529 375.976 541.739 380.937" stroke="#00D9EE" stroke-width="2" stroke-linecap="round" stroke-linejoin="round"/>
<path d="M511.105 396.043C511.105 396.043 509.075 392.135 511.41 386.927" stroke="#00D9EE" stroke-width="2" stroke-linecap="round" stroke-linejoin="round"/>
<path d="M484.424 333.234C484.424 333.234 474.697 338.899 471.122 344.491C467.547 350.083 476.002 357.308 482.256 356.783C488.51 356.257 503.547 351.675 503.547 351.675L484.426 333.237L484.424 333.234Z" fill="black"/>
<path d="M526.413 392.062C526.413 392.062 523.118 384.038 527.026 381.963C530.933 379.888 537.618 380.735 537.618 380.735" stroke="#00D9EE" stroke-width="2" stroke-linecap="round" stroke-linejoin="round"/>
<path d="M566.8 433.436C566.8 433.436 566.32 425.731 569.067 424.528C571.814 423.324 581.046 424.776 584.008 428.493" stroke="#00D9EE" stroke-width="2" stroke-linecap="round" stroke-linejoin="round"/>
<path d="M608.369 445.711C608.369 445.711 613.069 452.209 617.282 454.615" stroke="#00D9EE" stroke-width="2" stroke-linecap="round" stroke-linejoin="round"/>
<path d="M624.366 446.142C624.366 446.142 618.448 442.012 620.715 437.637C622.982 433.262 630.268 430.149 630.268 430.149" stroke="#00D9EE" stroke-width="2" stroke-linecap="round" stroke-linejoin="round"/>
<path d="M588.686 244.196C588.686 244.196 583.023 246.186 591.731 261.2C600.438 276.215 617.198 281.002 621.018 281.838C624.837 282.674 641.094 297.799 645.5 303.701C650.124 309.894 687.84 334.044 695.481 346.195C708.864 367.47 715.349 334.567 715.349 334.567C715.349 334.567 699.016 316.226 693.395 307.619C687.773 299.011 675.377 285.191 665.825 279.259C656.274 273.326 651.435 271.627 641.37 263.825C631.306 256.023 627.502 258.294 615.772 254.502C604.042 250.711 592.871 243.336 588.682 244.195L588.686 244.196Z" fill="black"/>
<path d="M623.695 278.384C623.695 278.384 626.378 267.57 628.682 265.152" stroke="#00D9EE" stroke-width="2" stroke-linecap="round" stroke-linejoin="round"/>
<path d="M645.558 297.327C645.558 297.327 654.539 287.691 656.64 286.57" stroke="#00D9EE" stroke-width="2" stroke-linecap="round" stroke-linejoin="round"/>
<path d="M653.891 300.572C653.891 300.572 668.727 299.183 673.93 299.392" stroke="#00D9EE" stroke-width="2" stroke-linecap="round" stroke-linejoin="round"/>
<path d="M714.785 421.142C714.785 421.142 714.44 409.822 714.872 403.834" stroke="#00D9EE" stroke-width="2" stroke-linecap="round" stroke-linejoin="round"/>
<path d="M720.211 374.38L722.208 364.599" stroke="#00D9EE" stroke-width="2" stroke-linecap="round" stroke-linejoin="round"/>
<path d="M722.501 358.086C722.501 358.086 722.181 345.833 715.527 335.601C708.874 325.37 700.83 317.837 694.208 308.852C687.586 299.866 680.664 291.441 673.987 285.615" stroke="#00D9EE" stroke-width="2" stroke-linecap="round" stroke-linejoin="round"/>
<path d="M668.596 341.841C668.596 341.841 600.521 319.337 538.943 243.536C477.364 167.735 468.155 108.669 507.408 63.107C546.662 17.545 586.323 30.8252 593.079 59.2295C599.835 87.6339 554.344 134.647 560.56 184.15C566.776 233.652 618.869 293.892 618.869 293.892L668.598 341.843L668.596 341.841Z" fill="white" stroke="black" stroke-width="2" stroke-linecap="round" stroke-linejoin="round"/>
<path d="M191.22 147.166L201.635 217.267C202.523 223.243 198.369 228.868 192.407 229.764L61.3901 249.435C55.4251 250.332 49.8203 246.172 48.9322 240.196L38.5177 170.094C37.6297 164.118 41.7805 158.494 47.7456 157.598L178.761 137.924C184.726 137.027 190.331 141.187 191.219 147.163L191.22 147.166Z" fill="white" stroke="black" stroke-width="2" stroke-linecap="round" stroke-linejoin="round"/>
<path d="M191.184 147.155L194.064 166.528L41.3872 189.451L38.5099 170.076C37.622 164.102 41.7721 158.479 47.7362 157.583L178.73 137.913C184.694 137.017 190.298 141.176 191.186 147.151L191.184 147.155Z" fill="white" stroke="black" stroke-width="2" stroke-linecap="round" stroke-linejoin="round"/>
<path d="M164.285 133.258L165.282 139.952L151.545 142.014L150.549 135.32C150.463 134.724 150.876 134.16 151.473 134.072L163.042 132.336C163.638 132.245 164.199 132.662 164.287 133.26L164.285 133.258Z" fill="#CFF501" stroke="black" stroke-width="2" stroke-linecap="round" stroke-linejoin="round"/>
<path d="M78.6656 160.462C80.4544 160.192 82.1353 161.441 82.4034 163.234L83.731 172.178C83.9991 173.971 82.7518 175.657 80.963 175.928L59.6017 179.135C57.8155 179.404 56.132 178.156 55.8638 176.363L54.5362 167.419C54.2681 165.626 55.5155 163.94 57.3043 163.669L78.6656 160.462Z" fill="white" stroke="black" stroke-width="2" stroke-linecap="round" stroke-linejoin="round"/>
<path d="M81.0434 176.472L59.6819 179.679C57.5892 179.993 55.6338 178.545 55.3227 176.447L53.9951 167.502C53.6839 165.405 55.1335 163.442 57.2236 163.13L78.585 159.922C80.6764 159.606 82.6331 161.057 82.9443 163.155L84.2719 172.099C84.583 174.197 83.1361 176.158 81.0434 176.472ZM57.3846 164.214C55.8917 164.438 54.856 165.84 55.0796 167.339L56.4072 176.283C56.6295 177.78 58.0267 178.817 59.5223 178.591L80.8838 175.384C82.3767 175.16 83.415 173.757 83.1927 172.26L81.8651 163.316C81.6415 161.817 80.2443 160.78 78.7514 161.004L57.39 164.211L57.3846 164.214Z" fill="#00D9EE" stroke="black" stroke-width="2" stroke-linecap="round" stroke-linejoin="round"/>
<path d="M71.9828 164.447L64.8583 174.094C64.6206 174.414 64.1667 174.483 63.8448 174.247C63.5215 174.007 63.4542 173.555 63.6933 173.231L70.8205 163.583C71.0609 163.261 71.5108 163.19 71.834 163.43C72.1546 163.671 72.2219 164.123 71.9855 164.446L71.9828 164.447Z" fill="#CFF501" stroke="black" stroke-width="2" stroke-linecap="round" stroke-linejoin="round"/>
<path d="M74.5732 166.368L67.4487 176.015C67.2096 176.339 66.7584 176.407 66.4352 176.168C66.1119 175.928 66.0446 175.476 66.2837 175.152L73.4109 165.503C73.6486 165.183 74.1025 165.114 74.4244 165.351C74.745 165.591 74.8123 166.044 74.5759 166.367L74.5732 166.368Z" fill="#CFF501" stroke="black" stroke-width="2" stroke-linecap="round" stroke-linejoin="round"/>
<path d="M40.6934 184.584L40.3714 182.408C36.2167 183.033 33.3467 186.919 33.9644 191.085C34.5823 195.237 38.4584 198.122 42.6104 197.498L42.2897 195.325C39.3404 195.768 36.5715 193.715 36.1355 190.76C35.6942 187.801 37.7441 185.028 40.6934 184.584Z" fill="#CFF501" stroke="black" stroke-width="2" stroke-linecap="round" stroke-linejoin="round"/>
<path d="M96.9692 165.633C97.3309 168.065 95.6557 170.332 93.2292 170.697C90.8028 171.062 88.5424 169.385 88.1833 166.951C87.8215 164.519 89.4941 162.253 91.9205 161.888C94.347 161.523 96.6074 163.201 96.9679 165.63L96.9692 165.633Z" fill="#CFF501" stroke="black" stroke-width="2" stroke-linecap="round" stroke-linejoin="round"/>
<path d="M108.632 163.891C108.994 166.323 107.318 168.591 104.892 168.956C102.466 169.321 100.205 167.643 99.8434 165.211C99.4816 162.779 101.157 160.511 103.585 160.149C106.011 159.785 108.271 161.462 108.632 163.891Z" fill="#00D9EE" stroke="black" stroke-width="2" stroke-linecap="round" stroke-linejoin="round"/>
<path d="M116.661 217.789L57.876 226.616C56.4999 226.82 55.219 225.874 55.0149 224.492C54.8094 223.114 55.7614 221.829 57.1362 221.622L115.919 212.797C117.294 212.59 118.577 213.542 118.779 214.918C118.985 216.298 118.033 217.583 116.657 217.788L116.661 217.789Z" fill="black" stroke="black" stroke-width="2" stroke-linecap="round" stroke-linejoin="round"/>
<path d="M60.0184 221.194L67.8654 273.957L120.892 265.996L113.045 213.233L60.0184 221.194Z" fill="#00D9EE" stroke="black" stroke-width="2" stroke-linecap="round" stroke-linejoin="round"/>
<path d="M64.0966 220.582L71.3118 269.097L116.176 262.361L108.961 213.846L64.0966 220.582Z" fill="white" stroke="black" stroke-width="2" stroke-linecap="round" stroke-linejoin="round"/>
<path d="M104.385 237.991C105.58 246.035 100.04 253.536 92.0148 254.741C83.9895 255.945 76.5129 250.402 75.3172 242.355C74.1214 234.308 79.6596 226.811 87.6876 225.605C95.7129 224.401 103.19 229.944 104.385 237.991Z" fill="#CFF501" stroke="black" stroke-width="2" stroke-linecap="round" stroke-linejoin="round"/>
<path d="M84.9378 239.812C84.4368 239.887 83.9695 239.541 83.8937 239.036L83.1604 234.102C83.0859 233.6 83.4344 233.13 83.9354 233.055C84.4391 232.979 84.9037 233.326 84.9795 233.831L85.7128 238.765C85.7873 239.267 85.4415 239.736 84.9378 239.812Z" fill="white" stroke="black" stroke-width="2" stroke-linecap="round" stroke-linejoin="round"/>
<path d="M94.4355 238.393C93.9345 238.468 93.4672 238.122 93.3927 237.62L92.6594 232.686C92.5836 232.181 92.9294 231.712 93.4304 231.637C93.9314 231.562 94.4014 231.907 94.4745 232.413L95.2078 237.347C95.2823 237.849 94.9365 238.318 94.4355 238.393Z" fill="white" stroke="black" stroke-width="2" stroke-linecap="round" stroke-linejoin="round"/>
<path d="M91.0085 247.994C87.395 248.535 83.8654 247.002 81.7947 243.989C81.5051 243.571 81.6121 242.998 82.0309 242.71C82.4496 242.423 83.0208 242.529 83.309 242.945C85.0056 245.411 87.7834 246.619 90.7408 246.174C93.6982 245.73 96.0052 243.759 96.91 240.901C97.0622 240.416 97.5808 240.15 98.0644 240.302C98.548 240.454 98.8158 240.972 98.6596 241.456C97.5561 244.944 94.6246 247.451 91.0111 247.993L91.0085 247.994Z" fill="white" stroke="black" stroke-width="2" stroke-linecap="round" stroke-linejoin="round"/>
<path d="M183.41 184.188C186.041 201.896 173.852 218.402 156.183 221.056C138.516 223.709 122.061 211.505 119.431 193.797C116.799 176.086 128.991 159.582 146.658 156.929C164.325 154.276 180.78 166.48 183.41 184.188Z" fill="#CFF501" stroke="black" stroke-width="2" stroke-linecap="round" stroke-linejoin="round"/>
<path d="M172.951 185.757C174.722 197.674 166.519 208.785 154.627 210.57C142.734 212.355 131.66 204.14 129.892 192.223C128.12 180.306 136.326 169.194 148.215 167.41C160.107 165.623 171.182 173.84 172.951 185.757Z" fill="white" stroke="black" stroke-width="2" stroke-linecap="round" stroke-linejoin="round"/>
<path d="M161.97 194.074L142.814 196.95C139.223 197.491 135.875 195.007 135.339 191.408C134.806 187.808 137.284 184.45 140.875 183.91L160.031 181.033C163.623 180.496 166.97 182.977 167.503 186.577C168.039 190.176 165.558 193.535 161.97 194.074Z" fill="white" stroke="black" stroke-width="2" stroke-linecap="round" stroke-linejoin="round"/>
<path d="M156.412 188.242C156.823 191.005 154.921 193.581 152.164 193.996C149.407 194.41 146.838 192.503 146.428 189.742C146.017 186.978 147.922 184.401 150.676 183.988C153.433 183.574 156.001 185.478 156.414 188.244L156.412 188.242Z" fill="white" stroke="black" stroke-width="2" stroke-linecap="round" stroke-linejoin="round"/>
<g style="mix-blend-mode:multiply">
<path d="M154.333 188.553C154.572 190.168 153.462 191.672 151.854 191.912C150.243 192.153 148.744 191.042 148.505 189.427C148.266 187.812 149.376 186.309 150.986 186.067C152.597 185.826 154.096 186.937 154.334 188.549L154.333 188.553Z" fill="white"/>
<path d="M154.333 188.553C154.572 190.168 153.462 191.672 151.854 191.912C150.243 192.153 148.744 191.042 148.505 189.427C148.266 187.812 149.376 186.309 150.986 186.067C152.597 185.826 154.096 186.937 154.334 188.549L154.333 188.553Z" stroke="black" stroke-width="2" stroke-linecap="round" stroke-linejoin="round"/>
</g>
<path d="M158.234 186.825C158.492 188.57 157.291 190.194 155.551 190.457C153.81 190.718 152.191 189.515 151.93 187.771C151.672 186.027 152.872 184.4 154.613 184.139C156.354 183.879 157.975 185.08 158.234 186.825Z" fill="white" stroke="black" stroke-width="2" stroke-linecap="round" stroke-linejoin="round"/>
<path d="M155.517 216.572C140.345 218.85 126.161 208.332 123.9 193.122C121.641 177.914 132.146 163.686 147.32 161.411C162.494 159.131 176.676 169.651 178.935 184.858C181.194 200.066 170.688 214.291 155.517 216.572ZM147.441 162.225C132.716 164.434 122.521 178.244 124.715 193.002C126.908 207.76 140.668 217.968 155.393 215.759C170.116 213.547 180.314 199.742 178.119 184.982C175.929 170.223 162.166 160.016 147.438 162.227L147.441 162.225Z" fill="#00D9EE" stroke="black" stroke-width="2" stroke-linecap="round" stroke-linejoin="round"/>
<path d="M37.4184 188.761C37.0921 188.543 36.7423 188.373 36.3719 188.236C35.7017 187.977 34.9651 187.857 34.1807 187.879C32.8997 187.889 31.4981 188.248 30.0361 188.952C26.7433 190.537 23.353 193.746 20.7363 197.748C18.3744 201.369 16.868 205.268 16.4961 208.721C16.0972 212.443 17.0591 215.27 19.1984 216.674C21.1052 217.924 23.7267 217.857 26.5834 216.482C29.8762 214.897 33.2665 211.688 35.8793 207.677C38.0796 204.307 39.5425 200.698 40.0274 197.433C39.2673 197.284 38.5345 197.013 37.8713 196.651C37.5032 199.711 36.132 203.186 34.0082 206.453C31.6053 210.127 28.5511 213.041 25.6136 214.455C23.492 215.477 21.6496 215.593 20.4248 214.785C19.0385 213.882 18.4216 211.762 18.7227 208.957C19.0594 205.853 20.4398 202.307 22.61 198.978C25.0129 195.304 28.0672 192.39 31.0046 190.976C32.0493 190.473 33.0304 190.183 33.9049 190.121C34.7685 190.07 35.526 190.22 36.1327 190.602C36.1565 190.617 36.1684 190.628 36.1909 190.64C37.1291 191.251 37.7201 192.431 37.9054 194.002C38.5583 194.584 39.3486 195.01 40.2134 195.218C40.2356 192.233 39.259 189.97 37.4224 188.763L37.4184 188.761Z" fill="#00D9EE" stroke="black" stroke-width="2" stroke-linecap="round" stroke-linejoin="round"/>
<path d="M193.889 138.169C193.31 138.448 192.596 138.326 192.14 137.829C191.582 137.218 191.626 136.271 192.236 135.711L199.891 128.7C200.502 128.144 201.446 128.184 202 128.797C202.558 129.408 202.514 130.355 201.903 130.912L194.248 137.923C194.137 138.023 194.014 138.105 193.885 138.167L193.889 138.169Z" fill="black"/>
<path d="M188.484 132.234C188.118 132.41 187.683 132.437 187.277 132.274C186.513 131.964 186.141 131.091 186.45 130.324L190.48 120.313C190.789 119.547 191.661 119.173 192.425 119.483C193.192 119.791 193.561 120.666 193.252 121.432L189.222 131.444C189.077 131.805 188.807 132.078 188.484 132.234Z" fill="black"/>
<path d="M209.6 140.982C209.53 141.016 209.458 141.044 209.383 141.067L199.077 144.186C198.287 144.424 197.454 143.979 197.218 143.187C196.981 142.394 197.43 141.561 198.217 141.322L208.522 138.203C209.312 137.965 210.145 138.41 210.382 139.202C210.598 139.918 210.25 140.673 209.599 140.986L209.6 140.982Z" fill="black"/>
<path d="M666.943 188.066C666.943 188.066 667.459 192.44 669.651 195.485C672.622 199.609 676.324 201.24 682.385 201.699C682.344 201.695 664.327 200.319 656.133 199.397C647.931 198.472 645.936 193.659 643.878 190.326C641.82 186.994 639.359 185.861 636.828 185.662L666.943 188.066Z" fill="white" stroke="black" stroke-width="2" stroke-linecap="round" stroke-linejoin="round"/>
<path d="M666.938 188.086L669.549 187.768C669.553 187.806 670.027 191.525 671.778 193.958C674.17 197.281 677.097 198.67 682.577 199.089C689.316 199.602 697.648 193.636 702.834 184.583L705.114 185.895C699.135 196.329 689.711 202.277 682.378 201.718C676.321 201.258 672.616 199.629 669.645 195.503C667.453 192.459 666.938 188.086 666.938 188.086Z" fill="white" stroke="black" stroke-width="2" stroke-linecap="round" stroke-linejoin="round"/>
<path d="M621.162 139.845L629.714 177.637C630.918 182.944 636.735 187.615 642.708 188.07L663.533 189.646C666.521 189.871 668.977 189 670.537 187.406C671.684 186.236 676.009 181.846 677.161 180.667C678.712 179.08 679.371 176.781 678.772 174.137L670.221 136.345C669.017 131.037 663.199 126.363 657.226 125.912L636.401 124.336C633.502 124.115 631.102 124.931 629.539 126.434C628.306 127.619 623.947 132.125 622.796 133.293C621.23 134.881 620.561 137.189 621.162 139.845Z" fill="white" stroke="black" stroke-width="2" stroke-linecap="round" stroke-linejoin="round"/>
<path d="M670.531 187.429L675.631 182.158L676.913 180.846C677.346 180.415 677.723 179.955 678.013 179.453C678.602 178.453 678.851 177.373 678.885 176.357C678.932 175.328 678.72 174.377 678.491 173.428L677.833 170.57L676.519 164.853L672.711 147.855L671.442 142.12L670.215 136.363L671.574 142.063L672.89 147.779L676.789 164.739L678.059 170.474L678.693 173.344C678.914 174.291 679.127 175.27 679.066 176.32C679.023 177.36 678.76 178.466 678.147 179.498C677.846 180.012 677.444 180.495 677.008 180.927L675.717 182.233L670.529 187.433L670.531 187.429Z" fill="white" stroke="black" stroke-width="2" stroke-linecap="round" stroke-linejoin="round"/>
<path d="M652.524 142.496L665.491 129.303C663.14 127.414 660.192 126.135 657.209 125.908L636.391 124.333C633.492 124.112 631.094 124.928 629.53 126.431C628.298 127.615 623.941 132.119 622.791 133.287C621.224 134.874 620.556 137.181 621.157 139.836L622.654 146.577L652.526 142.499L652.524 142.496Z" fill="white" stroke="black" stroke-width="2" stroke-linecap="round" stroke-linejoin="round"/>
<path d="M663.54 189.645L642.713 188.069C636.74 187.615 630.92 182.945 629.718 177.636L621.169 139.841C619.965 134.533 623.832 130.599 629.805 131.051L650.631 132.626C656.605 133.081 662.425 137.751 663.626 143.06L672.175 180.855C673.38 186.163 669.512 190.097 663.54 189.645Z" fill="white" stroke="black" stroke-width="2" stroke-linecap="round" stroke-linejoin="round"/>
<path d="M656.755 138.222C658.854 139.908 660.335 142.09 660.817 144.213L669.37 182.007C669.743 183.654 669.486 185.076 668.67 185.907C667.856 186.734 666.327 187.132 664.473 186.991L643.646 185.416C641.258 185.237 638.687 184.167 636.586 182.482C634.483 180.795 633.004 178.611 632.526 176.49L623.973 138.695C623.6 137.049 623.85 135.626 624.666 134.795C625.481 133.964 627.016 133.571 628.87 133.711L649.697 135.287C652.082 135.467 654.654 136.54 656.756 138.225L656.755 138.222Z" fill="white" stroke="black" stroke-width="2" stroke-linecap="round" stroke-linejoin="round"/>
<path d="M656.755 138.222C658.854 139.908 660.335 142.09 660.817 144.213L669.37 182.007C669.743 183.654 669.486 185.076 668.67 185.907C667.856 186.734 666.327 187.132 664.473 186.991L643.646 185.416C641.258 185.237 638.687 184.167 636.586 182.482C634.483 180.795 633.004 178.611 632.526 176.49L623.973 138.695C623.6 137.049 623.85 135.626 624.666 134.795C625.481 133.964 627.016 133.571 628.87 133.711L649.697 135.287C652.082 135.467 654.654 136.54 656.756 138.225L656.755 138.222Z" fill="#CFF501" stroke="black" stroke-width="2" stroke-linecap="round" stroke-linejoin="round"/>
<path d="M668.31 142.935C668.422 143.024 668.501 143.149 668.535 143.302L675.381 173.57C675.487 174.034 675.13 174.591 674.588 174.815C674.044 175.037 673.522 174.84 673.414 174.378L666.567 144.109C666.461 143.645 666.818 143.088 667.36 142.864C667.724 142.716 668.08 142.753 668.307 142.937L668.31 142.935Z" fill="white" stroke="black" stroke-width="2" stroke-linecap="round" stroke-linejoin="round"/>
<path d="M636.5 169.906C636.412 169.55 636.346 169.28 636.302 169.091C636.257 168.907 636.212 168.723 636.169 168.544C636.127 168.365 636.067 168.122 635.997 167.81C635.927 167.498 635.825 167.043 635.694 166.435C635.385 164.966 635.353 163.839 635.596 163.051C635.838 162.261 636.267 161.649 636.884 161.212L637.821 160.525C638.212 160.227 638.417 159.866 638.433 159.441C638.45 159.014 638.42 158.577 638.343 158.132C638.258 157.642 638.152 157.122 638.031 156.572C637.91 156.022 637.779 155.491 637.637 154.972C637.429 154.218 637.001 153.747 636.353 153.557L635.963 151.842C636.908 151.988 637.644 152.341 638.179 152.904C638.712 153.464 639.127 154.311 639.425 155.433C639.488 155.675 639.563 155.984 639.65 156.36C639.74 156.736 639.823 157.104 639.902 157.468C639.98 157.832 640.042 158.115 640.08 158.319C640.285 159.412 640.271 160.269 640.035 160.884C639.802 161.498 639.398 162.012 638.825 162.423L637.823 163.161C637.455 163.432 637.261 163.891 637.234 164.535C637.207 165.178 637.275 165.86 637.437 166.572L638.222 170.037L636.496 169.905L636.5 169.906ZM639.271 170.116L638.864 168.323L642.355 168.588L642.763 170.382L639.271 170.116ZM633.825 158.158C633.654 157.483 633.509 156.909 633.391 156.434C633.273 155.96 633.165 155.464 633.067 154.94C632.855 153.846 632.897 153.046 633.187 152.544C633.477 152.042 634.052 151.782 634.909 151.765L635.301 153.492C635.012 153.545 634.822 153.676 634.729 153.884C634.638 154.094 634.628 154.364 634.697 154.696C634.802 155.24 634.923 155.82 635.064 156.433C635.205 157.046 635.355 157.664 635.521 158.288L633.825 158.158Z" fill="black"/>
<path d="M643.191 166.242L642.663 163.912L645.483 164.125L646.011 166.455L643.191 166.242ZM641.646 159.423L641.118 157.094L643.938 157.307L644.466 159.637L641.646 159.423Z" fill="black"/>
<path d="M647.958 167.651C647.406 165.353 646.916 163.257 646.491 161.363C646.065 159.469 645.661 157.634 645.284 155.856C645.072 154.865 645.125 154.103 645.438 153.566C645.753 153.033 646.313 152.747 647.115 152.713L647.505 154.428C646.978 154.546 646.785 154.947 646.929 155.635C647.196 156.928 647.444 158.097 647.669 159.142C647.893 160.186 648.111 161.181 648.326 162.123C648.539 163.067 648.763 164.019 648.995 164.983C649.228 165.947 649.48 166.988 649.76 168.112C649.931 168.816 650.315 169.273 650.917 169.471L651.305 171.174C650.465 171.02 649.757 170.647 649.181 170.048C648.607 169.451 648.198 168.651 647.958 167.651ZM652.358 171.255L651.968 169.54C652.479 169.43 652.666 169.031 652.535 168.343C652.073 166.082 651.608 163.918 651.14 161.851C650.67 159.783 650.19 157.782 649.702 155.848C649.528 155.158 649.145 154.711 648.562 154.511L648.172 152.795C649 152.954 649.701 153.338 650.279 153.936C650.856 154.539 651.265 155.338 651.51 156.329C651.802 157.534 652.107 158.809 652.417 160.15C652.73 161.491 653.038 162.841 653.338 164.201C653.636 165.558 653.92 166.866 654.187 168.123C654.389 169.128 654.328 169.895 654.006 170.419C653.684 170.945 653.135 171.223 652.363 171.253L652.358 171.255Z" fill="black"/>
<path d="M656.093 168.274C655.54 165.976 655.051 163.88 654.626 161.986C654.2 160.092 653.796 158.257 653.419 156.479C653.207 155.489 653.26 154.726 653.573 154.19C653.888 153.656 654.447 153.37 655.25 153.336L655.64 155.052C655.113 155.169 654.923 155.569 655.066 156.257C655.334 157.55 655.582 158.719 655.806 159.764C656.031 160.808 656.248 161.803 656.464 162.745C656.677 163.689 656.9 164.641 657.133 165.605C657.364 166.566 657.618 167.61 657.897 168.734C658.069 169.438 658.453 169.895 659.055 170.093L659.442 171.796C658.603 171.642 657.897 171.268 657.322 170.668C656.747 170.071 656.338 169.272 656.098 168.271L656.093 168.274ZM660.493 171.878L660.103 170.163C660.614 170.053 660.801 169.654 660.67 168.967C660.208 166.705 659.743 164.541 659.274 162.475C658.805 160.406 658.325 158.405 657.837 156.471C657.663 155.781 657.28 155.335 656.694 155.135L656.304 153.42C657.133 153.579 657.836 153.961 658.411 154.561C658.988 155.163 659.397 155.963 659.642 156.954C659.934 158.159 660.239 159.433 660.552 160.774C660.865 162.114 661.173 163.464 661.472 164.824C661.771 166.182 662.055 167.49 662.319 168.747C662.521 169.753 662.461 170.519 662.138 171.043C661.814 171.571 661.267 171.848 660.495 171.877L660.493 171.878Z" fill="black"/>
<path d="M687.231 93.2718C687.129 93.2648 687.025 93.2551 686.919 93.2495L687.087 90.6276C687.196 90.6347 687.32 90.6447 687.431 90.6545L687.497 90.6595C690.738 90.9893 693.762 92.1115 696.579 94.0409C703.526 98.802 709.205 108.472 713.8 123.275C717.678 135.778 718.761 145.066 719.053 149.924L716.527 153.625C716.527 153.625 716.964 142.343 711.294 124.052C705.087 104.03 697.206 94.2839 687.231 93.2718Z" fill="white" stroke="black" stroke-width="2" stroke-linecap="round" stroke-linejoin="round"/>
<path d="M711.3 124.044C716.968 142.332 716.529 153.606 716.529 153.606L695.203 152.833C695.203 152.833 695.219 152.5 695.205 151.853C695.208 151.735 695.203 151.607 695.204 151.471C695.2 151.337 695.196 151.183 695.191 151.029C695.185 150.869 695.179 150.706 695.17 150.527C695.147 149.994 695.119 149.367 695.066 148.661C695.049 148.424 695.032 148.18 695.012 147.924C694.992 147.667 694.969 147.406 694.945 147.132C694.938 146.993 694.92 146.852 694.905 146.71C694.865 146.287 694.819 145.844 694.765 145.379C694.722 144.991 694.674 144.592 694.625 144.178C694.575 143.763 694.517 143.329 694.454 142.885C694.405 142.526 694.353 142.163 694.294 141.796C694.237 141.421 694.178 141.041 694.116 140.656C694.052 140.265 693.985 139.869 693.914 139.465C693.848 139.055 693.774 138.645 693.694 138.222C693.614 137.799 693.533 137.373 693.447 136.936C693.361 136.5 693.268 136.049 693.174 135.597C693.129 135.372 693.08 135.144 693.027 134.91C692.881 134.223 692.719 133.51 692.555 132.786C692.388 132.056 692.212 131.314 692.016 130.551C691.718 129.36 691.389 128.133 691.032 126.86C690.801 126.051 690.559 125.221 690.309 124.379C690.282 124.282 690.253 124.179 690.221 124.085C690.138 123.813 690.052 123.545 689.969 123.273C689.868 122.953 689.771 122.631 689.669 122.308C689.469 121.674 689.267 121.051 689.061 120.442L689.054 120.426C688.748 119.517 688.437 118.624 688.125 117.758C688.122 117.752 688.123 117.739 688.112 117.731C688.006 117.44 687.901 117.151 687.795 116.867C687.368 115.718 686.932 114.619 686.495 113.554C685.82 111.929 685.129 110.402 684.418 108.971C684.14 108.404 683.86 107.861 683.574 107.332C683.432 107.064 683.287 106.802 683.146 106.548C683.002 106.289 682.853 106.034 682.713 105.783C682.131 104.781 681.542 103.833 680.94 102.943C680.805 102.743 680.674 102.547 680.533 102.349C680.504 102.303 680.472 102.262 680.438 102.219C680.302 102.032 680.166 101.838 680.033 101.657C679.879 101.445 679.732 101.243 679.57 101.042C679.261 100.64 678.947 100.253 678.635 99.8851C678.475 99.6964 678.315 99.5144 678.16 99.3364C678.003 99.1531 677.84 98.9791 677.682 98.8092C677.667 98.7902 677.648 98.7658 677.629 98.7521C676.845 97.9105 676.038 97.1597 675.213 96.4877C675.741 96.1571 676.256 95.8558 676.509 95.7272C680.524 93.6715 683.413 92.9817 687.237 93.2698C697.208 94.2818 705.089 104.025 711.293 124.044L711.3 124.044Z" fill="#00D9EE" stroke="black" stroke-width="2" stroke-linecap="round" stroke-linejoin="round"/>
<path d="M693.045 134.911C692.898 134.224 692.736 133.511 692.572 132.786C692.742 133.508 692.904 134.221 693.045 134.911Z" fill="white" stroke="black" stroke-width="2" stroke-linecap="round" stroke-linejoin="round"/>
<path d="M691.037 126.858C690.806 126.05 690.565 125.219 690.314 124.377C690.569 125.221 690.809 126.048 691.037 126.858Z" fill="white" stroke="black" stroke-width="2" stroke-linecap="round" stroke-linejoin="round"/>
<path d="M689.974 123.271C689.874 122.951 689.776 122.629 689.674 122.306C689.772 122.621 689.875 122.94 689.977 123.263C690.063 123.54 690.148 123.808 690.227 124.083C690.143 123.811 690.058 123.543 689.974 123.271Z" fill="white" stroke="black" stroke-width="2" stroke-linecap="round" stroke-linejoin="round"/>
<path d="M689.059 120.426C688.753 119.517 688.441 118.623 688.13 117.757C688.447 118.621 688.756 119.509 689.059 120.426Z" fill="white" stroke="black" stroke-width="2" stroke-linecap="round" stroke-linejoin="round"/>
<path d="M682.718 105.773C682.135 104.771 681.545 103.822 680.944 102.933C681.551 103.82 682.141 104.768 682.718 105.773Z" fill="white" stroke="black" stroke-width="2" stroke-linecap="round" stroke-linejoin="round"/>
<path d="M686.498 113.549C686.94 114.612 687.371 115.714 687.799 116.863C687.371 115.714 686.935 114.615 686.498 113.549Z" fill="white" stroke="black" stroke-width="2" stroke-linecap="round" stroke-linejoin="round"/>
<path d="M709.821 136.614C705.582 118.632 698.981 107.475 697.065 104.496L698.66 102.157C698.66 102.157 707.201 114.056 712.374 136.006C717.421 157.445 711.884 175.495 705.085 185.905L702.809 184.593C706.423 179.074 715.727 161.705 709.821 136.614Z" fill="white" stroke="black" stroke-width="2" stroke-linecap="round" stroke-linejoin="round"/>
<path d="M698.66 102.156C700.765 105.225 702.517 108.526 704.13 111.878C705.726 115.241 707.136 118.694 708.396 122.199C709.673 125.699 710.731 129.275 711.693 132.873L712.379 135.582C712.604 136.487 712.77 137.403 712.968 138.314C713.393 140.132 713.608 141.988 713.903 143.829C714.31 147.535 714.529 151.269 714.383 154.996C714.224 158.723 713.793 162.437 713.05 166.093C711.542 173.388 708.786 180.474 704.592 186.638C706.656 183.538 708.343 180.199 709.712 176.74C711.08 173.282 712.16 169.706 712.881 166.058C713.608 162.41 714.022 158.703 714.168 154.99C714.298 151.271 714.064 147.554 713.647 143.862C713.359 142.028 713.156 140.176 712.736 138.363C712.542 137.453 712.38 136.538 712.159 135.635L711.484 132.927C710.536 129.332 709.495 125.758 708.234 122.257C706.988 118.752 705.596 115.3 704.017 111.932C702.442 108.565 700.731 105.251 698.66 102.156Z" fill="white" stroke="black" stroke-width="2" stroke-linecap="round" stroke-linejoin="round"/>
<path d="M697.08 104.494L680.54 103.227C679.525 101.52 678.902 100.641 678.902 100.641L677.306 102.977C677.659 103.528 678.172 104.36 678.806 105.463C678.979 105.768 679.162 106.095 679.358 106.442C679.563 106.815 679.782 107.218 680.001 107.64C681.702 110.843 683.864 115.417 685.969 121.264L685.971 121.269C686.153 121.773 686.332 122.281 686.507 122.798C687.769 126.447 688.989 130.555 690.056 135.092C690.15 135.489 690.237 135.879 690.32 136.267C695.684 160.798 686.544 177.74 683.005 183.117C683.002 183.125 682.999 183.133 682.997 183.141C682.57 183.884 682.123 184.598 681.654 185.295L681.652 185.303C678.976 189.29 675.705 192.546 672.319 194.694C674.608 197.49 677.492 198.698 682.545 199.085C689.272 199.595 697.572 193.663 702.771 184.651C702.774 184.643 702.777 184.635 702.788 184.63C706.375 179.167 715.748 161.77 709.831 136.603C705.601 118.626 698.995 107.471 697.08 104.494Z" fill="#00D9EE" stroke="black" stroke-width="2" stroke-linecap="round" stroke-linejoin="round"/>
<path d="M677.27 102.976L678.863 100.642L698.631 102.148L697.037 104.486L680.506 103.224L677.27 102.976Z" fill="white" stroke="black" stroke-width="2" stroke-linecap="round" stroke-linejoin="round"/>
<path d="M713.92 143.072L714.416 145.015C714.416 145.015 716.309 143.791 717.898 142.691C718.776 142.082 719.176 141.345 719.101 140.85L719.107 140.847L719.098 140.828L719.078 140.738L715.074 124.424L710.417 128.718L713.919 143.069L713.92 143.072Z" fill="white" stroke="black" stroke-width="2" stroke-linecap="round" stroke-linejoin="round"/>
<path d="M714.027 124.028L713.793 123.268C714.719 123.078 714.976 124.142 715.072 124.411C715.247 124.895 714.855 125.717 713.892 126.383C712.309 127.484 710.412 128.706 710.412 128.706L686.89 126.851C686.508 126.822 686.301 126.388 686.517 126.071L687.226 125.033L709.838 126.821L714.027 124.028Z" fill="white" stroke="black" stroke-width="2" stroke-linecap="round" stroke-linejoin="round"/>
<path d="M690.439 142.688C690.444 142.748 690.455 142.806 690.481 142.86C690.555 143.014 690.701 143.133 690.893 143.146L714.425 145.005L710.428 128.714L686.448 126.437L690.439 142.688Z" fill="white" stroke="black" stroke-width="2" stroke-linecap="round" stroke-linejoin="round"/>
<path d="M661.874 130.163L629.038 127.66C630.478 127.388 632.648 125.401 634.217 121.515C635.99 117.127 636.913 111.448 642.409 103.395C646.229 97.7957 651.809 94.2492 657.066 92.13C666.183 88.4545 669.546 89.4045 675.893 89.8273C684.163 90.3861 685.835 90.5075 687.096 90.6104C679.92 90.1585 670.997 93.5051 662.888 105.392C660.175 109.367 658.465 112.749 657.409 115.667C655.571 120.748 657.064 126.535 661.36 129.794C661.527 129.922 661.699 130.046 661.876 130.166L661.874 130.163Z" fill="white" stroke="black" stroke-width="2" stroke-linecap="round" stroke-linejoin="round"/>
<path d="M687.083 90.6163L686.915 93.2361C683.793 93.0396 680.668 93.6944 677.626 95.159L677.599 95.172L676.462 92.7954C680.199 90.9896 683.821 90.4109 687.083 90.6163Z" fill="white" stroke="black" stroke-width="2" stroke-linecap="round" stroke-linejoin="round"/>
<path d="M677.619 95.1681C673.1 97.3504 668.874 101.294 665.06 106.882C662.696 110.347 660.955 113.606 659.882 116.57C658.412 120.637 659.671 125.214 662.943 127.698C663.079 127.802 663.609 128.168 663.749 128.267L661.872 130.176C661.696 130.055 661.524 129.932 661.356 129.804C657.06 126.544 655.569 120.754 657.406 115.674C658.461 112.755 660.173 109.374 662.885 105.396C667.312 98.9087 671.979 94.9653 676.473 92.7947L677.611 95.172L677.619 95.1681Z" fill="white" stroke="black" stroke-width="2" stroke-linecap="round" stroke-linejoin="round"/>
<path d="M256.789 318.015C255.241 320.406 255.719 323.09 256.984 325.068C259.776 329.433 262.85 333.665 266.687 337.237C267.001 334.905 267.339 332.578 266.492 330.282C269.431 329.239 271.598 327.349 272.777 324.376C269.554 320.126 266.329 315.873 263.104 311.625C260.8 313.559 257.706 314.709 256.786 318.018L256.789 318.015Z" fill="white" stroke="black" stroke-width="2" stroke-linecap="round" stroke-linejoin="round"/>
<path d="M306.309 381.128C305.103 383.168 305.61 385.265 306.121 387.358C308.755 391.832 311.867 395.929 315.626 399.525C314.562 397.032 315.085 394.598 315.888 392.173C317.286 389.74 319.776 388.475 321.747 386.66C318.613 382.697 315.482 378.73 312.348 374.767C309.939 376.512 307.315 378.047 306.309 381.128Z" fill="white" stroke="black" stroke-width="2" stroke-linecap="round" stroke-linejoin="round"/>
<path d="M269.771 334.374C268.844 336.513 268.801 338.681 269.596 340.867C271.868 344.845 274.63 348.441 277.931 351.618C276.851 348.854 277.08 346.169 278.424 343.555C280.009 341.622 281.873 340.004 283.976 338.658C281.235 335.169 278.495 331.679 275.755 328.19C273.481 329.98 270.924 331.491 269.771 334.374Z" fill="white" stroke="black" stroke-width="2" stroke-linecap="round" stroke-linejoin="round"/>
<path d="M263.108 311.616C280.398 297.948 297.697 284.288 314.969 270.597C316.718 269.209 317.938 269.503 319.267 271.203C338.343 295.589 357.452 319.953 376.552 344.321C376.084 345.432 375.128 346.079 374.23 346.786C358.154 359.447 342.097 372.132 326.02 384.788C324.758 385.778 323.559 386.93 321.8 386.991C320.688 386.826 319.892 386.133 319.236 385.308C316.57 381.961 313.754 378.726 311.408 375.13C305.728 368.57 300.576 361.588 295.211 354.773C291.146 349.61 286.883 344.593 283.165 339.159C280.258 335.856 277.483 332.454 275.04 328.784C273.895 327.619 272.856 326.37 272.044 324.949C269.13 321.857 266.683 318.389 264.093 315.039C263.321 314.043 262.846 312.93 263.117 311.619L263.108 311.616Z" fill="white" stroke="black" stroke-width="2" stroke-linecap="round" stroke-linejoin="round"/>
<path d="M283.975 338.657C322.773 389.35 311.462 366.182 305.336 386.982C295.669 374.288 285.364 363.185 276.645 349.328C275.486 345.014 279.501 338.446 283.975 338.657Z" fill="#00D9EE" stroke="black" stroke-width="2" stroke-linecap="round" stroke-linejoin="round"/>
<path d="M321.746 386.656C338.867 373.171 355.988 359.681 373.108 346.196C374.147 345.38 375.092 344.381 376.544 344.314C376.997 344.871 377.45 345.423 377.9 345.978C378.225 347.476 377.415 348.396 376.289 349.153C358.289 363.368 340.271 377.566 322.256 391.76C320.811 392.9 319.33 393.961 319.51 396.096C319.759 397.005 319.841 397.965 320.279 398.829C321.797 401.823 325.147 402.599 327.779 400.581C328.677 399.892 329.475 399.046 330.599 398.692C332.315 398.739 332.651 397.186 333.472 396.185C334.518 395.176 335.662 394.294 336.892 393.524C337.886 392.804 339.832 393.806 340.094 391.739C352.35 381.759 364.89 372.151 377.228 362.304C378.229 361.208 379.533 360.467 380.611 359.46C381.324 358.793 382.335 358.271 382.133 357.017C382.148 356.735 382.229 356.468 382.371 356.228C383.732 355.649 384.961 356.402 386.244 356.623C387.633 357.974 387.543 359.015 385.926 360.286C367.171 375.009 348.491 389.824 329.724 404.53C324.903 408.309 318.595 405.963 315.618 399.516C313.124 396.808 314.455 394.034 315.455 391.255C317.022 388.997 318.72 386.911 321.743 386.647L321.746 386.656Z" fill="white" stroke="black" stroke-width="2" stroke-linecap="round" stroke-linejoin="round"/>
<path d="M266.687 337.236C264.456 332.326 267.522 327.722 272.777 324.375C275.014 326.565 275.289 327.92 275.033 328.789C274.581 330.321 272.468 330.316 270.972 332.121C269.552 333.838 269.506 336.219 269.777 338.176C269.763 339.166 269.65 340.288 269.164 340.425C268.486 340.617 267.373 338.757 266.684 337.239L266.687 337.236Z" fill="#00D9EE" stroke="black" stroke-width="2" stroke-linecap="round" stroke-linejoin="round"/>
<path d="M376.205 348.228C376.773 347.477 377.338 346.73 377.903 345.976C380.681 349.524 383.462 353.074 386.242 356.624C384.965 357.36 383.705 357.867 382.621 356.315C381.904 356.573 381.396 356.199 380.909 355.752C380.475 355.309 380.035 354.867 379.701 354.334C379.316 353.869 378.911 353.419 378.584 352.91C378.188 352.457 377.812 351.995 377.477 351.495C377.191 351.138 376.868 350.81 376.645 350.404C376.185 349.743 375.859 349.053 376.202 348.225L376.205 348.228Z" fill="white" stroke="black" stroke-width="2" stroke-linecap="round" stroke-linejoin="round"/>
<path d="M309.884 347.501C306.049 342.62 302.194 337.753 298.387 332.847C296.28 330.127 296.43 328.675 299.074 326.577C306.992 320.295 314.923 314.025 322.889 307.803C326.19 305.221 327.593 305.422 330.255 308.793C337.357 317.79 344.425 326.812 351.487 335.841C352.19 336.738 352.759 337.745 353.381 338.705C354.397 340.257 354.103 341.605 352.693 342.719C343.935 349.632 335.178 356.544 326.405 363.443C324.404 365.018 322.895 364.08 321.561 362.38C317.675 357.417 313.778 352.461 309.881 347.504L309.884 347.501Z" fill="#00D9EE" stroke="black" stroke-width="2" stroke-linecap="round" stroke-linejoin="round"/>
<path d="M303.168 306.496C298.671 310.04 294.168 313.572 289.69 317.139C288.371 318.191 286.924 318.901 285.696 317.363C284.525 315.899 285.259 314.561 286.655 313.462C295.664 306.394 304.652 299.301 313.629 292.193C314.991 291.113 316.277 290.577 317.542 292.248C318.858 293.987 317.713 295.036 316.434 296.039C312.012 299.52 307.593 303.011 303.17 306.493L303.168 306.496Z" fill="#CFF501" stroke="black" stroke-width="2" stroke-linecap="round" stroke-linejoin="round"/>
<path d="M326.417 392.547C328.026 389.7 330.996 388.39 333.369 386.418C334.314 385.635 334.896 386.682 335.416 387.297C336.95 389.108 338.441 390.953 339.952 392.783C340.324 395.438 338.17 393.171 337.599 393.993C335.605 394.264 333.989 395.023 333.486 397.214C332.593 397.594 334.226 400.952 331.369 399.019C330.772 398.858 330.152 398.734 329.727 398.22C329.299 397.783 328.88 397.336 328.549 396.819C328.159 396.359 327.765 395.903 327.438 395.394C327.042 394.929 326.674 394.446 326.425 393.883C326.248 393.44 326.195 392.991 326.414 392.544L326.417 392.547Z" fill="#CFF501"/>
<path d="M333.488 397.216C333.717 394.79 335.088 393.716 337.602 393.995C336.234 395.07 334.862 396.141 333.488 397.216Z" fill="white" stroke="black" stroke-width="2" stroke-linecap="round" stroke-linejoin="round"/>
<path d="M376.205 348.229C357.636 362.845 339.063 377.458 320.503 392.088C318.9 393.35 317.977 394.929 318.764 397.068C319.928 402.727 324.426 404.437 328.918 400.929C329.735 400.29 330.556 399.655 331.371 399.019C330.985 398.536 330.6 398.059 330.218 397.578C329.869 397.123 329.52 396.675 329.171 396.22C328.811 395.771 328.451 395.323 328.087 394.871C327.735 394.414 327.384 393.962 327.032 393.504C326.925 393.342 326.824 393.18 326.72 393.015C328.148 391.974 329.404 390.732 330.804 389.659C333.812 387.357 333.807 387.387 336.252 390.192C337.249 391.333 337.894 393.113 339.954 392.782C340.842 392.061 341.721 391.331 342.618 390.618C354.501 381.209 366.389 371.8 378.274 362.395C379.635 361.353 380.961 360.268 382.365 359.284C383.651 358.384 383.6 357.515 382.504 356.544C382.504 356.544 382.622 356.311 382.619 356.308C382.215 355.882 381.811 355.456 381.407 355.03C381.035 354.576 380.662 354.116 380.289 353.662C379.95 353.216 379.613 352.772 379.276 352.323C378.907 351.866 378.537 351.409 378.171 350.949C377.926 350.659 377.684 350.366 377.439 350.076C377.028 349.46 376.616 348.845 376.202 348.227L376.205 348.229Z" fill="white" stroke="black" stroke-width="2" stroke-linecap="round" stroke-linejoin="round"/>
<path d="M582.255 90.6854C575.155 101.851 548.544 135.493 541.426 143.441C538.994 146.157 535.993 149.717 531.928 153.618C529.934 152.484 526.591 149.921 525.549 147.975C525.549 147.975 577.816 80.1278 581.374 69.7042C584.975 70.7375 586.918 72.6922 587.709 75.1556C588.147 79.6971 585.529 85.5402 582.259 90.6853L582.255 90.6854Z" fill="#CFF501" stroke="black" stroke-width="2" stroke-linecap="round" stroke-linejoin="round"/>
<path d="M526.229 149.154C520.217 147.95 510.154 137.031 507.999 130.687C505.844 124.343 511.993 124.263 516.103 125.421C520.213 126.58 525.878 125.299 525.584 116.477C525.291 107.653 523.534 101.887 529.907 98.9248C536.281 95.9625 555.801 88.7572 562.089 84.0646C568.378 79.372 576.631 66.1689 581.534 69.5894C586.436 73.0099 587.362 75.0935 583.324 81.2094C579.288 87.3231 553.152 120.318 553.152 120.318L526.231 149.156L526.229 149.154Z" fill="white" stroke="black" stroke-width="2" stroke-linecap="round" stroke-linejoin="round"/>
<path d="M537.234 129.713L535.3 102.685C533.844 102.982 532.398 103.338 531.019 103.849L532.975 131.172C534.382 130.654 535.812 130.195 537.236 129.711L537.234 129.713Z" fill="#00D9EE" stroke="black" stroke-width="2" stroke-linecap="round" stroke-linejoin="round"/>
<path d="M552.751 95.4139L554.42 118.714C555.349 117.537 556.742 115.776 558.421 113.639L556.94 92.9434C555.567 93.7975 554.092 94.516 552.749 95.416L552.751 95.4139Z" fill="#00D9EE" stroke="black" stroke-width="2" stroke-linecap="round" stroke-linejoin="round"/>
<path d="M548.656 124.294L546.909 99.9051C546.245 100.304 548.472 98.0667 547.81 98.4551C547.075 98.8853 541.803 101.467 541.067 101.825L542.779 125.745C544.16 125.073 547.334 125.056 548.656 124.294Z" fill="#00D9EE" stroke="black" stroke-width="2" stroke-linecap="round" stroke-linejoin="round"/>
<path d="M539.484 126.099C533.154 128.044 526.118 129.412 519.491 128.471C516.936 128.109 514.286 127.488 511.695 127.725C509.472 127.932 508.312 128.962 507.946 130.528C507.964 130.582 507.975 130.631 507.996 130.687C510.151 137.032 520.213 147.95 526.225 149.154C526.225 149.154 540.686 135.628 553.191 120.26C553.191 120.26 544.238 124.642 539.482 126.101L539.484 126.099Z" fill="white" stroke="black" stroke-width="2" stroke-linecap="round" stroke-linejoin="round"/>
<path d="M509.774 134.331C513.525 140.53 521.259 148.159 526.225 149.154C526.225 149.154 532.395 143.384 540.158 135.099C524.601 144.165 505.695 125.2 509.774 134.331Z" fill="#00D9EE" stroke="black" stroke-width="2" stroke-linecap="round" stroke-linejoin="round"/>
<path d="M525.198 109.692C533.585 107.133 559.593 96.7427 560.639 92.0563C561.454 88.4059 561.605 86.1096 561.42 84.5359C560.171 85.3853 558.54 86.3061 556.674 87.2592C556.467 88.8368 555.997 90.3774 554.992 91.1794C553.325 92.5097 532.67 100.467 525.783 103.101C525.114 104.91 525.07 107.103 525.198 109.692Z" fill="white" stroke="black" stroke-width="2" stroke-linecap="round" stroke-linejoin="round"/>
<path d="M531.402 104.117C531.674 104.736 531.07 105.604 530.05 106.054C529.03 106.505 527.986 106.368 527.714 105.749C527.442 105.13 528.046 104.262 529.066 103.811C530.086 103.36 531.13 103.498 531.402 104.117Z" fill="white" stroke="black" stroke-width="2" stroke-linecap="round" stroke-linejoin="round"/>
<path d="M537.328 101.614C537.575 102.139 537.075 102.899 536.211 103.308C535.346 103.718 534.443 103.624 534.198 103.098C533.951 102.573 534.451 101.813 535.316 101.404C536.18 100.994 537.084 101.088 537.328 101.614Z" fill="white" stroke="black" stroke-width="2" stroke-linecap="round" stroke-linejoin="round"/>
<path d="M542.998 99.3394C543.245 99.8637 542.745 100.624 541.88 101.033C541.016 101.443 540.112 101.349 539.867 100.823C539.621 100.298 540.121 99.5384 540.985 99.1289C541.849 98.7194 542.753 98.813 542.998 99.3394Z" fill="white" stroke="black" stroke-width="2" stroke-linecap="round" stroke-linejoin="round"/>
<path d="M548.688 96.8295C548.935 97.3538 548.435 98.1136 547.571 98.5232C546.706 98.9327 545.803 98.8391 545.558 98.3126C545.313 97.7862 545.811 97.0284 546.675 96.6189C547.54 96.2094 548.444 96.303 548.688 96.8295Z" fill="white" stroke="black" stroke-width="2" stroke-linecap="round" stroke-linejoin="round"/>
<path d="M554.606 93.8614C554.882 94.3724 554.427 95.1588 553.586 95.6166C552.746 96.0743 551.842 96.0336 551.563 95.5248C551.285 95.016 551.743 94.2273 552.583 93.7696C553.423 93.3119 554.327 93.3526 554.606 93.8614Z" fill="white" stroke="black" stroke-width="2" stroke-linecap="round" stroke-linejoin="round"/>
<path d="M533.668 95.5409C534.394 95.2889 534.821 95.0683 535.072 95.7958L536.866 101.215C537.117 101.943 536.731 102.734 536.01 102.986C535.284 103.238 534.495 102.852 534.244 102.129L532.449 96.7095C532.199 95.982 532.947 95.7972 533.67 95.543L533.668 95.5409Z" fill="white" stroke="black" stroke-width="2" stroke-linecap="round" stroke-linejoin="round"/>
<path d="M527.423 98.0431C528.149 97.791 528.576 97.5705 528.827 98.2979L530.621 103.718C530.872 104.445 530.487 105.236 529.765 105.488C529.039 105.741 528.25 105.355 527.999 104.631L526.205 99.2116C525.954 98.4841 526.702 98.2993 527.426 98.0452L527.423 98.0431Z" fill="white" stroke="black" stroke-width="2" stroke-linecap="round" stroke-linejoin="round"/>
<path d="M539.138 93.2637C539.853 92.9843 540.268 92.745 540.551 93.4612L542.561 98.8023C542.84 99.5186 542.488 100.326 541.773 100.606C541.059 100.885 540.253 100.533 539.975 99.8169L537.964 94.4757C537.686 93.7594 538.423 93.5431 539.14 93.2615L539.138 93.2637Z" fill="white" stroke="black" stroke-width="2" stroke-linecap="round" stroke-linejoin="round"/>
<path d="M544.758 91.0981C545.473 90.8187 545.888 90.5793 546.171 91.2955L548.201 96.2445C548.479 96.9609 548.128 97.7685 547.413 98.0479C546.698 98.3273 545.893 97.9754 545.615 97.2591L543.584 92.3101C543.306 91.5938 544.043 91.3774 544.76 91.0959L544.758 91.0981Z" fill="white" stroke="black" stroke-width="2" stroke-linecap="round" stroke-linejoin="round"/>
<path d="M550.871 88.6576C551.585 88.3782 552.003 88.141 552.283 88.8551L554.211 93.4018C554.489 94.1181 554.137 94.9257 553.422 95.2051C552.708 95.4845 551.902 95.1327 551.624 94.4164L549.697 89.8696C549.419 89.1533 550.156 88.937 550.873 88.6555L550.871 88.6576Z" fill="white" stroke="black" stroke-width="2" stroke-linecap="round" stroke-linejoin="round"/>
<path d="M581.528 69.5865C581.312 69.4364 581.088 69.3288 580.86 69.2424C585.641 72.6041 586.515 74.7078 582.518 80.7637C578.482 86.8774 552.344 119.875 552.344 119.875L525.422 148.713C524.618 148.554 523.741 148.212 522.824 147.739C524.036 148.449 525.192 148.948 526.225 149.154L553.147 120.316C553.147 120.316 579.283 87.3205 583.319 81.2067C587.355 75.0929 586.431 73.0071 581.528 69.5865Z" fill="white" stroke="black" stroke-width="2" stroke-linecap="round" stroke-linejoin="round"/>
<path d="M310.661 74.7253C305.814 80.9672 295.247 97.3044 290.186 110.779C285.128 124.252 280.987 131.879 293.399 137.202C305.813 142.527 360.533 164.165 370.866 166.575C381.199 168.985 414.949 174.547 417.7 165.863C420.451 157.18 417.788 150.632 412.28 147.749C406.773 144.866 394.804 135.647 389.15 130.53C383.498 125.416 368.976 113.738 368.472 110.755C367.97 107.776 363.402 78.4338 359.306 74.1837C357.425 72.227 346.544 74.7459 336.037 74.9831C323.7 75.2625 311.576 73.5367 310.656 74.7235L310.661 74.7253Z" fill="white" stroke="black" stroke-width="2" stroke-linecap="round" stroke-linejoin="round"/>
<path d="M412.281 147.749C408.398 145.719 401.312 140.539 395.483 135.865C394.335 136.072 393.155 135.887 391.913 134.985C389.353 133.126 386.999 129.91 383.631 129.624C381.422 129.434 379.433 130.461 377.26 129.985C374.609 129.402 372.112 126.682 370.262 124.853C368.085 122.702 366.115 120.377 364.217 117.979C362.089 115.281 359.972 111.821 357.26 109.689C353.876 107.025 347.673 106.375 343.743 107.06C343.181 107.158 342.934 106.326 343.382 106.036C346.218 104.209 351.579 103.305 352.722 99.9619C353.68 97.1576 353.516 94.1925 353.033 91.3077C352.072 85.5662 351.389 79.4611 349.437 73.9113C345.445 74.3238 340.707 74.8795 336.043 74.9848C323.706 75.2643 311.582 73.5385 310.662 74.7252C305.815 80.9671 295.248 97.3044 290.186 110.779C285.129 124.252 281.306 130.688 293.715 136.012C306.129 141.338 360.487 163.374 370.82 165.784C381.153 168.195 414.948 174.543 417.699 165.86C420.45 157.177 417.787 150.629 412.279 147.746L412.281 147.749Z" fill="white" stroke="black" stroke-width="2" stroke-linecap="round" stroke-linejoin="round"/>
<path d="M384.29 139.013C384.093 141.801 387.857 143.401 389.935 144.247C393.974 145.891 398.218 146.619 402.395 147.794C404.758 148.46 407.331 149.357 409.826 149.163C411 149.074 412.022 148.712 412.926 148.159C412.709 148.03 412.498 147.894 412.274 147.778C408.39 145.747 396.561 136.638 390.731 131.965C388.913 134.042 384.424 137.137 384.289 139.009L384.29 139.013Z" fill="white" stroke="black" stroke-width="2" stroke-linecap="round" stroke-linejoin="round"/>
<path d="M302.965 88.5365C304.803 91.7459 308.696 94.8783 311.276 97.5224C316.37 102.74 322.68 105.923 329.954 107.216C336.23 108.332 340.734 108.118 346.765 106.624C349.25 104.931 351.708 102.848 352.699 99.9415C353.656 97.1375 353.492 94.1726 353.009 91.2881C352.048 85.5471 351.365 79.4426 349.413 73.8933C345.422 74.3057 340.685 74.8614 336.021 74.9666C323.685 75.2461 311.562 73.5204 310.642 74.7071C308.579 77.3645 305.482 81.8518 302.212 87.1697C302.46 87.6253 302.708 88.0808 302.967 88.5313L302.965 88.5365Z" fill="white" stroke="black" stroke-width="2" stroke-linecap="round" stroke-linejoin="round"/>
<path d="M413.433 148.277C412.383 149.029 411.838 149.171 410.461 149.276C407.308 149.519 403.943 148.138 400.928 147.381C396.654 146.309 392.304 145.437 388.297 143.518C384.705 141.798 382.123 140.629 385.453 136.674C386.675 135.225 387.976 133.653 389.521 132.555C387.988 131.226 385.972 129.655 383.989 129.485C382.004 129.312 380.191 130.12 378.266 129.936C367.169 137.077 356.527 144.698 346.405 153.362C345.444 154.184 344.466 154.987 343.484 155.784C356.062 160.645 367.08 164.687 371.176 165.641C381.508 168.051 415.297 174.399 418.048 165.717C420.492 157.999 417.736 151.545 413.428 148.276L413.433 148.277Z" fill="black"/>
<path d="M350.835 151.839C360.247 143.783 370.112 136.637 380.37 129.933C379.554 130.066 378.739 130.173 377.9 130.097C366.806 137.234 356.167 144.852 346.048 153.512C345.087 154.333 344.109 155.137 343.128 155.933C343.943 156.25 344.751 156.56 345.55 156.868C348.058 154.459 350.391 152.217 350.828 151.842L350.835 151.839Z" fill="white" stroke="black" stroke-width="2" stroke-linecap="round" stroke-linejoin="round"/>
<path d="M339.504 145.148C339.935 139.008 338.652 133.719 334.257 129.223C330.685 125.572 326.449 122.751 322.143 120.055C315.492 115.893 308.033 111.718 302.761 105.794C299.768 102.434 298.17 98.7069 297.804 94.7321C294.879 100.006 292.131 105.588 290.19 110.755C285.132 124.229 281.31 130.666 293.72 135.99C300.613 138.946 320.439 147.057 338.481 154.098C338.9 151.116 339.297 148.132 339.503 145.144L339.504 145.148Z" fill="white" stroke="black" stroke-width="2" stroke-linecap="round" stroke-linejoin="round"/>
<path d="M301.553 107.439C306.906 113.555 314.506 117.841 321.275 122.121C325.661 124.892 329.977 127.797 333.6 131.563C338.065 136.203 339.341 141.683 338.862 148.067C338.715 150.05 338.484 152.029 338.224 154.01C338.308 154.042 338.395 154.079 338.483 154.11C338.903 151.127 339.3 148.142 339.505 145.154C339.936 139.013 338.652 133.724 334.256 129.227C330.684 125.576 326.446 122.754 322.139 120.058C315.487 115.895 308.025 111.719 302.751 105.794C299.758 102.434 298.16 98.7063 297.793 94.7308C297.411 95.4207 297.035 96.1123 296.66 96.8075C297.143 100.623 298.72 104.197 301.55 107.432L301.553 107.439Z" fill="black"/>
<path d="M418.693 157.568C409.593 161.547 382.848 155.962 373.773 153.681C363.212 151.027 307.59 127.623 294.888 121.982C291.377 120.422 289.137 118.806 287.831 116.997C284.317 126.384 283.397 131.591 293.727 136.025C306.14 141.351 360.494 163.385 370.826 165.795C381.159 168.206 414.95 174.553 417.701 165.871C418.668 162.816 418.953 160.032 418.693 157.568Z" fill="white" stroke="black" stroke-width="2" stroke-linecap="round" stroke-linejoin="round"/>
<path d="M370.012 162.357C370.483 161.581 370.954 160.809 371.43 160.036C371.426 160.038 371.419 160.032 371.414 160.03C360.948 157.187 305.84 132.737 293.259 126.855C289.781 125.231 287.562 123.567 286.272 121.728C285.892 122.745 285.54 124.985 285.54 124.985C286.874 126.583 288.659 127.708 291.743 129.15C304.327 135.03 359.432 159.482 369.898 162.325C369.933 162.335 369.976 162.344 370.012 162.357Z" fill="white" stroke="black" stroke-width="2" stroke-linecap="round" stroke-linejoin="round"/>
<path d="M367.746 155.815C363.201 155.834 360.525 158.695 357.988 161.883C363.818 164.009 368.402 165.558 370.735 166.099C381.066 168.509 414.853 174.856 417.603 166.175C418.361 163.783 418.687 161.564 418.674 159.534C403.929 165.547 370.751 155.804 367.746 155.815Z" fill="#CFF501" stroke="black" stroke-width="2" stroke-linecap="round" stroke-linejoin="round"/>
<path d="M354.653 115.931C348.728 118.576 340.307 120.861 336.447 122.132C332.584 123.399 348.446 143.233 353.834 139.874C359.221 136.511 367.51 128.647 367.51 128.647L354.655 115.934L354.653 115.931Z" fill="#CFF501" stroke="black" stroke-width="2" stroke-linecap="round" stroke-linejoin="round"/>
<path d="M336.965 79.1137C330.269 78.4805 316.514 77.4071 314.215 80.3641C311.921 83.3229 311.965 93.1414 320.148 95.5313C328.328 97.923 343.447 96.9869 343.001 92.5583C342.559 88.1279 341.812 79.5728 336.965 79.1137Z" fill="#CFF501" stroke="black" stroke-width="2" stroke-linecap="round" stroke-linejoin="round"/>
<path d="M350.127 83.6589C350.167 85.6282 349.196 87.2502 347.958 87.2758C346.719 87.3014 345.684 85.7242 345.643 83.7549C345.602 81.7856 346.573 80.1637 347.812 80.1381C349.051 80.1125 350.086 81.6896 350.127 83.6589Z" fill="white" stroke="black" stroke-width="2" stroke-linecap="round" stroke-linejoin="round"/>
<path d="M350.859 94.2981C350.9 96.2675 349.929 97.8894 348.69 97.915C347.451 97.9406 346.416 96.3634 346.375 94.3941C346.335 92.4248 347.306 90.8029 348.544 90.7773C349.783 90.7517 350.818 92.3288 350.859 94.2981Z" fill="white" stroke="black" stroke-width="2" stroke-linecap="round" stroke-linejoin="round"/>
<path d="M313.841 77.5248C314.765 76.3368 326.883 78.0585 339.214 77.7843C347.794 77.5916 356.613 75.8792 360.589 76.3207C360.149 75.3655 359.711 74.6213 359.275 74.1698C357.395 72.2138 346.517 74.7318 336.013 74.9689C323.679 75.2483 311.56 73.5231 310.639 74.7094C309.162 76.6136 307.145 79.4645 304.921 82.882C308.99 81.1132 312.344 79.4514 313.841 77.5248Z" fill="white" stroke="black" stroke-width="2" stroke-linecap="round" stroke-linejoin="round"/>
<path d="M364.228 83.8636C364.259 84.415 363.953 84.8825 363.54 84.9038L348.006 86.1399C347.596 86.1647 347.236 85.7371 347.201 85.1875L347.06 82.6924C347.029 82.141 347.336 81.6735 347.748 81.6522L363.282 80.4162C363.693 80.3913 364.052 80.8189 364.087 81.3686L364.228 83.8636Z" fill="#CFF501" stroke="black" stroke-width="2" stroke-linecap="round" stroke-linejoin="round"/>
<path d="M366.723 92.8684C366.802 93.4135 366.534 93.906 366.126 93.964L348.607 96.9986C348.199 97.0566 347.804 96.6633 347.724 96.1182L347.369 93.6443C347.289 93.0992 347.558 92.6067 347.966 92.5487L365.484 89.5141C365.892 89.4561 366.287 89.8494 366.367 90.3945L366.723 92.8684Z" fill="#CFF501" stroke="black" stroke-width="2" stroke-linecap="round" stroke-linejoin="round"/>
<path d="M369.139 103.927C369.327 104.445 369.165 104.981 368.775 105.121L352.229 111.643C351.839 111.783 351.374 111.479 351.186 110.96L350.338 108.611C350.15 108.093 350.312 107.557 350.702 107.416L367.249 100.895C367.639 100.755 368.103 101.059 368.291 101.578L369.139 103.927Z" fill="#CFF501" stroke="black" stroke-width="2" stroke-linecap="round" stroke-linejoin="round"/>
<path d="M370.978 111.626C371.227 112.12 371.128 112.669 370.759 112.855L360.431 118.242C360.063 118.427 359.561 118.181 359.313 117.69L358.19 115.461C357.941 114.967 358.04 114.418 358.407 114.228L368.735 108.842C369.104 108.656 369.605 108.903 369.853 109.393L370.976 111.623L370.978 111.626Z" fill="#CFF501" stroke="black" stroke-width="2" stroke-linecap="round" stroke-linejoin="round"/>
<path d="M375.256 116.537C375.625 116.947 375.68 117.504 375.373 117.782L367.786 124.918C367.479 125.196 366.933 125.091 366.561 124.683L364.885 122.831C364.517 122.42 364.461 121.863 364.768 121.586L372.356 114.449C372.663 114.172 373.209 114.277 373.581 114.685L375.256 116.537Z" fill="#CFF501" stroke="black" stroke-width="2" stroke-linecap="round" stroke-linejoin="round"/>
<path d="M380.345 121.625C380.749 122.001 380.848 122.55 380.566 122.854L373.627 130.625C373.346 130.929 372.792 130.871 372.388 130.495L370.559 128.8C370.155 128.424 370.056 127.875 370.337 127.571L377.276 119.799C377.557 119.495 378.111 119.553 378.515 119.929L380.345 121.625Z" fill="#CFF501" stroke="black" stroke-width="2" stroke-linecap="round" stroke-linejoin="round"/>
<path d="M386.558 126.482C386.994 126.816 387.146 127.358 386.893 127.687L380.696 136.061C380.443 136.39 379.884 136.383 379.447 136.048L377.473 134.526C377.036 134.191 376.885 133.65 377.138 133.321L383.335 124.947C383.587 124.618 384.147 124.625 384.583 124.96L386.558 126.482Z" fill="#CFF501" stroke="black" stroke-width="2" stroke-linecap="round" stroke-linejoin="round"/>
</svg>
