<svg width="904" height="286" viewBox="0 0 904 286" fill="none" xmlns="http://www.w3.org/2000/svg">
<path d="M558.786 9.3599H858.226L903 62.2531V265.332L889.432 284.25L14.568 283.478L1 265.332V62.2531L46.5884 8.20166H380.999" stroke="black" stroke-width="2"/>
<path d="M564.992 0.490479L574.209 16.1902H508.018L498.801 0.490479H564.992Z" fill="black"/>
<path d="M491.712 0.490479L500.929 16.1902H495.854L486.637 0.490479H491.712Z" fill="black"/>
<path d="M480.931 0.490479L490.148 16.1902H485.073L475.855 0.490479H480.931Z" fill="black"/>
<path d="M410.667 0.490479L401.449 16.1902H406.525L415.742 0.490479H410.667Z" fill="black"/>
<path d="M421.452 0.490479L412.234 16.1902H417.31L426.527 0.490479H421.452Z" fill="black"/>
<path d="M337.389 0.490479L328.172 16.1902H394.363L403.58 0.490479H337.389Z" fill="black"/>
</svg>
