<svg width="137" height="137" viewBox="0 0 137 137" fill="none" xmlns="http://www.w3.org/2000/svg">
<path d="M18.833 105.75H12.6247V111.958H18.833V105.75Z" fill="black"/>
<path d="M25.0413 111.958H18.833V118.166H25.0413V111.958Z" fill="black"/>
<path d="M31.2497 118.166H25.0413V124.375H31.2497V118.166Z" fill="black"/>
<path d="M25.0413 18.833H18.833V25.0413H25.0413V18.833Z" fill="black"/>
<path d="M12.6247 93.333H6.41634V105.75H12.6247V93.333Z" fill="black"/>
<path d="M18.833 25.0413H12.6247V31.2497H18.833V25.0413Z" fill="black"/>
<path d="M43.6663 124.375H31.2497V130.583H43.6663V124.375Z" fill="black"/>
<path d="M6.41634 43.6663H0.208008V93.333H6.41634V43.6663Z" fill="black"/>
<path d="M93.333 0.208008H43.6663V6.41634H93.333V0.208008Z" fill="black"/>
<path d="M12.6247 31.2497H6.41634V43.6663H12.6247V31.2497Z" fill="black"/>
<path d="M93.333 130.583H43.6663V136.791H93.333V130.583Z" fill="black"/>
<path d="M105.75 124.375H93.333V130.583H105.75V124.375Z" fill="black"/>
<path d="M105.75 6.41634H93.333V12.6247H105.75V6.41634Z" fill="black"/>
<path d="M31.2497 12.6247H25.0413V18.833H31.2497V12.6247Z" fill="black"/>
<path d="M43.6663 6.41634H31.2497V12.6247H43.6663V6.41634Z" fill="black"/>
<path d="M111.958 12.6247H105.75V18.833H111.958V12.6247Z" fill="black"/>
<path d="M111.958 118.166H105.75V124.375H111.958V118.166Z" fill="black"/>
<path d="M118.166 18.833H111.958V25.0413H118.166V18.833Z" fill="black"/>
<path d="M118.166 111.958H111.958V118.166H118.166V111.958Z" fill="black"/>
<path d="M130.583 93.333H124.375V105.75H130.583V93.333Z" fill="black"/>
<path d="M124.375 25.0413H118.166V31.2497H124.375V25.0413Z" fill="black"/>
<path d="M130.583 31.2497H124.375V43.6663H130.583V31.2497Z" fill="black"/>
<path d="M124.375 105.75H118.166V111.958H124.375V105.75Z" fill="black"/>
<path d="M136.791 43.6663H130.583V93.333H136.791V43.6663Z" fill="black"/>
<path d="M87.1247 111.958H49.8747V118.166H87.1247V111.958Z" fill="black"/>
<path d="M130.583 43.6663V93.333H124.375V105.75H118.166V111.958H111.958V118.166H105.75V124.375H93.333V130.583H43.6663V124.375H31.2497V118.166H43.6663V111.958L49.8747 111.958V118.166H87.1247V111.958L99.5413 111.958V105.75H105.75V99.5413H111.958V87.1247H118.166V49.8747H111.958V43.6663H118.166V31.2497H124.375V43.6663H130.583Z" fill="#CFF501"/>
<path d="M118.166 49.8747H111.958V87.1247H118.166V49.8747Z" fill="black"/>
<path d="M118.166 25.0413V43.6663H111.958L111.958 37.458H105.75V31.2497H99.5413V25.0413H87.1247V18.833H49.8747V25.0413H37.458V31.2497H31.2497V37.458H25.0413V49.8747H18.833V87.1247H25.0413V99.5413H31.2497V105.75H37.458V111.958L43.6663 111.958V118.166H25.0413V111.958H18.833V105.75H12.6247V93.333H6.41634V43.6663H12.6247V31.2497H18.833V25.0413H25.0413V18.833H31.2497V12.6247H43.6663V6.41634H93.333V12.6247H105.75V18.833H111.958V25.0413H118.166Z" fill="#00D9EE"/>
<path d="M111.958 87.1247H105.75V99.5413H111.958V87.1247Z" fill="black"/>
<path d="M111.958 37.458H105.75L105.75 49.8747L111.958 49.8747L111.958 37.458Z" fill="black"/>
<path d="M105.75 99.5413H99.5413V105.75H105.75V99.5413Z" fill="black"/>
<path d="M105.75 31.2497H99.5413L99.5413 37.458H105.75V31.2497Z" fill="black"/>
<path d="M99.5413 25.0413H87.1247L87.1247 31.2497L99.5413 31.2497V25.0413Z" fill="black"/>
<path d="M99.5413 105.75H87.1247V111.958L99.5413 111.958V105.75Z" fill="black"/>
<path d="M87.1247 68.4997H80.9163V80.9163H87.1247V68.4997Z" fill="black"/>
<path d="M87.1247 56.083H80.9163V62.2913H87.1247V56.083Z" fill="black"/>
<path d="M87.1247 18.833H49.8747V25.0413H87.1247V18.833Z" fill="black"/>
<path d="M80.9163 68.4997V80.9163H68.4997V74.708H74.708V68.4997H80.9163Z" fill="white"/>
<path d="M56.083 56.083V62.2913L80.9163 62.2913V68.4997L56.083 68.4997V80.9163L80.9163 80.9163V87.1247H74.708V93.333H68.4997V87.1247H62.2913V93.333H56.083V87.1247H49.8747V49.8747H56.083V43.6663H62.2913V49.8747H68.4997V43.6663H74.708V49.8747H80.9163V56.083H56.083Z" fill="black"/>
<path d="M80.9163 56.083H74.708V62.2913H80.9163V56.083Z" fill="white"/>
<path d="M74.708 56.083H56.083V62.2913L74.708 62.2913V56.083Z" fill="white"/>
<path d="M111.958 49.8747V87.1247H105.75V99.5413H99.5413V105.75H87.1247V111.958H49.8747L49.8747 105.75H37.458V99.5413H49.8747V93.333H62.2913V87.1247H68.4997V93.333H74.708V87.1247H80.9163V80.9163H87.1247V68.4997H80.9163V62.2913H87.1247V56.083H80.9163V49.8747H87.1247V37.458H93.333V31.2497L99.5413 31.2497L99.5413 37.458H105.75L105.75 49.8747L111.958 49.8747Z" fill="white"/>
<path d="M74.708 68.4997V74.708H68.4997V80.9163L56.083 80.9163V68.4997L74.708 68.4997Z" fill="white"/>
<path d="M49.8747 25.0413H37.458V31.2497L49.8747 31.2497V25.0413Z" fill="black"/>
<path d="M49.8747 105.75H37.458V111.958H49.8747L49.8747 105.75Z" fill="black"/>
<path d="M37.458 99.5413H31.2497V105.75H37.458V99.5413Z" fill="black"/>
<path d="M37.458 31.2497H31.2497V37.458H37.458V31.2497Z" fill="black"/>
<path d="M31.2497 87.1247L25.0413 87.1247V99.5413H31.2497L31.2497 87.1247Z" fill="black"/>
<path d="M93.333 31.2497V37.458H87.1247V49.8747H74.708V43.6663H68.4997V49.8747H62.2913V43.6663H56.083V49.8747H49.8747V87.1247H56.083V93.333H49.8747V99.5413H31.2497L31.2497 87.1247L25.0413 87.1247V49.8747H31.2497L31.2497 37.458H37.458V31.2497L49.8747 31.2497V25.0413H87.1247L87.1247 31.2497H93.333Z" fill="white"/>
<path d="M31.2497 37.458H25.0413V49.8747H31.2497L31.2497 37.458Z" fill="black"/>
<path d="M25.0413 49.8747H18.833V87.1247H25.0413V49.8747Z" fill="black"/>
</svg>
