<svg width="112" height="112" viewBox="0 0 112 112" fill="none" xmlns="http://www.w3.org/2000/svg">
<path d="M16 16H32V32H16V16Z" fill="#1E1E1E"/>
<path d="M96 16H112V32H96V16Z" fill="#1E1E1E"/>
<path d="M0 16H16V32H0V16Z" fill="#1E1E1E"/>
<path d="M80 16H96V32H80V16Z" fill="#1E1E1E"/>
<path d="M16 0H32V16H16V0Z" fill="#1E1E1E"/>
<path d="M96 0H112V16H96V0Z" fill="#1E1E1E"/>
<path d="M0 64H16V80H0V64Z" fill="#1E1E1E"/>
<path d="M16 80H32V96H16V80Z" fill="#1E1E1E"/>
<path d="M32 96H48V112H32V96Z" fill="#1E1E1E"/>
<path d="M48 96H64V112H48V96Z" fill="#1E1E1E"/>
<path d="M64 96H80V112H64V96Z" fill="#1E1E1E"/>
<path d="M80 80H96V96H80V80Z" fill="#1E1E1E"/>
<path d="M96 64H112V80H96V64Z" fill="#1E1E1E"/>
<path d="M0 0H16V16H0V0Z" fill="#1E1E1E"/>
<path d="M80 0H96V16H80V0Z" fill="#1E1E1E"/>
</svg>
