<svg width="150" height="91" viewBox="0 0 150 91" fill="none" xmlns="http://www.w3.org/2000/svg">
<path d="M20.1242 0H30.0932V9.96894H20.1242V0Z" fill="#1E1E1E"/>
<path d="M30.0932 0H40.0619V9.96894H30.0932V0Z" fill="#1E1E1E"/>
<path d="M40.0619 0H50.0307V9.96894H40.0619V0Z" fill="#1E1E1E"/>
<path d="M50.0307 0H60.0003V9.96894H50.0307V0Z" fill="#1E1E1E"/>
<path d="M60.0003 0H69.969V9.96894H60.0003V0Z" fill="#1E1E1E"/>
<path d="M69.969 0H79.9378V9.96894H69.969V0Z" fill="#1E1E1E"/>
<path d="M79.9378 0H89.9066V9.96894H79.9378V0Z" fill="#1E1E1E"/>
<path d="M89.9066 0H99.8761V9.96894H89.9066V0Z" fill="#1E1E1E"/>
<path d="M99.8761 0H109.845V9.96894H99.8761V0Z" fill="#1E1E1E"/>
<path d="M109.845 0H119.814V9.96894H109.845V0Z" fill="#1E1E1E"/>
<path d="M119.814 0H129.782V9.96894H119.814V0Z" fill="#1E1E1E"/>
<path d="M129.969 10.0621H139.938V20.0311H129.969V10.0621Z" fill="#1E1E1E"/>
<path d="M10.0621 10.0621H20.0311V20.0311H10.0621V10.0621Z" fill="#1E1E1E"/>
<path d="M0 20.1242H9.96894V30.0932H0V20.1242Z" fill="#1E1E1E"/>
<path d="M0 30.0932H9.96894V40.0619H0V30.0932Z" fill="#1E1E1E"/>
<path d="M0 40.0619H9.96894V50.0307H0V40.0619Z" fill="#1E1E1E"/>
<path d="M0 50.0307H9.96894V59.9995H0V50.0307Z" fill="#1E1E1E"/>
<path d="M0 59.9995H9.96894V69.9682H0V59.9995Z" fill="#1E1E1E"/>
<path d="M140.031 20.1242H150V30.0932H140.031V20.1242Z" fill="#1E1E1E"/>
<path d="M140.031 30.0932H150V40.0619H140.031V30.0932Z" fill="#1E1E1E"/>
<path d="M140.031 40.0619H150V50.0307H140.031V40.0619Z" fill="#1E1E1E"/>
<path d="M140.031 50.0307H150V59.9995H140.031V50.0307Z" fill="#1E1E1E"/>
<path d="M140.031 59.9995H150V69.9682H140.031V59.9995Z" fill="#1E1E1E"/>
<path d="M10.0621 70.4348H20.0311V80.4037H10.0621V70.4348Z" fill="#1E1E1E"/>
<path d="M89.7205 70.4348H99.6894V80.4037H89.7205V70.4348Z" fill="#1E1E1E"/>
<path d="M20.1242 80.4969H30.0932V90.4658H20.1242V80.4969Z" fill="#1E1E1E"/>
<path d="M30.0932 80.4969H40.0619V90.4658H30.0932V80.4969Z" fill="#1E1E1E"/>
<path d="M40.0619 80.4969H50.0307V90.4658H40.0619V80.4969Z" fill="#1E1E1E"/>
<path d="M99.7826 80.4969H109.752V90.4658H99.7826V80.4969Z" fill="#1E1E1E"/>
<path d="M109.752 80.4969H119.72V90.4658H109.752V80.4969Z" fill="#1E1E1E"/>
<path d="M119.72 80.4969H129.689V90.4658H119.72V80.4969Z" fill="#1E1E1E"/>
<path d="M50.3106 70.4348H60.2795V80.4037H50.3106V70.4348Z" fill="#1E1E1E"/>
<path d="M129.969 70.4348H139.938V80.4037H129.969V70.4348Z" fill="#1E1E1E"/>
<path d="M60.3727 60.3727H70.3416V70.3416H60.3727V60.3727Z" fill="#1E1E1E"/>
<path d="M70.3416 60.3727H80.3104V70.3416H70.3416V60.3727Z" fill="#1E1E1E"/>
<path d="M80.3104 60.3727H90.2791V70.3416H80.3104V60.3727Z" fill="#1E1E1E"/>
<path d="M20.1242 40.2484H30.0932V50.2174H20.1242V40.2484Z" fill="#1E1E1E"/>
<path d="M99.7826 40.2484H109.752V50.2174H99.7826V40.2484Z" fill="#1E1E1E"/>
<path d="M40.0617 40.2484H50.0307V50.2174H40.0617V40.2484Z" fill="#1E1E1E"/>
<path d="M119.72 40.2484H129.689V50.2174H119.72V40.2484Z" fill="#1E1E1E"/>
<path d="M30.093 30.1863H40.0619V40.1553H30.093V30.1863Z" fill="#1E1E1E"/>
<path d="M109.751 30.1863H119.72V40.1553H109.751V30.1863Z" fill="#1E1E1E"/>
<path d="M30.093 40.1553H40.0619V50.124H30.093V40.1553Z" fill="#1E1E1E"/>
<path d="M30.093 50.124H40.0619V60.0928H30.093V50.124Z" fill="#1E1E1E"/>
<path d="M109.751 50.1239H119.72V60.0928H109.751V50.1239Z" fill="#1E1E1E"/>
</svg>
