<svg width="136" height="111" viewBox="0 0 136 111" fill="none" xmlns="http://www.w3.org/2000/svg">
<path d="M74 12.3333H86.3333V24.6667H74V12.3333Z" fill="black"/>
<path d="M86.3333 0H98.6667V12.3333H86.3333V0Z" fill="black"/>
<path d="M98.6667 0H111V12.3333H98.6667V0Z" fill="black"/>
<path d="M111 0H123.333V12.3333H111V0Z" fill="black"/>
<path d="M61.6667 24.6667H74V37H61.6667V24.6667Z" fill="black"/>
<path d="M49.3333 12.3333H61.6667V24.6667H49.3333V12.3333Z" fill="black"/>
<path d="M37 0H49.3333V12.3333H37V0Z" fill="black"/>
<path d="M24.6667 0H37V12.3333H24.6667V0Z" fill="black"/>
<path d="M12.3333 0H24.6667V12.3333H12.3333V0Z" fill="black"/>
<path d="M123.333 12.3333H135.667V24.6667H123.333V12.3333Z" fill="black"/>
<path d="M123.333 24.6667H135.667V37H123.333V24.6667Z" fill="black"/>
<path d="M123.333 37H135.667V49.3333H123.333V37Z" fill="black"/>
<path d="M111 49.3333H123.333V61.6667H111V49.3333Z" fill="black"/>
<path d="M98.6667 61.6667L111 61.6667L111 74H98.6667V61.6667Z" fill="black"/>
<path d="M86.3333 74H98.6667V86.3333H86.3333V74Z" fill="black"/>
<path d="M74 86.3333H86.3333V98.6667H74V86.3333Z" fill="black"/>
<path d="M0 12.3333H12.3333V24.6667H0V12.3333Z" fill="black"/>
<path d="M0 24.6667H12.3333V37H0V24.6667Z" fill="black"/>
<path d="M0 37H12.3333V49.3333H0V37Z" fill="black"/>
<path d="M24.6667 61.6667H37V74H24.6667V61.6667Z" fill="black"/>
<path d="M12.3333 49.3333H24.6667L24.6667 61.6667L12.3333 61.6667V49.3333Z" fill="black"/>
<path d="M37 74H49.3333V86.3333H37V74Z" fill="black"/>
<path d="M49.3333 86.3333H61.6667V98.6667H49.3333V86.3333Z" fill="black"/>
<path d="M61.6667 98.6667H74V111H61.6667V98.6667Z" fill="black"/>
</svg>
