<svg width="84" height="107" viewBox="0 0 84 107" fill="none" xmlns="http://www.w3.org/2000/svg">
<path d="M0 83.223H11.8889V95.1119H0V83.223Z" fill="#1E1E1E"/>
<path d="M0 71.3327H11.8889V83.2216H0V71.3327Z" fill="#1E1E1E"/>
<path d="M0 59.4442H11.8889V71.3327H0V59.4442Z" fill="#1E1E1E"/>
<path d="M0 47.5558H11.8889V59.4442H0V47.5558Z" fill="#1E1E1E"/>
<path d="M0 35.6673H11.8889V47.5558H0V35.6673Z" fill="#1E1E1E"/>
<path d="M11.8889 35.6673H23.7774V47.5562L11.8889 47.5558V35.6673Z" fill="#1E1E1E"/>
<path d="M11.8885 23.777H23.7774V35.6659H11.8885V23.777Z" fill="#1E1E1E"/>
<path d="M11.8885 11.8885H23.7774V23.777H11.8885V11.8885Z" fill="#1E1E1E"/>
<path d="M59.4442 23.777H71.3331V35.6659H59.4442V23.777Z" fill="#1E1E1E"/>
<path d="M23.7779 0H35.6668V11.8889L23.7774 11.8885L23.7779 0Z" fill="#1E1E1E"/>
<path d="M35.6668 0H47.5553V11.8889H35.6668V0Z" fill="#1E1E1E"/>
<path d="M47.5553 0H59.4446V11.8889H47.5553V0Z" fill="#1E1E1E"/>
<path d="M59.4446 11.8889L71.3331 11.8885V23.777H59.4442L59.4446 11.8889Z" fill="#1E1E1E"/>
<path d="M23.7774 35.6673H35.6668V47.5562H23.7774V35.6673Z" fill="#1E1E1E"/>
<path d="M35.6668 35.6673H47.5553V47.5562H35.6668V35.6673Z" fill="#1E1E1E"/>
<path d="M35.6664 59.4442H47.5553V71.3331H35.6664V59.4442Z" fill="#1E1E1E"/>
<path d="M35.6664 71.3331H47.5553V83.2216H35.6664V71.3331Z" fill="#1E1E1E"/>
<path d="M47.5553 35.6673L59.4446 35.668V47.5569L47.5553 47.5562V35.6673Z" fill="#1E1E1E"/>
<path d="M59.4446 35.668L71.3331 35.6673V47.5562L59.4446 47.5569V35.668Z" fill="#1E1E1E"/>
<path d="M71.3331 35.6673H83.2225V47.5562H71.3331V35.6673Z" fill="#1E1E1E"/>
<path d="M71.3331 47.5562H83.2225V59.4446H71.3336L71.3331 47.5562Z" fill="#1E1E1E"/>
<path d="M71.3336 59.4446H83.2225V71.3331H71.3336V59.4446Z" fill="#1E1E1E"/>
<path d="M71.3336 71.3331H83.2225V83.2216H71.3336V71.3331Z" fill="#1E1E1E"/>
<path d="M71.3336 83.223H83.2225V95.1119H71.3336V83.223Z" fill="#1E1E1E"/>
<path d="M47.5558 95.1115H59.4446V107H47.5558V95.1115Z" fill="#1E1E1E"/>
<path d="M35.6664 95.1115H47.5558V107H35.6664V95.1115Z" fill="#1E1E1E"/>
<path d="M23.7779 95.1115H35.6664V107H23.7779V95.1115Z" fill="#1E1E1E"/>
<path d="M59.4446 95.1115L71.3336 95.1119L71.3331 107H59.4446V95.1115Z" fill="#1E1E1E"/>
<path d="M11.8889 95.1119L23.7779 95.1115V107H11.8885L11.8889 95.1119Z" fill="#1E1E1E"/>
<path d="M71.3336 95.1119H83.2225V107H71.3331L71.3336 95.1119Z" fill="#1E1E1E"/>
<path d="M0 95.1119H11.8889L11.8885 107H0V95.1119Z" fill="#1E1E1E"/>
</svg>
