<svg width="25" height="40" viewBox="0 0 25 40" fill="none" xmlns="http://www.w3.org/2000/svg">
<path d="M0 2.18619H2.18686V4.37305H0V2.18619Z" fill="#1E1E1E"/>
<path d="M0 0H2.18686V2.18619H0V0Z" fill="#1E1E1E"/>
<path d="M2.18686 0H4.37378V2.18686L2.18686 2.18619V0Z" fill="#1E1E1E"/>
<path d="M2.18686 2.18619L4.37378 2.18686V4.37305H2.18686V2.18619Z" fill="#1E1E1E"/>
<path d="M19.6816 2.18619H21.8685V4.37305H19.6816V2.18619Z" fill="#1E1E1E"/>
<path d="M4.37378 0H6.56071V2.18686H4.37378V0Z" fill="#1E1E1E"/>
<path d="M6.56071 0H8.74763V2.18686H6.56071V0Z" fill="#1E1E1E"/>
<path d="M8.74763 0H10.9338V2.18686H8.74763V0Z" fill="#1E1E1E"/>
<path d="M10.9338 0H13.1207V2.18686H10.9338V0Z" fill="#1E1E1E"/>
<path d="M13.1207 0H15.3084V2.18686H13.1207V0Z" fill="#1E1E1E"/>
<path d="M15.3084 0H17.4946V2.18686H15.3084V0Z" fill="#1E1E1E"/>
<path d="M17.4946 0H19.6815L19.6816 2.18619L17.4946 2.18686V0Z" fill="#1E1E1E"/>
<path d="M19.6815 0H21.8685V2.18619H19.6816L19.6815 0Z" fill="#1E1E1E"/>
<path d="M21.8685 0H24.0554V2.18686L21.8685 2.18619V0Z" fill="#1E1E1E"/>
<path d="M19.6816 8.7477H21.8685V10.9346H19.6816V8.7477Z" fill="#1E1E1E"/>
<path d="M19.6816 10.9346H21.8685V13.1207H19.6816V10.9346Z" fill="#1E1E1E"/>
<path d="M17.4947 13.1216L19.6816 13.1207L19.6815 15.3084H17.4947V13.1216Z" fill="#1E1E1E"/>
<path d="M15.3077 15.3077L17.4947 15.3084L17.4946 17.4946H15.3077V15.3077Z" fill="#1E1E1E"/>
<path d="M13.1216 17.4939L15.3077 17.4946L15.3084 19.6808H13.1216V17.4939Z" fill="#1E1E1E"/>
<path d="M13.1216 19.6808H15.3084V21.8685H13.1216V19.6808Z" fill="#1E1E1E"/>
<path d="M8.74697 19.6816H10.9338V21.8685H8.74697V19.6816Z" fill="#1E1E1E"/>
<path d="M6.56078 21.8678L8.74697 21.8685L8.74763 24.0546H6.56078V21.8678Z" fill="#1E1E1E"/>
<path d="M2.18693 26.2416H4.37378V28.4285H2.18693V26.2416Z" fill="#1E1E1E"/>
<path d="M15.3084 21.8685L17.4946 21.8678V24.0546H15.3077L15.3084 21.8685Z" fill="#1E1E1E"/>
<path d="M17.4946 24.0546L19.6815 24.0554V26.2423H17.4947L17.4946 24.0546Z" fill="#1E1E1E"/>
<path d="M4.37385 24.0554L6.56078 24.0546L6.56071 26.2423L4.37378 26.2416L4.37385 24.0554Z" fill="#1E1E1E"/>
<path d="M19.6815 26.2423L21.8685 26.2416V28.4285H19.6816L19.6815 26.2423Z" fill="#1E1E1E"/>
<path d="M19.6816 28.4285H21.8685V30.6162H19.6816V28.4285Z" fill="#1E1E1E"/>
<path d="M2.18693 28.4285H4.37378V30.6162H2.18693V28.4285Z" fill="#1E1E1E"/>
<path d="M19.6816 30.6162H21.8685V32.8023H19.6816V30.6162Z" fill="#1E1E1E"/>
<path d="M2.18693 30.6162H4.37378V32.8023H2.18693V30.6162Z" fill="#1E1E1E"/>
<path d="M6.56078 28.4293H8.74763V30.6162H6.56078V28.4293Z" fill="#1E1E1E"/>
<path d="M8.74763 30.6162L10.9338 30.6155V32.8023H8.74697L8.74763 30.6162Z" fill="#1E1E1E"/>
<path d="M6.56078 30.6162H8.74763L8.74697 32.8023H6.56078V30.6162Z" fill="#1E1E1E"/>
<path d="M8.74697 26.2416H10.9338V28.4285H8.74697V26.2416Z" fill="#1E1E1E"/>
<path d="M13.1208 30.6155H15.3077V32.8023H13.1208V30.6155Z" fill="#1E1E1E"/>
<path d="M15.3077 30.6155H17.4946V32.8023H15.3077V30.6155Z" fill="#1E1E1E"/>
<path d="M15.3077 28.4293H17.4946V30.6155H15.3077L15.3077 28.4293Z" fill="#1E1E1E"/>
<path d="M10.9338 28.4285L13.1207 28.4293L13.1208 30.6155H10.9338V28.4285Z" fill="#1E1E1E"/>
<path d="M13.1208 26.2416H15.3077L15.3077 28.4293H13.1207L13.1208 26.2416Z" fill="#1E1E1E"/>
<path d="M10.9339 24.0554H13.1207L13.1208 26.2416H10.9338L10.9339 24.0554Z" fill="#1E1E1E"/>
<path d="M10.9339 13.1216H13.1207V15.3084H10.9339V13.1216Z" fill="#1E1E1E"/>
<path d="M10.9338 26.2416H13.1208L13.1207 28.4293L10.9338 28.4285V26.2416Z" fill="#1E1E1E"/>
<path d="M8.74697 28.4285H10.9338V30.6155L8.74763 30.6162L8.74697 28.4285Z" fill="#1E1E1E"/>
<path d="M10.9338 30.6155H13.1208V32.8023H10.9338V30.6155Z" fill="#1E1E1E"/>
<path d="M13.1207 28.4293H15.3077L15.3077 30.6155H13.1208L13.1207 28.4293Z" fill="#1E1E1E"/>
<path d="M10.9339 8.7477H13.1207V10.9346H10.9339V8.7477Z" fill="#1E1E1E"/>
<path d="M19.6816 32.8023H21.8685V34.9885H19.6816V32.8023Z" fill="#1E1E1E"/>
<path d="M2.18693 32.8023H4.37378V34.9885H2.18693V32.8023Z" fill="#1E1E1E"/>
<path d="M4.37378 32.8023H6.56078L6.56071 34.9885H4.37378V32.8023Z" fill="#1E1E1E"/>
<path d="M6.56078 32.8023H8.74697L8.74763 34.9885H6.56071L6.56078 32.8023Z" fill="#1E1E1E"/>
<path d="M8.74697 32.8023H10.9338V34.9885H8.74763L8.74697 32.8023Z" fill="#1E1E1E"/>
<path d="M10.9338 32.8023H13.1208L13.1207 34.9885H10.9338V32.8023Z" fill="#1E1E1E"/>
<path d="M13.1208 32.8023H15.3077V34.9885H13.1207L13.1208 32.8023Z" fill="#1E1E1E"/>
<path d="M15.3077 32.8023H17.4946V34.9885H15.3077V32.8023Z" fill="#1E1E1E"/>
<path d="M17.4946 32.8023H19.6816V34.9885H17.4946V32.8023Z" fill="#1E1E1E"/>
<path d="M21.8685 34.9885L24.0554 34.9893V37.1762H21.8685L21.8685 34.9885Z" fill="#1E1E1E"/>
<path d="M19.6816 34.9885H21.8685L21.8685 37.1762H19.6816V34.9885Z" fill="#1E1E1E"/>
<path d="M2.18693 34.9885H4.37378V37.1762H2.18693V34.9885Z" fill="#1E1E1E"/>
<path d="M4.37378 34.9885H6.56071V37.1762H4.37378V34.9885Z" fill="white"/>
<path d="M6.56071 34.9885H8.74763V37.1762H6.56071V34.9885Z" fill="white"/>
<path d="M8.74697 34.9893L10.9338 34.9885V37.1762H8.74763L8.74697 34.9893Z" fill="white"/>
<path d="M10.9338 34.9885H13.1207V37.1762H10.9338V34.9885Z" fill="white"/>
<path d="M13.1207 34.9885H15.3077V37.1762H13.1207V34.9885Z" fill="white"/>
<path d="M15.3077 34.9885H17.4946V37.1762H15.3077V34.9885Z" fill="white"/>
<path d="M17.4946 34.9885H19.6816V37.1762H17.4946V34.9885Z" fill="white"/>
<path d="M17.4946 2.18686L19.6816 2.18619V4.37305H17.4947L17.4946 2.18686Z" fill="white"/>
<path d="M15.3084 2.18686H17.4946L17.4947 4.37305H15.3077L15.3084 2.18686Z" fill="white"/>
<path d="M13.1216 2.18619L15.3084 2.18686L15.3077 4.37305H13.1216V2.18619Z" fill="white"/>
<path d="M10.9338 2.18686H13.1207L13.1216 4.37305H10.9339L10.9338 2.18686Z" fill="white"/>
<path d="M8.74763 2.18686H10.9338L10.9339 4.37305H8.74697L8.74763 2.18686Z" fill="white"/>
<path d="M6.56071 2.18686H8.74763L8.74697 4.37305H6.56078L6.56071 2.18686Z" fill="white"/>
<path d="M4.37378 2.18686H6.56071L6.56078 4.37305H4.37378V2.18686Z" fill="white"/>
<path d="M21.8685 37.1762H24.0554V39.3624H21.8685V37.1762Z" fill="#1E1E1E"/>
<path d="M19.6816 37.1762H21.8685V39.3624H19.6816V37.1762Z" fill="#1E1E1E"/>
<path d="M17.4946 37.1762H19.6816V39.3624H17.4947L17.4946 37.1762Z" fill="#1E1E1E"/>
<path d="M15.3077 37.1762H17.4946L17.4947 39.3624H15.3077L15.3077 37.1762Z" fill="#1E1E1E"/>
<path d="M13.1207 37.1762H15.3077L15.3077 39.3624H13.1208L13.1207 37.1762Z" fill="#1E1E1E"/>
<path d="M10.9338 37.1762H13.1207L13.1208 39.3624H10.9339L10.9338 37.1762Z" fill="#1E1E1E"/>
<path d="M8.74763 37.1762H10.9338L10.9339 39.3624H8.74697L8.74763 37.1762Z" fill="#1E1E1E"/>
<path d="M6.56071 37.1762H8.74763L8.74697 39.3624H6.56078L6.56071 37.1762Z" fill="#1E1E1E"/>
<path d="M4.37378 37.1762H6.56071L6.56078 39.3624H4.37385L4.37378 37.1762Z" fill="#1E1E1E"/>
<path d="M2.18693 37.1762H4.37378L4.37385 39.3624H2.18693V37.1762Z" fill="#1E1E1E"/>
<path d="M0 37.1755L2.18693 37.1762V39.3624H0V37.1755Z" fill="#1E1E1E"/>
<path d="M0 34.9893L2.18693 34.9885V37.1762L0 37.1755V34.9893Z" fill="#1E1E1E"/>
<path d="M0 32.8017L2.18693 32.8023V34.9885L0 34.9893V32.8017Z" fill="#1E1E1E"/>
<path d="M21.8685 32.8023L24.0554 32.8017V34.9893L21.8685 34.9885V32.8023Z" fill="#1E1E1E"/>
<path d="M21.8685 2.18619L24.0554 2.18686V4.37305H21.8685V2.18619Z" fill="#1E1E1E"/>
<path d="M21.8685 4.37305H24.0554V6.56071H21.8685L21.8685 4.37305Z" fill="#1E1E1E"/>
<path d="M19.6816 4.37305H21.8685L21.8685 6.56071H19.6816V4.37305Z" fill="#1E1E1E"/>
<path d="M17.4947 4.37305H19.6816V6.56071H17.4947V4.37305Z" fill="#1E1E1E"/>
<path d="M15.3077 4.37305H17.4947V6.56071H15.3077V4.37305Z" fill="#1E1E1E"/>
<path d="M13.1216 4.37305L15.3084 4.37385L15.3077 6.56071H13.1216V4.37305Z" fill="#1E1E1E"/>
<path d="M10.9339 4.37305L13.1207 4.37385L13.1216 6.56071H10.9339V4.37305Z" fill="#1E1E1E"/>
<path d="M8.74697 4.37305H10.9339V6.56071H8.74697V4.37305Z" fill="#1E1E1E"/>
<path d="M6.56078 4.37305L8.74763 4.37385L8.74697 6.56071H6.56078V4.37305Z" fill="#1E1E1E"/>
<path d="M4.37378 4.37305H6.56078V6.56071H4.37385L4.37378 4.37305Z" fill="#1E1E1E"/>
<path d="M2.18686 4.37305H4.37378L4.37385 6.56071H2.18693L2.18686 4.37305Z" fill="#1E1E1E"/>
<path d="M2.18693 6.56071H4.37385L4.37378 8.7469H2.18693V6.56071Z" fill="#1E1E1E"/>
<path d="M2.18693 8.7469H4.37378V10.9346H2.18693V8.7469Z" fill="#1E1E1E"/>
<path d="M19.6816 6.56071H21.8685L21.8685 8.7477H19.6816V6.56071Z" fill="#1E1E1E"/>
<path d="M2.18693 10.9346H4.37378V13.1207H2.18693V10.9346Z" fill="#1E1E1E"/>
<path d="M4.37378 13.1207L6.56071 13.1216V15.3084H4.37385L4.37378 13.1207Z" fill="#1E1E1E"/>
<path d="M6.56071 15.3084L8.74763 15.3077V17.4946H6.56078L6.56071 15.3084Z" fill="#1E1E1E"/>
<path d="M8.74763 17.4946L10.9338 17.4939V19.6816H8.74697L8.74763 17.4946Z" fill="#1E1E1E"/>
<path d="M0 4.37305H2.18686L2.18693 6.56071H0V4.37305Z" fill="#1E1E1E"/>
</svg>
