<svg width="137" height="125" viewBox="0 0 137 125" fill="none" xmlns="http://www.w3.org/2000/svg">
<path d="M68.2917 37.25H43.4583V43.4583H68.2917V37.25Z" fill="black"/>
<path d="M80.7083 31.0417H68.2917V37.25H80.7083V31.0417Z" fill="black"/>
<path d="M43.4583 24.8333H37.25V37.25H43.4583V24.8333Z" fill="black"/>
<path d="M136.583 24.8333H130.375V74.5H136.583V24.8333Z" fill="black"/>
<path d="M130.375 74.5H124.167V80.7083H130.375L130.375 74.5Z" fill="black"/>
<path d="M130.375 68.2917H124.167V74.5H130.375L130.375 68.2917Z" fill="black"/>
<path d="M130.375 18.625H124.167V24.8333H130.375L130.375 18.625Z" fill="black"/>
<path d="M124.167 80.7083H117.958V86.9167H124.167V80.7083Z" fill="black"/>
<path d="M124.167 62.0833H117.958V68.2917L124.167 68.2917V62.0833Z" fill="black"/>
<path d="M124.167 12.4167H117.958V18.625H124.167V12.4167Z" fill="black"/>
<path d="M117.958 86.9167H111.75V93.125H117.958V86.9167Z" fill="black"/>
<path d="M117.958 80.7083H111.75V86.9167H117.958V80.7083Z" fill="black"/>
<path d="M117.958 55.875H111.75V62.0833L117.958 62.0833V55.875Z" fill="black"/>
<path d="M117.958 6.20833H111.75V12.4167H117.958V6.20833Z" fill="black"/>
<path d="M111.75 93.125H105.542V99.3333H111.75V93.125Z" fill="black"/>
<path d="M111.75 74.5H105.542V80.7083H111.75V74.5Z" fill="black"/>
<path d="M111.75 49.6667H105.542V55.875L111.75 55.875V49.6667Z" fill="black"/>
<path d="M111.75 0H24.8333V6.20833H111.75L111.75 0Z" fill="black"/>
<path d="M105.542 99.3333H99.3333V105.542H105.542V99.3333Z" fill="black"/>
<path d="M105.542 93.125H99.3333V99.3333H105.542V93.125Z" fill="black"/>
<path d="M105.542 68.2917H99.3333V74.5L105.542 74.5V68.2917Z" fill="black"/>
<path d="M117.958 24.8333V31.0417H111.75V43.4583H105.542V49.6667H99.3333V43.4583H93.125V37.25H99.3333V31.0417H105.542V24.8333H117.958Z" fill="black"/>
<path d="M105.542 24.8333H99.3333L99.3333 31.0417H105.542V24.8333Z" fill="black"/>
<path d="M99.3333 105.542H93.125V111.75H99.3333V105.542Z" fill="black"/>
<path d="M99.3333 86.9167H93.125V93.125H99.3333V86.9167Z" fill="black"/>
<path d="M99.3333 62.0833H93.125V68.2917L99.3333 68.2917V62.0833Z" fill="black"/>
<path d="M93.125 111.75H86.9167V117.958H93.125V111.75Z" fill="black"/>
<path d="M93.125 105.542H86.9167V111.75H93.125V105.542Z" fill="black"/>
<path d="M93.125 80.7083H86.9167V86.9167H93.125V80.7083Z" fill="black"/>
<path d="M99.3333 31.0417L86.9167 31.0417V37.25H99.3333V31.0417Z" fill="black"/>
<path d="M86.9167 99.3333H80.7083V105.542H86.9167V99.3333Z" fill="black"/>
<path d="M86.9167 74.5H80.7083V80.7083H86.9167V74.5Z" fill="black"/>
<path d="M86.9167 117.958H74.5V124.167H86.9167L86.9167 117.958Z" fill="black"/>
<path d="M86.9167 105.542V117.958H74.5L74.5 111.75H68.2917V105.542H74.5V99.3333H80.7083V105.542H86.9167Z" fill="#CFF501"/>
<path d="M80.7083 93.125H74.5L74.5 99.3333H80.7083L80.7083 93.125Z" fill="black"/>
<path d="M74.5 99.3333H68.2917V105.542H74.5V99.3333Z" fill="black"/>
<path d="M86.9167 24.8333H68.2917V31.0417H86.9167V24.8333Z" fill="black"/>
<path d="M74.5 111.75H62.0833V117.958H74.5L74.5 111.75Z" fill="black"/>
<path d="M68.2917 105.542L62.0833 105.542V111.75H68.2917V105.542Z" fill="black"/>
<path d="M130.375 24.8333L130.375 68.2917H124.167V62.0833H117.958V55.875H111.75V49.6667H105.542V43.4583H111.75V31.0417H117.958V24.8333H99.3333L99.3333 31.0417L86.9167 31.0417V24.8333H68.2917V37.25H43.4583V24.8333H49.6667V18.625H55.875V12.4167H68.2917V6.20833H111.75V12.4167H117.958V18.625H124.167V24.8333H130.375Z" fill="white"/>
<path d="M62.0833 111.75H55.875V117.958H62.0833V111.75Z" fill="black"/>
<path d="M62.0833 86.9167H55.875V93.125H62.0833V86.9167Z" fill="black"/>
<path d="M68.2917 6.20833H55.875V12.4167H68.2917V6.20833Z" fill="black"/>
<path d="M62.0833 117.958H49.6667V124.167H62.0833L62.0833 117.958Z" fill="black"/>
<path d="M55.875 93.125H49.6667V99.3333H55.875V93.125Z" fill="black"/>
<path d="M55.875 12.4167L49.6667 12.4167V18.625H55.875V12.4167Z" fill="black"/>
<path d="M49.6667 111.75H43.4583V117.958H49.6667V111.75Z" fill="black"/>
<path d="M74.5 86.9167V99.3333H68.2917V105.542L62.0833 105.542V111.75H55.875V117.958H49.6667V111.75H43.4583V105.542H49.6667V99.3333H55.875V93.125H62.0833V86.9167H74.5Z" fill="white"/>
<path d="M49.6667 99.3333H43.4583V105.542H49.6667V99.3333Z" fill="black"/>
<path d="M49.6667 74.5H43.4583V80.7083H49.6667V74.5Z" fill="black"/>
<path d="M49.6667 18.625H43.4583V24.8333H49.6667V18.625Z" fill="black"/>
<path d="M43.4583 105.542H37.25V111.75H43.4583V105.542Z" fill="black"/>
<path d="M62.0833 74.5V86.9167H55.875V93.125H49.6667V99.3333H43.4583V105.542H37.25V99.3333H31.0417V93.125H37.25V86.9167H43.4583L43.4583 80.7083H49.6667V74.5H62.0833Z" fill="white"/>
<path d="M43.4583 80.7083H37.25V86.9167H43.4583L43.4583 80.7083Z" fill="black"/>
<path d="M37.25 99.3333H31.0417V105.542H37.25V99.3333Z" fill="black"/>
<path d="M37.25 86.9167L31.0417 86.9167V93.125H37.25V86.9167Z" fill="black"/>
<path d="M37.25 62.0833H31.0417V68.2917H37.25V62.0833Z" fill="black"/>
<path d="M31.0417 93.125H24.8333V99.3333H31.0417V93.125Z" fill="black"/>
<path d="M31.0417 68.2917L24.8333 68.2917V74.5H31.0417V68.2917Z" fill="black"/>
<path d="M24.8333 86.9167H18.625V93.125H24.8333V86.9167Z" fill="black"/>
<path d="M49.6667 62.0833L49.6667 74.5H43.4583V80.7083H37.25V86.9167L31.0417 86.9167V93.125H24.8333V86.9167H18.625V80.7083H24.8333L24.8333 74.5H31.0417V68.2917H37.25V62.0833H49.6667Z" fill="white"/>
<path d="M24.8333 74.5L18.625 74.5V80.7083H24.8333L24.8333 74.5Z" fill="black"/>
<path d="M24.8333 6.20833H18.625V12.4167H24.8333V6.20833Z" fill="black"/>
<path d="M18.625 80.7083L12.4167 80.7083V86.9167H18.625V80.7083Z" fill="black"/>
<path d="M37.25 49.6667V62.0833H31.0417V68.2917L24.8333 68.2917V74.5L18.625 74.5V80.7083L12.4167 80.7083V74.5H6.20833V68.2917H12.4167V62.0833H18.625V55.875H24.8333V49.6667H37.25Z" fill="white"/>
<path d="M18.625 12.4167H12.4167V18.625H18.625V12.4167Z" fill="black"/>
<path d="M12.4167 74.5H6.20833V80.7083H12.4167V74.5Z" fill="black"/>
<path d="M124.167 68.2917V80.7083H111.75V74.5H105.542V68.2917H99.3333V62.0833H93.125V68.2917L99.3333 68.2917V74.5L105.542 74.5V80.7083H111.75V93.125H99.3333V86.9167H93.125V80.7083H86.9167V74.5H80.7083V80.7083H86.9167V86.9167H93.125V93.125H99.3333V105.542H86.9167V99.3333H80.7083L80.7083 93.125H74.5L74.5 86.9167H62.0833V74.5H49.6667L49.6667 62.0833H37.25V49.6667H24.8333V55.875H18.625V62.0833H12.4167V68.2917H6.20833V24.8333H12.4167L12.4167 18.625H18.625V12.4167H24.8333V6.20833H55.875V12.4167L49.6667 12.4167V18.625H43.4583V24.8333H37.25V37.25H43.4583V43.4583H68.2917V37.25H80.7083V31.0417H86.9167V37.25H93.125V43.4583H99.3333V49.6667H105.542V55.875L111.75 55.875V62.0833L117.958 62.0833V68.2917L124.167 68.2917Z" fill="#CFF501"/>
<path d="M12.4167 18.625H6.20833V24.8333H12.4167L12.4167 18.625Z" fill="black"/>
<path d="M6.20833 24.8333L0 24.8333V74.5H6.20833V24.8333Z" fill="black"/>
</svg>
