<svg  viewBox="0 0 516 720" fill="none" xmlns="http://www.w3.org/2000/svg">
<path d="M216.374 410.247L213.363 407.782C240.19 374.826 251.049 347.256 246.76 323.702C240.829 291.567 207.067 272.122 177.228 254.868C160.529 245.191 144.743 236.062 135.801 225.746C129.139 217.986 126.311 209.587 127.588 200.731C130.326 180.738 152.682 165.858 153.594 165.219L155.784 168.505C155.602 168.688 134.067 183.021 131.512 201.279C130.417 208.948 132.881 216.251 138.812 223.098C147.298 232.958 162.811 241.904 179.236 251.399C209.804 269.018 244.388 289.011 250.593 322.88C255.155 347.712 243.932 376.286 216.374 410.247Z" fill="white" stroke="black" stroke-miterlimit="10" stroke-linecap="round" stroke-linejoin="round"/>
<path d="M308.172 517.973L294.94 509.483C316.749 475.431 316.749 444.482 294.94 420.107C258.714 379.574 185.258 411.617 184.528 411.891L178.141 397.558C178.962 397.193 199.219 388.246 224.952 384.96C260.083 380.487 288.37 389.068 306.803 409.609C333.174 439.37 333.722 477.895 308.172 517.973Z" fill="white" stroke="black" stroke-miterlimit="10" stroke-linecap="round" stroke-linejoin="round"/>
<path d="M-18.0461 190.689C-18.5023 189.684 -30.091 165.401 -32.7373 135.183C-36.296 93.9189 -21.4223 61.6928 10.4239 42.0649C33.6013 27.732 59.1513 23.5326 84.3362 30.0143C113.354 37.5003 136.44 58.1324 142.919 69.7265L129.231 77.395C124.942 69.6351 105.597 51.7419 80.4125 45.2602C59.2425 39.7826 38.5288 43.2517 18.7276 55.3936C-8.19107 72.0088 -20.1448 98.3922 -17.1336 133.814C-14.7611 161.201 -4.08483 183.659 -3.99358 183.842L-18.0461 190.689Z" fill="white" stroke="black" stroke-miterlimit="10" stroke-linecap="round" stroke-linejoin="round"/>
<path d="M151.939 57.3516L114.008 79.2617L120.03 89.6975L157.961 67.7874L151.939 57.3516Z" fill="white" stroke="black" stroke-miterlimit="10" stroke-linecap="round" stroke-linejoin="round"/>
<path d="M440.669 29.9238H414.754V149.882H440.669V29.9238Z" fill="black"/>
<path d="M443.408 113.365H413.113C407.729 117.747 404.262 124.503 404.262 131.989V153.899L452.168 153.808V131.898C452.168 124.412 448.792 117.747 443.408 113.365Z" fill="#00D9EE"/>
<path d="M456.729 153.807H400.062V160.65H456.729V153.807Z" fill="black"/>
<path d="M388.38 278.878L378.616 280.339L351.059 209.039L377.521 205.205L388.38 278.878Z" fill="black"/>
<path d="M489.212 278.329L499.067 277.964L513.119 202.922L486.383 203.926L489.212 278.329Z" fill="black"/>
<path d="M458.733 185.489H401.702C394.767 185.489 389.109 179.829 389.109 172.799C389.109 165.861 394.767 160.201 401.793 160.201H458.824C465.759 160.201 471.417 165.861 471.417 172.891C471.325 179.829 465.668 185.489 458.733 185.489Z" fill="#00D9EE"/>
<path d="M408.273 165.218C404.35 160.836 397.597 160.471 393.217 164.305L355.896 196.532C347.227 203.835 347.41 217.164 356.17 224.284C364.474 231.04 376.884 229.032 382.724 219.994L409.46 178.364C412.015 174.256 411.558 168.87 408.273 165.218Z" fill="#00D9EE" stroke="black" stroke-miterlimit="10" stroke-linecap="round" stroke-linejoin="round"/>
<path d="M362.741 205.478C359.73 209.221 361.372 214.79 365.843 216.342C368.581 217.346 371.683 216.433 373.508 214.151C376.52 210.408 374.877 204.839 370.406 203.287C367.668 202.374 364.566 203.196 362.741 205.478Z" fill="black"/>
<path d="M395.406 170.148C393.125 173.07 394.311 177.269 397.779 178.547C399.877 179.278 402.341 178.639 403.71 176.904C405.991 173.983 404.805 169.783 401.337 168.505C399.147 167.684 396.775 168.414 395.406 170.148Z" fill="black"/>
<path d="M450.521 165.765C453.897 160.927 460.467 159.648 465.395 162.844L506.64 189.866C516.13 195.983 517.772 209.22 510.016 217.436C502.625 225.288 490.124 224.922 483.189 216.706L451.251 179.002C447.966 175.259 447.692 169.782 450.521 165.765Z" fill="#00D9EE" stroke="black" stroke-miterlimit="10" stroke-linecap="round" stroke-linejoin="round"/>
<path d="M454.81 171.79C454.08 175.442 457.183 178.637 460.833 178.089C463.023 177.816 464.848 176.081 465.304 173.89C466.034 170.238 462.932 167.043 459.282 167.591C457.092 167.865 455.267 169.599 454.81 171.79Z" fill="black"/>
<path d="M489.301 203.377C488.388 208.125 492.312 212.233 497.057 211.594C499.977 211.228 502.349 208.946 502.897 206.116C503.809 201.369 499.886 197.261 495.141 197.9C492.221 198.265 489.848 200.547 489.301 203.377Z" fill="black"/>
<path d="M432.633 23.623H337.277V54.2972H432.633V23.623Z" fill="white" stroke="black" stroke-miterlimit="10" stroke-linecap="round" stroke-linejoin="round"/>
<path d="M348.868 72.5563H287.092C268.568 72.5563 253.512 57.4931 253.512 38.9608C253.512 20.4284 268.568 5.36523 287.092 5.36523H348.868V72.5563Z" fill="#00D9EE" stroke="black" stroke-miterlimit="10" stroke-linecap="round" stroke-linejoin="round"/>
<path d="M428.893 72.5563H385.367V5.36523H428.893C447.417 5.36523 462.473 20.4284 462.473 38.9608C462.473 57.5844 447.417 72.5563 428.893 72.5563Z" fill="#00D9EE"/>
<path d="M436.833 55.0278C427.799 58.7708 417.396 54.5714 413.655 45.5334C409.914 36.4955 414.111 26.0881 423.145 22.3452C432.179 18.6022 442.581 22.8016 446.322 31.8396C450.064 40.8775 445.866 51.2848 436.833 55.0278ZM426.065 29.1921C420.864 31.3831 418.4 37.4084 420.59 42.6121C422.78 47.8157 428.803 50.2806 434.004 48.0896C439.205 45.8986 441.669 39.8733 439.479 34.6696C437.289 29.5573 431.266 27.0924 426.065 29.1921Z" fill="white" stroke="black" stroke-miterlimit="10" stroke-linecap="round" stroke-linejoin="round"/>
<path d="M163.692 179.943L110.457 97.5059L93.2874 108.604L146.523 191.041L163.692 179.943Z" fill="white" stroke="black" stroke-miterlimit="10" stroke-linecap="round" stroke-linejoin="round"/>
<path d="M-5.36146 230.583C-13.3914 218.167 -9.74145 201.643 2.66852 193.61L140.273 104.965L169.199 149.972L31.5947 238.617C19.1847 246.65 2.66852 242.999 -5.36146 230.583Z" fill="white" stroke="black" stroke-miterlimit="10" stroke-linecap="round" stroke-linejoin="round"/>
<path d="M157.337 192.698L306.165 82.3253C325.327 68.175 330.072 41.5177 317.115 21.5247C304.158 1.53166 277.878 -4.85883 257.164 6.82658L96.1992 98.0276L157.337 192.698Z" fill="#00D9EE" stroke="black" stroke-miterlimit="10" stroke-linecap="round" stroke-linejoin="round"/>
<path d="M294.942 70.4567C281.619 79.1295 263.643 75.2952 254.975 61.9666C246.306 48.6379 250.138 30.6533 263.461 21.9806C276.783 13.3078 294.759 17.1421 303.428 30.4707C312.097 43.8907 308.356 61.784 294.942 70.4567ZM270.122 32.2053C262.366 37.2263 260.176 47.6337 265.194 55.3935C270.213 63.1534 280.616 65.3444 288.372 60.3233C296.128 55.3022 298.318 44.8949 293.299 37.1351C288.189 29.3752 277.878 27.1842 270.122 32.2053Z" fill="white" stroke="black" stroke-miterlimit="10" stroke-linecap="round" stroke-linejoin="round"/>
<path d="M215.188 461.553C178.962 492.958 124.121 489.032 92.731 452.881L-49.8012 288.372C-81.1911 252.129 -77.2674 197.262 -41.0412 165.858C-4.81504 134.453 50.0261 138.379 81.416 174.531L223.948 339.039C255.338 375.282 251.414 430.149 215.188 461.553Z" fill="#00D9EE"/>
<path d="M-17.4982 193.064C-36.5694 209.588 -38.5769 238.527 -22.0607 257.607C-5.54446 276.687 23.3817 278.787 42.4529 262.172C61.5242 245.648 63.5316 216.708 47.0154 197.628C30.408 178.548 1.57302 176.54 -17.4982 193.064ZM30.3167 248.295C18.9105 258.155 1.66428 256.968 -8.1907 245.557C-18.0457 234.145 -16.8594 216.891 -5.45321 206.94C5.95302 197.081 23.1992 198.267 33.1455 209.679C43.0004 221.09 41.7229 238.345 30.3167 248.295Z" fill="white" stroke="black" stroke-miterlimit="10" stroke-linecap="round" stroke-linejoin="round"/>
<path d="M246.488 477.438H88.8086V409.699C88.8086 366.152 124.122 330.822 167.648 330.822C211.175 330.822 246.488 366.152 246.488 409.699V477.438Z" fill="white" stroke="black" stroke-miterlimit="10" stroke-linecap="round" stroke-linejoin="round"/>
<path d="M145.019 381.489C130.054 394.452 128.412 417.184 141.461 432.156C154.418 447.128 177.139 448.771 192.104 435.716C207.069 422.753 208.712 400.021 195.663 385.049C182.614 370.168 159.984 368.525 145.019 381.489ZM182.614 424.853C173.672 432.612 160.076 431.608 152.319 422.662C144.563 413.715 145.476 400.112 154.509 392.353C163.452 384.593 177.048 385.506 184.804 394.544C192.469 403.49 191.557 417.093 182.614 424.853Z" fill="#00D9EE" stroke="black" stroke-miterlimit="10" stroke-linecap="round" stroke-linejoin="round"/>
<path d="M272.494 469.496H70.832V528.745H272.494V469.496Z" fill="white" stroke="black" stroke-miterlimit="10" stroke-linecap="round" stroke-linejoin="round"/>
<path d="M339.001 551.256L-17.1325 552.206C-17.315 553.85 -17.4062 555.493 -17.4062 557.228V729.313H341.57V557.228C341.57 555.493 339.183 552.899 339.001 551.256Z" fill="#00D9EE"/>
<path d="M264.047 497.588C264.005 497.576 263.961 497.57 263.917 497.57H61.7987C61.7544 497.57 61.7102 497.576 61.6674 497.588C40.0079 503.485 21.2147 511.494 7.41398 521.655C-6.38949 531.817 -15.2358 544.162 -16.8991 558.723C-16.9153 558.864 -16.8703 559.006 -16.7754 559.113C-16.6806 559.219 -16.5448 559.28 -16.4023 559.28H342.027C342.169 559.28 342.305 559.219 342.4 559.113C342.495 559.006 342.54 558.864 342.524 558.723C340.86 544.163 332.038 531.795 318.257 521.621C304.479 511.449 285.708 503.44 264.047 497.588Z" fill="#00D9EE" stroke="black" stroke-miterlimit="10" stroke-linecap="round" stroke-linejoin="round"/>
<path d="M361.92 677.004H-24.7969V729.406H361.92V677.004Z" fill="white" stroke="black" stroke-miterlimit="10" stroke-linecap="round" stroke-linejoin="round"/>
<path d="M128.684 601.961C123.392 601.961 119.012 597.671 119.012 592.284C119.012 586.989 123.3 582.607 128.684 582.607C133.977 582.607 138.357 586.898 138.357 592.284C138.357 597.671 133.977 601.961 128.684 601.961Z" fill="white" stroke="black" stroke-miterlimit="10" stroke-linecap="round" stroke-linejoin="round"/>
<path d="M161.442 601.961C156.15 601.961 151.77 597.671 151.77 592.284C151.77 586.989 156.058 582.607 161.442 582.607C166.735 582.607 171.114 586.898 171.114 592.284C171.114 597.671 166.735 601.961 161.442 601.961Z" fill="white" stroke="black" stroke-miterlimit="10" stroke-linecap="round" stroke-linejoin="round"/>
<path d="M194.11 601.961C188.817 601.961 184.438 597.671 184.438 592.284C184.438 586.989 188.726 582.607 194.11 582.607C199.402 582.607 203.782 586.898 203.782 592.284C203.782 597.671 199.494 601.961 194.11 601.961Z" fill="white" stroke="black" stroke-miterlimit="10" stroke-linecap="round" stroke-linejoin="round"/>
<path d="M226.868 601.961C221.575 601.961 217.195 597.671 217.195 592.284C217.195 586.989 221.484 582.607 226.868 582.607C232.16 582.607 236.54 586.898 236.54 592.284C236.54 597.671 232.16 601.961 226.868 601.961Z" fill="white" stroke="black" stroke-miterlimit="10" stroke-linecap="round" stroke-linejoin="round"/>
<path d="M81.5999 668.605H23.6562V615.473H81.5086V668.605H81.5999ZM24.5687 667.692H80.6874V616.294H24.5687V667.692Z" fill="white" stroke="black" stroke-miterlimit="10" stroke-linecap="round" stroke-linejoin="round"/>
<path d="M41.3591 529.11C47.2903 520.62 56.0503 514.686 64.8103 509.391H60.5215C51.7615 514.686 42.9103 520.62 37.0703 529.11H41.3591Z" fill="white" stroke="black" stroke-miterlimit="10" stroke-linecap="round" stroke-linejoin="round"/>
<path d="M51.488 529.11C57.3279 520.62 66.1792 514.686 74.9392 509.391H70.6504C61.8904 514.686 53.0392 520.62 47.1992 529.11H51.488Z" fill="white" stroke="black" stroke-miterlimit="10" stroke-linecap="round" stroke-linejoin="round"/>
<path d="M61.6169 529.11C67.4569 520.62 76.3081 514.686 85.0681 509.391H80.7793C72.0193 514.686 63.2594 520.62 57.3281 529.11H61.6169Z" fill="white" stroke="black" stroke-miterlimit="10" stroke-linecap="round" stroke-linejoin="round"/>
<path d="M71.652 529.11C77.492 520.62 86.3432 514.686 95.012 509.391H90.7232C81.9632 514.686 73.2033 520.62 67.3633 529.11H71.652Z" fill="white" stroke="black" stroke-miterlimit="10" stroke-linecap="round" stroke-linejoin="round"/>
<path d="M81.7809 529.11C87.6209 520.62 96.4722 514.686 105.141 509.391H100.852C92.1834 514.686 83.3322 520.62 77.4922 529.11H81.7809Z" fill="white" stroke="black" stroke-miterlimit="10" stroke-linecap="round" stroke-linejoin="round"/>
<path d="M91.9098 529.11C97.7498 520.62 106.51 514.686 115.27 509.391H110.981C102.312 514.686 93.4611 520.62 87.6211 529.11H91.9098Z" fill="white" stroke="black" stroke-miterlimit="10" stroke-linecap="round" stroke-linejoin="round"/>
<path d="M102.039 529.11C107.879 520.62 116.639 514.686 125.399 509.391H121.11C112.441 514.686 103.59 520.62 97.75 529.11H102.039Z" fill="white" stroke="black" stroke-miterlimit="10" stroke-linecap="round" stroke-linejoin="round"/>
</svg>
