<svg width="1657" height="447" viewBox="0 0 1657 447" fill="none" xmlns="http://www.w3.org/2000/svg">
<path d="M1139 246.217L1143.13 244.348L1142.24 239.329L1137.72 238.936C1137.13 237.362 1136.34 235.984 1135.46 234.607L1137.82 230.671L1134.28 227.129L1130.25 229.49C1127.98 227.916 1125.43 226.833 1122.57 226.341L1121.39 221.717H1116.38L1115.2 226.341C1113.62 226.637 1112.05 227.128 1110.67 227.817L1107.04 224.669L1102.9 227.522L1104.58 231.95C1103.49 233.131 1102.51 234.311 1101.72 235.689L1097 235.197L1095.23 239.92L1099.17 242.577C1098.97 243.659 1098.87 244.741 1098.87 245.922C1098.87 246.414 1098.87 246.906 1098.97 247.3L1094.84 249.661L1096.12 254.581L1100.84 254.482C1101.53 255.958 1102.41 257.336 1103.4 258.615L1101.33 262.846L1105.17 266.093L1108.9 263.436C1110.28 264.223 1111.85 264.912 1113.43 265.306L1114.21 269.832L1119.23 270.226L1120.71 265.896C1122.38 265.699 1124.05 265.404 1125.52 264.814L1128.67 268.061L1133 265.503L1131.82 261.173C1133.1 260.091 1134.18 258.91 1135.16 257.533L1139.59 258.32L1141.75 253.695L1138.31 250.842C1138.8 249.563 1139 247.89 1139 246.217ZM1131.52 246.119C1131.52 253.105 1125.92 258.713 1118.94 258.713C1111.95 258.713 1106.35 253.105 1106.35 246.119C1106.35 239.133 1111.95 233.524 1118.94 233.524C1125.92 233.524 1131.52 239.133 1131.52 246.119Z" fill="black"/>
<path d="M1499.94 246.217L1504.07 244.348L1503.19 239.329L1498.66 238.936C1498.07 237.362 1497.29 235.984 1496.4 234.607L1498.76 230.671L1495.22 227.129L1491.19 229.49C1488.93 227.916 1486.37 226.833 1483.52 226.341L1482.34 221.717H1477.32L1476.14 226.341C1474.57 226.637 1473 227.128 1471.62 227.817L1467.98 224.669L1463.85 227.522L1465.52 231.95C1464.44 233.131 1463.46 234.311 1462.57 235.689L1457.85 235.197L1456.08 239.92L1460.01 242.577C1459.82 243.659 1459.72 244.741 1459.72 245.922C1459.72 246.414 1459.72 246.906 1459.82 247.3L1455.69 249.661L1456.96 254.581L1461.68 254.482C1462.37 255.958 1463.26 257.336 1464.24 258.615L1462.18 262.846L1466.01 266.093L1469.75 263.436C1471.13 264.223 1472.7 264.912 1474.27 265.306L1475.06 269.832L1480.08 270.226L1481.55 265.896C1483.22 265.699 1484.9 265.404 1486.37 264.814L1489.52 268.061L1493.85 265.503L1492.66 261.173C1493.94 260.091 1495.03 258.91 1496.01 257.533L1500.43 258.32L1502.6 253.695L1499.16 250.842C1499.75 249.563 1499.94 247.89 1499.94 246.217ZM1492.47 246.119C1492.47 253.105 1486.86 258.713 1479.88 258.713C1472.9 258.713 1467.29 253.105 1467.29 246.119C1467.29 239.133 1472.9 233.524 1479.88 233.524C1486.86 233.524 1492.47 239.133 1492.47 246.119Z" fill="black"/>
<path d="M1333.44 223.586H1301.18V387.217H1333.44V223.586Z" fill="black" stroke="black" stroke-width="2.4679" stroke-miterlimit="10" stroke-linecap="round" stroke-linejoin="round"/>
<path d="M1355.86 279.375H1278.56V505.684H1355.86V279.375Z" fill="white" stroke="black" stroke-miterlimit="10" stroke-linecap="round" stroke-linejoin="round"/>
<path d="M1323.02 279.377H1311.51V505.686H1323.02V279.377Z" fill="white" stroke="black" stroke-miterlimit="10" stroke-linecap="round" stroke-linejoin="round"/>
<path d="M1801.87 216.994H993.246V244.938H1801.87V216.994Z" fill="#CFF501" stroke="white" stroke-width="2" stroke-miterlimit="10"/>
<path d="M1093.56 218.666V244.839" stroke="white" stroke-width="2" stroke-miterlimit="10"/>
<path d="M1120.51 218.666V244.839" stroke="white" stroke-width="2" stroke-miterlimit="10"/>
<path d="M1147.36 218.666V244.839" stroke="white" stroke-width="2" stroke-miterlimit="10"/>
<path d="M1174.31 218.666V244.839" stroke="white" stroke-width="2" stroke-miterlimit="10"/>
<path d="M1201.16 218.666V244.839" stroke="white" stroke-width="2" stroke-miterlimit="10"/>
<path d="M1228.11 218.666V244.839" stroke="white" stroke-width="2" stroke-miterlimit="10"/>
<path d="M1254.95 218.666V244.839" stroke="white" stroke-width="2" stroke-miterlimit="10"/>
<path d="M1281.8 218.666V244.839" stroke="white" stroke-width="2" stroke-miterlimit="10"/>
<path d="M1308.75 218.666V244.839" stroke="white" stroke-width="2" stroke-miterlimit="10"/>
<path d="M1335.6 218.666V244.839" stroke="white" stroke-width="2" stroke-miterlimit="10"/>
<path d="M1362.55 218.666V244.839" stroke="white" stroke-width="2" stroke-miterlimit="10"/>
<path d="M1389.4 218.666V244.839" stroke="white" stroke-width="2" stroke-miterlimit="10"/>
<path d="M1416.34 218.666V244.839" stroke="white" stroke-width="2" stroke-miterlimit="10"/>
<path d="M1443.2 218.666V244.839" stroke="white" stroke-width="2" stroke-miterlimit="10"/>
<path d="M1470.04 218.666V244.839" stroke="white" stroke-width="2" stroke-miterlimit="10"/>
<path d="M1496.99 218.666V244.839" stroke="white" stroke-width="2" stroke-miterlimit="10"/>
<path d="M1523.84 218.666V244.839" stroke="white" stroke-width="2" stroke-miterlimit="10"/>
<path d="M1550.79 218.666V244.839" stroke="white" stroke-width="2" stroke-miterlimit="10"/>
<path d="M1577.64 218.666V244.839" stroke="white" stroke-width="2" stroke-miterlimit="10"/>
<path d="M1604.58 218.666V244.839" stroke="white" stroke-width="2" stroke-miterlimit="10"/>
<path d="M146.755 246.217L150.885 244.348L150 239.329L145.476 238.936C144.886 237.362 144.099 235.984 143.214 234.607L145.574 230.671L142.034 227.129L138.001 229.49C135.739 227.916 133.182 226.833 130.33 226.341L129.15 221.717H124.134L122.954 226.341C121.38 226.637 119.807 227.128 118.43 227.817L114.791 224.669L110.66 227.522L112.332 231.95C111.25 233.131 110.267 234.311 109.48 235.689L104.759 235.197L102.989 239.92L106.923 242.577C106.726 243.659 106.628 244.741 106.628 245.922C106.628 246.414 106.628 246.906 106.726 247.3L102.596 249.661L103.874 254.581L108.595 254.482C109.283 255.958 110.169 257.336 111.152 258.615L109.087 262.846L112.922 266.093L116.66 263.436C118.037 264.223 119.61 264.912 121.184 265.306L121.971 269.832L126.986 270.226L128.462 265.896C130.134 265.699 131.805 265.404 133.281 264.814L136.428 268.061L140.755 265.503L139.575 261.173C140.854 260.091 141.935 258.91 142.919 257.533L147.345 258.32L149.508 253.695L146.066 250.842C146.558 249.563 146.755 247.89 146.755 246.217ZM139.378 246.119C139.378 253.105 133.772 258.713 126.79 258.713C119.807 258.713 114.201 253.105 114.201 246.119C114.201 239.133 119.807 233.524 126.79 233.524C133.674 233.524 139.378 239.133 139.378 246.119Z" fill="black"/>
<path d="M504.252 257.221L508.729 257.934L510.75 253.257L507.189 250.438C507.562 248.798 507.663 247.215 507.682 245.577L511.817 243.591L510.81 238.684L506.144 238.436C505.121 235.876 503.581 233.564 501.47 231.583L503.029 227.072L498.841 224.311L495.311 227.522C493.835 226.902 492.251 226.447 490.722 226.264L489.416 221.631L484.397 221.74L483.358 226.357C481.805 226.748 480.334 227.192 478.838 227.855L475.166 224.845L471.09 227.814L472.914 232.198C472.154 232.994 471.477 233.843 470.828 234.829C470.557 235.24 470.286 235.651 470.152 236.033L465.404 235.731L463.766 240.543L467.761 243.06C467.524 244.671 467.506 246.309 467.623 247.918L463.572 250.314L464.988 255.137L469.57 254.976C470.287 256.391 471.222 257.833 472.319 259.028L470.487 263.24L474.458 266.33L478.071 263.527C479.576 264.284 481.134 264.958 482.691 265.277L483.532 269.721L488.553 269.967L489.949 265.702C491.611 265.503 493.164 265.112 494.743 264.503L498.006 267.597L502.356 264.927L501.051 260.65C502.247 259.906 503.332 258.618 504.252 257.221ZM498.065 253.024C494.222 258.857 486.457 260.454 480.626 256.609C474.796 252.765 473.2 244.996 477.042 239.163C480.885 233.329 488.651 231.733 494.481 235.577C500.312 239.422 501.907 247.191 498.065 253.024Z" fill="black"/>
<path d="M341.192 223.586H308.934V387.217H341.192V223.586Z" fill="black" stroke="black" stroke-width="2.4679" stroke-miterlimit="10" stroke-linecap="round" stroke-linejoin="round"/>
<path d="M363.716 279.375H286.413V505.684H363.716V279.375Z" fill="white" stroke="black" stroke-miterlimit="10" stroke-linecap="round" stroke-linejoin="round"/>
<path d="M330.768 279.377H319.261V505.686H330.768V279.377Z" fill="white" stroke="black" stroke-miterlimit="10" stroke-linecap="round" stroke-linejoin="round"/>
<path d="M809.628 216.992H1V244.936H809.628V216.992Z" fill="#CFF501" stroke="white" stroke-width="2" stroke-miterlimit="10"/>
<path d="M101.417 218.664V244.837" stroke="white" stroke-width="2" stroke-miterlimit="10"/>
<path d="M128.265 218.664V244.837" stroke="white" stroke-width="2" stroke-miterlimit="10"/>
<path d="M155.113 218.664V244.837" stroke="white" stroke-width="2" stroke-miterlimit="10"/>
<path d="M182.062 218.664V244.837" stroke="white" stroke-width="2" stroke-miterlimit="10"/>
<path d="M208.911 218.664V244.837" stroke="white" stroke-width="2" stroke-miterlimit="10"/>
<path d="M235.855 218.664V244.837" stroke="white" stroke-width="2" stroke-miterlimit="10"/>
<path d="M262.708 218.664V244.837" stroke="white" stroke-width="2" stroke-miterlimit="10"/>
<path d="M289.653 218.664V244.837" stroke="white" stroke-width="2" stroke-miterlimit="10"/>
<path d="M316.506 218.664V244.837" stroke="white" stroke-width="2" stroke-miterlimit="10"/>
<path d="M343.354 218.664V244.837" stroke="white" stroke-width="2" stroke-miterlimit="10"/>
<path d="M370.304 218.664V244.837" stroke="white" stroke-width="2" stroke-miterlimit="10"/>
<path d="M397.151 218.664V244.837" stroke="white" stroke-width="2" stroke-miterlimit="10"/>
<path d="M424.101 218.664V244.837" stroke="white" stroke-width="2" stroke-miterlimit="10"/>
<path d="M450.949 218.664V244.837" stroke="white" stroke-width="2" stroke-miterlimit="10"/>
<path d="M477.895 218.664V244.837" stroke="white" stroke-width="2" stroke-miterlimit="10"/>
<path d="M504.747 218.664V244.837" stroke="white" stroke-width="2" stroke-miterlimit="10"/>
<path d="M531.691 218.664V244.837" stroke="white" stroke-width="2" stroke-miterlimit="10"/>
<path d="M558.544 218.664V244.837" stroke="white" stroke-width="2" stroke-miterlimit="10"/>
<path d="M585.393 218.664V244.837" stroke="white" stroke-width="2" stroke-miterlimit="10"/>
<path d="M612.338 218.664V244.837" stroke="white" stroke-width="2" stroke-miterlimit="10"/>
<path d="M994.723 7.11719H711.575L711.083 505.685H994.723V228.801V7.11719Z" fill="white" stroke="black" stroke-miterlimit="10" stroke-linecap="round" stroke-linejoin="round"/>
<path d="M1008.69 2H985.085V272.882H1008.69V2Z" fill="black" stroke="black" stroke-width="2.4679" stroke-miterlimit="10" stroke-linecap="round" stroke-linejoin="round"/>
<path d="M722.49 2H698.886V272.882H722.49V2Z" fill="black" stroke="black" stroke-width="2.4679" stroke-miterlimit="10" stroke-linecap="round" stroke-linejoin="round"/>
<path d="M778.744 504.603V219.159H859.391V7.9043" stroke="black" stroke-miterlimit="10" stroke-linecap="round" stroke-linejoin="round"/>
<path d="M808.843 361.043H792.714V377.18H808.843V361.043Z" fill="#00D9EE"/>
<path d="M833.528 361.043H817.398V377.18H833.528V361.043Z" fill="#00D9EE"/>
<path d="M858.313 361.043H842.184V377.18H858.313V361.043Z" fill="#00D9EE"/>
<path d="M808.843 391.152H792.714V407.289H808.843V391.152Z" fill="#00D9EE"/>
<path d="M833.528 391.152H817.398V407.289H833.528V391.152Z" fill="#00D9EE"/>
<path d="M858.313 391.152H842.184V407.289H858.313V391.152Z" fill="#00D9EE"/>
<path d="M808.843 421.262H792.714V437.399H808.843V421.262Z" fill="#00D9EE"/>
<path d="M833.528 421.262H817.398V437.399H833.528V421.262Z" fill="#00D9EE"/>
<path d="M858.313 421.262H842.184V437.399H858.313V421.262Z" fill="#00D9EE"/>
<path d="M954.495 39.8828H753.862V198.299H954.495V39.8828Z" fill="white" stroke="black" stroke-miterlimit="10" stroke-linecap="round" stroke-linejoin="round"/>
<path d="M818.581 186.883C833.029 186.883 844.742 175.165 844.742 160.71C844.742 146.255 833.029 134.537 818.581 134.537C804.133 134.537 792.42 146.255 792.42 160.71C792.42 175.165 804.133 186.883 818.581 186.883Z" fill="#00D9EE"/>
<path d="M800.583 145.359L809.434 153.723C807.86 155.691 806.975 158.052 806.877 160.709H794.682C794.78 154.904 797.042 149.492 800.583 145.359Z" fill="white"/>
<path d="M802.647 143.294C806.68 139.653 814.843 137.193 818.088 137.193L817.892 149.394C815.531 149.493 813.368 150.378 811.597 151.756L802.647 143.294Z" fill="white"/>
<path d="M835.792 143.588L827.038 152.149C825.563 150.87 823.695 149.984 821.728 149.59L821.924 137.291C827.235 137.783 832.054 140.144 835.792 143.588Z" fill="white"/>
<path d="M843.364 160.808H831.07C831.07 158.349 830.283 156.184 828.906 154.314L837.659 145.754C841.2 149.788 843.265 155.003 843.364 160.808Z" fill="white"/>
<path d="M811.208 141.916L820.846 158.643L816.322 160.513L811.208 141.916Z" fill="black"/>
<path d="M822.222 158.25C823.009 160.217 822.124 162.479 820.157 163.364C818.19 164.249 815.928 163.266 815.043 161.299C814.256 159.332 815.141 157.069 817.108 156.184C819.075 155.398 821.435 156.283 822.222 158.25Z" fill="black"/>
<path d="M892.243 186.883C906.691 186.883 918.404 175.165 918.404 160.71C918.404 146.255 906.691 134.537 892.243 134.537C877.795 134.537 866.082 146.255 866.082 160.71C866.082 175.165 877.795 186.883 892.243 186.883Z" fill="#00D9EE"/>
<path d="M874.248 145.359L883.099 153.723C881.526 155.691 880.641 158.052 880.542 160.709H868.445C868.445 154.904 870.609 149.492 874.248 145.359Z" fill="white"/>
<path d="M876.213 143.294C880.344 139.555 885.654 137.292 891.654 137.193L891.457 149.394C889.097 149.493 886.933 150.378 885.163 151.756L876.213 143.294Z" fill="white"/>
<path d="M908.473 143.588L899.72 152.149C898.245 150.87 896.376 149.984 894.409 149.59L894.606 137.291C899.917 137.783 904.736 140.144 908.473 143.588Z" fill="white"/>
<path d="M915.947 160.808H903.752C903.752 158.349 902.965 156.184 901.588 154.314L910.341 145.754C913.882 149.788 915.947 155.003 915.947 160.808Z" fill="white"/>
<path d="M910.929 154.709L893.128 162.085L891.85 157.364L910.929 154.709Z" fill="black"/>
<path d="M893.325 163.463C891.26 164.053 889.096 162.774 888.604 160.709C888.014 158.644 889.293 156.48 891.358 155.988C893.423 155.398 895.587 156.677 896.079 158.742C896.571 160.807 895.39 162.873 893.325 163.463Z" fill="black"/>
<path d="M932.566 51.1973H776.584V109.841H932.566V51.1973Z" fill="#00D9EE"/>
<path d="M837.757 92.918H825.168V101.179H837.757V92.918Z" fill="white"/>
<path d="M837.757 83.1758H825.168V91.4372H837.757V83.1758Z" fill="white"/>
<path d="M837.757 73.3359H825.168V81.5973H837.757V73.3359Z" fill="white"/>
<path d="M837.757 63.5957H825.168V71.8571H837.757V63.5957Z" fill="white"/>
<path d="M852.31 92.916H839.722V101.177H852.31V92.916Z" fill="white"/>
<path d="M852.31 83.1758H839.722V91.4372H852.31V83.1758Z" fill="white"/>
<path d="M852.31 73.3359H839.722V81.5973H852.31V73.3359Z" fill="white"/>
<path d="M896.571 92.916H883.982V101.177H896.571V92.916Z" fill="white"/>
<path d="M896.571 83.1758H883.982V91.4372H896.571V83.1758Z" fill="white"/>
<path d="M896.571 73.3359H883.982V81.5973H896.571V73.3359Z" fill="white"/>
<path d="M867.162 92.918H854.573V101.179H867.162V92.918Z" fill="white"/>
<path d="M867.162 83.1758H854.573V91.4372H867.162V83.1758Z" fill="white"/>
<path d="M867.162 73.3359H854.573V81.5973H867.162V73.3359Z" fill="white"/>
<path d="M867.162 63.5957H854.573V71.8571H867.162V63.5957Z" fill="white"/>
<path d="M881.722 92.916H869.133V101.177H881.722V92.916Z" fill="white"/>
<path d="M808.35 92.916H795.762V101.177H808.35V92.916Z" fill="white"/>
<path d="M881.722 83.1758H869.133V91.4372H881.722V83.1758Z" fill="white"/>
<path d="M823.101 92.916H810.513V101.177H823.101V92.916Z" fill="white"/>
<path d="M823.101 83.1758H810.513V91.4372H823.101V83.1758Z" fill="white"/>
<path d="M910.926 92.916H898.337V101.177H910.926V92.916Z" fill="white"/>
<path d="M910.926 83.1758H898.337V91.4372H910.926V83.1758Z" fill="white"/>
<path d="M507.986 173.701H516.739C518.116 173.898 519.198 174.685 519.985 176.063C524.706 183.737 518.116 206.565 517.33 209.32L511.429 210.501C510.445 210.698 509.265 210.993 508.085 211.485V173.701H507.986Z" fill="white"/>
<path d="M516.641 174.193C517.821 174.39 518.804 175.078 519.493 176.259C523.918 183.54 517.919 205.089 516.837 208.828L511.231 210.009C510.346 210.206 509.461 210.402 508.478 210.796V174.193H516.641ZM516.739 173.209H507.494V212.173C508.773 211.681 510.15 211.288 511.428 210.993C517.624 209.714 517.624 209.714 517.624 209.714C517.624 209.714 528.344 175.177 516.739 173.209Z" fill="black"/>
<path d="M507.398 173.209C507.398 173.209 499.136 173.898 498.448 183.147C497.661 192.495 490.58 197.906 488.908 202.826C487.236 207.746 489.301 214.338 493.629 217.389C495.497 214.929 498.743 212.174 504.939 210.895C511.135 209.615 511.135 209.615 511.135 209.615C511.135 209.615 523.33 170.159 507.398 173.209Z" fill="black"/>
<path d="M505.924 214.534L504.547 214.239C504.547 214.042 508.284 196.627 510.054 185.311C511.235 178.128 508.579 174.783 506.711 173.307C507.202 173.208 507.792 173.11 508.481 173.012C510.448 174.98 512.513 178.719 511.431 185.409C509.661 196.922 506.022 214.436 505.924 214.534Z" fill="white"/>
<path d="M518.508 204.497H509.755V217.485H531.097C531.097 217.485 530.015 203.907 518.508 204.497Z" fill="black"/>
<path d="M494.315 216.994C495.397 214.436 500.02 205.482 510.248 204.99C510.445 204.99 510.641 204.99 510.936 204.99C520.083 204.99 521.952 214.633 522.247 216.994H494.315Z" fill="white"/>
<path d="M510.838 204.498V205.482C519.001 205.482 521.066 213.55 521.558 216.502H495.004C496.479 213.452 500.905 205.974 510.149 205.482C510.346 205.482 510.543 205.482 510.739 205.482L510.838 204.498ZM510.838 204.498C510.641 204.498 510.346 204.498 510.149 204.498C497.757 205.088 493.528 217.486 493.528 217.486H522.64C522.738 217.486 521.755 204.498 510.838 204.498Z" fill="black"/>
<path d="M528.541 217.482C528.541 213.253 526.869 211.385 526.869 211.385H524.705C524.705 211.385 526.082 214.237 526.18 217.482H528.541Z" fill="white"/>
<path d="M581.749 173.207C578.7 173.207 574.963 171.141 570.046 166.713C562.965 160.318 560.408 155.791 561.981 151.757C562.079 151.56 561.981 151.364 561.883 151.265L560.506 149.986L565.718 147.428H565.817C566.8 146.936 567.98 146.641 569.259 146.641C574.57 146.641 581.159 150.872 585.192 154.512C591.486 160.219 592.273 164.155 588.24 169.272C586.077 172.027 584.011 173.207 581.749 173.207Z" fill="white"/>
<path d="M569.259 147.232C574.373 147.232 580.864 151.463 584.798 155.005C590.797 160.515 591.682 164.254 587.748 169.076C585.683 171.634 583.814 172.815 581.651 172.815C578.799 172.815 575.061 170.748 570.242 166.419C561.391 158.449 561.391 154.513 562.374 152.053C562.473 151.66 562.473 151.266 562.177 150.971L561.391 150.184L565.915 148.019C565.915 148.019 566.013 148.019 566.013 147.921C566.997 147.429 568.078 147.232 569.259 147.232ZM569.259 146.248C567.98 146.248 566.702 146.445 565.62 147.035L559.719 149.889L561.587 151.66C560.112 155.497 561.882 160.023 569.75 167.108C574.963 171.831 578.799 173.7 581.749 173.7C584.503 173.7 586.568 172.126 588.633 169.568C592.961 164.254 591.879 159.925 585.486 154.218C581.454 150.479 574.766 146.248 569.259 146.248Z" fill="black"/>
<path d="M583.716 166.025C582.536 167.305 579.192 173.11 578.307 176.062C590.502 172.323 590.699 166.124 590.699 166.025H583.716Z" fill="#00D9EE"/>
<path d="M556.278 153.628C554.212 157.663 555.688 162.287 564.146 169.864C574.177 178.817 578.8 177.735 583.127 172.422C587.455 167.108 586.373 162.779 579.98 157.072C573.587 151.168 561.195 143.986 556.278 153.628Z" fill="black"/>
<path d="M584.997 169.272C582.145 166.321 577.72 162.09 572.114 157.563C564.344 151.266 558.246 153.234 555.984 154.316C556.083 153.923 556.673 152.939 556.968 152.447C560.213 151.365 566.114 150.873 572.999 156.481C578.31 160.811 582.637 164.845 585.489 167.797C585.292 168.289 585.194 168.485 584.997 169.272Z" fill="white"/>
<path d="M589.42 199.382C588.436 199.382 587.748 198.988 587.059 198.004C583.125 192.789 581.847 188.46 583.125 184.819L583.322 184.229C584.994 179.604 587.453 172.618 590.895 169.076C590.993 168.978 591.092 168.781 590.993 168.682C590.895 167.797 590.797 167.01 590.698 166.518H596.403H596.501C604.861 166.714 605.057 187.673 605.057 191.904C605.057 192.396 604.959 194.659 604.861 195.839C604.172 195.544 602.894 195.151 601.32 195.151C600.041 195.151 598.763 195.347 597.484 195.839C596.206 196.331 595.026 196.922 593.845 197.611C592.272 198.496 590.698 199.382 589.42 199.382Z" fill="white"/>
<path d="M596.404 167.108C596.502 167.108 596.6 167.108 596.6 167.108C602.698 167.305 604.763 180.588 604.665 192.002C604.665 192.395 604.567 193.97 604.567 195.249C603.78 194.954 602.698 194.757 601.419 194.757C600.141 194.757 598.764 195.052 597.387 195.544C596.109 196.036 594.83 196.725 593.65 197.315C592.076 198.201 590.601 198.988 589.421 198.988C588.929 198.988 588.142 198.889 587.454 197.807C583.618 192.691 582.34 188.558 583.618 185.114L583.815 184.524C585.487 179.998 587.946 173.012 591.289 169.568C591.486 169.371 591.585 169.076 591.585 168.781C591.486 168.19 591.388 167.6 591.388 167.206L596.404 167.108ZM596.404 166.124C596.305 166.124 596.305 166.124 596.404 166.124H590.306C590.306 166.124 590.404 167.206 590.699 168.781C587.06 172.52 584.405 179.998 582.733 184.622C581.061 189.443 583.913 194.462 586.667 198.201C587.552 199.381 588.437 199.775 589.421 199.775C591.781 199.775 594.535 197.512 597.682 196.331C599.059 195.839 600.239 195.642 601.321 195.642C603.78 195.642 605.353 196.626 605.353 196.626C605.353 196.626 605.55 192.691 605.55 191.903C605.55 186.787 605.255 166.222 596.502 166.025H596.404C596.404 166.124 596.404 166.124 596.404 166.124Z" fill="black"/>
<path d="M586.471 167.108C581.554 169.568 578.308 179.112 576.341 184.72C574.67 189.542 577.522 194.56 580.275 198.299C583.029 202.038 586.766 198.102 591.389 196.43C596.011 194.757 599.257 193.183 599.257 193.183C599.257 193.183 600.437 160.023 586.471 167.108Z" fill="black"/>
<path d="M594.535 196.726H593.158C593.158 196.627 593.256 188.165 592.469 180.491C592.174 177.539 591.486 175.768 590.502 175.079C589.421 174.193 587.65 174.587 585.585 174.98L585.093 175.079C582.93 175.472 581.258 175.374 580.176 175.079C580.372 174.587 580.569 174.193 580.864 173.8C581.749 173.996 583.126 174.095 584.897 173.701L585.388 173.603C587.749 173.111 589.814 172.816 591.388 173.996C592.764 174.98 593.551 177.047 593.846 180.392C594.731 188.067 594.535 196.627 594.535 196.726Z" fill="white"/>
<path d="M607.814 196.035L599.455 193.477L595.619 205.874L615.977 212.172C615.977 212.073 619.026 198.888 607.814 196.035Z" fill="black"/>
<path d="M581.061 200.758C582.536 198.987 587.945 193.477 595.616 193.477C596.993 193.477 598.468 193.673 599.845 194.067C609.287 196.527 608.205 206.563 607.713 209.023L581.061 200.758Z" fill="white"/>
<path d="M595.519 192.984V193.968C596.896 193.968 598.273 194.165 599.65 194.46C608.108 196.625 607.715 205.284 607.321 208.334L581.947 200.462C583.914 198.396 588.831 193.87 595.618 193.87L595.519 192.984ZM595.519 192.984C586.078 192.984 580.177 201.053 580.177 201.053L608.01 209.613C608.01 209.613 611.058 196.33 599.847 193.476C598.371 193.181 596.896 192.984 595.519 192.984Z" fill="black"/>
<path d="M613.616 211.381C614.796 207.348 613.812 205.086 613.812 205.086L611.747 204.496C611.747 204.496 612.239 207.643 611.354 210.79L613.616 211.381Z" fill="white"/>
<path d="M469.139 102.855C469.139 99.1159 468.254 96.7545 467.172 95.377C465.107 96.0657 463.14 99.7063 463.238 105.905C463.336 124.994 468.254 137.884 468.254 137.884L475.827 134.538C467.664 124.305 469.139 112.301 469.139 102.855Z" fill="black"/>
<path d="M476.02 133.948C469.234 125.289 469.431 115.351 469.627 106.693C469.627 105.413 469.627 104.134 469.627 102.954C469.627 100.002 469.136 97.6403 468.054 95.8691C469.529 96.0659 471.102 98.9193 471.201 104.921C471.594 123.715 477.2 131.095 479.266 133.259L476.02 133.948Z" fill="white"/>
<path d="M469.53 97.8375C470.12 99.2151 470.71 101.38 470.71 104.824C471.006 122.141 475.923 130.013 478.382 132.866L476.218 133.457C469.727 124.995 469.924 115.253 470.12 106.693C470.12 105.414 470.12 104.135 470.12 102.954C470.12 100.986 469.924 99.3135 469.53 97.8375ZM467.858 95.2793C467.662 95.2793 467.465 95.2793 467.17 95.3777C468.252 96.8536 469.137 99.1167 469.137 102.856C469.137 112.302 467.662 124.306 475.825 134.44L480.349 133.358C480.349 133.358 472.186 127.159 471.792 104.824C471.596 98.2311 469.825 95.2793 467.858 95.2793Z" fill="black"/>
<path d="M565.522 128.634C563.063 128.143 560.801 127.946 558.539 128.044H538.279V132.964C531.099 134.932 523.231 136.014 513.003 132.767C507.791 131.193 503.267 130.406 499.136 130.602H480.351V145.854C478.089 151.856 477.892 158.153 480.351 163.565V176.75H501.595C514.38 176.947 528.051 168.78 538.377 169.075V173.699H558.637V173.601C569.554 173.7 577.914 167.993 580.766 160.023C586.47 143.787 574.865 130.701 565.522 128.634Z" fill="#CFF501"/>
<path d="M460.68 145.756C466.188 131.193 477.006 127.749 493.332 132.866C516.838 140.147 528.345 124.896 545.851 128.733C555.194 130.8 566.799 143.886 560.997 160.22C556.964 171.437 541.622 178.324 523.821 170.256C511.33 164.648 490.382 182.063 473.466 175.176C459.402 169.469 456.353 157.071 460.68 145.756Z" fill="#00D9EE"/>
<path d="M537.59 166.222C529.918 166.222 523.624 159.924 523.624 152.249C523.624 144.575 529.918 138.277 537.59 138.277C545.261 138.277 551.555 144.575 551.555 152.249C551.555 159.924 545.261 166.222 537.59 166.222Z" fill="white"/>
<path d="M537.589 138.869C544.965 138.869 551.063 144.871 551.063 152.349C551.063 159.827 545.064 165.829 537.589 165.829C530.213 165.829 524.115 159.827 524.115 152.349C524.115 144.871 530.213 138.869 537.589 138.869ZM537.589 137.885C529.623 137.885 523.132 144.379 523.132 152.349C523.132 160.319 529.623 166.813 537.589 166.813C545.555 166.813 552.047 160.319 552.047 152.349C552.047 144.281 545.555 137.885 537.589 137.885Z" fill="black"/>
<path d="M477.601 173.701H486.354C487.731 173.898 488.812 174.685 489.599 176.063C494.32 183.737 487.731 206.565 486.944 209.32L481.043 210.501C480.059 210.698 478.879 210.993 477.699 211.485V173.701H477.601Z" fill="white"/>
<path d="M486.157 174.193C487.337 174.39 488.321 175.078 489.009 176.259C493.435 183.54 487.436 205.089 486.354 208.828L480.748 210.009C479.863 210.206 478.978 210.402 477.994 210.796V174.193H486.157ZM486.256 173.209H477.011V212.173C478.289 211.681 479.666 211.288 480.945 210.993C487.141 209.714 487.141 209.714 487.141 209.714C487.141 209.714 497.861 175.177 486.256 173.209Z" fill="black"/>
<path d="M476.912 173.209C476.912 173.209 468.651 173.898 467.962 183.147C467.176 192.495 460.094 197.906 458.422 202.826C456.75 207.746 458.816 214.338 463.143 217.389C465.012 214.929 468.257 212.174 474.453 210.895C480.649 209.615 480.649 209.615 480.649 209.615C480.649 209.615 492.845 170.159 476.912 173.209Z" fill="black"/>
<path d="M475.535 214.534L474.158 214.239C474.158 214.042 477.896 196.627 479.666 185.311C480.846 178.128 478.191 174.783 476.322 173.307C476.814 173.208 477.404 173.11 478.092 173.012C480.059 174.98 482.125 178.719 481.043 185.409C479.174 196.922 475.535 214.436 475.535 214.534Z" fill="white"/>
<path d="M488.123 204.497H479.37V217.485H500.614C500.614 217.485 499.63 203.907 488.123 204.497Z" fill="black"/>
<path d="M463.836 216.994C464.918 214.436 469.54 205.482 479.769 204.99C479.965 204.99 480.162 204.99 480.457 204.99C489.603 204.99 491.472 214.633 491.767 216.994H463.836Z" fill="white"/>
<path d="M480.455 204.498V205.482C488.618 205.482 490.683 213.55 491.175 216.502H464.621C466.096 213.452 470.522 205.974 479.767 205.482C479.963 205.482 480.16 205.482 480.357 205.482L480.455 204.498ZM480.455 204.498C480.258 204.498 479.963 204.498 479.767 204.498C467.374 205.088 463.146 217.486 463.146 217.486H492.257C492.257 217.486 491.273 204.498 480.455 204.498Z" fill="black"/>
<path d="M498.058 217.482C498.058 213.253 496.386 211.385 496.386 211.385H494.223C494.223 211.385 495.6 214.237 495.698 217.482H498.058Z" fill="white"/>
<path d="M478.976 173.109V151.068H484.09C490.187 151.068 495.105 155.988 495.105 162.089C495.105 168.189 490.187 173.109 484.09 173.109H478.976Z" fill="white"/>
<path d="M484.089 151.56C489.892 151.56 494.613 156.283 494.613 162.088C494.613 167.894 489.892 172.617 484.089 172.617H479.467V151.56H484.089ZM484.089 150.576H478.483V173.601H484.089C490.384 173.601 495.596 168.484 495.596 162.088C495.596 155.693 490.482 150.576 484.089 150.576Z" fill="black"/>
<path d="M489.991 162.088C489.991 168.386 484.877 173.601 478.484 173.601C472.19 173.601 466.978 168.484 466.978 162.088C466.978 155.791 472.092 150.576 478.484 150.576C484.877 150.576 489.991 155.791 489.991 162.088Z" fill="black"/>
<path d="M484.777 162.089C484.777 165.631 481.924 168.485 478.384 168.485C474.843 168.485 471.991 165.631 471.991 162.089C471.991 158.547 474.843 155.693 478.384 155.693C482.023 155.792 484.777 158.645 484.777 162.089Z" fill="white"/>
<path d="M539.754 184.917C535.82 184.917 532.574 181.375 529.329 173.306C525.69 164.451 525.493 159.236 528.542 156.382C528.64 156.284 528.739 155.989 528.64 155.89L527.952 154.119H533.755H533.853C540.442 154.119 545.95 163.467 548.212 168.977C551.359 176.848 550.376 180.784 544.573 183.539C542.704 184.523 541.229 184.917 539.754 184.917Z" fill="white"/>
<path d="M533.855 154.611H533.953C540.247 154.611 545.558 163.762 547.82 169.173C550.869 176.75 549.984 180.489 544.378 183.145C542.509 184.031 541.034 184.425 539.755 184.425C537.297 184.425 533.855 183.146 529.822 173.109C525.298 162.089 526.97 158.547 528.937 156.677C529.232 156.382 529.33 155.988 529.232 155.595L528.839 154.513H533.855M533.953 153.627H527.363L528.249 155.988C525.2 158.842 524.806 163.663 528.839 173.503C532.478 182.358 535.821 185.409 539.755 185.409C541.329 185.409 543.001 184.917 544.87 184.031C551.066 181.079 551.951 176.75 548.804 168.78C546.148 162.483 540.542 153.627 533.953 153.627Z" fill="black"/>
<path d="M542.415 180.291C540.743 180.881 534.842 183.045 532.776 185.405C545.365 187.274 549.397 180.389 549.496 180.291H542.415Z" fill="#00D9EE"/>
<path d="M522.743 155.497C519.104 158.252 518.416 163.073 522.743 173.503C527.857 185.901 532.48 186.983 538.676 184.031C544.872 181.08 545.757 176.75 542.61 168.78C539.364 160.909 531.299 149.003 522.743 155.497Z" fill="black"/>
<path d="M541.723 182.162C540.444 178.324 538.28 172.519 535.232 166.025C531.003 156.972 524.61 156.087 522.053 156.087C522.348 155.792 523.233 155.103 523.725 154.906C527.167 155.398 532.675 157.464 536.412 165.533C539.362 171.732 541.428 177.242 542.706 181.079C542.411 181.473 542.214 181.571 541.723 182.162Z" fill="white"/>
<path d="M543.097 215.419C542.113 215.419 541.425 215.025 540.736 214.041C536.802 208.826 535.524 204.497 536.802 200.856L536.999 200.266C538.671 195.641 541.13 188.655 544.572 185.113C544.67 185.015 544.768 184.818 544.67 184.719C544.572 183.834 544.473 183.047 544.375 182.555H550.079H550.178C551.555 182.555 552.735 183.145 553.718 184.227C558.832 189.737 558.734 206.268 558.636 208.728C557.751 209.121 554.898 210.401 551.161 211.876C549.883 212.368 548.702 212.959 547.522 213.648C545.949 214.533 544.375 215.419 543.097 215.419Z" fill="white"/>
<path d="M550.08 183.145C550.179 183.145 550.277 183.145 550.277 183.145C551.457 183.145 552.539 183.637 553.523 184.719C558.342 189.836 558.44 205.284 558.342 208.531C557.26 209.023 554.604 210.204 551.162 211.483C549.884 211.975 548.605 212.663 547.425 213.254C545.851 214.139 544.376 214.926 543.196 214.926C542.704 214.926 541.917 214.828 541.229 213.746C537.393 208.629 536.115 204.497 537.393 201.053L537.59 200.462C539.262 195.936 541.721 188.95 545.065 185.506C545.261 185.31 545.36 185.014 545.36 184.719C545.261 184.129 545.163 183.538 545.163 183.145H550.08ZM550.08 182.161C549.982 182.161 549.982 182.161 550.08 182.161H543.983C543.983 182.161 544.081 183.243 544.376 184.818C540.737 188.557 538.082 196.035 536.41 200.659C534.738 205.481 537.59 210.499 540.344 214.238C541.229 215.418 542.114 215.812 543.098 215.812C545.458 215.812 548.212 213.549 551.359 212.368C555.981 210.696 559.227 209.121 559.227 209.121C559.227 209.121 560.21 182.358 550.277 182.062H550.179C550.08 182.161 550.08 182.161 550.08 182.161Z" fill="black"/>
<path d="M540.148 183.145C535.231 185.605 531.985 195.149 530.018 200.758C528.346 205.579 531.198 210.597 533.952 214.336C536.706 218.075 540.443 214.139 545.066 212.467C549.688 210.794 552.934 209.22 552.934 209.22C552.934 209.22 554.114 176.061 540.148 183.145Z" fill="black"/>
<path d="M548.212 212.763H546.835C546.835 212.664 546.933 204.202 546.146 196.528C545.851 193.576 545.163 191.805 544.179 191.116C543.097 190.23 541.327 190.624 539.262 191.018L538.77 191.116C536.606 191.51 534.934 191.411 533.853 191.116C534.049 190.624 534.246 190.23 534.541 189.837C535.426 190.034 536.803 190.132 538.573 189.738L539.065 189.64C541.425 189.148 543.491 188.853 545.064 190.034C546.441 191.018 547.228 193.084 547.523 196.429C548.408 204.104 548.212 212.664 548.212 212.763Z" fill="white"/>
<path d="M560.804 204.497H552.051V217.485H573.294C573.294 217.485 572.311 203.907 560.804 204.497Z" fill="black"/>
<path d="M536.517 216.994C537.598 214.436 542.221 205.482 552.449 204.99C552.646 204.99 552.843 204.99 553.138 204.99C562.284 204.99 564.153 214.633 564.448 216.994H536.517Z" fill="white"/>
<path d="M553.136 204.498V205.482C561.299 205.482 563.364 213.55 563.856 216.502H537.301C538.777 213.452 543.301 205.974 552.447 205.482C552.644 205.482 552.841 205.482 553.037 205.482L553.136 204.498ZM553.136 204.498C552.939 204.498 552.644 204.498 552.447 204.498C540.055 205.088 535.826 217.486 535.826 217.486H564.938C564.938 217.486 563.954 204.498 553.136 204.498Z" fill="black"/>
<path d="M570.739 217.482C570.739 213.253 569.067 211.385 569.067 211.385H566.903C566.903 211.385 568.28 214.237 568.379 217.482H570.739Z" fill="white"/>
<path d="M571.419 153.432C569.255 153.432 567.977 150.775 567.977 146.151C567.977 135.032 560.896 130.309 556.863 128.439H560.109C561.092 128.636 576.435 132.67 576.435 146.151C576.435 148.02 575.845 149.89 574.763 151.366C573.779 152.743 572.501 153.432 571.419 153.432Z" fill="white"/>
<path d="M560.012 129.029C561.487 129.422 575.945 133.161 575.945 146.248C575.945 149.987 573.486 153.037 571.421 153.037C569.65 153.037 568.47 150.479 568.47 146.248C568.47 136.409 563.061 131.39 558.93 129.029H560.012ZM560.11 128.045H554.013C554.013 128.045 567.388 130.997 567.388 146.248C567.388 151.857 569.257 154.021 571.322 154.021C573.879 154.021 576.83 150.577 576.83 146.248C576.928 131.784 560.11 128.045 560.11 128.045Z" fill="black"/>
<path d="M556.278 166.811C555.492 166.123 552.541 163.072 554.902 156.972C558.54 147.723 553.033 139.556 550.476 136.506C550.377 136.309 548.902 134.735 548.017 134.046C541.133 128.634 532.183 132.373 523.528 136.112C519.987 137.588 516.349 139.162 512.906 140.048C505.825 141.918 500.219 140.441 494.417 138.966C491.269 138.178 488.024 137.293 484.385 136.899C474.845 135.817 467.666 138.08 463.338 140.146C462.846 140.934 462.355 142.114 461.765 143.098C465.404 140.934 473.075 137.391 484.287 138.67C487.827 139.064 490.974 139.851 494.023 140.737C500.121 142.311 505.825 143.787 513.398 141.819C516.939 140.835 520.676 139.261 524.216 137.785C532.773 134.144 540.838 130.7 546.935 135.423C547.329 135.719 548.214 136.604 548.41 136.801C550.082 138.572 556.869 146.739 553.131 156.185C549.886 164.548 555.295 168.386 555.393 168.386L555.59 168.583H574.375C574.375 168.583 574.965 168.091 575.555 167.599C576.047 167.205 576.44 166.713 576.44 166.713H556.278V166.811Z" fill="white"/>
<path d="M593.848 100.493C593.357 100.493 592.865 100.493 592.472 100.394C587.849 99.7057 581.751 97.4426 582.833 86.1271C583.62 77.7635 585.98 71.4663 589.128 69.2032C589.226 69.1048 589.324 69.0064 589.324 68.8096V68.416H591.586H591.685C591.881 68.416 592.078 68.416 592.275 68.5144C596.897 69.3999 599.356 74.4181 601.52 81.601C603.192 87.2095 602.503 93.7036 599.848 97.3442C598.373 99.4105 596.307 100.493 593.848 100.493Z" fill="white"/>
<path d="M591.584 68.9078C591.683 68.9078 591.683 68.9078 591.781 68.9078C591.978 68.9078 592.174 68.9078 592.371 68.9078C596.797 69.7933 599.059 74.6147 601.223 81.6991C602.895 87.2093 602.206 93.5065 599.649 97.0488C598.174 99.0167 596.305 100.001 594.043 100.001C593.65 100.001 593.158 100.001 592.666 99.9022C587.847 99.1151 582.438 96.9504 583.421 86.2253C584.208 78.1569 586.569 71.7612 589.519 69.6949C589.716 69.4981 589.912 69.3013 589.912 69.0062H591.584M591.781 67.9238H588.929V68.8094C585.585 71.0725 583.225 77.665 582.339 86.0285C581.258 97.344 587.159 100.001 592.371 100.788C592.863 100.886 593.355 100.886 593.846 100.886C602.009 100.886 604.566 89.7675 602.009 81.4039C599.944 74.6146 597.485 69.0062 592.371 68.0222C592.174 67.9238 591.978 67.9238 591.781 67.9238Z" fill="black"/>
<path d="M589.618 100.789C584.406 100.002 578.407 97.3449 579.587 86.0295C580.669 74.8124 584.603 66.9408 589.717 67.9248C594.831 68.9087 597.29 74.5172 599.355 81.3065C601.912 90.2604 598.962 102.265 589.618 100.789Z" fill="black"/>
<path d="M593.355 94.3897C591.978 96.455 589.224 96.9467 587.257 95.6681C585.192 94.2912 584.7 91.5375 585.978 89.5705C587.355 87.5052 590.109 87.0134 592.076 88.2919C594.141 89.6688 594.732 92.4227 593.355 94.3897Z" fill="white" stroke="black" stroke-miterlimit="10" stroke-linecap="round" stroke-linejoin="round"/>
<path d="M572.796 85.6348H571.419L570.534 92.916H573.288C573.19 93.0144 573.19 93.1127 573.091 93.2111C569.846 99.3116 569.256 107.774 580.074 116.629C584.5 120.27 592.466 130.503 599.055 137.095C599.842 137.883 600.727 138.67 601.809 139.457V143.688H615.578C617.742 143.589 620.102 143.098 622.463 142.114C625.216 141.031 627.774 138.768 629.642 135.816H616.758C616.758 135.816 580.763 103.838 572.796 85.6348Z" fill="#CFF501"/>
<path d="M616.955 135.325C614.496 133.16 581.647 103.641 573.484 86.127H585.385C592.564 86.4221 602.694 91.4403 617.348 102.165C633.773 114.17 634.068 127.453 629.347 135.325H616.955Z" fill="white"/>
<path d="M585.481 86.6187C592.562 86.9139 602.692 91.932 617.149 102.559C633.18 114.268 633.672 127.158 629.148 134.832H617.248C614.002 131.88 582.924 103.838 574.368 86.6187H585.481ZM585.481 85.6348H572.794C580.76 103.838 616.854 135.816 616.854 135.816H629.738C634.852 127.649 634.361 113.874 617.74 101.772C604.167 91.8337 593.447 85.93 585.481 85.6348Z" fill="black"/>
<path d="M575.431 115.655L561.364 128.979L570.22 138.337L584.287 125.013L575.431 115.655Z" fill="white"/>
<path d="M575.452 116.235L583.615 124.894L570.239 137.587L562.076 128.928L575.452 116.235ZM575.452 114.857L560.699 128.83L570.239 138.964L584.992 124.992L575.452 114.857Z" fill="black"/>
<path d="M601.22 137.095C594.139 135.127 590.008 121.548 589.123 112.693C588.238 103.837 575.354 93.4073 571.223 96.5559C571.223 96.5559 570.24 90.2587 572.6 85.9293C567.289 85.7325 563.159 88.094 560.208 93.4073C556.963 99.5078 556.373 107.97 567.191 116.727C571.617 120.368 579.583 130.601 586.172 137.095C590.205 141.129 599.154 146.245 609.678 142.113C612.432 141.031 614.989 138.767 616.857 135.816C613.415 137.193 607.317 138.866 601.22 137.095Z" fill="#00D9EE"/>
<path d="M606.727 137.39C604.858 137.39 602.99 137.193 601.318 136.701C594.433 134.733 590.401 120.958 589.614 112.693C588.827 104.919 578.796 95.5718 573.19 95.5718C572.6 95.5718 572.108 95.6703 571.714 95.8671C571.518 94.1943 571.419 89.7666 572.993 86.5195C580.271 86.9131 590.007 91.8328 604.661 102.459C621.184 114.464 621.381 127.747 616.562 135.52C614.103 136.307 610.661 137.39 606.727 137.39Z" fill="white"/>
<path d="M573.192 86.9136C580.273 87.4056 590.108 92.5221 604.27 102.755C620.399 114.464 620.793 127.354 616.17 135.029C613.908 135.914 610.466 136.898 606.729 136.898C604.86 136.898 603.09 136.702 601.516 136.21C594.829 134.34 590.993 120.762 590.108 112.595C589.321 104.625 578.994 94.982 573.192 94.982C572.798 94.982 572.503 94.982 572.11 95.0804C571.913 93.2109 571.913 89.7671 573.192 86.9136ZM572.602 85.9297C570.241 90.2591 571.225 96.5563 571.225 96.5563C571.716 96.1627 572.405 95.9659 573.093 95.9659C578.306 95.9659 588.239 104.92 589.124 112.693C590.009 121.549 594.14 135.127 601.221 137.095C603.09 137.587 604.959 137.784 606.729 137.784C610.761 137.784 614.4 136.702 616.859 135.816C621.973 127.748 621.481 113.972 604.86 101.87C591.288 92.1285 580.568 86.2249 572.602 85.9297Z" fill="black"/>
<path d="M626.105 132.172C627.789 132.172 629.154 130.322 629.154 128.041C629.154 125.759 627.789 123.91 626.105 123.91C624.422 123.91 623.057 125.759 623.057 128.041C623.057 130.322 624.422 132.172 626.105 132.172Z" fill="white"/>
<path d="M626.105 124.401C627.482 124.401 628.662 126.073 628.662 128.04C628.662 130.007 627.482 131.679 626.105 131.679C624.728 131.679 623.548 130.007 623.548 128.04C623.548 126.073 624.728 124.401 626.105 124.401ZM626.105 123.418C624.138 123.418 622.564 125.483 622.564 128.04C622.564 130.597 624.138 132.663 626.105 132.663C628.072 132.663 629.646 130.597 629.646 128.04C629.646 125.483 628.072 123.418 626.105 123.418Z" fill="black"/>
<path d="M566.601 101.38C566.502 101.38 566.306 101.38 566.207 101.38H562.667V100.691C562.667 100.494 562.568 100.396 562.372 100.297C560.208 99.0181 558.143 96.755 556.372 93.4096C551.553 84.3572 550.472 76.584 553.619 74.0257L553.717 73.9273L554.405 72.9434H557.651H557.749C561.585 73.1401 565.617 76.092 569.551 79.2407C574.37 83.1765 577.321 89.3754 576.731 93.9999C576.337 96.755 574.862 98.7229 572.207 99.9036C570.141 100.888 568.371 101.38 566.601 101.38Z" fill="white"/>
<path d="M557.651 73.3375C557.75 73.3375 557.75 73.3375 557.848 73.3375C561.487 73.5343 565.519 76.4862 569.355 79.5364C573.978 83.3738 576.928 89.3759 576.436 93.9021C576.141 96.4603 574.666 98.3298 572.207 99.4122C570.142 100.298 568.372 100.79 566.798 100.79C566.7 100.79 566.503 100.79 566.306 100.79H563.257V100.593C563.257 100.199 563.061 99.9042 562.766 99.7074C560.602 98.5267 558.733 96.2635 556.963 93.0165C552.341 84.1609 551.16 76.6829 554.111 74.223C554.209 74.1247 554.308 74.1246 554.308 74.0262L554.799 73.2391H557.651M557.848 72.3535H554.209L553.422 73.6326C549.98 76.4861 551.259 84.5545 556.078 93.6068C558.045 97.3458 560.11 99.5106 562.274 100.691V101.872H566.306C566.503 101.872 566.601 101.872 566.798 101.872C568.863 101.872 570.929 101.183 572.699 100.396C581.255 96.4603 577.223 84.7513 570.043 78.8476C565.618 75.4037 561.585 72.6487 557.848 72.3535Z" fill="black"/>
<path d="M569.16 100.396C564.341 102.56 557.948 103.741 552.637 93.6064C547.425 83.6685 546.343 74.9113 551.162 72.9434C555.981 70.9755 561.095 74.3209 566.603 78.8471C573.684 84.7508 577.716 96.4599 569.16 100.396Z" fill="black"/>
<path d="M568.766 93.0136C568.766 95.4723 566.799 97.4393 564.341 97.4393C561.882 97.4393 559.915 95.4723 559.915 93.0136C559.915 90.5549 561.882 88.5879 564.341 88.5879C566.799 88.5879 568.766 90.5549 568.766 93.0136Z" fill="white"/>
<path d="M570.831 88.8841C567.192 88.8841 564.34 85.637 561.881 82.6852C559.717 80.1269 557.652 77.7654 555.39 77.667C554.013 77.5686 552.734 78.1589 551.652 79.4381C550.276 81.0124 549.39 83.0787 548.899 84.7514C548.604 83.6691 548.407 82.9803 548.309 82.2916C548.407 81.9964 548.505 81.7996 548.604 81.6028C550.276 77.9622 552.734 76.0927 555.488 76.2895C558.34 76.4863 560.504 79.0445 562.864 81.7996C565.913 85.3418 568.667 88.5888 572.699 87.2113H572.896H575.945L576.436 88.5889H572.896C572.306 88.7857 571.519 88.8841 570.831 88.8841Z" fill="white"/>
<path d="M1115.69 180.194L1084.71 141.722L1066.91 95.6729V54.5438L1084.51 29.3547L1115.2 26.5996L1150.8 47.1642L1181.78 85.6367L1199.68 131.686V172.913L1181.98 198.102L1151.29 200.857L1115.69 180.194Z" fill="white"/>
<path d="M1115.1 27.0914L1150.5 47.5575L1181.29 85.9317L1199.09 131.784V172.716L1181.58 197.61L1151.29 200.267L1115.88 179.801L1085.1 141.426L1067.3 95.476V54.5436L1084.71 29.6496L1115.1 27.0914ZM1115.29 26.1074L1084.22 28.8625L1066.32 54.3468V95.7712L1084.22 142.017L1115.29 180.588L1151.19 201.251L1182.17 198.496L1200.07 173.011V131.587L1182.17 85.4397L1151.19 46.8688L1115.29 26.1074Z" fill="black"/>
<path d="M1118.05 171.339L1091.2 137.983L1075.76 98.0344V62.4154L1091.11 40.67L1117.56 38.3086L1148.44 56.1181L1175.19 89.474L1190.73 129.324V164.943L1175.39 186.688L1148.93 189.148L1118.05 171.339Z" fill="white"/>
<path d="M1117.46 38.8004L1148.15 56.5115L1174.8 89.769L1190.24 129.521V164.844L1175.19 186.295L1149.13 188.656L1118.45 170.945L1091.79 137.786L1076.35 98.0342V62.7104L1091.4 41.2602L1117.46 38.8004ZM1117.66 37.8164L1090.81 40.1779L1075.27 62.3168V98.1325L1090.81 138.179L1117.66 171.634L1148.74 189.542L1175.59 187.18L1191.13 165.041V129.225L1175.59 89.1786L1148.74 55.7243L1117.66 37.8164Z" fill="black"/>
<path d="M1200.66 131.883L1209.22 126.963V167.305L1200.66 172.225V131.883Z" fill="white"/>
<path d="M1208.73 127.849V167.01L1201.15 171.339V132.178L1208.73 127.849ZM1209.71 126.176L1200.17 131.686V173.11L1209.71 167.6V126.176Z" fill="black"/>
<path d="M1200.46 173.405L1208.04 169.076L1191.41 192.691L1183.84 197.02L1200.46 173.405Z" fill="white"/>
<path d="M1206.36 170.552L1191.12 192.199L1185.61 195.348L1200.86 173.701L1206.36 170.552ZM1209.71 167.502L1200.17 173.012L1182.27 198.496L1191.81 192.986L1209.71 167.502Z" fill="black"/>
<path d="M1160.73 41.2606L1151.19 46.7707L1115.29 26.1078L1124.93 20.5977L1160.73 41.2606Z" fill="#CFF501"/>
<path d="M1191.81 79.929L1182.17 85.4392L1151.19 46.7699L1160.73 41.2598L1191.81 79.929Z" fill="black"/>
<path d="M1124.93 20.5977L1115.3 26.1052L1084.32 28.859L1093.86 23.3514L1124.93 20.5977Z" fill="black"/>
<path d="M1182.86 85.6366L1191.51 80.7168L1209.12 125.88L1200.36 130.898L1182.86 85.6366Z" fill="white"/>
<path d="M1191.32 81.4056L1208.53 125.683L1200.66 130.21L1183.45 85.8334L1191.32 81.4056ZM1191.81 79.9297L1182.27 85.4399L1200.17 131.587L1209.71 126.077L1191.81 79.9297Z" fill="black"/>
<path d="M1134.77 105.413C1134.28 105.413 1133.79 105.413 1133.39 105.314C1128.77 104.626 1122.67 102.362 1123.76 91.0471C1124.54 82.6835 1126.9 76.3862 1130.05 74.1231C1130.15 74.0248 1130.25 73.9263 1130.25 73.7295V73.3359H1132.51H1132.61C1132.8 73.3359 1133 73.3359 1133.2 73.4343C1137.82 74.3199 1140.28 79.3381 1142.44 86.5209C1144.11 92.1294 1143.43 98.6235 1140.77 102.264C1139.29 104.33 1137.23 105.413 1134.77 105.413Z" fill="white"/>
<path d="M1132.51 73.8277C1132.6 73.8277 1132.6 73.8277 1132.7 73.8277C1132.9 73.8277 1133.1 73.8277 1133.29 73.8277C1137.72 74.7133 1139.98 79.5346 1142.14 86.6191C1143.82 92.1292 1143.13 98.4264 1140.57 101.969C1139.1 103.937 1137.23 104.921 1134.96 104.921C1134.57 104.921 1134.08 104.921 1133.59 104.822C1128.77 104.035 1123.36 101.87 1124.34 91.1452C1125.13 83.0768 1127.49 76.6812 1130.44 74.6149C1130.64 74.4181 1130.83 74.2213 1130.83 73.9261H1132.51M1132.7 72.8438H1129.85V73.7293C1126.51 75.9924 1124.15 82.5849 1123.26 90.9485C1122.18 102.264 1128.08 104.921 1133.29 105.708C1133.78 105.806 1134.28 105.806 1134.77 105.806C1142.93 105.806 1145.49 94.6874 1142.93 86.3238C1140.87 79.5346 1138.41 73.9261 1133.29 72.9421C1133.1 72.8437 1132.9 72.8438 1132.7 72.8438Z" fill="black"/>
<path d="M1130.54 105.709C1125.33 104.922 1119.33 102.265 1120.51 90.9494C1121.59 79.7324 1125.52 71.8607 1130.64 72.8447C1135.75 73.8286 1138.21 79.4371 1140.28 86.2264C1142.83 95.1804 1139.88 107.185 1130.54 105.709Z" fill="black"/>
<path d="M1134.28 99.3096C1132.9 101.375 1130.14 101.867 1128.18 100.588C1126.11 99.2112 1125.62 96.4574 1126.9 94.4904C1128.28 92.4251 1131.03 91.9333 1133 93.2118C1135.06 94.5887 1135.65 97.3426 1134.28 99.3096Z" fill="white" stroke="black" stroke-miterlimit="10" stroke-linecap="round" stroke-linejoin="round"/>
<path d="M1113.72 90.5547H1112.34L1111.46 97.836H1114.21C1114.11 97.9343 1114.11 98.0327 1114.02 98.1311C1110.77 104.232 1110.18 112.694 1121 121.549C1125.42 125.19 1133.39 135.423 1139.98 142.015C1140.77 142.803 1141.65 143.59 1142.73 144.377V148.608H1156.5C1158.67 148.509 1161.03 148.017 1163.39 147.034C1166.14 145.951 1168.7 143.688 1170.57 140.736H1157.68C1157.68 140.736 1121.69 108.758 1113.72 90.5547Z" fill="#CFF501"/>
<path d="M1157.88 140.244C1155.42 138.08 1122.57 108.561 1114.41 91.0469H1126.31C1133.49 91.3421 1143.62 96.3603 1158.27 107.085C1174.7 119.09 1174.99 132.373 1170.27 140.244H1157.88Z" fill="white"/>
<path d="M1126.41 91.5386C1133.49 91.8338 1143.62 96.8519 1158.08 107.479C1174.11 119.188 1174.6 132.077 1170.07 139.752H1158.17C1154.93 136.8 1123.85 108.758 1115.29 91.5386H1126.41ZM1126.41 90.5547H1113.72C1121.69 108.758 1157.78 140.736 1157.78 140.736H1170.66C1175.78 132.569 1175.29 118.794 1158.67 106.692C1145.09 96.7536 1134.37 90.8499 1126.41 90.5547Z" fill="black"/>
<path d="M1142.15 142.017C1135.06 140.049 1130.93 126.47 1130.05 117.615C1129.16 108.759 1116.28 98.3291 1112.15 101.478C1112.15 101.478 1111.17 95.1806 1113.53 90.8512C1108.22 90.6544 1104.08 93.0158 1101.13 98.3292C1097.89 104.43 1097.3 112.892 1108.12 121.649C1112.54 125.289 1120.51 135.523 1127.1 142.017C1131.13 146.051 1140.08 151.167 1150.6 147.035C1153.36 145.952 1155.91 143.689 1157.78 140.737C1154.34 142.115 1148.24 143.788 1142.15 142.017Z" fill="#00D9EE"/>
<path d="M1147.65 142.312C1145.78 142.312 1143.92 142.115 1142.24 141.623C1135.36 139.655 1131.33 125.88 1130.54 117.614C1129.75 109.841 1119.72 100.494 1114.12 100.494C1113.53 100.494 1113.03 100.592 1112.64 100.789C1112.44 99.1162 1112.35 94.6884 1113.92 91.4414C1121.2 91.835 1130.93 96.7547 1145.59 107.381C1162.11 119.386 1162.31 132.669 1157.49 140.442C1155.03 141.229 1151.59 142.312 1147.65 142.312Z" fill="white"/>
<path d="M1114.12 91.8355C1121.2 92.3275 1131.03 97.444 1145.2 107.677C1161.33 119.386 1161.72 132.276 1157.1 139.951C1154.84 140.836 1151.39 141.82 1147.66 141.82C1145.79 141.82 1144.02 141.623 1142.44 141.131C1135.76 139.262 1131.92 125.683 1131.03 117.517C1130.25 109.547 1119.92 99.9039 1114.12 99.9039C1113.73 99.9039 1113.43 99.9038 1113.04 100.002C1112.84 98.1327 1112.84 94.689 1114.12 91.8355ZM1113.53 90.8516C1111.17 95.1809 1112.15 101.478 1112.15 101.478C1112.64 101.085 1113.33 100.888 1114.02 100.888C1119.23 100.888 1129.17 109.842 1130.05 117.615C1130.94 126.471 1135.07 140.049 1142.15 142.017C1144.02 142.509 1145.89 142.706 1147.66 142.706C1151.69 142.706 1155.33 141.623 1157.79 140.738C1162.9 132.669 1162.41 118.894 1145.79 106.792C1132.21 97.0504 1121.49 91.1467 1113.53 90.8516Z" fill="black"/>
<path d="M1167.03 137.093C1168.71 137.093 1170.08 135.244 1170.08 132.963C1170.08 130.681 1168.71 128.832 1167.03 128.832C1165.34 128.832 1163.98 130.681 1163.98 132.963C1163.98 135.244 1165.34 137.093 1167.03 137.093Z" fill="white"/>
<path d="M1167.03 129.323C1168.4 129.323 1169.58 130.995 1169.58 132.962C1169.58 134.929 1168.4 136.601 1167.03 136.601C1165.65 136.601 1164.47 134.929 1164.47 132.962C1164.47 130.995 1165.65 129.323 1167.03 129.323ZM1167.03 128.34C1165.06 128.34 1163.49 130.405 1163.49 132.962C1163.49 135.519 1165.06 137.585 1167.03 137.585C1168.99 137.585 1170.57 135.519 1170.57 132.962C1170.57 130.405 1168.99 128.34 1167.03 128.34Z" fill="black"/>
<path d="M1107.53 106.298C1107.43 106.298 1107.23 106.298 1107.13 106.298H1103.59V105.609C1103.59 105.412 1103.49 105.314 1103.3 105.215C1101.13 103.936 1099.07 101.673 1097.3 98.3276C1092.48 89.2752 1091.4 81.5019 1094.54 78.9437L1094.64 78.8453L1095.33 77.8613H1098.58H1098.67C1102.51 78.0581 1106.54 81.01 1110.48 84.1586C1115.3 88.0944 1118.25 94.2933 1117.66 98.9179C1117.26 101.673 1115.79 103.641 1113.13 104.822C1111.07 105.806 1109.3 106.298 1107.53 106.298Z" fill="white"/>
<path d="M1098.58 78.2554C1098.67 78.2554 1098.67 78.2554 1098.77 78.2554C1102.41 78.4522 1106.44 81.4041 1110.28 84.4544C1114.9 88.2918 1117.85 94.2939 1117.36 98.82C1117.07 101.378 1115.59 103.248 1113.13 104.33C1111.07 105.216 1109.3 105.708 1107.72 105.708C1107.62 105.708 1107.43 105.708 1107.23 105.708H1104.18V105.511C1104.18 105.117 1103.99 104.822 1103.69 104.625C1101.53 103.445 1099.66 101.181 1097.89 97.9345C1093.27 89.0789 1092.09 81.6009 1095.04 79.141C1095.13 79.0426 1095.23 79.0425 1095.23 78.9442L1095.72 78.1571H1098.58M1098.77 77.2715H1095.13L1094.35 78.5507C1090.91 81.4041 1092.18 89.4725 1097 98.5248C1098.97 102.264 1101.04 104.429 1103.2 105.609V106.79H1107.23C1107.43 106.79 1107.53 106.79 1107.72 106.79C1109.79 106.79 1111.85 106.101 1113.62 105.314C1122.18 101.378 1118.15 89.6692 1110.97 83.7655C1106.54 80.3217 1102.51 77.5667 1098.77 77.2715Z" fill="black"/>
<path d="M1110.08 105.314C1105.27 107.478 1098.87 108.659 1093.56 98.5243C1088.35 88.5864 1087.27 79.8293 1092.09 77.8614C1096.91 75.8935 1102.02 79.2389 1107.53 83.7651C1114.61 89.6688 1118.64 101.378 1110.08 105.314Z" fill="black"/>
<path d="M1109.69 97.9316C1109.69 100.39 1107.73 102.357 1105.27 102.357C1102.81 102.357 1100.84 100.39 1100.84 97.9316C1100.84 95.4728 1102.81 93.5059 1105.27 93.5059C1107.73 93.5059 1109.69 95.4728 1109.69 97.9316Z" fill="white"/>
<path d="M1111.76 93.8021C1108.12 93.8021 1105.26 90.555 1102.81 87.6031C1100.64 85.0449 1098.58 82.6834 1096.31 82.585C1094.94 82.4866 1093.66 83.0769 1092.58 84.356C1091.2 85.9304 1090.32 87.9967 1089.82 89.6694C1089.53 88.5871 1089.33 87.8983 1089.23 87.2095C1089.33 86.9143 1089.43 86.7176 1089.53 86.5208C1091.2 82.8802 1093.66 81.0107 1096.41 81.2074C1099.27 81.4042 1101.43 83.9625 1103.79 86.7176C1106.84 90.2598 1109.59 93.5068 1113.62 92.1293H1113.82H1116.87L1117.36 93.5068H1113.82C1113.23 93.7036 1112.44 93.8021 1111.76 93.8021Z" fill="white"/>
</svg>
