<svg width="480" height="539" viewBox="0 0 480 539" fill="none" xmlns="http://www.w3.org/2000/svg">
<g opacity="0.4">
<g opacity="0.2">
<path d="M374.606 309.354L373.809 353.183L388.411 353.449L389.208 309.62L374.606 309.354Z" fill="black"/>
<path d="M374.457 376.591L374.413 382.626L388.844 382.732L388.888 376.697L374.457 376.591Z" fill="black"/>
<path d="M377.323 380.067L377.256 389.167L385.915 389.231L385.982 380.131L377.323 380.067Z" fill="black"/>
<path d="M374.457 376.591L374.413 382.626L388.844 382.732L388.888 376.697L374.457 376.591Z" fill="black"/>
<path d="M373.967 391.128L375.017 390.078C376.679 388.503 378.865 387.628 381.139 387.628C383.413 387.628 385.6 388.503 387.174 390.165L388.223 391.215L388.136 398.39L386.999 399.44C385.337 401.015 383.238 401.803 380.964 401.803H380.877C378.603 401.803 376.504 400.928 374.842 399.353L373.792 398.303L373.967 391.128Z" fill="black"/>
<path d="M377.004 397.285L376.961 403.058L385.183 403.118L385.225 397.346L377.004 397.285Z" fill="black"/>
<path d="M382.799 393.227L382.624 418.077L380.963 419.652L379.213 417.99L379.476 393.227H382.799Z" fill="black"/>
<path d="M372.917 379.577L390.321 379.752L399.329 370.04L363.996 369.777L372.917 379.577Z" fill="black"/>
<path d="M391.286 342.302L372.57 342.127L362.862 348.687L400.819 348.949L391.286 342.302Z" fill="black"/>
<path d="M361.778 347.28L361.609 370.293L401.841 370.589L402.01 347.576L361.778 347.28Z" fill="black"/>
<path d="M447.083 4.8999H299.888V37.8002H447.083V4.8999Z" fill="black"/>
<path d="M387.961 275.102C400.206 268.014 407.815 253.927 406.415 240.977C405.104 228.814 396.532 219.626 382.364 214.989C365.484 209.564 364.522 195.651 364.872 189.876C365.659 178.064 373.268 167.214 381.839 165.639L381.402 163.364C371.694 165.114 363.385 176.751 362.511 189.789C362.073 195.739 363.385 201.339 366.271 205.976C369.595 211.314 374.755 215.076 381.664 217.351C394.958 221.639 402.917 230.126 404.142 241.327C405.453 253.489 398.282 266.527 386.824 273.177L387.961 275.102Z" fill="black"/>
<path d="M360.324 151.288L359.537 144.726C356.651 145.076 346.243 142.888 337.323 135.451C329.451 128.888 325.166 120.313 324.553 110.076C323.941 100.188 326.478 92.138 331.988 86.013C343.007 73.8504 362.599 73.0629 362.773 73.0629L362.511 66.4128C361.636 66.4128 340.034 67.2879 327.09 81.5505C320.268 89.0755 317.119 98.7881 317.906 110.513C318.606 122.501 323.854 132.913 333.037 140.613C343.095 148.926 355.339 151.901 360.324 151.288Z" fill="black"/>
<path d="M337.059 56.1753H409.65C420.758 56.1753 429.854 47.1627 429.854 35.9627C429.854 24.8501 420.845 15.75 409.65 15.75H337.059C325.951 15.75 316.855 24.7626 316.855 35.9627C316.855 47.1627 325.951 56.1753 337.059 56.1753Z" fill="black"/>
<path d="M384.812 79.5376H363.822V151.726H384.812V79.5376Z" fill="black"/>
<path d="M426.986 224.226L395.497 275.732L407.061 282.809L438.551 231.303L426.986 224.226Z" fill="black"/>
<path d="M395.219 33.3372V83.65C395.219 95.2001 385.861 104.563 374.316 104.563C362.771 104.563 353.413 95.2001 353.413 83.65V33.3372H395.219Z" fill="black"/>
<path d="M363.034 78.7502C360.323 84.9627 363.209 92.1378 369.419 94.8503C375.628 97.5628 382.8 94.6753 385.511 88.4628C388.223 82.2502 385.336 75.0752 379.127 72.3627C372.917 69.6501 365.658 72.5377 363.034 78.7502Z" fill="black"/>
<path d="M400.202 31.5871C398.016 36.8371 400.465 42.8746 405.712 45.0622C410.96 47.2497 416.995 44.7997 419.181 39.5496C421.368 34.2996 418.919 28.262 413.671 26.0745C408.424 23.887 402.389 26.337 400.202 31.5871Z" fill="black"/>
<path d="M327.612 32.0247C325.338 37.2747 327.787 43.3122 333.034 45.5873C338.282 47.8623 344.317 45.4122 346.591 40.1622C348.865 34.9122 346.416 28.8746 341.168 26.5996C335.921 24.3246 329.798 26.7746 327.612 32.0247Z" fill="black"/>
<path d="M456.179 203.176L399.243 127.926C390.497 116.376 374.054 114.101 362.51 122.851C350.965 131.601 348.691 148.051 357.437 159.601L414.373 234.851C423.119 246.402 439.562 248.677 451.107 239.926C462.651 231.176 464.925 214.726 456.179 203.176Z" fill="black"/>
<path d="M381.227 156.976C388.399 155.138 392.684 147.788 390.848 140.701C389.011 133.525 381.664 129.238 374.58 131.075C367.408 132.913 363.123 140.263 364.96 147.351C366.796 154.438 374.055 158.813 381.227 156.976Z" fill="black"/>
<path d="M438.6 231.964C445.772 230.214 450.145 222.951 448.395 215.776C446.646 208.601 439.387 204.226 432.215 205.976C425.044 207.726 420.671 214.989 422.42 222.164C424.169 229.252 431.428 233.714 438.6 231.964Z" fill="black"/>
<path d="M397.406 257.689L370.643 301.002C366.532 307.652 368.631 316.402 375.278 320.427C381.925 324.539 390.671 322.439 394.695 315.789L421.457 272.389C425.568 265.739 423.469 256.989 416.822 252.964C410.262 248.939 401.516 251.039 397.406 257.689Z" fill="black"/>
<path d="M387.698 305.289C385.861 302.664 382.188 302.052 379.564 303.977C376.94 305.814 376.328 309.489 378.252 312.114C380.089 314.739 383.762 315.352 386.386 313.427C388.922 311.502 389.535 307.827 387.698 305.289Z" fill="black"/>
<path d="M414.373 260.665C412.537 258.04 408.863 257.427 406.239 259.352C403.616 261.19 403.003 264.865 404.927 267.49C406.764 270.115 410.437 270.727 413.061 268.802C415.685 266.877 416.297 263.29 414.373 260.665Z" fill="black"/>
<path d="M615.531 10.4101H610.459V6.38696H615.531V10.4101ZM605.473 10.4101H600.401V6.38696H605.473V10.4101ZM595.416 10.4101H590.343V6.38696H595.416V10.4101ZM585.358 10.4101H580.285V6.38696H585.358V10.4101ZM575.3 10.4101H570.227V6.38696H575.3V10.4101ZM565.242 10.4101H560.169V6.38696H565.242V10.4101ZM555.097 10.4101H550.024V6.38696H555.097V10.4101ZM545.039 10.4101H539.966V6.38696H545.039V10.4101ZM534.981 10.4101H529.908V6.38696H534.981V10.4101ZM524.923 10.4101H519.85V6.38696H524.923V10.4101ZM514.865 10.4101H509.792V6.38696H514.865V10.4101ZM504.807 10.4101H499.734V6.38696H504.807V10.4101ZM494.662 10.4101H489.589V6.38696H494.662V10.4101ZM484.604 10.4101H479.531V6.38696H484.604V10.4101ZM474.546 10.4101H469.473V6.38696H474.546V10.4101ZM464.488 10.4101H459.415V6.38696H464.488V10.4101ZM454.43 10.4101H449.357V6.38696H454.43V10.4101ZM444.372 10.4101H439.3V6.38696H444.372V10.4101ZM434.227 10.4101H429.154V6.38696H434.227V10.4101ZM424.169 10.4101H419.096V6.38696H424.169V10.4101ZM414.111 10.4101H409.038V6.38696H414.111V10.4101ZM404.053 10.4101H398.981V6.38696H404.053V10.4101ZM393.995 10.4101H388.923V6.38696H393.995V10.4101ZM383.937 10.4101H378.865V6.38696H383.937V10.4101ZM373.792 10.4101H368.719V6.38696H373.792V10.4101ZM363.734 10.4101H358.662V6.38696H363.734V10.4101ZM353.676 10.4101H348.604V6.38696H353.676V10.4101ZM343.618 10.4101H338.546V6.38696H343.618V10.4101ZM333.56 10.4101H328.488V6.38696H333.56V10.4101ZM323.503 10.4101H318.43V6.38696H323.503V10.4101ZM313.357 10.4101H308.285V6.38696H313.357V10.4101ZM303.299 10.4101H298.227V6.38696H303.299V10.4101ZM293.241 10.4101H288.169V6.38696H293.241V10.4101ZM283.184 10.4101H278.111V6.38696H283.184V10.4101ZM273.126 10.4101H268.053V6.38696H273.126V10.4101ZM263.068 10.4101H257.995V6.38696H263.068V10.4101ZM252.922 10.4101H247.85V6.38696H252.922V10.4101ZM242.865 10.4101H237.792V6.38696H242.865V10.4101ZM232.807 10.4101H227.734V6.38696H232.807V10.4101ZM222.749 10.4101H217.676V6.38696H222.749V10.4101ZM212.691 10.4101H207.618V6.38696H212.691V10.4101ZM202.633 10.4101H197.56V6.38696H202.633V10.4101ZM192.488 10.4101H187.415V6.38696H192.488V10.4101ZM182.43 10.4101H177.444V6.38696H182.517V10.4101H182.43ZM172.372 10.4101H167.299V6.38696H172.372V10.4101ZM162.314 10.4101H157.241V6.38696H162.314V10.4101ZM152.256 10.4101H147.183V6.38696H152.256V10.4101ZM142.198 10.4101H137.125V6.38696H142.198V10.4101ZM132.053 10.4101H126.98V6.38696H132.053V10.4101ZM121.995 10.4101H116.922V6.38696H121.995V10.4101ZM111.937 10.4101H106.864V6.38696H111.937V10.4101ZM101.879 10.4101H96.8064V6.38696H101.879V10.4101ZM91.8212 10.4101H86.7485V6.38696H91.8212V10.4101ZM81.7633 10.4101H76.6906V6.38696H81.7633V10.4101ZM71.6179 10.4101H66.5453V6.38696H71.6179V10.4101ZM61.56 10.4101H56.4874V6.38696H61.56V10.4101ZM51.5021 10.4101H46.4295V6.38696H51.5021V10.4101ZM41.4442 10.4101H36.3716V6.38696H41.4442V10.4101ZM31.3863 10.4101H26.3137V6.38696H31.3863V10.4101ZM21.3284 10.4101H16.2558V6.38696H21.3284V10.4101ZM11.1831 10.4101H6.1104V6.38696H11.1831V10.4101ZM1.12517 10.4101H-3.9475V6.38696H1.12517V10.4101ZM-8.93273 10.4101H-14.0054V6.38696H-8.93273V10.4101ZM-18.9906 10.4101H-24.0633V6.38696H-18.9906V10.4101ZM-29.0485 10.4101H-34.1212V6.38696H-29.0485V10.4101ZM-39.1064 10.4101H-44.1791V6.38696H-39.1064V10.4101ZM-49.2517 10.4101H-54.3244V6.38696H-49.2517V10.4101ZM-59.3096 10.4101H-64.3823V6.38696H-59.3096V10.4101ZM-69.3675 10.4101H-74.4402V6.38696H-69.3675V10.4101ZM-79.4254 10.4101H-84.4981V6.38696H-79.4254V10.4101ZM-89.4833 10.4101H-94.556V6.38696H-89.4833V10.4101ZM-99.5412 10.4101H-104.614V6.38696H-99.5412V10.4101ZM-109.687 10.4101H-114.672V6.38696H-109.599V10.4101H-109.687ZM-119.744 10.4101H-124.817V6.38696H-119.744V10.4101ZM-129.802 10.4101H-134.875V6.38696H-129.802V10.4101ZM-139.86 10.4101H-144.933V6.38696H-139.86V10.4101ZM-149.918 10.4101H-154.991V6.38696H-149.918V10.4101ZM-159.976 10.4101H-165.049V6.38696H-159.976V10.4101ZM-170.121 10.4101H-175.194V6.38696H-170.121V10.4101ZM-180.179 10.4101H-185.252V6.38696H-180.179V10.4101ZM-190.237 10.4101H-195.31V6.38696H-190.237V10.4101ZM-200.295 10.4101H-205.368V6.38696H-200.295V10.4101ZM-210.353 10.4101H-215.426V6.38696H-210.353V10.4101ZM-220.411 10.4101H-225.484V6.38696H-220.411V10.4101ZM-230.556 10.4101H-235.629V6.38696H-230.556V10.4101ZM-240.614 10.4101H-245.687V6.38696H-240.614V10.4101ZM-250.672 10.4101H-255.745V6.38696H-250.672V10.4101ZM-260.73 10.4101H-265.803V6.38696H-260.73V10.4101ZM-270.788 10.4101H-275.861V6.38696H-270.788V10.4101ZM-280.846 10.4101H-285.918V6.38696H-280.846V10.4101ZM-290.991 10.4101H-296.064V6.38696H-290.991V10.4101ZM-301.049 10.4101H-306.122V6.38696H-301.049V10.4101ZM-311.107 10.4101H-316.18V6.38696H-311.107V10.4101ZM-321.165 10.4101H-326.237V6.38696H-321.165V10.4101ZM-331.223 10.4101H-336.295V6.38696H-331.223V10.4101ZM-341.281 10.4101H-346.353V6.38696H-341.281V10.4101ZM-351.426 10.4101H-356.499V6.38696H-351.426V10.4101ZM-361.484 10.4101H-366.556V6.38696H-361.484V10.4101ZM-371.542 10.4101H-376.614V6.38696H-371.542V10.4101ZM-381.6 10.4101H-386.672V6.38696H-381.6V10.4101ZM-391.657 10.4101H-396.73V6.38696H-391.657V10.4101ZM-401.715 10.4101H-406.788V6.38696H-401.715V10.4101ZM-411.861 10.4101H-416.933V6.38696H-411.861V10.4101ZM-421.919 10.4101H-426.904V6.38696H-421.831V10.4101H-421.919ZM-431.977 10.4101H-437.049V6.38696H-431.977V10.4101ZM-442.034 10.4101H-447.107V6.38696H-442.034V10.4101ZM-452.092 10.4101H-457.165V6.38696H-452.092V10.4101ZM-462.15 10.4101H-467.223V6.38696H-462.15V10.4101ZM-472.296 10.4101H-477.368V6.38696H-472.296V10.4101ZM-482.353 10.4101H-487.426V6.38696H-482.353V10.4101ZM-492.411 10.4101H-497.484V6.38696H-492.411V10.4101ZM-502.469 10.4101H-507.542V6.38696H-502.469V10.4101ZM-512.527 10.4101H-517.6V6.38696H-512.527V10.4101ZM-522.585 10.4101H-527.658V6.38696H-522.585V10.4101Z" fill="black"/>
<path d="M630.751 8.13311H-538.239C-540.338 8.13311 -542 6.47138 -542 4.37234C-542 2.2733 -540.338 0.611572 -538.239 0.611572H630.751C632.85 0.611572 634.511 2.2733 634.511 4.37234C634.511 6.47138 632.85 8.13311 630.751 8.13311Z" fill="black"/>
</g>
<path opacity="0.2" d="M1428.12 530.254H-448.77V539H1428.12V530.254Z" fill="black"/>
</g>
</svg>
