<svg width="1920" height="521" viewBox="0 0 1920 521" fill="none" xmlns="http://www.w3.org/2000/svg">
<g opacity="0.4">
<g opacity="0.2">
<path d="M866.729 298.666L865.961 340.923L880.04 341.179L880.808 298.922L866.729 298.666Z" fill="black"/>
<path d="M866.586 363.492L866.543 369.31L880.456 369.412L880.499 363.594L866.586 363.492Z" fill="black"/>
<path d="M869.35 366.842L869.285 375.616L877.633 375.677L877.697 366.904L869.35 366.842Z" fill="black"/>
<path d="M866.586 363.492L866.543 369.31L880.456 369.412L880.499 363.594L866.586 363.492Z" fill="black"/>
<path d="M866.114 377.506L867.126 376.494C868.728 374.975 870.836 374.132 873.029 374.132C875.221 374.132 877.329 374.975 878.847 376.578L879.859 377.59L879.774 384.508L878.678 385.52C877.076 387.039 875.052 387.798 872.86 387.798H872.776C870.583 387.798 868.559 386.955 866.957 385.436L865.945 384.424L866.114 377.506Z" fill="black"/>
<path d="M869.041 383.443L869 389.008L876.927 389.067L876.967 383.501L869.041 383.443Z" fill="black"/>
<path d="M874.629 379.531L874.46 403.49L872.858 405.008L871.172 403.405L871.425 379.531H874.629Z" fill="black"/>
<path d="M865.101 366.37L881.881 366.539L890.567 357.175L856.5 356.922L865.101 366.37Z" fill="black"/>
<path d="M882.811 330.432L864.766 330.263L855.406 336.587L892.002 336.84L882.811 330.432Z" fill="black"/>
<path d="M854.362 335.232L854.199 357.419L892.988 357.704L893.151 335.517L854.362 335.232Z" fill="black"/>
<path d="M936.607 5.13184H794.691V36.852H936.607V5.13184Z" fill="black"/>
<path d="M879.606 265.642C891.411 258.809 898.747 245.226 897.398 232.741C896.133 221.015 887.869 212.157 874.209 207.685C857.935 202.455 857.007 189.041 857.344 183.473C858.103 172.084 865.439 161.624 873.703 160.105L873.281 157.912C863.922 159.599 855.911 170.819 855.068 183.389C854.646 189.126 855.911 194.525 858.694 198.996C861.898 204.142 866.873 207.77 873.534 209.963C886.351 214.097 894.025 222.28 895.205 233.078C896.47 244.805 889.556 257.375 878.509 263.786L879.606 265.642Z" fill="black"/>
<path d="M852.96 146.27L852.201 139.942C849.418 140.28 839.384 138.171 830.783 131C823.194 124.673 819.062 116.405 818.472 106.535C817.882 97.002 820.327 89.2407 825.639 83.3354C836.264 71.609 855.152 70.8498 855.321 70.8498L855.068 64.4382C854.225 64.4382 833.397 65.2819 820.917 79.0329C814.34 86.2881 811.304 95.6522 812.063 106.957C812.738 118.514 817.797 128.553 826.651 135.977C836.348 143.992 848.154 146.86 852.96 146.27Z" fill="black"/>
<path d="M830.529 54.5679H900.517C911.226 54.5679 919.996 45.8786 919.996 35.0802C919.996 24.3662 911.311 15.5925 900.517 15.5925H830.529C819.82 15.5925 811.051 24.2818 811.051 35.0802C811.051 45.8786 819.82 54.5679 830.529 54.5679Z" fill="black"/>
<path d="M876.569 77.0928H856.332V146.692H876.569V77.0928Z" fill="black"/>
<path d="M917.231 216.592L886.871 266.25L898.021 273.074L928.381 223.415L917.231 216.592Z" fill="black"/>
<path d="M886.603 32.5496V81.0578C886.603 92.1936 877.58 101.22 866.45 101.22C855.319 101.22 846.297 92.1936 846.297 81.0578V32.5496H886.603Z" fill="black"/>
<path d="M855.573 76.3336C852.959 82.3233 855.742 89.241 861.728 91.8562C867.715 94.4715 874.63 91.6875 877.244 85.6978C879.858 79.7081 877.075 72.7904 871.088 70.1752C865.101 67.56 858.103 70.3439 855.573 76.3336Z" fill="black"/>
<path d="M891.407 30.8621C889.299 35.9239 891.66 41.7448 896.72 43.8539C901.779 45.9629 907.597 43.6008 909.705 38.5391C911.814 33.4774 909.452 27.6563 904.393 25.5473C899.334 23.4382 893.515 25.8004 891.407 30.8621Z" fill="black"/>
<path d="M821.421 31.2835C819.228 36.3452 821.59 42.1662 826.649 44.3596C831.708 46.553 837.527 44.1909 839.719 39.1291C841.911 34.0674 839.55 28.2464 834.491 26.053C829.432 23.8596 823.529 26.2217 821.421 31.2835Z" fill="black"/>
<path d="M945.377 196.297L890.483 123.745C882.051 112.609 866.198 110.416 855.067 118.852C843.937 127.288 841.744 143.148 850.177 154.284L905.071 226.836C913.503 237.971 929.356 240.165 940.487 231.729C951.617 223.292 953.81 207.432 945.377 196.297Z" fill="black"/>
<path d="M873.113 151.753C880.028 149.982 884.159 142.895 882.389 136.062C880.618 129.144 873.535 125.01 866.705 126.782C859.79 128.554 855.658 135.64 857.429 142.473C859.2 149.307 866.199 153.525 873.113 151.753Z" fill="black"/>
<path d="M928.428 224.052C935.342 222.365 939.559 215.362 937.872 208.445C936.186 201.527 929.187 197.309 922.272 198.996C915.358 200.683 911.142 207.686 912.828 214.603C914.515 221.437 921.513 225.739 928.428 224.052Z" fill="black"/>
<path d="M888.711 248.854L862.909 290.613C858.946 297.025 860.969 305.461 867.378 309.342C873.786 313.307 882.219 311.282 886.098 304.871L911.9 263.027C915.863 256.615 913.84 248.179 907.431 244.299C901.107 240.418 892.675 242.443 888.711 248.854Z" fill="black"/>
<path d="M879.352 294.747C877.581 292.216 874.039 291.626 871.51 293.482C868.98 295.253 868.39 298.797 870.245 301.328C872.016 303.858 875.557 304.449 878.087 302.593C880.532 300.737 881.123 297.194 879.352 294.747Z" fill="black"/>
<path d="M905.07 251.722C903.299 249.192 899.758 248.601 897.228 250.457C894.699 252.229 894.108 255.772 895.963 258.303C897.734 260.833 901.276 261.424 903.805 259.568C906.335 257.712 906.925 254.253 905.07 251.722Z" fill="black"/>
<path d="M275.265 250.118L263.039 250.282L263.532 287.06L275.758 286.896L275.265 250.118Z" fill="black"/>
<path d="M277.79 277.538L262.106 277.959L254.18 283.693L285.97 282.934L277.79 277.538Z" fill="black"/>
<path d="M245.917 348.064C246.507 348.064 247.181 347.811 247.603 347.22C248.362 346.292 248.193 344.943 247.266 344.268L241.195 339.459L256.71 300.399L282.175 299.64L301.907 338.278L297.269 341.821C296.342 342.496 296.173 343.846 296.848 344.774C297.522 345.702 298.871 345.871 299.799 345.196L305.87 340.556C306.713 339.965 306.966 338.784 306.46 337.856L285.295 296.519C284.958 295.759 284.199 295.338 283.356 295.338L255.108 296.181C254.265 296.181 253.506 296.772 253.168 297.531L236.557 339.375C236.219 340.218 236.472 341.231 237.231 341.821L244.567 347.642C244.989 347.895 245.411 348.064 245.917 348.064Z" fill="black"/>
<path d="M287.464 282.416L250.461 283.47L251.004 302.528L288.007 301.474L287.464 282.416Z" fill="black"/>
<path d="M273.322 347.896C273.575 347.896 273.743 347.896 273.996 347.811C275.093 347.474 275.683 346.208 275.345 345.112L272.647 336.928L271.214 295.338C271.214 294.157 270.202 293.229 269.021 293.313C267.841 293.313 266.913 294.326 266.998 295.507L268.431 337.35C268.431 337.519 268.515 337.772 268.515 337.941L271.382 346.461C271.635 347.305 272.479 347.896 273.322 347.896Z" fill="black"/>
<path d="M344.913 0.407471H211.43V30.1873H344.913V0.407471Z" fill="black"/>
<path d="M270.035 254.338C281.166 247.926 288.08 235.187 286.816 223.377C285.635 212.325 277.877 203.973 264.976 199.84C249.629 194.947 248.786 182.292 249.123 177.062C249.798 166.348 256.712 156.478 264.554 155.043L264.217 152.934C255.363 154.537 247.858 165.082 247.099 176.893C246.762 182.292 247.943 187.354 250.472 191.572C253.424 196.381 258.146 199.84 264.386 201.864C276.444 205.745 283.696 213.422 284.707 223.63C285.888 234.597 279.395 246.492 269.023 252.566L270.035 254.338Z" fill="black"/>
<path d="M253.508 132.013L253.845 126.023C251.231 125.854 242.209 122.311 235.463 114.212C229.476 107.126 226.946 98.8582 227.958 89.494C228.97 80.6359 232.427 73.7182 238.33 69.1627C250.051 60.0516 267.674 62.3293 267.843 62.3293L268.686 56.3396C267.843 56.2553 248.449 53.64 234.704 64.354C227.452 70.0063 223.152 78.1894 221.971 88.8191C220.791 99.7018 223.826 109.825 230.825 118.093C238.499 127.119 248.955 131.759 253.508 132.013Z" fill="black"/>
<path d="M245.157 46.8065H311.014C321.132 46.8065 329.312 38.6234 329.312 28.4999C329.312 18.3765 321.132 10.1934 311.014 10.1934H245.157C235.039 10.1934 226.859 18.3765 226.859 28.4999C226.859 38.6234 235.039 46.8065 245.157 46.8065Z" fill="black"/>
<path d="M288.332 68.0659H269.359V133.531H288.332V68.0659Z" fill="black"/>
<path d="M216.65 185.406L207.57 193.598L244.22 234.256L253.3 226.064L216.65 185.406Z" fill="black"/>
<path d="M297.859 26.1377V71.7776C297.859 82.2385 289.343 90.7591 278.887 90.7591C268.431 90.7591 259.914 82.2385 259.914 71.7776V26.1377H297.859Z" fill="black"/>
<path d="M268.687 67.3067C266.241 72.959 268.855 79.4549 274.505 81.9014C280.155 84.3479 286.648 81.7326 289.093 76.0804C291.538 70.4281 288.924 63.9322 283.275 61.4857C277.625 59.1236 271.132 61.7388 268.687 67.3067Z" fill="black"/>
<path d="M302.416 24.5351C300.392 29.2594 302.669 34.7429 307.391 36.7676C312.113 38.7923 317.594 36.5145 319.618 31.7902C321.642 27.066 319.365 21.5824 314.643 19.5577C309.837 17.533 304.356 19.8108 302.416 24.5351Z" fill="black"/>
<path d="M236.558 24.9567C234.534 29.6809 236.727 35.1645 241.449 37.2735C246.171 39.2982 251.652 37.1048 253.76 32.3805C255.784 27.6562 253.591 22.1727 248.869 20.0636C244.063 18.039 238.582 20.2324 236.558 24.9567Z" fill="black"/>
<path d="M225.259 201.949L288.417 144.161C298.114 135.303 298.789 120.286 289.935 110.584C281.081 100.883 266.071 100.208 256.374 109.066L193.216 166.854C183.519 175.712 182.845 190.729 191.698 200.43C200.552 210.132 215.562 210.807 225.259 201.949Z" fill="black"/>
<path d="M260.593 130.325C262.87 136.652 269.784 139.942 276.108 137.665C282.432 135.387 285.721 128.469 283.444 122.142C281.168 115.815 274.253 112.525 267.929 114.803C261.605 117.08 258.316 123.998 260.593 130.325Z" fill="black"/>
<path d="M197.771 188.451C199.963 194.778 206.878 198.152 213.202 195.959C219.526 193.765 222.899 186.848 220.707 180.521C218.514 174.193 211.6 170.819 205.276 173.012C198.951 175.206 195.578 182.123 197.771 188.451Z" fill="black"/>
<path d="M229.054 228.016L259.831 262.436C264.553 267.751 272.648 268.173 277.961 263.448C283.273 258.724 283.695 250.625 278.973 245.311L248.195 210.891C243.473 205.576 235.378 205.154 230.065 209.879C224.753 214.603 224.331 222.702 229.054 228.016Z" fill="black"/>
<path d="M267.844 248.77C265.061 249.697 263.627 252.735 264.555 255.518C265.482 258.302 268.518 259.737 271.301 258.809C274.083 257.881 275.517 254.844 274.589 252.06C273.577 249.276 270.626 247.757 267.844 248.77Z" fill="black"/>
<path d="M235.969 214.012C233.186 214.94 231.752 217.977 232.68 220.761C233.607 223.545 236.643 224.979 239.426 224.051C242.208 223.124 243.642 220.086 242.714 217.303C241.787 214.519 238.751 213 235.969 214.012Z" fill="black"/>
<path d="M202.996 186.679C204.177 190.138 207.971 191.994 211.429 190.813C214.886 189.632 216.741 185.836 215.56 182.377C214.38 178.918 210.585 177.062 207.128 178.243C203.671 179.424 201.816 183.22 202.996 186.679Z" fill="black"/>
<path d="M1099.01 10.4445H1094.12V6.56567H1099.01V10.4445ZM1089.32 10.4445H1084.43V6.56567H1089.32V10.4445ZM1079.62 10.4445H1074.73V6.56567H1079.62V10.4445ZM1069.92 10.4445H1065.03V6.56567H1069.92V10.4445ZM1060.22 10.4445H1055.33V6.56567H1060.22V10.4445ZM1050.53 10.4445H1045.64V6.56567H1050.53V10.4445ZM1040.75 10.4445H1035.86V6.56567H1040.75V10.4445ZM1031.05 10.4445H1026.16V6.56567H1031.05V10.4445ZM1021.35 10.4445H1016.46V6.56567H1021.35V10.4445ZM1011.65 10.4445H1006.76V6.56567H1011.65V10.4445ZM1001.96 10.4445H997.067V6.56567H1001.96V10.4445ZM992.261 10.4445H987.37V6.56567H992.261V10.4445ZM982.479 10.4445H977.588V6.56567H982.479V10.4445ZM972.782 10.4445H967.891V6.56567H972.782V10.4445ZM963.085 10.4445H958.194V6.56567H963.085V10.4445ZM953.388 10.4445H948.497V6.56567H953.388V10.4445ZM943.691 10.4445H938.8V6.56567H943.691V10.4445ZM933.993 10.4445H929.103V6.56567H933.993V10.4445ZM924.212 10.4445H919.321V6.56567H924.212V10.4445ZM914.515 10.4445H909.624V6.56567H914.515V10.4445ZM904.818 10.4445H899.927V6.56567H904.818V10.4445ZM895.12 10.4445H890.23V6.56567H895.12V10.4445ZM885.423 10.4445H880.533V6.56567H885.423V10.4445ZM875.726 10.4445H870.836V6.56567H875.726V10.4445ZM865.945 10.4445H861.054V6.56567H865.945V10.4445ZM856.248 10.4445H851.357V6.56567H856.248V10.4445ZM846.551 10.4445H841.66V6.56567H846.551V10.4445ZM836.853 10.4445H831.963V6.56567H836.853V10.4445ZM827.156 10.4445H822.266V6.56567H827.156V10.4445ZM817.459 10.4445H812.568V6.56567H817.459V10.4445ZM807.678 10.4445H802.787V6.56567H807.678V10.4445ZM797.981 10.4445H793.09V6.56567H797.981V10.4445ZM788.283 10.4445H783.393V6.56567H788.283V10.4445ZM778.586 10.4445H773.695V6.56567H778.586V10.4445ZM768.889 10.4445H763.998V6.56567H768.889V10.4445ZM759.192 10.4445H754.301V6.56567H759.192V10.4445ZM749.41 10.4445H744.52V6.56567H749.41V10.4445ZM739.713 10.4445H734.823V6.56567H739.713V10.4445ZM730.016 10.4445H725.125V6.56567H730.016V10.4445ZM720.319 10.4445H715.428V6.56567H720.319V10.4445ZM710.622 10.4445H705.731V6.56567H710.622V10.4445ZM700.925 10.4445H696.034V6.56567H700.925V10.4445ZM691.143 10.4445H686.253V6.56567H691.143V10.4445ZM681.446 10.4445H676.64V6.56567H681.531V10.4445H681.446ZM671.749 10.4445H666.858V6.56567H671.749V10.4445ZM662.052 10.4445H657.161V6.56567H662.052V10.4445ZM652.355 10.4445H647.464V6.56567H652.355V10.4445ZM642.658 10.4445H637.767V6.56567H642.658V10.4445ZM632.876 10.4445H627.985V6.56567H632.876V10.4445ZM623.179 10.4445H618.288V6.56567H623.179V10.4445ZM613.482 10.4445H608.591V6.56567H613.482V10.4445ZM603.785 10.4445H598.894V6.56567H603.785V10.4445ZM594.088 10.4445H589.197V6.56567H594.088V10.4445ZM584.39 10.4445H579.5V6.56567H584.39V10.4445ZM574.609 10.4445H569.718V6.56567H574.609V10.4445ZM564.912 10.4445H560.021V6.56567H564.912V10.4445ZM555.215 10.4445H550.324V6.56567H555.215V10.4445ZM545.518 10.4445H540.627V6.56567H545.518V10.4445ZM535.82 10.4445H530.93V6.56567H535.82V10.4445ZM526.123 10.4445H521.233V6.56567H526.123V10.4445ZM516.342 10.4445H511.451V6.56567H516.342V10.4445ZM506.645 10.4445H501.754V6.56567H506.645V10.4445ZM496.948 10.4445H492.057V6.56567H496.948V10.4445ZM487.25 10.4445H482.36V6.56567H487.25V10.4445ZM477.553 10.4445H472.663V6.56567H477.553V10.4445ZM467.856 10.4445H462.965V6.56567H467.856V10.4445ZM458.075 10.4445H453.184V6.56567H458.075V10.4445ZM448.378 10.4445H443.487V6.56567H448.378V10.4445ZM438.68 10.4445H433.79V6.56567H438.68V10.4445ZM428.983 10.4445H424.093V6.56567H428.983V10.4445ZM419.286 10.4445H414.395V6.56567H419.286V10.4445ZM409.589 10.4445H404.698V6.56567H409.589V10.4445ZM399.808 10.4445H395.001V6.56567H399.892V10.4445H399.808ZM390.11 10.4445H385.22V6.56567H390.11V10.4445ZM380.413 10.4445H375.522V6.56567H380.413V10.4445ZM370.716 10.4445H365.825V6.56567H370.716V10.4445ZM361.019 10.4445H356.128V6.56567H361.019V10.4445ZM351.322 10.4445H346.431V6.56567H351.322V10.4445ZM341.54 10.4445H336.65V6.56567H341.54V10.4445ZM331.843 10.4445H326.952V6.56567H331.843V10.4445ZM322.146 10.4445H317.255V6.56567H322.146V10.4445ZM312.449 10.4445H307.558V6.56567H312.449V10.4445ZM302.752 10.4445H297.861V6.56567H302.752V10.4445ZM293.055 10.4445H288.164V6.56567H293.055V10.4445ZM283.273 10.4445H278.382V6.56567H283.273V10.4445ZM273.576 10.4445H268.685V6.56567H273.576V10.4445ZM263.879 10.4445H258.988V6.56567H263.879V10.4445ZM254.182 10.4445H249.291V6.56567H254.182V10.4445ZM244.485 10.4445H239.594V6.56567H244.485V10.4445ZM234.788 10.4445H229.897V6.56567H234.788V10.4445ZM225.006 10.4445H220.115V6.56567H225.006V10.4445ZM215.309 10.4445H210.418V6.56567H215.309V10.4445ZM205.612 10.4445H200.721V6.56567H205.612V10.4445ZM195.915 10.4445H191.024V6.56567H195.915V10.4445ZM186.217 10.4445H181.327V6.56567H186.217V10.4445ZM176.52 10.4445H171.63V6.56567H176.52V10.4445ZM166.739 10.4445H161.848V6.56567H166.739V10.4445ZM157.042 10.4445H152.151V6.56567H157.042V10.4445ZM147.345 10.4445H142.454V6.56567H147.345V10.4445ZM137.647 10.4445H132.757V6.56567H137.647V10.4445ZM127.95 10.4445H123.06V6.56567H127.95V10.4445ZM118.253 10.4445H113.362V6.56567H118.253V10.4445ZM108.472 10.4445H103.581V6.56567H108.472V10.4445ZM98.7746 10.4445H93.9682V6.56567H98.8589V10.4445H98.7746ZM89.0774 10.4445H84.1867V6.56567H89.0774V10.4445ZM79.3803 10.4445H74.4896V6.56567H79.3803V10.4445ZM69.6832 10.4445H64.7924V6.56567H69.6832V10.4445ZM59.986 10.4445H55.0953V6.56567H59.986V10.4445ZM50.2046 10.4445H45.3138V6.56567H50.2046V10.4445ZM40.5074 10.4445H35.6167V6.56567H40.5074V10.4445ZM30.8103 10.4445H25.9195V6.56567H30.8103V10.4445ZM21.1131 10.4445H16.2224V6.56567H21.1131V10.4445ZM11.416 10.4445H6.52526V6.56567H11.416V10.4445ZM1.71885 10.4445H-3.17188V6.56567H1.71885V10.4445Z" fill="black"/>
<path d="M1106.35 6.48145H1103.91V10.3603H1106.35V6.48145Z" fill="black"/>
<path d="M1113.69 8.24931H-13.3741C-15.3979 8.24931 -17 6.64719 -17 4.62344C-17 2.59968 -15.3979 0.997559 -13.3741 0.997559H1113.69C1115.71 0.997559 1117.31 2.59968 1117.31 4.62344C1117.31 6.64719 1115.71 8.24931 1113.69 8.24931Z" fill="black"/>
<path d="M1115.04 7.03149H1113.27V9.83349H1115.04V7.03149Z" fill="black"/>
<path d="M1920 9.80201H1916.45V7H1920V9.80201ZM1912.95 9.80201H1909.4V7H1912.95V9.80201ZM1905.91 9.80201H1902.35V7H1905.91V9.80201ZM1898.86 9.80201H1895.3V7H1898.86V9.80201ZM1891.81 9.80201H1888.26V7H1891.81V9.80201ZM1884.77 9.80201H1881.21V7H1884.77V9.80201ZM1877.66 9.80201H1874.1V7H1877.66V9.80201ZM1870.61 9.80201H1867.06V7H1870.61V9.80201ZM1863.56 9.80201H1860.01V7H1863.56V9.80201ZM1856.52 9.80201H1852.96V7H1856.52V9.80201ZM1849.47 9.80201H1845.91V7H1849.47V9.80201ZM1842.42 9.80201H1838.87V7H1842.42V9.80201ZM1835.31 9.80201H1831.76V7H1835.31V9.80201ZM1828.27 9.80201H1824.71V7H1828.27V9.80201ZM1821.22 9.80201H1817.67V7H1821.22V9.80201ZM1814.17 9.80201H1810.62V7H1814.17V9.80201ZM1807.13 9.80201H1803.57V7H1807.13V9.80201ZM1800.08 9.80201H1796.52V7H1800.08V9.80201ZM1792.97 9.80201H1789.42V7H1792.97V9.80201ZM1785.92 9.80201H1782.37V7H1785.92V9.80201ZM1778.88 9.80201H1775.32V7H1778.88V9.80201ZM1771.83 9.80201H1768.28V7H1771.83V9.80201ZM1764.78 9.80201H1761.23V7H1764.78V9.80201ZM1757.74 9.80201H1754.18V7H1757.74V9.80201ZM1750.63 9.80201H1747.07V7H1750.63V9.80201ZM1743.58 9.80201H1740.03V7H1743.58V9.80201ZM1736.53 9.80201H1732.98V7H1736.53V9.80201ZM1729.49 9.80201H1725.93V7H1729.49V9.80201ZM1722.44 9.80201H1718.89V7H1722.44V9.80201ZM1715.39 9.80201H1711.84V7H1715.39V9.80201ZM1708.28 9.80201H1704.73V7H1708.28V9.80201ZM1701.24 9.80201H1697.68V7H1701.24V9.80201ZM1694.19 9.80201H1690.64V7H1694.19V9.80201ZM1687.14 9.80201H1683.59V7H1687.14V9.80201ZM1680.1 9.80201H1676.54V7H1680.1V9.80201ZM1673.05 9.80201H1669.5V7H1673.05V9.80201ZM1665.94 9.80201H1662.39V7H1665.94V9.80201ZM1658.89 9.80201H1655.34V7H1658.89V9.80201ZM1651.85 9.80201H1648.29V7H1651.85V9.80201ZM1644.8 9.80201H1641.25V7H1644.8V9.80201ZM1637.75 9.80201H1634.2V7H1637.75V9.80201ZM1630.71 9.80201H1627.15V7H1630.71V9.80201ZM1623.6 9.80201H1620.04V7H1623.6V9.80201ZM1616.55 9.80201H1613V7H1616.55V9.80201ZM1609.5 9.80201H1605.95V7H1609.5V9.80201ZM1602.46 9.80201H1598.9V7H1602.46V9.80201ZM1595.41 9.80201H1591.86V7H1595.41V9.80201ZM1588.36 9.80201H1584.81V7H1588.36V9.80201ZM1581.25 9.80201H1577.7V7H1581.25V9.80201ZM1574.21 9.80201H1570.65V7H1574.21V9.80201ZM1567.16 9.80201H1563.61V7H1567.16V9.80201ZM1560.11 9.80201H1556.56V7H1560.11V9.80201ZM1553.07 9.80201H1549.51V7H1553.07V9.80201ZM1546.02 9.80201H1542.47V7H1546.02V9.80201ZM1538.91 9.80201H1535.36V7H1538.91V9.80201ZM1531.86 9.80201H1528.31V7H1531.86V9.80201ZM1524.82 9.80201H1521.26V7H1524.82V9.80201ZM1517.77 9.80201H1514.22V7H1517.77V9.80201ZM1510.72 9.80201H1507.17V7H1510.72V9.80201ZM1503.68 9.80201H1500.12V7H1503.68V9.80201ZM1496.57 9.80201H1493.01V7H1496.57V9.80201ZM1489.52 9.80201H1485.97V7H1489.52V9.80201ZM1482.47 9.80201H1478.92V7H1482.47V9.80201ZM1475.43 9.80201H1471.87V7H1475.43V9.80201ZM1468.38 9.80201H1464.83V7H1468.38V9.80201ZM1461.33 9.80201H1457.78V7H1461.33V9.80201ZM1454.23 9.80201H1450.67V7H1454.23V9.80201ZM1447.18 9.80201H1443.62V7H1447.18V9.80201ZM1440.13 9.80201H1436.58V7H1440.13V9.80201ZM1433.08 9.80201H1429.53V7H1433.08V9.80201ZM1426.04 9.80201H1422.48V7H1426.04V9.80201ZM1418.99 9.80201H1415.44V7H1418.99V9.80201ZM1411.88 9.80201H1408.33V7H1411.88V9.80201ZM1404.84 9.80201H1401.28V7H1404.84V9.80201ZM1397.79 9.80201H1394.23V7H1397.79V9.80201ZM1390.74 9.80201H1387.19V7H1390.74V9.80201ZM1383.69 9.80201H1380.14V7H1383.69V9.80201ZM1376.65 9.80201H1373.09V7H1376.65V9.80201ZM1369.54 9.80201H1365.98V7H1369.54V9.80201ZM1362.49 9.80201H1358.94V7H1362.49V9.80201ZM1355.45 9.80201H1351.89V7H1355.45V9.80201ZM1348.4 9.80201H1344.84V7H1348.4V9.80201ZM1341.35 9.80201H1337.8V7H1341.35V9.80201ZM1334.3 9.80201H1330.75V7H1334.3V9.80201ZM1327.2 9.80201H1323.64V7H1327.2V9.80201ZM1320.15 9.80201H1316.59V7H1320.15V9.80201ZM1313.1 9.80201H1309.55V7H1313.1V9.80201ZM1306.05 9.80201H1302.5V7H1306.05V9.80201ZM1299.01 9.80201H1295.45V7H1299.01V9.80201ZM1291.96 9.80201H1288.41V7H1291.96V9.80201ZM1284.85 9.80201H1281.3V7H1284.85V9.80201ZM1277.81 9.80201H1274.25V7H1277.81V9.80201ZM1270.76 9.80201H1267.2V7H1270.76V9.80201ZM1263.71 9.80201H1260.16V7H1263.71V9.80201ZM1256.66 9.80201H1253.11V7H1256.66V9.80201ZM1249.62 9.80201H1246.06V7H1249.62V9.80201ZM1242.51 9.80201H1238.96V7H1242.51V9.80201ZM1235.46 9.80201H1231.91V7H1235.46V9.80201ZM1228.42 9.80201H1224.86V7H1228.42V9.80201ZM1221.37 9.80201H1217.81V7H1221.37V9.80201ZM1214.32 9.80201H1210.77V7H1214.32V9.80201ZM1207.27 9.80201H1203.72V7H1207.27V9.80201ZM1200.17 9.80201H1196.61V7H1200.17V9.80201ZM1193.12 9.80201H1189.57V7H1193.12V9.80201ZM1186.07 9.80201H1182.52V7H1186.07V9.80201ZM1179.03 9.80201H1175.47V7H1179.03V9.80201ZM1171.98 9.80201H1168.42V7H1171.98V9.80201ZM1164.93 9.80201H1161.38V7H1164.93V9.80201ZM1157.82 9.80201H1154.27V7H1157.82V9.80201ZM1150.78 9.80201H1147.22V7H1150.78V9.80201ZM1143.73 9.80201H1140.18V7H1143.73V9.80201ZM1136.68 9.80201H1133.13V7H1136.68V9.80201ZM1129.64 9.80201H1126.08V7H1129.64V9.80201ZM1122.59 9.80201H1119.03V7H1122.59V9.80201Z" fill="black"/>
<path d="M1917.4 7H1109.6C1108.15 7 1107 5.89535 1107 4.5C1107 3.10465 1108.15 2 1109.6 2H1917.4C1918.85 2 1920 3.10465 1920 4.5C1920 5.89535 1918.85 7 1917.4 7Z" fill="black"/>
<path d="M1654.28 5.13184H1512.36V36.852H1654.28V5.13184Z" fill="black"/>
<path d="M1569.37 265.642C1557.56 258.809 1550.22 245.226 1551.57 232.741C1552.84 221.015 1561.1 212.157 1574.76 207.685C1591.04 202.455 1591.96 189.041 1591.63 183.473C1590.87 172.084 1583.53 161.624 1575.27 160.105L1575.69 157.912C1585.05 159.599 1593.06 170.819 1593.9 183.389C1594.33 189.126 1593.06 194.525 1590.28 198.996C1587.07 204.142 1582.1 207.77 1575.44 209.963C1562.62 214.097 1554.95 222.28 1553.77 233.078C1552.5 244.805 1559.42 257.375 1570.46 263.786L1569.37 265.642Z" fill="black"/>
<path d="M1596.01 146.27L1596.77 139.942C1599.55 140.28 1609.59 138.171 1618.19 131C1625.78 124.673 1629.91 116.405 1630.5 106.535C1631.09 97.002 1628.65 89.2407 1623.33 83.3354C1612.71 71.609 1593.82 70.8498 1593.65 70.8498L1593.91 64.4382C1594.75 64.4382 1615.58 65.2819 1628.06 79.0329C1634.63 86.2881 1637.67 95.6522 1636.91 106.957C1636.24 118.514 1631.18 128.553 1622.32 135.977C1612.62 143.992 1600.9 146.86 1596.01 146.27Z" fill="black"/>
<path d="M1618.44 54.5679H1548.46C1537.75 54.5679 1528.98 45.8786 1528.98 35.0802C1528.98 24.3662 1537.66 15.5925 1548.46 15.5925H1618.44C1629.15 15.5925 1637.92 24.2818 1637.92 35.0802C1637.92 45.8786 1629.24 54.5679 1618.44 54.5679Z" fill="black"/>
<path d="M1592.73 77.0925H1572.49V146.691H1592.73V77.0925Z" fill="black"/>
<path d="M1531.76 216.628L1520.61 223.451L1550.97 273.11L1562.12 266.287L1531.76 216.628Z" fill="black"/>
<path d="M1562.37 32.5493V81.0576C1562.37 92.1934 1571.39 101.22 1582.52 101.22C1593.65 101.22 1602.67 92.1934 1602.67 81.0576V32.5493H1562.37Z" fill="black"/>
<path d="M1577.88 70.1749C1571.9 72.7902 1569.2 79.7079 1571.73 85.6976C1574.34 91.6873 1581.26 94.3869 1587.24 91.856C1593.23 89.2408 1595.93 82.3231 1593.4 76.3334C1590.87 70.3437 1583.87 67.5597 1577.88 70.1749Z" fill="black"/>
<path d="M1544.58 25.5473C1539.52 27.6563 1537.15 33.4774 1539.26 38.5391C1541.37 43.6008 1547.19 45.9629 1552.25 43.8539C1557.31 41.7448 1559.67 35.9239 1557.56 30.8621C1555.45 25.8004 1549.63 23.4382 1544.58 25.5473Z" fill="black"/>
<path d="M1614.48 26.053C1609.42 28.2464 1607.14 34.0674 1609.25 39.1291C1611.45 44.1909 1617.26 46.4686 1622.32 44.3596C1627.38 42.1662 1629.66 36.3452 1627.55 31.2835C1625.44 26.2217 1619.54 23.8596 1614.48 26.053Z" fill="black"/>
<path d="M1503.59 196.296L1558.49 123.745C1566.92 112.609 1582.77 110.416 1593.9 118.852C1605.04 127.288 1607.23 143.148 1598.8 154.284L1543.9 226.835C1535.47 237.971 1519.62 240.165 1508.49 231.728C1497.36 223.292 1495.16 207.432 1503.59 196.296Z" fill="black"/>
<path d="M1591.54 142.473C1593.31 135.556 1589.1 128.553 1582.27 126.782C1575.35 125.01 1568.36 129.228 1566.58 136.062C1564.81 142.979 1569.03 149.981 1575.86 151.753C1582.77 153.525 1589.77 149.307 1591.54 142.473Z" fill="black"/>
<path d="M1536.14 214.519C1537.83 207.601 1533.61 200.599 1526.7 198.912C1519.78 197.224 1512.78 201.442 1511.1 208.36C1509.41 215.278 1513.63 222.28 1520.54 223.967C1527.46 225.739 1534.46 221.436 1536.14 214.519Z" fill="black"/>
<path d="M1560.26 248.854L1586.06 290.698C1590.03 297.109 1588 305.546 1581.6 309.426C1575.19 313.391 1566.75 311.367 1562.88 304.955L1537.07 263.111C1533.11 256.7 1535.13 248.264 1541.54 244.383C1547.87 240.418 1556.3 242.443 1560.26 248.854Z" fill="black"/>
<path d="M1570.97 302.508C1573.5 304.28 1576.96 303.689 1578.81 301.243C1580.58 298.712 1579.99 295.253 1577.55 293.397C1575.02 291.626 1571.56 292.216 1569.71 294.663C1567.85 297.194 1568.44 300.737 1570.97 302.508Z" fill="black"/>
<path d="M1545.17 259.568C1547.7 261.34 1551.16 260.749 1553.01 258.303C1554.78 255.772 1554.19 252.313 1551.75 250.457C1549.22 248.685 1545.76 249.276 1543.91 251.722C1542.05 254.253 1542.64 257.796 1545.17 259.568Z" fill="black"/>
<path d="M1580.4 301.18L1566.32 301.437L1567.09 343.693L1581.17 343.437L1580.4 301.18Z" fill="black"/>
<path d="M1580.69 366.17L1566.77 366.272L1566.82 372.09L1580.73 371.988L1580.69 366.17Z" fill="black"/>
<path d="M1577.98 369.48L1569.63 369.541L1569.69 378.315L1578.04 378.254L1577.98 369.48Z" fill="black"/>
<path d="M1580.69 366.17L1566.77 366.272L1566.82 372.09L1580.73 371.988L1580.69 366.17Z" fill="black"/>
<path d="M1581.09 380.121L1580.08 379.109C1578.48 377.59 1576.37 376.747 1574.18 376.747C1571.99 376.747 1569.88 377.59 1568.36 379.193L1567.35 380.206L1567.43 387.123L1568.53 388.136C1570.13 389.654 1572.15 390.414 1574.35 390.414H1574.43C1576.62 390.414 1578.65 389.57 1580.25 388.051L1581.26 387.039L1581.09 380.121Z" fill="black"/>
<path d="M1578.24 386.102L1570.32 386.16L1570.36 391.725L1578.28 391.667L1578.24 386.102Z" fill="black"/>
<path d="M1572.57 382.146L1572.74 406.105L1574.34 407.624L1576.03 406.021L1575.86 382.146H1572.57Z" fill="black"/>
<path d="M1582.19 368.986L1565.32 369.154L1556.64 359.79L1590.7 359.537L1582.19 368.986Z" fill="black"/>
<path d="M1564.48 333.047L1582.52 332.879L1591.8 339.203L1555.29 339.456L1564.48 333.047Z" fill="black"/>
<path d="M1592.94 337.901L1554.15 338.186L1554.31 360.373L1593.1 360.088L1592.94 337.901Z" fill="black"/>
</g>
<path opacity="0.2" d="M1882.46 511.642H72.8867V520.074H1882.46V511.642Z" fill="black"/>
</g>
</svg>
