<svg width="189" height="344" viewBox="0 0 189 344" fill="none" xmlns="http://www.w3.org/2000/svg">
<path d="M108.149 29.6082L98.5027 28.2636C98.2327 28.2418 97.9661 28.345 97.7226 28.6017L93.3488 33.1728C93.0974 32.7559 92.9594 32.259 92.9863 31.8155L94.1268 16.8766C94.1839 16.1147 93.636 15.3976 92.8345 15.2839L84.5781 14.1049C84.5781 14.1049 84.5497 14.1249 84.5297 14.0965L74.9319 12.7602C74.1787 12.6548 73.4135 13.1947 73.2597 13.9398L70.2264 28.6012C70.1312 29.0079 69.8826 29.438 69.5258 29.7746L66.5696 24.1349C66.3781 23.8031 66.1616 23.6162 65.8917 23.5945L56.2854 22.3065C56.0155 22.2847 55.7204 22.4079 55.4686 22.7129L47.4803 32.9324C47.005 33.5224 46.8127 34.6343 47.0339 35.3696L50.6563 47.3732C50.8774 48.1085 50.7734 49.2855 50.4547 49.9772C49.1683 52.6674 48.0584 55.4878 47.1535 58.4182C46.9031 59.1467 46.1211 59.7832 45.3429 59.8229L37.7421 60.1763C36.9638 60.216 36.2586 60.8408 36.1448 61.6427L33.8187 77.9699C33.7132 78.7234 34.216 79.5572 34.9441 79.8076L42.1566 82.2748C42.8847 82.5252 43.4641 83.3474 43.5037 84.126C43.5935 87.2036 43.865 90.238 44.3548 93.1607C44.471 93.9277 44.2504 95.0596 43.835 95.7346L37.038 106.26C36.6027 106.906 36.507 108.035 36.7849 108.73L41.6004 120.741C41.7352 121.113 42 121.308 42.29 121.358L51.9362 122.703C52.2061 122.725 52.4728 122.621 52.7163 122.365L57.09 117.794C57.3414 118.211 57.4795 118.707 57.4525 119.151L56.3121 134.09C56.255 134.852 56.8028 135.569 57.6043 135.683L69.1917 137.313L75.4587 138.198C76.2118 138.303 76.9771 137.763 77.1308 137.018L80.1641 122.357C80.2594 121.95 80.5079 121.52 80.8647 121.184L83.821 126.823C84.0124 127.155 84.2289 127.342 84.4989 127.364L94.1251 128.68C94.415 128.73 94.6901 128.578 94.9419 128.274L102.93 118.054C103.406 117.464 103.598 116.352 103.377 115.617L99.7826 103.593C99.5614 102.858 99.6654 101.681 99.9841 100.989C101.271 98.299 102.38 95.4787 103.285 92.5482C103.536 91.8198 104.318 91.1832 105.096 91.1436L112.697 90.7902C113.475 90.7505 114.18 90.1256 114.294 89.3238L116.62 72.9966C116.726 72.2431 116.223 71.4093 115.495 71.1589L108.282 68.6916C107.554 68.4412 106.975 67.6191 106.935 66.8405C106.845 63.7629 106.574 60.7285 106.084 57.8057C105.968 57.0388 106.188 55.9069 106.604 55.2319L113.401 44.7067C113.836 44.0601 113.932 42.9314 113.654 42.2361L108.838 30.2254C108.675 29.8735 108.439 29.6584 108.149 29.6082ZM66.565 93.3672C62.0589 82.1569 64.4403 65.3663 71.8883 55.825C74.7934 52.1202 78.0592 50.0711 81.2024 49.594C83.5112 51.0638 85.5859 53.8872 87.2415 57.9825C91.7476 69.1928 89.3662 85.9834 81.9182 95.5247C79.0131 99.2295 76.0739 101.26 73.3141 101.679C70.5936 100.288 68.2123 97.5109 66.565 93.3672Z" fill="white" stroke="#182341" stroke-miterlimit="10" stroke-linecap="round" stroke-linejoin="round"/>
<path opacity="0.2" d="M108.149 29.6082L98.5027 28.2636C98.2327 28.2418 97.9661 28.345 97.7226 28.6017L93.3488 33.1728C93.0974 32.7559 92.9594 32.259 92.9863 31.8155L94.1268 16.8766C94.1839 16.1147 93.636 15.3976 92.8345 15.2839L84.5781 14.1049C84.5781 14.1049 84.5497 14.1249 84.5297 14.0965L74.9319 12.7602C74.1787 12.6548 73.4135 13.1947 73.2597 13.9398L70.2264 28.6012C70.1312 29.0079 69.8826 29.438 69.5258 29.7746L66.5696 24.1349C66.3781 23.8031 66.1616 23.6162 65.8917 23.5945L56.2854 22.3065C56.0155 22.2847 55.7204 22.4079 55.4686 22.7129L47.4803 32.9324C47.005 33.5224 46.8127 34.6343 47.0339 35.3696L50.6563 47.3732C50.8774 48.1085 50.7734 49.2855 50.4547 49.9772C49.1683 52.6674 48.0584 55.4878 47.1535 58.4182C46.9031 59.1467 46.1211 59.7832 45.3429 59.8229L37.7421 60.1763C36.9638 60.216 36.2586 60.8408 36.1448 61.6427L33.8187 77.9699C33.7132 78.7234 34.216 79.5572 34.9441 79.8076L42.1566 82.2748C42.8847 82.5252 43.4641 83.3474 43.5037 84.126C43.5935 87.2036 43.865 90.238 44.3548 93.1607C44.471 93.9277 44.2504 95.0596 43.835 95.7346L37.038 106.26C36.6027 106.906 36.507 108.035 36.7849 108.73L41.6004 120.741C41.7352 121.113 42 121.308 42.29 121.358L51.9362 122.703C52.2061 122.725 52.4728 122.621 52.7163 122.365L57.09 117.794C57.3414 118.211 57.4795 118.707 57.4525 119.151L56.3121 134.09C56.255 134.852 56.8028 135.569 57.6043 135.683L69.1917 137.313L75.4587 138.198C76.2118 138.303 76.9771 137.763 77.1308 137.018L80.1641 122.357C80.2594 121.95 80.5079 121.52 80.8647 121.184L83.821 126.823C84.0124 127.155 84.2289 127.342 84.4989 127.364L94.1251 128.68C94.415 128.73 94.6901 128.578 94.9419 128.274L102.93 118.054C103.406 117.464 103.598 116.352 103.377 115.617L99.7826 103.593C99.5614 102.858 99.6654 101.681 99.9841 100.989C101.271 98.299 102.38 95.4787 103.285 92.5482C103.536 91.8198 104.318 91.1832 105.096 91.1436L112.697 90.7902C113.475 90.7505 114.18 90.1256 114.294 89.3238L116.62 72.9966C116.726 72.2431 116.223 71.4093 115.495 71.1589L108.282 68.6916C107.554 68.4412 106.975 67.6191 106.935 66.8405C106.845 63.7629 106.574 60.7285 106.084 57.8057C105.968 57.0388 106.188 55.9069 106.604 55.2319L113.401 44.7067C113.836 44.0601 113.932 42.9314 113.654 42.2361L108.838 30.2254C108.675 29.8735 108.439 29.6584 108.149 29.6082ZM66.565 93.3672C62.0589 82.1569 64.4403 65.3663 71.8883 55.825C74.7934 52.1202 78.0592 50.0711 81.2024 49.594C83.5112 51.0638 85.5859 53.8872 87.2415 57.9825C91.7476 69.1928 89.3662 85.9834 81.9182 95.5247C79.0131 99.2295 76.0739 101.26 73.3141 101.679C70.5936 100.288 68.2123 97.5109 66.565 93.3672Z" fill="white" stroke="#182341" stroke-miterlimit="10" stroke-linecap="round" stroke-linejoin="round"/>
<path opacity="0.1" d="M62.1639 114.514C61.6677 113.93 60.8578 113.865 60.3142 114.418L57.1294 117.726C57.3808 118.143 57.5188 118.64 57.4635 119.103L56.3231 134.042C56.266 134.804 56.8422 135.501 57.6153 135.635L69.1827 137.237L67.2415 136.951C66.4883 136.846 65.9121 136.148 65.9493 135.358L67.1097 120.448C67.1668 119.686 66.6891 118.707 66.0711 118.252C64.6786 117.239 63.3762 115.993 62.1639 114.514ZM94.0392 128.615C93.8259 128.554 93.6094 128.367 93.4579 128.092L88.3661 118.398C88.0116 117.714 87.2185 117.552 86.575 117.964C84.9679 119.055 83.3826 119.876 81.7825 120.496C81.4391 120.611 81.1274 120.831 80.8556 121.107L83.8118 126.747C84.0032 127.079 84.2198 127.266 84.4897 127.287L94.0392 128.615Z" fill="white" stroke="#182341" stroke-miterlimit="10" stroke-linecap="round" stroke-linejoin="round"/>
<path opacity="0.1" d="M93.5287 58.8959C98.0347 70.1063 95.6733 86.9253 88.2337 96.4182C83.5124 102.423 77.9188 104.119 73.2859 101.7C76.0458 101.281 79.0049 99.2783 81.9384 95.5535C89.4064 86.0406 91.7677 69.2216 87.2334 58.0312C85.5777 53.9359 83.5314 51.0925 81.2225 49.6227C86.1006 48.898 90.7731 52.096 93.5287 58.8959Z" fill="white" stroke="#182341" stroke-miterlimit="10" stroke-linecap="round" stroke-linejoin="round"/>
<path d="M74.9771 12.7685C74.2239 12.6631 73.4871 13.1829 73.305 13.948L70.2717 28.6091C70.2299 28.8509 70.0914 29.0759 69.953 29.3009L79.599 30.6455C79.7375 30.4205 79.8559 30.1671 79.8977 29.9254L82.931 15.2643C83.0764 14.5675 83.7082 14.0793 84.4298 14.0797L74.9771 12.7685ZM98.4991 28.2632C98.2575 28.2214 97.9625 28.3446 97.6907 28.6212L93.317 33.1923C93.5084 33.5241 93.7566 33.816 94.0214 34.0111C95.3456 34.987 96.608 36.1762 97.7604 37.5704C97.8003 37.6271 97.8886 37.6922 97.9286 37.7489C98.0768 37.899 98.225 38.0491 98.3899 38.1025C98.4582 38.1392 98.5066 38.1476 98.5749 38.1843C98.6915 38.2294 98.8165 38.2261 98.9415 38.2228C99.1431 38.2079 99.3531 38.1446 99.5231 38.0247C99.6082 37.9647 99.6932 37.9047 99.7299 37.8364L107.317 29.9375C107.382 29.8492 107.438 29.8092 107.523 29.7492C107.637 29.6693 107.722 29.6093 107.847 29.606C107.952 29.5744 108.077 29.5711 108.145 29.6078L98.4991 28.2632ZM56.2827 22.3062C56.0127 22.2844 55.7177 22.4077 55.4858 22.741L47.526 32.9403C47.1808 33.3536 46.9955 33.9937 47.0118 34.6189L56.6294 35.9835C56.6331 35.3867 56.8468 34.7266 57.172 34.2849L65.1602 24.0656C65.3837 23.7806 65.6587 23.629 65.9287 23.6508L56.2827 22.3062ZM44.2264 94.6061C44.1312 95.0128 44.016 95.3912 43.8209 95.6562L37.024 106.181C36.8488 106.475 36.742 106.805 36.6835 107.143L46.2812 108.479C46.3197 108.112 46.4549 107.762 46.65 107.497L53.4469 96.9725C53.622 96.6792 53.7856 96.3091 53.8808 95.9024L44.2264 94.6061ZM37.1463 60.2967C36.6329 60.5316 36.2227 61.0332 36.1224 61.6133L33.7963 77.9402C33.7578 78.3069 33.8442 78.6704 34.0157 78.9739L43.6617 80.3185C43.4703 79.9867 43.3838 79.6232 43.4423 79.2848L45.7684 62.9579C45.8404 62.3978 46.2139 61.9645 46.7073 61.7013L37.1463 60.2967Z" fill="white" stroke="#182341" stroke-miterlimit="10" stroke-linecap="round" stroke-linejoin="round"/>
<path opacity="0.7" d="M74.9771 12.7685C74.2239 12.6631 73.4871 13.1829 73.305 13.948L70.2717 28.6091C70.2299 28.8509 70.0914 29.0759 69.953 29.3009L79.599 30.6455C79.7375 30.4205 79.8559 30.1671 79.8977 29.9254L82.931 15.2643C83.0764 14.5675 83.7082 14.0793 84.4298 14.0797L74.9771 12.7685ZM98.4991 28.2632C98.2575 28.2214 97.9625 28.3446 97.6907 28.6212L93.317 33.1923C93.5084 33.5241 93.7566 33.816 94.0214 34.0111C95.3456 34.987 96.608 36.1762 97.7604 37.5704C97.8003 37.6271 97.8886 37.6922 97.9286 37.7489C98.0768 37.899 98.225 38.0491 98.3899 38.1025C98.4582 38.1392 98.5066 38.1476 98.5749 38.1843C98.6915 38.2294 98.8165 38.2261 98.9415 38.2228C99.1431 38.2079 99.3531 38.1446 99.5231 38.0247C99.6082 37.9647 99.6932 37.9047 99.7299 37.8364L107.317 29.9375C107.382 29.8492 107.438 29.8092 107.523 29.7492C107.637 29.6693 107.722 29.6093 107.847 29.606C107.952 29.5744 108.077 29.5711 108.145 29.6078L98.4991 28.2632ZM56.2827 22.3062C56.0127 22.2844 55.7177 22.4077 55.4858 22.741L47.526 32.9403C47.1808 33.3536 46.9955 33.9937 47.0118 34.6189L56.6294 35.9835C56.6331 35.3867 56.8468 34.7266 57.172 34.2849L65.1602 24.0656C65.3837 23.7806 65.6587 23.629 65.9287 23.6508L56.2827 22.3062ZM44.2264 94.6061C44.1312 95.0128 44.016 95.3912 43.8209 95.6562L37.024 106.181C36.8488 106.475 36.742 106.805 36.6835 107.143L46.2812 108.479C46.3197 108.112 46.4549 107.762 46.65 107.497L53.4469 96.9725C53.622 96.6792 53.7856 96.3091 53.8808 95.9024L44.2264 94.6061ZM37.1463 60.2967C36.6329 60.5316 36.2227 61.0332 36.1224 61.6133L33.7963 77.9402C33.7578 78.3069 33.8442 78.6704 34.0157 78.9739L43.6617 80.3185C43.4703 79.9867 43.3838 79.6232 43.4423 79.2848L45.7684 62.9579C45.8404 62.3978 46.2139 61.9645 46.7073 61.7013L37.1463 60.2967Z" fill="white" stroke="#182341" stroke-miterlimit="10" stroke-linecap="round" stroke-linejoin="round"/>
<path d="M113.672 42.2648L108.857 30.2541C108.559 29.5304 107.911 29.3934 107.367 29.9467L99.78 37.8457C99.2365 38.3989 98.4466 38.3619 97.9304 37.7498C96.7181 36.2705 95.3957 34.9962 94.0031 33.9836C93.3852 33.5282 92.9075 32.5494 92.9646 31.7875L94.105 16.8486C94.1621 16.0867 93.6143 15.3696 92.8128 15.2559L84.5563 14.0769C83.8032 13.9715 83.0379 14.5113 82.8842 15.2565L79.8509 29.9179C79.6971 30.663 78.9584 31.4813 78.2433 31.731C76.6232 32.3222 75.0096 33.1634 73.4508 34.263C72.8273 34.7029 72.0342 34.5408 71.6796 33.8571L66.5878 24.1636C66.2333 23.4799 65.5484 23.4113 65.0931 24.0296L57.1048 34.2491C56.6295 34.8391 56.4372 35.951 56.6584 36.6863L60.2807 48.6899C60.5019 49.4252 60.3979 50.6021 60.0792 51.2939C58.7928 53.9841 57.6829 56.8045 56.7779 59.735C56.5275 60.4634 55.7456 61.0999 54.9673 61.1396L47.3665 61.493C46.5883 61.5327 45.883 62.1575 45.7692 62.9594L43.4431 79.2866C43.3377 80.0401 43.8405 80.8739 44.5685 81.1243L51.7811 83.5916C52.5091 83.842 53.0886 84.6641 53.1281 85.4427C53.2179 88.5203 53.4894 91.5547 53.9793 94.4775C54.0955 95.2444 53.8748 96.3763 53.4595 97.0513L46.6625 107.576C46.2271 108.223 46.1315 109.352 46.4094 110.047L51.2249 122.058C51.5227 122.782 52.1709 122.918 52.7145 122.365L60.3015 114.466C60.845 113.913 61.6349 113.95 62.1511 114.562C63.3634 116.041 64.6858 117.316 66.0783 118.328C66.6963 118.784 67.174 119.762 67.1169 120.524L65.9765 135.463C65.9194 136.225 66.4672 136.942 67.2687 137.056L75.5252 138.235C76.2783 138.34 77.0436 137.801 77.1973 137.055L80.2306 122.394C80.3844 121.649 81.1231 120.831 81.8382 120.581C83.4583 119.99 85.0719 119.149 86.6307 118.049C87.2542 117.609 88.0473 117.771 88.4218 118.483L93.5137 128.177C93.8682 128.86 94.5531 128.929 95.0084 128.311L102.997 118.091C103.472 117.501 103.664 116.389 103.443 115.654L99.7808 103.594C99.5596 102.858 99.6636 101.681 99.9823 100.99C101.269 98.2994 102.379 95.4791 103.284 92.5486C103.534 91.8202 104.316 91.1836 105.094 91.144L112.695 90.7906C113.473 90.7509 114.179 90.126 114.292 89.3242L116.618 72.997C116.724 72.2435 116.221 71.4096 115.493 71.1593L108.28 68.692C107.552 68.4416 106.973 67.6194 106.933 66.8409C106.844 63.7632 106.572 60.7289 106.082 57.8061C105.966 57.0392 106.187 55.9073 106.602 55.2322L113.399 44.7071C113.854 44.0888 113.97 42.9885 113.672 42.2648ZM88.2034 96.4381C80.7354 105.951 71.0692 104.578 66.5348 93.3877C62.0288 82.1773 64.4102 65.3867 71.8582 55.8454C79.3261 46.3325 88.9923 47.7055 93.4983 58.9159C98.0327 70.1062 95.6713 86.9252 88.2034 96.4381Z" fill="white" stroke="#182341" stroke-miterlimit="10" stroke-linecap="round" stroke-linejoin="round"/>
<path opacity="0.55" d="M113.672 42.2648L108.857 30.2541C108.559 29.5304 107.911 29.3934 107.367 29.9467L99.78 37.8457C99.2365 38.3989 98.4466 38.3619 97.9304 37.7498C96.7181 36.2705 95.3957 34.9962 94.0031 33.9836C93.3852 33.5282 92.9075 32.5494 92.9646 31.7875L94.105 16.8486C94.1621 16.0867 93.6143 15.3696 92.8128 15.2559L84.5563 14.0769C83.8032 13.9715 83.0379 14.5113 82.8842 15.2565L79.8509 29.9179C79.6971 30.663 78.9584 31.4813 78.2433 31.731C76.6232 32.3222 75.0096 33.1634 73.4508 34.263C72.8273 34.7029 72.0342 34.5408 71.6796 33.8571L66.5878 24.1636C66.2333 23.4799 65.5484 23.4113 65.0931 24.0296L57.1048 34.2491C56.6295 34.8391 56.4372 35.951 56.6584 36.6863L60.2807 48.6899C60.5019 49.4252 60.3979 50.6021 60.0792 51.2939C58.7928 53.9841 57.6829 56.8045 56.7779 59.735C56.5275 60.4634 55.7456 61.0999 54.9673 61.1396L47.3665 61.493C46.5883 61.5327 45.883 62.1575 45.7692 62.9594L43.4431 79.2866C43.3377 80.0401 43.8405 80.8739 44.5685 81.1243L51.7811 83.5916C52.5091 83.842 53.0886 84.6641 53.1281 85.4427C53.2179 88.5203 53.4894 91.5547 53.9793 94.4775C54.0955 95.2444 53.8748 96.3763 53.4595 97.0513L46.6625 107.576C46.2271 108.223 46.1315 109.352 46.4094 110.047L51.2249 122.058C51.5227 122.782 52.1709 122.918 52.7145 122.365L60.3015 114.466C60.845 113.913 61.6349 113.95 62.1511 114.562C63.3634 116.041 64.6858 117.316 66.0783 118.328C66.6963 118.784 67.174 119.762 67.1169 120.524L65.9765 135.463C65.9194 136.225 66.4672 136.942 67.2687 137.056L75.5252 138.235C76.2783 138.34 77.0436 137.801 77.1973 137.055L80.2306 122.394C80.3844 121.649 81.1231 120.831 81.8382 120.581C83.4583 119.99 85.0719 119.149 86.6307 118.049C87.2542 117.609 88.0473 117.771 88.4218 118.483L93.5137 128.177C93.8682 128.86 94.5531 128.929 95.0084 128.311L102.997 118.091C103.472 117.501 103.664 116.389 103.443 115.654L99.7808 103.594C99.5596 102.858 99.6636 101.681 99.9823 100.99C101.269 98.2994 102.379 95.4791 103.284 92.5486C103.534 91.8202 104.316 91.1836 105.094 91.144L112.695 90.7906C113.473 90.7509 114.179 90.126 114.292 89.3242L116.618 72.997C116.724 72.2435 116.221 71.4096 115.493 71.1593L108.28 68.692C107.552 68.4416 106.973 67.6194 106.933 66.8409C106.844 63.7632 106.572 60.7289 106.082 57.8061C105.966 57.0392 106.187 55.9073 106.602 55.2322L113.399 44.7071C113.854 44.0888 113.97 42.9885 113.672 42.2648ZM88.2034 96.4381C80.7354 105.951 71.0692 104.578 66.5348 93.3877C62.0288 82.1773 64.4102 65.3867 71.8582 55.8454C79.3261 46.3325 88.9923 47.7055 93.4983 58.9159C98.0327 70.1062 95.6713 86.9252 88.2034 96.4381Z" fill="white" stroke="#182341" stroke-miterlimit="10" stroke-linecap="round" stroke-linejoin="round"/>
<path d="M130.785 250.097C129.741 249.694 128.407 248.571 127.913 247.563L123.536 239.196C123.006 238.212 121.666 237.312 120.543 237.181L112.87 236.46C112.339 236.4 111.962 236.557 111.661 236.824L104.933 243.525C104.622 243.853 104.474 244.337 104.687 244.947L105.821 248.327L99.0142 243.52C98.2494 242.974 97.3051 243.097 96.7186 243.728L96.693 243.691L89.9646 250.392C89.8451 250.531 89.7257 250.67 89.5956 250.87L87.1225 255.6C86.5954 256.624 86.8546 258.069 87.6747 258.848L95.4414 266.018C96.0464 266.569 96.4636 267.469 96.6847 268.398L95.8854 268.419C95.4059 268.432 95.0903 268.6 94.8259 268.841L88.0867 275.604C87.7391 275.958 87.6066 276.54 87.8812 277.16L91.7996 286.34C92.2572 287.374 93.5141 288.387 94.6159 288.641L101.938 290.099C103.076 290.328 104.442 291.264 105.106 292.207C106.256 293.839 107.504 295.456 108.799 296.985C109.536 297.877 109.908 299.406 109.53 300.487L107.97 305.279C107.628 306.335 108.073 307.813 108.965 308.54L117.979 315.862C118.784 316.543 119.914 316.451 120.671 315.754L125.215 311.191C125.705 311.117 126.2 311.202 126.637 311.437C128.184 312.246 129.741 312.993 131.295 313.58C132.339 313.983 133.672 315.106 134.166 316.114L138.543 324.481C139.073 325.465 140.413 326.365 141.537 326.496L149.184 327.181C149.689 327.205 150.092 327.084 150.356 326.843L157.095 320.08C157.407 319.752 157.518 319.293 157.341 318.658L156.207 315.278L163.014 320.085C163.753 320.595 164.625 320.522 165.263 319.964L172.002 313.201L171.976 313.165C172.132 313.001 172.251 312.862 172.381 312.662L174.855 307.932C175.382 306.908 175.148 305.499 174.302 304.684L166.536 297.514C165.931 296.963 165.513 296.063 165.292 295.134L166.092 295.113C166.571 295.1 166.887 294.932 167.151 294.691L173.843 288.015L173.916 287.964C174.263 287.611 174.36 287.054 174.085 286.433L170.167 277.254C169.709 276.22 168.452 275.207 167.35 274.952L160.141 273.578C159.003 273.349 157.637 272.413 156.973 271.47C155.823 269.838 154.575 268.221 153.28 266.692C152.543 265.8 152.171 264.271 152.549 263.19L154.11 258.398C154.451 257.342 154.007 255.864 153.114 255.137L144.101 247.815C143.208 247.087 141.944 247.219 141.242 248.148L138.504 251.655C137.776 252.548 136.429 252.793 135.432 252.302C133.896 251.431 132.302 250.71 130.785 250.097ZM142.181 296.454C133.189 295.631 122.416 286.89 118.183 276.956C116.623 273.279 116.143 269.981 116.639 267.296C117.656 267.122 118.775 267.093 120.058 267.219C129.05 268.042 139.823 276.782 144.056 286.717C145.616 290.393 146.07 293.656 145.574 296.34C144.558 296.515 143.428 296.606 142.181 296.454Z" fill="white" stroke="#182341" stroke-miterlimit="10" stroke-linecap="round" stroke-linejoin="round"/>
<path opacity="0.2" d="M130.785 250.097C129.741 249.694 128.407 248.571 127.913 247.563L123.536 239.196C123.006 238.212 121.666 237.312 120.543 237.181L112.87 236.46C112.339 236.4 111.962 236.557 111.661 236.824L104.933 243.525C104.622 243.853 104.474 244.337 104.687 244.947L105.821 248.327L99.0142 243.52C98.2494 242.974 97.3051 243.097 96.7186 243.728L96.693 243.691L89.9646 250.392C89.8451 250.531 89.7257 250.67 89.5956 250.87L87.1225 255.6C86.5954 256.624 86.8546 258.069 87.6747 258.848L95.4414 266.018C96.0464 266.569 96.4636 267.469 96.6847 268.398L95.8854 268.419C95.4059 268.432 95.0903 268.6 94.8259 268.841L88.0867 275.604C87.7391 275.958 87.6066 276.54 87.8812 277.16L91.7996 286.34C92.2572 287.374 93.5141 288.387 94.6159 288.641L101.938 290.099C103.076 290.328 104.442 291.264 105.106 292.207C106.256 293.839 107.504 295.456 108.799 296.985C109.536 297.877 109.908 299.406 109.53 300.487L107.97 305.279C107.628 306.335 108.073 307.813 108.965 308.54L117.979 315.862C118.784 316.543 119.914 316.451 120.671 315.754L125.215 311.191C125.705 311.117 126.2 311.202 126.637 311.437C128.184 312.246 129.741 312.993 131.295 313.58C132.339 313.983 133.672 315.106 134.166 316.114L138.543 324.481C139.073 325.465 140.413 326.365 141.537 326.496L149.184 327.181C149.689 327.205 150.092 327.084 150.356 326.843L157.095 320.08C157.407 319.752 157.518 319.293 157.341 318.658L156.207 315.278L163.014 320.085C163.753 320.595 164.625 320.522 165.263 319.964L172.002 313.201L171.976 313.165C172.132 313.001 172.251 312.862 172.381 312.662L174.855 307.932C175.382 306.908 175.148 305.499 174.302 304.684L166.536 297.514C165.931 296.963 165.513 296.063 165.292 295.134L166.092 295.113C166.571 295.1 166.887 294.932 167.151 294.691L173.843 288.015L173.916 287.964C174.263 287.611 174.36 287.054 174.085 286.433L170.167 277.254C169.709 276.22 168.452 275.207 167.35 274.952L160.141 273.578C159.003 273.349 157.637 272.413 156.973 271.47C155.823 269.838 154.575 268.221 153.28 266.692C152.543 265.8 152.171 264.271 152.549 263.19L154.11 258.398C154.451 257.342 154.007 255.864 153.114 255.137L144.101 247.815C143.208 247.087 141.944 247.219 141.242 248.148L138.504 251.655C137.776 252.548 136.429 252.793 135.432 252.302C133.896 251.431 132.302 250.71 130.785 250.097ZM142.181 296.454C133.189 295.631 122.416 286.89 118.183 276.956C116.623 273.279 116.143 269.981 116.639 267.296C117.656 267.122 118.775 267.093 120.058 267.219C129.05 268.042 139.823 276.782 144.056 286.717C145.616 290.393 146.07 293.656 145.574 296.34C144.558 296.515 143.428 296.606 142.181 296.454Z" fill="white" stroke="#182341" stroke-miterlimit="10" stroke-linecap="round" stroke-linejoin="round"/>
<path opacity="0.1" d="M156.238 308.312C155.153 308.697 154.553 309.772 154.913 310.821L156.395 315.312L163.202 320.119C163.941 320.629 164.813 320.557 165.451 319.998L172.107 313.349C171.505 313.882 170.644 313.892 169.93 313.418L161.594 307.519C160.691 306.853 159.216 306.916 158.171 307.436C157.576 307.747 156.92 308.048 156.238 308.312ZM174.021 288.112C173.792 288.328 173.441 288.521 172.961 288.534L166.851 288.719C165.732 288.748 164.994 289.703 165.121 290.808C165.274 291.949 165.328 293.104 165.332 294.188C165.34 294.507 165.363 294.925 165.459 295.292L166.258 295.271C166.712 295.222 167.053 295.09 167.318 294.849L174.021 288.112Z" fill="white" stroke="#182341" stroke-miterlimit="10" stroke-linecap="round" stroke-linejoin="round"/>
<path opacity="0.1" d="M150.822 279.99C154.491 288.585 152.13 295.245 145.601 296.377C146.097 293.692 145.617 290.394 144.083 286.753C139.849 276.819 129.076 268.078 120.084 267.255C118.801 267.129 117.682 267.158 116.691 267.369C117.518 262.768 121.15 259.989 126.849 260.528C135.815 261.315 146.563 270.02 150.822 279.99Z" fill="white" stroke="#182341" stroke-miterlimit="10" stroke-linecap="round" stroke-linejoin="round"/>
<path d="M109.753 299.027C109.791 299.543 109.829 300.059 109.656 300.507L108.121 305.336C107.905 306.031 107.988 306.841 108.314 307.535L115.053 300.772C114.727 300.079 114.619 299.232 114.86 298.573L116.396 293.744C116.532 293.322 116.556 292.817 116.492 292.264L109.753 299.027ZM88.2123 275.624C87.8647 275.978 87.7685 276.534 88.0068 277.181L91.9252 286.36C92.1891 287.042 92.8708 287.701 93.5589 288.139L100.298 281.376C99.5844 280.902 98.9283 280.279 98.6644 279.597L94.746 270.418C94.4714 269.797 94.5421 269.204 94.9516 268.861L88.2123 275.624ZM134.405 316.218L138.706 324.476C139.042 325.108 139.647 325.658 140.346 326.034L147.049 319.296C146.35 318.921 145.781 318.345 145.445 317.714L141.145 309.455L134.405 316.218ZM90.0539 250.438C89.9345 250.576 89.815 250.715 89.6849 250.915L87.1756 255.671C86.6485 256.695 86.8821 258.104 87.764 258.894L95.5308 266.064C95.8844 266.412 96.2422 266.919 96.4657 267.467L103.205 260.704C102.981 260.156 102.624 259.649 102.27 259.301L94.5033 252.131C93.6469 251.378 93.424 249.906 93.9148 248.909L96.4242 244.152C96.518 243.978 96.6375 243.839 96.7569 243.701L90.0539 250.438ZM104.961 243.559C104.649 243.887 104.528 244.408 104.715 244.981L105.849 248.362L107.378 249.454C108.318 250.094 109.819 250.067 110.801 249.537C111.433 249.2 112.053 248.925 112.735 248.661C112.906 248.595 113.051 248.493 113.221 248.427C113.33 248.35 113.439 248.273 113.522 248.16C113.714 247.971 113.844 247.77 113.974 247.57C114.115 247.308 114.168 246.998 114.16 246.679C114.156 246.519 114.126 246.322 114.06 246.152L111.443 238.28C111.352 238.073 111.348 237.913 111.318 237.717C111.324 237.496 111.357 237.31 111.45 237.135C111.497 237.048 111.581 236.935 111.627 236.847L104.961 243.559Z" fill="white" stroke="#182341" stroke-miterlimit="10" stroke-linecap="round" stroke-linejoin="round"/>
<path opacity="0.7" d="M109.753 299.027C109.791 299.543 109.829 300.059 109.656 300.507L108.121 305.336C107.905 306.031 107.988 306.841 108.314 307.535L115.053 300.772C114.727 300.079 114.619 299.232 114.86 298.573L116.396 293.744C116.532 293.322 116.556 292.817 116.492 292.264L109.753 299.027ZM88.2123 275.624C87.8647 275.978 87.7685 276.534 88.0068 277.181L91.9252 286.36C92.1891 287.042 92.8708 287.701 93.5589 288.139L100.298 281.376C99.5844 280.902 98.9283 280.279 98.6644 279.597L94.746 270.418C94.4714 269.797 94.5421 269.204 94.9516 268.861L88.2123 275.624ZM134.405 316.218L138.706 324.476C139.042 325.108 139.647 325.658 140.346 326.034L147.049 319.296C146.35 318.921 145.781 318.345 145.445 317.714L141.145 309.455L134.405 316.218ZM90.0539 250.438C89.9345 250.576 89.815 250.715 89.6849 250.915L87.1756 255.671C86.6485 256.695 86.8821 258.104 87.764 258.894L95.5308 266.064C95.8844 266.412 96.2422 266.919 96.4657 267.467L103.205 260.704C102.981 260.156 102.624 259.649 102.27 259.301L94.5033 252.131C93.6469 251.378 93.424 249.906 93.9148 248.909L96.4242 244.152C96.518 243.978 96.6375 243.839 96.7569 243.701L90.0539 250.438ZM104.961 243.559C104.649 243.887 104.528 244.408 104.715 244.981L105.849 248.362L107.378 249.454C108.318 250.094 109.819 250.067 110.801 249.537C111.433 249.2 112.053 248.925 112.735 248.661C112.906 248.595 113.051 248.493 113.221 248.427C113.33 248.35 113.439 248.273 113.522 248.16C113.714 247.971 113.844 247.77 113.974 247.57C114.115 247.308 114.168 246.998 114.16 246.679C114.156 246.519 114.126 246.322 114.06 246.152L111.443 238.28C111.352 238.073 111.348 237.913 111.318 237.717C111.324 237.496 111.357 237.31 111.45 237.135C111.497 237.048 111.581 236.935 111.627 236.847L104.961 243.559Z" fill="white" stroke="#182341" stroke-miterlimit="10" stroke-linecap="round" stroke-linejoin="round"/>
<path d="M120.544 237.181L112.871 236.459C111.748 236.329 111.129 237.145 111.453 238.22L114.07 246.092C114.455 247.177 113.793 248.241 112.745 248.601C112.062 248.865 111.406 249.165 110.811 249.476C109.828 250.007 108.353 250.07 107.388 249.394L99.0515 243.494C98.1119 242.854 96.9501 243.131 96.3975 244.118L93.9244 248.848C93.3974 249.872 93.6565 251.317 94.4767 252.096L102.243 259.266C103.064 260.045 103.657 261.58 103.65 262.725C103.654 263.809 103.683 264.928 103.861 266.105C104.014 267.246 103.25 268.165 102.131 268.194L96.0207 268.379C94.9017 268.408 94.3343 269.297 94.7919 270.332L98.7103 279.511C99.1679 280.545 100.425 281.559 101.527 281.813L108.849 283.27C109.987 283.499 111.353 284.436 112.017 285.378C113.167 287.01 114.415 288.627 115.71 290.156C116.422 291.012 116.819 292.577 116.441 293.658L114.88 298.451C114.539 299.506 114.983 300.984 115.876 301.711L124.889 309.033C125.782 309.761 127.046 309.629 127.748 308.7L130.487 305.194C131.214 304.3 132.561 304.056 133.558 304.547C135.105 305.355 136.663 306.102 138.216 306.69C139.26 307.093 140.594 308.215 141.088 309.224L145.465 317.591C145.995 318.574 147.335 319.475 148.458 319.605L156.105 320.291C157.265 320.396 157.847 319.605 157.524 318.53L154.907 310.659C154.522 309.573 155.183 308.509 156.232 308.15C156.914 307.885 157.571 307.585 158.166 307.274C159.148 306.744 160.623 306.68 161.588 307.357L169.925 313.256C170.865 313.896 172.026 313.62 172.579 312.633L175.052 307.902C175.579 306.879 175.32 305.433 174.5 304.654L166.733 297.484C165.913 296.706 165.319 295.17 165.326 294.025C165.323 292.942 165.294 291.822 165.115 290.645C164.962 289.504 165.726 288.586 166.845 288.556L172.956 288.371C174.075 288.342 174.642 287.453 174.185 286.419L170.266 277.239C169.809 276.205 168.552 275.192 167.45 274.937L160.142 273.578C159.004 273.349 157.639 272.413 156.974 271.47C155.824 269.838 154.576 268.221 153.281 266.692C152.544 265.8 152.172 264.271 152.55 263.19L154.111 258.398C154.453 257.342 154.008 255.864 153.115 255.137L144.102 247.815C143.209 247.087 141.945 247.219 141.244 248.148L138.505 251.655C137.777 252.548 136.43 252.793 135.433 252.302C133.886 251.493 132.329 250.746 130.775 250.159C129.731 249.755 128.397 248.633 127.904 247.624L123.526 239.257C122.981 238.176 121.641 237.276 120.544 237.181ZM150.822 279.99C155.056 289.924 151.2 297.313 142.208 296.49C133.216 295.668 122.443 286.927 118.21 276.993C113.976 267.058 117.832 259.67 126.824 260.492C135.816 261.315 146.563 270.02 150.822 279.99Z" fill="white" stroke="#182341" stroke-miterlimit="10" stroke-linecap="round" stroke-linejoin="round"/>
<path opacity="0.55" d="M120.544 237.181L112.871 236.459C111.748 236.329 111.129 237.145 111.453 238.22L114.07 246.092C114.455 247.177 113.793 248.241 112.745 248.601C112.062 248.865 111.406 249.165 110.811 249.476C109.828 250.007 108.353 250.07 107.388 249.394L99.0515 243.494C98.1119 242.854 96.9501 243.131 96.3975 244.118L93.9244 248.848C93.3974 249.872 93.6565 251.317 94.4767 252.096L102.243 259.266C103.064 260.045 103.657 261.58 103.65 262.725C103.654 263.809 103.683 264.928 103.861 266.105C104.014 267.246 103.25 268.165 102.131 268.194L96.0207 268.379C94.9017 268.408 94.3343 269.297 94.7919 270.332L98.7103 279.511C99.1679 280.545 100.425 281.559 101.527 281.813L108.849 283.27C109.987 283.499 111.353 284.436 112.017 285.378C113.167 287.01 114.415 288.627 115.71 290.156C116.422 291.012 116.819 292.577 116.441 293.658L114.88 298.451C114.539 299.506 114.983 300.984 115.876 301.711L124.889 309.033C125.782 309.761 127.046 309.629 127.748 308.7L130.487 305.194C131.214 304.3 132.561 304.056 133.558 304.547C135.105 305.355 136.663 306.102 138.216 306.69C139.26 307.093 140.594 308.215 141.088 309.224L145.465 317.591C145.995 318.574 147.335 319.475 148.458 319.605L156.105 320.291C157.265 320.396 157.847 319.605 157.524 318.53L154.907 310.659C154.522 309.573 155.183 308.509 156.232 308.15C156.914 307.885 157.571 307.585 158.166 307.274C159.148 306.744 160.623 306.68 161.588 307.357L169.925 313.256C170.865 313.896 172.026 313.62 172.579 312.633L175.052 307.902C175.579 306.879 175.32 305.433 174.5 304.654L166.733 297.484C165.913 296.706 165.319 295.17 165.326 294.025C165.323 292.942 165.294 291.822 165.115 290.645C164.962 289.504 165.726 288.586 166.845 288.556L172.956 288.371C174.075 288.342 174.642 287.453 174.185 286.419L170.266 277.239C169.809 276.205 168.552 275.192 167.45 274.937L160.142 273.578C159.004 273.349 157.639 272.413 156.974 271.47C155.824 269.838 154.576 268.221 153.281 266.692C152.544 265.8 152.172 264.271 152.55 263.19L154.111 258.398C154.453 257.342 154.008 255.864 153.115 255.137L144.102 247.815C143.209 247.087 141.945 247.219 141.244 248.148L138.505 251.655C137.777 252.548 136.43 252.793 135.433 252.302C133.886 251.493 132.329 250.746 130.775 250.159C129.731 249.755 128.397 248.633 127.904 247.624L123.526 239.257C122.981 238.176 121.641 237.276 120.544 237.181ZM150.822 279.99C155.056 289.924 151.2 297.313 142.208 296.49C133.216 295.668 122.443 286.927 118.21 276.993C113.976 267.058 117.832 259.67 126.824 260.492C135.816 261.315 146.563 270.02 150.822 279.99Z" fill="white" stroke="#182341" stroke-miterlimit="10" stroke-linecap="round" stroke-linejoin="round"/>
</svg>
