<svg width="399" height="373" viewBox="0 0 399 373" fill="none" xmlns="http://www.w3.org/2000/svg">
<path d="M323.778 74.6098L306.638 72.2206C306.159 72.1818 305.685 72.3653 305.252 72.8213L297.481 80.9435C297.034 80.2027 296.789 79.3198 296.836 78.5319L298.863 51.9875C298.964 50.6338 297.991 49.3595 296.567 49.1575L281.896 47.0626C281.896 47.0626 281.846 47.0981 281.81 47.0477L264.756 44.6733C263.418 44.4861 262.058 45.4453 261.785 46.7693L256.395 72.8205C256.226 73.5432 255.784 74.3073 255.15 74.9054L249.898 64.8845C249.557 64.2949 249.173 63.9629 248.693 63.9242L231.624 61.6357C231.144 61.597 230.62 61.8159 230.173 62.3579L215.979 80.5165C215.134 81.5648 214.792 83.5405 215.186 84.847L221.622 106.176C222.015 107.482 221.83 109.573 221.264 110.803C218.978 115.583 217.006 120.594 215.398 125.801C214.953 127.095 213.564 128.226 212.181 128.297L198.675 128.925C197.292 128.995 196.039 130.106 195.837 131.53L191.704 160.542C191.517 161.88 192.41 163.362 193.704 163.807L206.519 168.191C207.813 168.636 208.843 170.097 208.913 171.48C209.072 176.949 209.555 182.34 210.425 187.534C210.632 188.896 210.24 190.908 209.502 192.107L197.424 210.809C196.651 211.958 196.481 213.963 196.975 215.199L205.531 236.54C205.77 237.201 206.241 237.547 206.756 237.637L223.896 240.026C224.376 240.065 224.85 239.881 225.282 239.425L233.054 231.303C233.501 232.044 233.746 232.927 233.698 233.714L231.672 260.259C231.57 261.613 232.543 262.887 233.968 263.089L254.557 265.986L265.692 267.558C267.031 267.745 268.39 266.786 268.663 265.462L274.053 239.411C274.222 238.688 274.664 237.924 275.298 237.326L280.551 247.347C280.891 247.937 281.276 248.269 281.755 248.307L298.86 250.646C299.375 250.735 299.864 250.466 300.311 249.924L314.505 231.765C315.35 230.717 315.692 228.741 315.298 227.435L308.912 206.071C308.519 204.764 308.704 202.673 309.271 201.444C311.556 196.664 313.528 191.652 315.136 186.445C315.581 185.151 316.971 184.02 318.354 183.949L331.859 183.321C333.242 183.251 334.495 182.141 334.697 180.716L338.83 151.705C339.018 150.366 338.124 148.884 336.831 148.439L324.015 144.055C322.721 143.611 321.692 142.15 321.622 140.766C321.462 135.298 320.98 129.906 320.109 124.713C319.903 123.35 320.295 121.339 321.033 120.139L333.11 101.438C333.884 100.289 334.054 98.2833 333.56 97.0478L325.003 75.7064C324.714 75.0813 324.293 74.6989 323.778 74.6098ZM249.889 187.901C241.883 167.981 246.114 138.147 259.348 121.193C264.51 114.61 270.313 110.969 275.898 110.122C280 112.733 283.687 117.75 286.629 125.027C294.635 144.946 290.404 174.781 277.17 191.734C272.008 198.317 266.786 201.926 261.882 202.67C257.048 200.197 252.816 195.263 249.889 187.901Z" fill="white" stroke="#182341" stroke-width="0.9896" stroke-miterlimit="10" stroke-linecap="round" stroke-linejoin="round"/>
<path opacity="0.2" d="M323.778 74.6098L306.638 72.2206C306.159 72.1818 305.685 72.3653 305.252 72.8213L297.481 80.9435C297.034 80.2027 296.789 79.3198 296.836 78.5319L298.863 51.9875C298.964 50.6338 297.991 49.3595 296.567 49.1575L281.896 47.0626C281.896 47.0626 281.846 47.0981 281.81 47.0477L264.756 44.6733C263.418 44.4861 262.058 45.4453 261.785 46.7693L256.395 72.8205C256.226 73.5432 255.784 74.3073 255.15 74.9054L249.898 64.8845C249.557 64.2949 249.173 63.9629 248.693 63.9242L231.624 61.6357C231.144 61.597 230.62 61.8159 230.173 62.3579L215.979 80.5165C215.134 81.5648 214.792 83.5405 215.186 84.847L221.622 106.176C222.015 107.482 221.83 109.573 221.264 110.803C218.978 115.583 217.006 120.594 215.398 125.801C214.953 127.095 213.564 128.226 212.181 128.297L198.675 128.925C197.292 128.995 196.039 130.106 195.837 131.53L191.704 160.542C191.517 161.88 192.41 163.362 193.704 163.807L206.519 168.191C207.813 168.636 208.843 170.097 208.913 171.48C209.072 176.949 209.555 182.34 210.425 187.534C210.632 188.896 210.24 190.908 209.502 192.107L197.424 210.809C196.651 211.958 196.481 213.963 196.975 215.199L205.531 236.54C205.77 237.201 206.241 237.547 206.756 237.637L223.896 240.026C224.376 240.065 224.85 239.881 225.282 239.425L233.054 231.303C233.501 232.044 233.746 232.927 233.698 233.714L231.672 260.259C231.57 261.613 232.543 262.887 233.968 263.089L254.557 265.986L265.692 267.558C267.031 267.745 268.39 266.786 268.663 265.462L274.053 239.411C274.222 238.688 274.664 237.924 275.298 237.326L280.551 247.347C280.891 247.937 281.276 248.269 281.755 248.307L298.86 250.646C299.375 250.735 299.864 250.466 300.311 249.924L314.505 231.765C315.35 230.717 315.692 228.741 315.298 227.435L308.912 206.071C308.519 204.764 308.704 202.673 309.271 201.444C311.556 196.664 313.528 191.652 315.136 186.445C315.581 185.151 316.971 184.02 318.354 183.949L331.859 183.321C333.242 183.251 334.495 182.141 334.697 180.716L338.83 151.705C339.018 150.366 338.124 148.884 336.831 148.439L324.015 144.055C322.721 143.611 321.692 142.15 321.622 140.766C321.462 135.298 320.98 129.906 320.109 124.713C319.903 123.35 320.295 121.339 321.033 120.139L333.11 101.438C333.884 100.289 334.054 98.2833 333.56 97.0478L325.003 75.7064C324.714 75.0813 324.293 74.6989 323.778 74.6098ZM249.889 187.901C241.883 167.981 246.114 138.147 259.348 121.193C264.51 114.61 270.313 110.969 275.898 110.122C280 112.733 283.687 117.75 286.629 125.027C294.635 144.946 290.404 174.781 277.17 191.734C272.008 198.317 266.786 201.926 261.882 202.67C257.048 200.197 252.816 195.263 249.889 187.901Z" fill="white" stroke="#182341" stroke-width="0.9896" stroke-miterlimit="10" stroke-linecap="round" stroke-linejoin="round"/>
<path opacity="0.1" d="M242.069 225.475C241.187 224.437 239.748 224.321 238.783 225.304L233.124 231.182C233.57 231.923 233.815 232.806 233.717 233.629L231.691 260.173C231.589 261.527 232.613 262.766 233.987 263.003L254.541 265.85L251.091 265.342C249.753 265.155 248.729 263.916 248.795 262.512L250.857 236.018C250.959 234.665 250.11 232.925 249.012 232.116C246.537 230.317 244.223 228.103 242.069 225.475ZM298.707 250.531C298.328 250.421 297.943 250.089 297.674 249.6L288.627 232.377C287.997 231.162 286.588 230.874 285.444 231.605C282.589 233.544 279.772 235.003 276.929 236.104C276.319 236.308 275.765 236.699 275.282 237.19L280.534 247.211C280.875 247.801 281.259 248.133 281.739 248.172L298.707 250.531Z" fill="white" stroke="#182341" stroke-width="0.9896" stroke-miterlimit="10" stroke-linecap="round" stroke-linejoin="round"/>
<path opacity="0.1" d="M297.8 126.65C305.807 146.569 301.611 176.454 288.392 193.322C280.003 203.991 270.064 207.005 261.832 202.706C266.736 201.962 271.993 198.404 277.206 191.785C290.475 174.882 294.671 144.997 286.614 125.114C283.672 117.837 280.036 112.784 275.934 110.173C284.602 108.885 292.904 114.568 297.8 126.65Z" fill="white" stroke="#182341" stroke-width="0.9896" stroke-miterlimit="10" stroke-linecap="round" stroke-linejoin="round"/>
<path d="M264.837 44.6876C263.498 44.5004 262.189 45.4241 261.866 46.7836L256.476 72.8343C256.402 73.2638 256.156 73.6636 255.91 74.0634L273.049 76.4526C273.295 76.0528 273.506 75.6026 273.58 75.1731L278.97 49.1225C279.228 47.8843 280.351 47.0169 281.633 47.0175L264.837 44.6876ZM306.632 72.2195C306.203 72.1453 305.679 72.3643 305.196 72.8558L297.424 80.9778C297.764 81.5675 298.205 82.0861 298.676 82.4329C301.029 84.1668 303.272 86.2799 305.319 88.7572C305.39 88.858 305.547 88.9736 305.618 89.0743C305.882 89.3411 306.145 89.6078 306.438 89.7027C306.559 89.7679 306.645 89.7828 306.767 89.848C306.974 89.9281 307.196 89.9222 307.418 89.9164C307.776 89.8899 308.149 89.7775 308.452 89.5644C308.603 89.4578 308.754 89.3512 308.819 89.2298L322.3 75.1946C322.415 75.0377 322.516 74.9666 322.667 74.8601C322.869 74.718 323.02 74.6114 323.242 74.6056C323.428 74.5494 323.65 74.5435 323.772 74.6088L306.632 72.2195ZM231.619 61.6349C231.14 61.5962 230.616 61.8151 230.204 62.4074L216.06 80.5302C215.447 81.2645 215.117 82.4019 215.146 83.5128L232.236 85.9375C232.242 84.877 232.622 83.7041 233.2 82.9194L247.394 64.7611C247.791 64.2547 248.279 63.9854 248.759 64.0241L231.619 61.6349ZM210.197 190.102C210.028 190.824 209.823 191.497 209.477 191.967L197.399 210.669C197.088 211.19 196.898 211.776 196.794 212.378L213.848 214.752C213.917 214.1 214.157 213.478 214.504 213.008L226.581 194.306C226.892 193.785 227.182 193.128 227.352 192.405L210.197 190.102ZM197.617 129.139C196.705 129.556 195.976 130.447 195.797 131.478L191.664 160.489C191.596 161.14 191.75 161.786 192.054 162.325L209.194 164.715C208.854 164.125 208.7 163.479 208.804 162.878L212.937 133.867C213.065 132.872 213.729 132.102 214.605 131.634L197.617 129.139Z" fill="white" stroke="#182341" stroke-width="0.9896" stroke-miterlimit="10" stroke-linecap="round" stroke-linejoin="round"/>
<path opacity="0.7" d="M264.837 44.6876C263.498 44.5004 262.189 45.4241 261.866 46.7836L256.476 72.8343C256.402 73.2638 256.156 73.6636 255.91 74.0634L273.049 76.4526C273.295 76.0528 273.506 75.6026 273.58 75.1731L278.97 49.1225C279.228 47.8843 280.351 47.0169 281.633 47.0175L264.837 44.6876ZM306.632 72.2195C306.203 72.1453 305.679 72.3643 305.196 72.8558L297.424 80.9778C297.764 81.5675 298.205 82.0861 298.676 82.4329C301.029 84.1668 303.272 86.2799 305.319 88.7572C305.39 88.858 305.547 88.9736 305.618 89.0743C305.882 89.3411 306.145 89.6078 306.438 89.7027C306.559 89.7679 306.645 89.7828 306.767 89.848C306.974 89.9281 307.196 89.9222 307.418 89.9164C307.776 89.8899 308.149 89.7775 308.452 89.5644C308.603 89.4578 308.754 89.3512 308.819 89.2298L322.3 75.1946C322.415 75.0377 322.516 74.9666 322.667 74.8601C322.869 74.718 323.02 74.6114 323.242 74.6056C323.428 74.5494 323.65 74.5435 323.772 74.6088L306.632 72.2195ZM231.619 61.6349C231.14 61.5962 230.616 61.8151 230.204 62.4074L216.06 80.5302C215.447 81.2645 215.117 82.4019 215.146 83.5128L232.236 85.9375C232.242 84.877 232.622 83.7041 233.2 82.9194L247.394 64.7611C247.791 64.2547 248.279 63.9854 248.759 64.0241L231.619 61.6349ZM210.197 190.102C210.028 190.824 209.823 191.497 209.477 191.967L197.399 210.669C197.088 211.19 196.898 211.776 196.794 212.378L213.848 214.752C213.917 214.1 214.157 213.478 214.504 213.008L226.581 194.306C226.892 193.785 227.182 193.128 227.352 192.405L210.197 190.102ZM197.617 129.139C196.705 129.556 195.976 130.447 195.797 131.478L191.664 160.489C191.596 161.14 191.75 161.786 192.054 162.325L209.194 164.715C208.854 164.125 208.7 163.479 208.804 162.878L212.937 133.867C213.065 132.872 213.729 132.102 214.605 131.634L197.617 129.139Z" fill="white" stroke="#182341" stroke-width="0.9896" stroke-miterlimit="10" stroke-linecap="round" stroke-linejoin="round"/>
<path d="M333.592 97.0985L325.036 75.7572C324.507 74.4713 323.355 74.2279 322.389 75.2109L308.908 89.2464C307.942 90.2294 306.539 90.1637 305.621 89.0761C303.467 86.4476 301.118 84.1833 298.643 82.3841C297.545 81.5749 296.697 79.8356 296.798 78.4819L298.824 51.9375C298.926 50.5837 297.952 49.3095 296.528 49.1075L281.858 47.0126C280.519 46.8253 279.16 47.7845 278.887 49.1086L273.497 75.1598C273.224 76.4838 271.911 77.9377 270.64 78.3815C267.762 79.4319 264.894 80.9266 262.125 82.8805C261.017 83.662 259.608 83.3741 258.978 82.1592L249.93 64.9353C249.3 63.7205 248.083 63.5985 247.274 64.6971L233.08 82.8558C232.236 83.9041 231.894 85.8798 232.287 87.1864L238.723 108.515C239.116 109.821 238.932 111.913 238.365 113.142C236.079 117.922 234.107 122.933 232.499 128.14C232.054 129.435 230.665 130.566 229.282 130.636L215.777 131.264C214.394 131.335 213.141 132.445 212.938 133.87L208.805 162.881C208.618 164.22 209.511 165.701 210.805 166.146L223.621 170.53C224.914 170.975 225.944 172.436 226.014 173.82C226.174 179.288 226.656 184.68 227.527 189.873C227.733 191.236 227.341 193.247 226.603 194.446L214.526 213.148C213.752 214.297 213.582 216.303 214.076 217.538L222.632 238.879C223.162 240.165 224.313 240.409 225.279 239.426L238.76 225.39C239.726 224.407 241.13 224.473 242.047 225.561C244.201 228.189 246.551 230.453 249.025 232.252C250.123 233.062 250.972 234.801 250.87 236.155L248.844 262.699C248.742 264.053 249.716 265.327 251.14 265.529L265.811 267.624C267.149 267.811 268.509 266.852 268.782 265.528L274.172 239.477C274.445 238.153 275.757 236.699 277.028 236.255C279.907 235.205 282.774 233.71 285.543 231.756C286.651 230.975 288.061 231.263 288.726 232.528L297.774 249.752C298.404 250.966 299.62 251.088 300.43 249.99L314.624 231.831C315.468 230.783 315.81 228.807 315.417 227.501L308.909 206.071C308.516 204.765 308.701 202.673 309.267 201.444C311.553 196.664 313.525 191.653 315.133 186.446C315.578 185.151 316.968 184.02 318.35 183.95L331.856 183.322C333.239 183.251 334.492 182.141 334.694 180.716L338.827 151.705C339.015 150.366 338.121 148.885 336.828 148.44L324.012 144.056C322.718 143.611 321.689 142.15 321.619 140.767C321.459 135.298 320.977 129.907 320.106 124.713C319.9 123.35 320.292 121.339 321.03 120.14L333.107 101.438C333.916 100.339 334.122 98.3844 333.592 97.0985ZM288.338 193.357C275.068 210.26 257.893 207.82 249.836 187.937C241.829 168.017 246.061 138.183 259.295 121.229C272.564 104.326 289.74 106.766 297.746 126.685C305.803 146.569 301.607 176.454 288.338 193.357Z" fill="white" stroke="#182341" stroke-width="0.9896" stroke-miterlimit="10" stroke-linecap="round" stroke-linejoin="round"/>
<path opacity="0.55" d="M333.592 97.0985L325.036 75.7572C324.507 74.4713 323.355 74.2279 322.389 75.2109L308.908 89.2464C307.942 90.2294 306.539 90.1637 305.621 89.0761C303.467 86.4476 301.118 84.1833 298.643 82.3841C297.545 81.5749 296.697 79.8356 296.798 78.4819L298.824 51.9375C298.926 50.5837 297.952 49.3095 296.528 49.1075L281.858 47.0126C280.519 46.8253 279.16 47.7845 278.887 49.1086L273.497 75.1598C273.224 76.4838 271.911 77.9377 270.64 78.3815C267.762 79.4319 264.894 80.9266 262.125 82.8805C261.017 83.662 259.608 83.3741 258.978 82.1592L249.93 64.9353C249.3 63.7205 248.083 63.5985 247.274 64.6971L233.08 82.8558C232.236 83.9041 231.894 85.8798 232.287 87.1864L238.723 108.515C239.116 109.821 238.932 111.913 238.365 113.142C236.079 117.922 234.107 122.933 232.499 128.14C232.054 129.435 230.665 130.566 229.282 130.636L215.777 131.264C214.394 131.335 213.141 132.445 212.938 133.87L208.805 162.881C208.618 164.22 209.511 165.701 210.805 166.146L223.621 170.53C224.914 170.975 225.944 172.436 226.014 173.82C226.174 179.288 226.656 184.68 227.527 189.873C227.733 191.236 227.341 193.247 226.603 194.446L214.526 213.148C213.752 214.297 213.582 216.303 214.076 217.538L222.632 238.879C223.162 240.165 224.313 240.409 225.279 239.426L238.76 225.39C239.726 224.407 241.13 224.473 242.047 225.561C244.201 228.189 246.551 230.453 249.025 232.252C250.123 233.062 250.972 234.801 250.87 236.155L248.844 262.699C248.742 264.053 249.716 265.327 251.14 265.529L265.811 267.624C267.149 267.811 268.509 266.852 268.782 265.528L274.172 239.477C274.445 238.153 275.757 236.699 277.028 236.255C279.907 235.205 282.774 233.71 285.543 231.756C286.651 230.975 288.061 231.263 288.726 232.528L297.774 249.752C298.404 250.966 299.62 251.088 300.43 249.99L314.624 231.831C315.468 230.783 315.81 228.807 315.417 227.501L308.909 206.071C308.516 204.765 308.701 202.673 309.267 201.444C311.553 196.664 313.525 191.653 315.133 186.446C315.578 185.151 316.968 184.02 318.35 183.95L331.856 183.322C333.239 183.251 334.492 182.141 334.694 180.716L338.827 151.705C339.015 150.366 338.121 148.885 336.828 148.44L324.012 144.056C322.718 143.611 321.689 142.15 321.619 140.767C321.459 135.298 320.977 129.907 320.106 124.713C319.9 123.35 320.292 121.339 321.03 120.14L333.107 101.438C333.916 100.339 334.122 98.3844 333.592 97.0985ZM288.338 193.357C275.068 210.26 257.893 207.82 249.836 187.937C241.829 168.017 246.061 138.183 259.295 121.229C272.564 104.326 289.74 106.766 297.746 126.685C305.803 146.569 301.607 176.454 288.338 193.357Z" fill="white" stroke="#182341" stroke-width="0.9896" stroke-miterlimit="10" stroke-linecap="round" stroke-linejoin="round"/>
<path d="M79.8764 178.033C78.4258 177.472 76.5731 175.913 75.887 174.512L69.8059 162.888C69.0694 161.522 67.2077 160.271 65.6473 160.09L54.9881 159.087C54.2508 159.003 53.7266 159.222 53.3088 159.592L43.9611 168.902C43.5285 169.358 43.3238 170.03 43.6194 170.878L45.1949 175.574L35.7383 168.895C34.6757 168.136 33.3638 168.308 32.549 169.184L32.5135 169.134L23.1658 178.443C22.9999 178.636 22.8339 178.828 22.6531 179.107L19.2173 185.679C18.4851 187.1 18.8452 189.109 19.9845 190.191L30.7746 200.152C31.6151 200.917 32.1948 202.167 32.5019 203.459L31.3915 203.488C30.7253 203.505 30.2869 203.739 29.9195 204.074L20.5569 213.469C20.074 213.961 19.89 214.769 20.2714 215.631L25.7151 228.384C26.3509 229.821 28.0971 231.229 29.6278 231.582L39.8008 233.607C41.3818 233.924 43.2791 235.226 44.2021 236.536C45.7998 238.802 47.5336 241.049 49.3326 243.173C50.3564 244.412 50.8734 246.536 50.3484 248.038L48.1799 254.697C47.7052 256.163 48.3228 258.216 49.5629 259.227L62.0851 269.399C63.2039 270.344 64.7733 270.218 65.825 269.249L72.1388 262.91C72.8199 262.807 73.5068 262.925 74.1137 263.251C76.2627 264.375 78.4267 265.413 80.5848 266.228C82.0354 266.789 83.8881 268.348 84.5742 269.75L90.6552 281.374C91.3917 282.74 93.2535 283.99 94.8139 284.172L105.438 285.124C106.139 285.157 106.699 284.989 107.066 284.654L116.429 275.259C116.862 274.803 117.016 274.166 116.771 273.283L115.195 268.587L124.652 275.265C125.679 275.974 126.89 275.874 127.776 275.098L137.138 265.702L137.103 265.652C137.319 265.424 137.485 265.232 137.666 264.953L141.102 258.381C141.834 256.96 141.509 255.001 140.335 253.869L129.544 243.908C128.704 243.143 128.124 241.893 127.817 240.601L128.928 240.572C129.594 240.555 130.032 240.321 130.4 239.986L139.697 230.712L139.798 230.641C140.281 230.15 140.414 229.377 140.033 228.514L134.589 215.762C133.953 214.325 132.207 212.917 130.677 212.564L120.66 210.655C119.079 210.337 117.182 209.036 116.259 207.726C114.661 205.459 112.928 203.213 111.128 201.088C110.105 199.849 109.588 197.725 110.113 196.223L112.281 189.565C112.756 188.099 112.138 186.046 110.898 185.035L98.376 174.862C97.136 173.852 95.3799 174.035 94.405 175.326L90.6 180.197C89.5896 181.438 87.718 181.778 86.3326 181.096C84.1984 179.886 81.9841 178.884 79.8764 178.033ZM95.7093 242.436C83.2172 241.293 68.2504 229.149 62.369 215.348C60.2016 210.24 59.5351 205.657 60.2243 201.927C61.6369 201.685 63.1915 201.644 64.974 201.82C77.466 202.963 92.4329 215.106 98.3142 228.908C100.482 234.016 101.113 238.548 100.423 242.278C99.0108 242.52 97.4414 242.647 95.7093 242.436Z" fill="white" stroke="#182341" stroke-width="0.9896" stroke-miterlimit="10" stroke-linecap="round" stroke-linejoin="round"/>
<path opacity="0.2" d="M79.8764 178.033C78.4258 177.472 76.5731 175.913 75.887 174.512L69.8059 162.888C69.0694 161.522 67.2077 160.271 65.6473 160.09L54.9881 159.087C54.2508 159.003 53.7266 159.222 53.3088 159.592L43.9611 168.902C43.5285 169.358 43.3238 170.03 43.6194 170.878L45.1949 175.574L35.7383 168.895C34.6757 168.136 33.3638 168.308 32.549 169.184L32.5135 169.134L23.1658 178.443C22.9999 178.636 22.8339 178.828 22.6531 179.107L19.2173 185.679C18.4851 187.1 18.8452 189.109 19.9845 190.191L30.7746 200.152C31.6151 200.917 32.1948 202.167 32.5019 203.459L31.3915 203.488C30.7253 203.505 30.2869 203.739 29.9195 204.074L20.5569 213.469C20.074 213.961 19.89 214.769 20.2714 215.631L25.7151 228.384C26.3509 229.821 28.0971 231.229 29.6278 231.582L39.8008 233.607C41.3818 233.924 43.2791 235.226 44.2021 236.536C45.7998 238.802 47.5336 241.049 49.3326 243.173C50.3564 244.412 50.8734 246.536 50.3484 248.038L48.1799 254.697C47.7052 256.163 48.3228 258.216 49.5629 259.227L62.0851 269.399C63.2039 270.344 64.7733 270.218 65.825 269.249L72.1388 262.91C72.8199 262.807 73.5068 262.925 74.1137 263.251C76.2627 264.375 78.4267 265.413 80.5848 266.228C82.0354 266.789 83.8881 268.348 84.5742 269.75L90.6552 281.374C91.3917 282.74 93.2535 283.99 94.8139 284.172L105.438 285.124C106.139 285.157 106.699 284.989 107.066 284.654L116.429 275.259C116.862 274.803 117.016 274.166 116.771 273.283L115.195 268.587L124.652 275.265C125.679 275.974 126.89 275.874 127.776 275.098L137.138 265.702L137.103 265.652C137.319 265.424 137.485 265.232 137.666 264.953L141.102 258.381C141.834 256.96 141.509 255.001 140.335 253.869L129.544 243.908C128.704 243.143 128.124 241.893 127.817 240.601L128.928 240.572C129.594 240.555 130.032 240.321 130.4 239.986L139.697 230.712L139.798 230.641C140.281 230.15 140.414 229.377 140.033 228.514L134.589 215.762C133.953 214.325 132.207 212.917 130.677 212.564L120.66 210.655C119.079 210.337 117.182 209.036 116.259 207.726C114.661 205.459 112.928 203.213 111.128 201.088C110.105 199.849 109.588 197.725 110.113 196.223L112.281 189.565C112.756 188.099 112.138 186.046 110.898 185.035L98.376 174.862C97.136 173.852 95.3799 174.035 94.405 175.326L90.6 180.197C89.5896 181.438 87.718 181.778 86.3326 181.096C84.1984 179.886 81.9841 178.884 79.8764 178.033ZM95.7093 242.436C83.2172 241.293 68.2504 229.149 62.369 215.348C60.2016 210.24 59.5351 205.657 60.2243 201.927C61.6369 201.685 63.1915 201.644 64.974 201.82C77.466 202.963 92.4329 215.106 98.3142 228.908C100.482 234.016 101.113 238.548 100.423 242.278C99.0108 242.52 97.4414 242.647 95.7093 242.436Z" fill="white" stroke="#182341" stroke-width="0.9896" stroke-miterlimit="10" stroke-linecap="round" stroke-linejoin="round"/>
<path opacity="0.1" d="M115.238 258.91C113.73 259.445 112.898 260.938 113.397 262.395L115.457 268.635L124.914 275.313C125.941 276.022 127.152 275.921 128.038 275.146L137.284 265.907C136.449 266.648 135.253 266.662 134.261 266.004L122.68 257.808C121.425 256.883 119.376 256.971 117.924 257.693C117.098 258.125 116.186 258.543 115.238 258.91ZM139.943 230.847C139.626 231.146 139.138 231.415 138.471 231.433L129.982 231.69C128.428 231.73 127.402 233.057 127.579 234.592C127.791 236.177 127.867 237.782 127.872 239.287C127.884 239.731 127.916 240.312 128.049 240.822L129.159 240.792C129.79 240.725 130.264 240.541 130.631 240.207L139.943 230.847Z" fill="white" stroke="#182341" stroke-width="0.9896" stroke-miterlimit="10" stroke-linecap="round" stroke-linejoin="round"/>
<path opacity="0.1" d="M107.714 219.563C112.811 231.504 109.531 240.757 100.46 242.329C101.149 238.599 100.483 234.016 98.3509 228.959C92.4695 215.157 77.5025 203.014 65.0103 201.871C63.2278 201.695 61.6732 201.736 60.2961 202.028C61.4458 195.636 66.4909 191.775 74.4084 192.525C86.8651 193.618 101.797 205.711 107.714 219.563Z" fill="white" stroke="#182341" stroke-width="0.9896" stroke-miterlimit="10" stroke-linecap="round" stroke-linejoin="round"/>
<path d="M50.6576 246.011C50.7104 246.728 50.7633 247.445 50.5231 248.067L48.3901 254.776C48.0904 255.741 48.2052 256.867 48.6577 257.83L58.0204 248.434C57.5679 247.471 57.4176 246.295 57.7527 245.38L59.8858 238.671C60.0757 238.085 60.1086 237.383 60.0203 236.615L50.6576 246.011ZM20.7313 213.497C20.2484 213.989 20.1147 214.762 20.4458 215.66L25.8896 228.412C26.2562 229.36 27.2032 230.276 28.1593 230.884L37.5219 221.488C36.5303 220.83 35.6189 219.965 35.2522 219.017L29.8084 206.264C29.427 205.402 29.5252 204.578 30.094 204.102L20.7313 213.497ZM84.9063 269.894L90.8809 281.367C91.3482 282.244 92.1887 283.009 93.1596 283.531L102.472 274.171C101.501 273.649 100.711 272.849 100.244 271.971L94.269 260.498L84.9063 269.894ZM23.2898 178.507C23.1239 178.699 22.9579 178.892 22.7772 179.17L19.291 185.778C18.5587 187.199 18.8833 189.157 20.1085 190.254L30.8988 200.215C31.39 200.698 31.8871 201.404 32.1975 202.165L41.5602 192.77C41.2498 192.008 40.7527 191.303 40.2615 190.82L29.4712 180.859C28.2815 179.812 27.9718 177.768 28.6537 176.382L32.1399 169.774C32.2703 169.532 32.4362 169.339 32.6022 169.147L23.2898 178.507ZM43.9996 168.95C43.567 169.406 43.3978 170.129 43.6579 170.926L45.2333 175.622L47.3585 177.14C48.6638 178.029 50.7484 177.991 52.114 177.254C52.9907 176.787 53.8526 176.405 54.8004 176.038C55.0374 175.946 55.2388 175.804 55.4757 175.712C55.6268 175.606 55.7779 175.499 55.8935 175.342C56.1601 175.079 56.3409 174.8 56.5217 174.522C56.7174 174.158 56.7917 173.728 56.7801 173.284C56.7743 173.062 56.733 172.789 56.6413 172.552L53.0057 161.616C52.8785 161.329 52.8727 161.107 52.8314 160.834C52.8405 160.526 52.8851 160.268 53.0155 160.026C53.0807 159.904 53.1963 159.747 53.2615 159.626L43.9996 168.95Z" fill="white" stroke="#182341" stroke-width="0.9896" stroke-miterlimit="10" stroke-linecap="round" stroke-linejoin="round"/>
<path opacity="0.7" d="M50.6576 246.011C50.7104 246.728 50.7633 247.445 50.5231 248.067L48.3901 254.776C48.0904 255.741 48.2052 256.867 48.6577 257.83L58.0204 248.434C57.5679 247.471 57.4176 246.295 57.7527 245.38L59.8858 238.671C60.0757 238.085 60.1086 237.383 60.0203 236.615L50.6576 246.011ZM20.7313 213.497C20.2484 213.989 20.1147 214.762 20.4458 215.66L25.8896 228.412C26.2562 229.36 27.2032 230.276 28.1593 230.884L37.5219 221.488C36.5303 220.83 35.6189 219.965 35.2522 219.017L29.8084 206.264C29.427 205.402 29.5252 204.578 30.094 204.102L20.7313 213.497ZM84.9063 269.894L90.8809 281.367C91.3482 282.244 92.1887 283.009 93.1596 283.531L102.472 274.171C101.501 273.649 100.711 272.849 100.244 271.971L94.269 260.498L84.9063 269.894ZM23.2898 178.507C23.1239 178.699 22.9579 178.892 22.7772 179.17L19.291 185.778C18.5587 187.199 18.8833 189.157 20.1085 190.254L30.8988 200.215C31.39 200.698 31.8871 201.404 32.1975 202.165L41.5602 192.77C41.2498 192.008 40.7527 191.303 40.2615 190.82L29.4712 180.859C28.2815 179.812 27.9718 177.768 28.6537 176.382L32.1399 169.774C32.2703 169.532 32.4362 169.339 32.6022 169.147L23.2898 178.507ZM43.9996 168.95C43.567 169.406 43.3978 170.129 43.6579 170.926L45.2333 175.622L47.3585 177.14C48.6638 178.029 50.7484 177.991 52.114 177.254C52.9907 176.787 53.8526 176.405 54.8004 176.038C55.0374 175.946 55.2388 175.804 55.4757 175.712C55.6268 175.606 55.7779 175.499 55.8935 175.342C56.1601 175.079 56.3409 174.8 56.5217 174.522C56.7174 174.158 56.7917 173.728 56.7801 173.284C56.7743 173.062 56.733 172.789 56.6413 172.552L53.0057 161.616C52.8785 161.329 52.8727 161.107 52.8314 160.834C52.8405 160.526 52.8851 160.268 53.0155 160.026C53.0807 159.904 53.1963 159.747 53.2615 159.626L43.9996 168.95Z" fill="white" stroke="#182341" stroke-width="0.9896" stroke-miterlimit="10" stroke-linecap="round" stroke-linejoin="round"/>
<path d="M65.649 160.09L54.9897 159.087C53.4293 158.905 52.57 160.04 53.0192 161.533L56.6547 172.468C57.1898 173.977 56.271 175.454 54.8138 175.954C53.8661 176.321 52.9538 176.739 52.1274 177.171C50.7619 177.908 48.7128 177.996 47.372 177.056L35.7902 168.86C34.4849 167.971 32.8708 168.355 32.1031 169.726L28.6673 176.298C27.9351 177.72 28.2951 179.729 29.4345 180.81L40.2247 190.772C41.364 191.853 42.1889 193.987 42.1791 195.577C42.1841 197.082 42.2246 198.638 42.4724 200.273C42.6846 201.858 41.6238 203.134 40.0692 203.175L31.5796 203.432C30.025 203.473 29.2367 204.708 29.8724 206.145L35.3162 218.897C35.952 220.334 37.6982 221.742 39.2288 222.095L49.4019 224.12C50.9829 224.438 52.8802 225.739 53.8033 227.049C55.4009 229.316 57.1347 231.562 58.9338 233.687C59.9221 234.875 60.4746 237.05 59.9495 238.552L57.781 245.21C57.3064 246.676 57.924 248.729 59.1641 249.74L71.6864 259.912C72.9265 260.923 74.6825 260.74 75.6575 259.449L79.4624 254.578C80.4728 253.337 82.3444 252.997 83.7298 253.679C85.8789 254.803 88.0428 255.84 90.201 256.656C91.6516 257.217 93.5043 258.776 94.1904 260.177L100.271 271.801C101.008 273.167 102.87 274.418 104.43 274.6L115.054 275.552C116.665 275.698 117.474 274.599 117.024 273.106L113.389 262.17C112.854 260.662 113.773 259.184 115.23 258.684C116.178 258.318 117.09 257.9 117.916 257.468C119.282 256.731 121.331 256.643 122.672 257.583L134.253 265.779C135.559 266.668 137.173 266.284 137.941 264.913L141.376 258.341C142.109 256.919 141.748 254.91 140.609 253.829L129.819 243.867C128.68 242.785 127.855 240.652 127.865 239.061C127.86 237.557 127.819 236.001 127.571 234.366C127.359 232.781 128.42 231.505 129.974 231.464L138.464 231.207C140.019 231.166 140.807 229.931 140.171 228.494L134.727 215.742C134.092 214.305 132.345 212.897 130.815 212.544L120.662 210.655C119.081 210.337 117.184 209.036 116.261 207.726C114.663 205.459 112.93 203.213 111.13 201.088C110.107 199.85 109.59 197.725 110.115 196.224L112.283 189.565C112.758 188.099 112.14 186.046 110.9 185.035L98.3779 174.863C97.1378 173.852 95.3818 174.035 94.4068 175.326L90.6019 180.197C89.5914 181.438 87.7198 181.778 86.3344 181.096C84.1853 179.972 82.0214 178.935 79.8633 178.119C78.4127 177.559 76.56 176 75.8738 174.598L69.7928 162.974C69.0356 161.472 67.1739 160.221 65.649 160.09ZM107.714 219.563C113.596 233.364 108.239 243.63 95.7466 242.487C83.2545 241.343 68.2876 229.2 62.4062 215.399C56.5249 201.597 61.8816 191.332 74.3738 192.475C86.8659 193.618 101.797 205.711 107.714 219.563Z" fill="white" stroke="#182341" stroke-width="0.9896" stroke-miterlimit="10" stroke-linecap="round" stroke-linejoin="round"/>
<path opacity="0.55" d="M65.649 160.09L54.9897 159.087C53.4293 158.905 52.57 160.04 53.0192 161.533L56.6547 172.468C57.1898 173.977 56.271 175.454 54.8138 175.954C53.8661 176.321 52.9538 176.739 52.1274 177.171C50.7619 177.908 48.7128 177.996 47.372 177.056L35.7902 168.86C34.4849 167.971 32.8708 168.355 32.1031 169.726L28.6673 176.298C27.9351 177.72 28.2951 179.729 29.4345 180.81L40.2247 190.772C41.364 191.853 42.1889 193.987 42.1791 195.577C42.1841 197.082 42.2246 198.638 42.4724 200.273C42.6846 201.858 41.6238 203.134 40.0692 203.175L31.5796 203.432C30.025 203.473 29.2367 204.708 29.8724 206.145L35.3162 218.897C35.952 220.334 37.6982 221.742 39.2288 222.095L49.4019 224.12C50.9829 224.438 52.8802 225.739 53.8033 227.049C55.4009 229.316 57.1347 231.562 58.9338 233.687C59.9221 234.875 60.4746 237.05 59.9495 238.552L57.781 245.21C57.3064 246.676 57.924 248.729 59.1641 249.74L71.6864 259.912C72.9265 260.923 74.6825 260.74 75.6575 259.449L79.4624 254.578C80.4728 253.337 82.3444 252.997 83.7298 253.679C85.8789 254.803 88.0428 255.84 90.201 256.656C91.6516 257.217 93.5043 258.776 94.1904 260.177L100.271 271.801C101.008 273.167 102.87 274.418 104.43 274.6L115.054 275.552C116.665 275.698 117.474 274.599 117.024 273.106L113.389 262.17C112.854 260.662 113.773 259.184 115.23 258.684C116.178 258.318 117.09 257.9 117.916 257.468C119.282 256.731 121.331 256.643 122.672 257.583L134.253 265.779C135.559 266.668 137.173 266.284 137.941 264.913L141.376 258.341C142.109 256.919 141.748 254.91 140.609 253.829L129.819 243.867C128.68 242.785 127.855 240.652 127.865 239.061C127.86 237.557 127.819 236.001 127.571 234.366C127.359 232.781 128.42 231.505 129.974 231.464L138.464 231.207C140.019 231.166 140.807 229.931 140.171 228.494L134.727 215.742C134.092 214.305 132.345 212.897 130.815 212.544L120.662 210.655C119.081 210.337 117.184 209.036 116.261 207.726C114.663 205.459 112.93 203.213 111.13 201.088C110.107 199.85 109.59 197.725 110.115 196.224L112.283 189.565C112.758 188.099 112.14 186.046 110.9 185.035L98.3779 174.863C97.1378 173.852 95.3818 174.035 94.4068 175.326L90.6019 180.197C89.5914 181.438 87.7198 181.778 86.3344 181.096C84.1853 179.972 82.0214 178.935 79.8633 178.119C78.4127 177.559 76.56 176 75.8738 174.598L69.7928 162.974C69.0356 161.472 67.1739 160.221 65.649 160.09ZM107.714 219.563C113.596 233.364 108.239 243.63 95.7466 242.487C83.2545 241.343 68.2876 229.2 62.4062 215.399C56.5249 201.597 61.8816 191.332 74.3738 192.475C86.8659 193.618 101.797 205.711 107.714 219.563Z" fill="white" stroke="#182341" stroke-width="0.9896" stroke-miterlimit="10" stroke-linecap="round" stroke-linejoin="round"/>
</svg>
