<svg width="1920" height="1868" viewBox="0 0 1920 1868" fill="none" xmlns="http://www.w3.org/2000/svg">
<g opacity="0.6" clip-path="url(#clip0_606_50027)">
<g opacity="0.31">
<path d="M93.9258 0V1920" stroke="#00D9EE" stroke-miterlimit="10"/>
<path d="M177.102 0V1920" stroke="#00D9EE" stroke-miterlimit="10"/>
<path d="M260.234 0V1920" stroke="#00D9EE" stroke-miterlimit="10"/>
<path d="M343.41 0V1920" stroke="#00D9EE" stroke-miterlimit="10"/>
<path d="M426.586 0V1920" stroke="#00D9EE" stroke-miterlimit="10"/>
<path d="M509.723 0V1920" stroke="#00D9EE" stroke-miterlimit="10"/>
<path d="M592.895 0V1920" stroke="#00D9EE" stroke-miterlimit="10"/>
<path d="M676.07 0V1920" stroke="#00D9EE" stroke-miterlimit="10"/>
<path d="M759.207 0V1920" stroke="#00D9EE" stroke-miterlimit="10"/>
<path d="M842.379 0V1920" stroke="#00D9EE" stroke-miterlimit="10"/>
<path d="M925.555 0V1920" stroke="#00D9EE" stroke-miterlimit="10"/>
<path d="M1008.69 0V1920" stroke="#00D9EE" stroke-miterlimit="10"/>
<path d="M1091.86 0V1920" stroke="#00D9EE" stroke-miterlimit="10"/>
<path d="M1175.04 0V1920" stroke="#00D9EE" stroke-miterlimit="10"/>
<path d="M1258.18 0V1920" stroke="#00D9EE" stroke-miterlimit="10"/>
<path d="M1341.35 0V1920" stroke="#00D9EE" stroke-miterlimit="10"/>
<path d="M1424.52 0V1920" stroke="#00D9EE" stroke-miterlimit="10"/>
<path d="M1507.66 0V1920" stroke="#00D9EE" stroke-miterlimit="10"/>
<path d="M1590.84 0V1920" stroke="#00D9EE" stroke-miterlimit="10"/>
<path d="M1674.01 0V1920" stroke="#00D9EE" stroke-miterlimit="10"/>
<path d="M1757.14 0V1920" stroke="#00D9EE" stroke-miterlimit="10"/>
<path d="M1840.32 0V1920" stroke="#00D9EE" stroke-miterlimit="10"/>
<path d="M0 1833.21H1920" stroke="#00D9EE" stroke-miterlimit="10"/>
<path d="M0 1750.04H1920" stroke="#00D9EE" stroke-miterlimit="10"/>
<path d="M0 1666.87H1920" stroke="#00D9EE" stroke-miterlimit="10"/>
<path d="M0 1583.73H1920" stroke="#00D9EE" stroke-miterlimit="10"/>
<path d="M0 1500.55H1920" stroke="#00D9EE" stroke-miterlimit="10"/>
<path d="M0 1417.38H1920" stroke="#00D9EE" stroke-miterlimit="10"/>
<path d="M0 1334.24H1920" stroke="#00D9EE" stroke-miterlimit="10"/>
<path d="M0 1251.07H1920" stroke="#00D9EE" stroke-miterlimit="10"/>
<path d="M0 1167.9H1920" stroke="#00D9EE" stroke-miterlimit="10"/>
<path d="M0 1084.76H1920" stroke="#00D9EE" stroke-miterlimit="10"/>
<path d="M0 1001.59H1920" stroke="#00D9EE" stroke-miterlimit="10"/>
<path d="M0 918.406H1920" stroke="#00D9EE" stroke-miterlimit="10"/>
<path d="M0 835.273H1920" stroke="#00D9EE" stroke-miterlimit="10"/>
<path d="M0 752.102H1920" stroke="#00D9EE" stroke-miterlimit="10"/>
<path d="M0 668.922H1920" stroke="#00D9EE" stroke-miterlimit="10"/>
<path d="M0 585.75H1920" stroke="#00D9EE" stroke-miterlimit="10"/>
<path d="M0 502.617H1920" stroke="#00D9EE" stroke-miterlimit="10"/>
<path d="M0 419.438H1920" stroke="#00D9EE" stroke-miterlimit="10"/>
<path d="M0 336.266H1920" stroke="#00D9EE" stroke-miterlimit="10"/>
<path d="M0 253.133H1920" stroke="#00D9EE" stroke-miterlimit="10"/>
<path d="M0 169.953H1920" stroke="#00D9EE" stroke-miterlimit="10"/>
<path d="M0 86.7812H1920" stroke="#00D9EE" stroke-miterlimit="10"/>
</g>
</g>
<defs>
<clipPath id="clip0_606_50027">
<rect width="1920" height="1920" fill="white"/>
</clipPath>
</defs>
</svg>
