<svg width="1916" height="498" viewBox="0 0 1916 498" fill="none" xmlns="http://www.w3.org/2000/svg">
<path d="M1915.38 2.17141L1906.27 11.2814L1906.27 93.0014L1896.03 103.251L1896.03 463.431L1876.15 483.311L1841.72 483.311L1827.34 497.691L1825.63 497.691L1841.22 482.101L1875.65 482.101L1894.81 462.931L1894.81 102.751L1905.06 92.5014L1905.06 10.7814L1915.38 0.461391L1915.38 2.17141Z" fill="black"/>
<path d="M-2.16599e-05 2.17142L9.10998 11.2814L9.10998 93.0014L19.35 103.251L19.35 463.431L39.23 483.311L73.66 483.311L88.04 497.691L89.75 497.691L74.16 482.101L39.73 482.101L20.56 462.931L20.56 102.751L10.32 92.5014L10.32 10.7814L-2.17346e-05 0.461395L-2.16599e-05 2.17142Z" fill="black"/>
</svg>
