<svg width="1009" height="298" viewBox="0 0 1009 298" fill="none" xmlns="http://www.w3.org/2000/svg">
<path d="M508.393 296.087L508.393 108" stroke="black" stroke-width="2" stroke-linecap="round" stroke-linejoin="round" stroke-dasharray="34 34"/>
<path d="M396.674 93.9844L387.706 78.2846L452.11 78.2846L461.078 93.9844L396.674 93.9844Z" fill="black"/>
<path d="M467.976 93.9844L459.007 78.2846L463.946 78.2846L472.914 93.9844L467.976 93.9844Z" fill="black"/>
<path d="M478.464 93.9844L469.496 78.2846L474.434 78.2846L483.402 93.9844L478.464 93.9844Z" fill="black"/>
<path d="M546.832 93.9844L555.801 78.2846L550.862 78.2846L541.894 93.9844L546.832 93.9844Z" fill="black"/>
<path d="M536.338 93.9844L545.307 78.2846L540.368 78.2846L531.4 93.9844L536.338 93.9844Z" fill="black"/>
<path d="M618.131 93.9844L627.1 78.2846L562.696 78.2846L553.727 93.9844L618.131 93.9844Z" fill="black"/>
<path d="M507.596 78.2846L498.628 78.2846L507.596 93.9844L516.564 78.2846L507.596 78.2846Z" fill="black"/>
<path d="M3.89118 5.00009L75.8932 79.0347L451.471 79.4824M1005.11 4.5L932.619 79.0347L563.852 79.4824" stroke="black" stroke-width="2" stroke-linecap="round" stroke-linejoin="round"/>
<ellipse cx="1005.11" cy="4" rx="3.892" ry="4" transform="rotate(-180 1005.11 4)" fill="black"/>
<ellipse cx="3.89316" cy="4" rx="3.892" ry="4" transform="rotate(-180 3.89316 4)" fill="black"/>
</svg>
