<svg  viewBox="0 0 1920 211" fill="none" xmlns="http://www.w3.org/2000/svg">
<g clip-path="url(#clip0_640_91959)">
<path d="M997.561 0L1022.93 25.4438H1405.5L1443.07 63.1168H1920V66.8021H1441.55L1403.98 29.1291H1021.41L992.363 0H997.561Z" fill="black"/>
<path d="M1459.71 147.729C1459.71 155.092 1465.69 161.086 1473.03 161.086C1479.75 161.086 1485.31 156.069 1486.21 149.571H1690.37L1751.3 210.672H1920.01V206.987H1752.82L1691.89 145.886H1486.22C1485.32 139.395 1479.76 134.371 1473.04 134.371C1465.7 134.371 1459.72 140.365 1459.72 147.729H1459.71ZM1463.39 147.729C1463.39 142.396 1467.71 138.056 1473.03 138.056C1478.35 138.056 1482.68 142.396 1482.68 147.729C1482.68 153.061 1478.35 157.401 1473.03 157.401C1467.71 157.401 1463.39 153.061 1463.39 147.729Z" fill="black"/>
<path d="M922.44 0L897.068 25.4438H514.508L476.932 63.1168H0V66.8021H478.455L516.023 29.1291H898.59L927.637 0H922.44Z" fill="black"/>
<path d="M446.97 134.371C440.25 134.371 434.693 139.388 433.793 145.886H228.12L167.19 206.987H0V210.672H168.712L229.643 149.571H433.8C434.7 156.062 440.257 161.086 446.977 161.086C454.32 161.086 460.297 155.092 460.297 147.729C460.297 140.365 454.32 134.371 446.977 134.371H446.97ZM446.97 157.393C441.653 157.393 437.325 153.053 437.325 147.721C437.325 142.389 441.653 138.049 446.97 138.049C452.288 138.049 456.615 142.389 456.615 147.721C456.615 153.053 452.288 157.393 446.97 157.393Z" fill="black"/>
</g>
<defs>
<clipPath id="clip0_640_91959">
<rect width="1920" height="211" fill="white"/>
</clipPath>
</defs>
</svg>
